G04*
G04 #@! TF.GenerationSoftware,Altium Limited,Altium Designer,20.2.5 (213)*
G04*
G04 Layer_Physical_Order=2*
G04 Layer_Color=36540*
%FSLAX25Y25*%
%MOIN*%
G70*
G04*
G04 #@! TF.SameCoordinates,36CD812C-5D22-435A-9ACA-62E3915E2B62*
G04*
G04*
G04 #@! TF.FilePolarity,Positive*
G04*
G01*
G75*
%ADD14C,0.01000*%
%ADD68C,0.05906*%
%ADD69R,0.05906X0.05906*%
%ADD70C,0.06000*%
%ADD71R,0.06299X0.07874*%
%ADD73C,0.08000*%
%ADD75O,0.07874X0.05906*%
%ADD79R,0.05906X0.05906*%
%ADD80C,0.02362*%
%ADD81C,0.03150*%
G36*
X7874Y215618D02*
X41726D01*
X41801Y215118D01*
X40322Y214669D01*
X38885Y213901D01*
X37625Y212867D01*
X36591Y211607D01*
X35823Y210170D01*
X35371Y208680D01*
X35149Y208551D01*
X34832Y208458D01*
X34514Y208670D01*
X33858Y208801D01*
X33202Y208670D01*
X32646Y208299D01*
X32275Y207743D01*
X32144Y207087D01*
X32275Y206431D01*
X32646Y205875D01*
X33202Y205503D01*
X33858Y205373D01*
X34514Y205503D01*
X34814Y205703D01*
X35341Y205454D01*
X35350Y205366D01*
X35823Y203806D01*
X36591Y202369D01*
X37418Y201361D01*
X37222Y200813D01*
X37139Y200796D01*
X36583Y200425D01*
X36212Y199869D01*
X36081Y199213D01*
X36212Y198557D01*
X36583Y198001D01*
X37139Y197629D01*
X37795Y197499D01*
X38451Y197629D01*
X39007Y198001D01*
X39379Y198557D01*
X39503Y199178D01*
X39536Y199253D01*
X39918Y199523D01*
X40322Y199307D01*
X41882Y198834D01*
X43504Y198674D01*
X45126Y198834D01*
X46686Y199307D01*
X48123Y200075D01*
X49383Y201109D01*
X50417Y202369D01*
X51185Y203806D01*
X51658Y205366D01*
X51818Y206988D01*
X51658Y208610D01*
X51185Y210170D01*
X50417Y211607D01*
X49383Y212867D01*
X48123Y213901D01*
X46686Y214669D01*
X45207Y215118D01*
X45281Y215618D01*
X184935D01*
X185009Y215118D01*
X183531Y214669D01*
X182094Y213901D01*
X180834Y212867D01*
X179800Y211607D01*
X179031Y210170D01*
X178558Y208610D01*
X178399Y206988D01*
X178558Y205366D01*
X179031Y203806D01*
X179800Y202369D01*
X180834Y201109D01*
X182094Y200075D01*
X183531Y199307D01*
X185091Y198834D01*
X186713Y198674D01*
X188335Y198834D01*
X189894Y199307D01*
X191332Y200075D01*
X192592Y201109D01*
X193625Y202369D01*
X194394Y203806D01*
X194867Y205366D01*
X195027Y206988D01*
X194867Y208610D01*
X194394Y210170D01*
X193625Y211607D01*
X192592Y212867D01*
X191332Y213901D01*
X189894Y214669D01*
X188416Y215118D01*
X188490Y215618D01*
X208233D01*
X208712Y215618D01*
X208712Y215618D01*
X208712Y215618D01*
Y215618D01*
X209205Y215571D01*
X210064Y215486D01*
X211358Y215093D01*
X212551Y214456D01*
X213597Y213597D01*
X214456Y212551D01*
X215093Y211358D01*
X215486Y210064D01*
X215618Y208724D01*
X215618Y208723D01*
X215618Y8345D01*
X215601Y7846D01*
D01*
X215593Y7355D01*
X215492Y6330D01*
X215109Y5068D01*
X214487Y3904D01*
X213650Y2885D01*
X212631Y2048D01*
X211468Y1426D01*
X210205Y1043D01*
X209096Y934D01*
X209096Y934D01*
X208762Y1052D01*
X208566Y1550D01*
X208670Y1706D01*
X208801Y2362D01*
X208670Y3018D01*
X208299Y3574D01*
X207743Y3946D01*
X207087Y4076D01*
X206431Y3946D01*
X205875Y3574D01*
X205503Y3018D01*
X205373Y2362D01*
X205503Y1706D01*
X205696Y1418D01*
X205429Y918D01*
X200871D01*
X200603Y1418D01*
X200796Y1706D01*
X200927Y2362D01*
X200796Y3018D01*
X200425Y3574D01*
X199869Y3946D01*
X199213Y4076D01*
X198557Y3946D01*
X198001Y3574D01*
X197629Y3018D01*
X197499Y2362D01*
X197629Y1706D01*
X197822Y1418D01*
X197555Y918D01*
X192997D01*
X192729Y1418D01*
X192922Y1706D01*
X193053Y2362D01*
X192922Y3018D01*
X192551Y3574D01*
X191995Y3946D01*
X191339Y4076D01*
X190683Y3946D01*
X190127Y3574D01*
X189755Y3018D01*
X189625Y2362D01*
X189755Y1706D01*
X189948Y1418D01*
X189681Y918D01*
X185123D01*
X184855Y1418D01*
X185048Y1706D01*
X185179Y2362D01*
X185048Y3018D01*
X184677Y3574D01*
X184121Y3946D01*
X183465Y4076D01*
X182809Y3946D01*
X182253Y3574D01*
X181881Y3018D01*
X181751Y2362D01*
X181881Y1706D01*
X182074Y1418D01*
X181807Y918D01*
X177249D01*
X176981Y1418D01*
X177174Y1706D01*
X177305Y2362D01*
X177174Y3018D01*
X176803Y3574D01*
X176247Y3946D01*
X175591Y4076D01*
X174935Y3946D01*
X174379Y3574D01*
X174007Y3018D01*
X173877Y2362D01*
X174007Y1706D01*
X174200Y1418D01*
X173933Y918D01*
X169375D01*
X169107Y1418D01*
X169300Y1706D01*
X169431Y2362D01*
X169300Y3018D01*
X168929Y3574D01*
X168373Y3946D01*
X167717Y4076D01*
X167061Y3946D01*
X166505Y3574D01*
X166133Y3018D01*
X166003Y2362D01*
X166133Y1706D01*
X166326Y1418D01*
X166059Y918D01*
X161501D01*
X161233Y1418D01*
X161426Y1706D01*
X161557Y2362D01*
X161426Y3018D01*
X161055Y3574D01*
X160499Y3946D01*
X159843Y4076D01*
X159187Y3946D01*
X158631Y3574D01*
X158259Y3018D01*
X158129Y2362D01*
X158259Y1706D01*
X158452Y1418D01*
X158185Y918D01*
X153627D01*
X153359Y1418D01*
X153552Y1706D01*
X153683Y2362D01*
X153552Y3018D01*
X153181Y3574D01*
X152625Y3946D01*
X151969Y4076D01*
X151313Y3946D01*
X150757Y3574D01*
X150385Y3018D01*
X150255Y2362D01*
X150385Y1706D01*
X150578Y1418D01*
X150311Y918D01*
X145753D01*
X145485Y1418D01*
X145678Y1706D01*
X145809Y2362D01*
X145678Y3018D01*
X145307Y3574D01*
X144750Y3946D01*
X144095Y4076D01*
X143439Y3946D01*
X142883Y3574D01*
X142511Y3018D01*
X142381Y2362D01*
X142511Y1706D01*
X142704Y1418D01*
X142437Y918D01*
X137879D01*
X137611Y1418D01*
X137804Y1706D01*
X137935Y2362D01*
X137804Y3018D01*
X137433Y3574D01*
X136876Y3946D01*
X136221Y4076D01*
X135565Y3946D01*
X135009Y3574D01*
X134637Y3018D01*
X134507Y2362D01*
X134637Y1706D01*
X134830Y1418D01*
X134563Y918D01*
X130005D01*
X129737Y1418D01*
X129930Y1706D01*
X130061Y2362D01*
X129930Y3018D01*
X129559Y3574D01*
X129002Y3946D01*
X128347Y4076D01*
X127691Y3946D01*
X127135Y3574D01*
X126763Y3018D01*
X126632Y2362D01*
X126763Y1706D01*
X126956Y1418D01*
X126689Y918D01*
X122131D01*
X121863Y1418D01*
X122056Y1706D01*
X122187Y2362D01*
X122056Y3018D01*
X121685Y3574D01*
X121128Y3946D01*
X120473Y4076D01*
X119817Y3946D01*
X119261Y3574D01*
X118889Y3018D01*
X118758Y2362D01*
X118889Y1706D01*
X119082Y1418D01*
X118815Y918D01*
X114256D01*
X113989Y1418D01*
X114182Y1706D01*
X114313Y2362D01*
X114182Y3018D01*
X113811Y3574D01*
X113254Y3946D01*
X112599Y4076D01*
X111943Y3946D01*
X111387Y3574D01*
X111015Y3018D01*
X110884Y2362D01*
X111015Y1706D01*
X111208Y1418D01*
X110941Y918D01*
X67012D01*
X66745Y1418D01*
X66938Y1706D01*
X67068Y2362D01*
X66938Y3018D01*
X66566Y3574D01*
X66010Y3946D01*
X65354Y4076D01*
X64698Y3946D01*
X64142Y3574D01*
X63771Y3018D01*
X63640Y2362D01*
X63771Y1706D01*
X63964Y1418D01*
X63696Y918D01*
X59138D01*
X58871Y1418D01*
X59064Y1706D01*
X59194Y2362D01*
X59064Y3018D01*
X58692Y3574D01*
X58136Y3946D01*
X57480Y4076D01*
X56824Y3946D01*
X56268Y3574D01*
X55897Y3018D01*
X55766Y2362D01*
X55897Y1706D01*
X56090Y1418D01*
X55822Y918D01*
X51264D01*
X50997Y1418D01*
X51190Y1706D01*
X51320Y2362D01*
X51190Y3018D01*
X50818Y3574D01*
X50262Y3946D01*
X49606Y4076D01*
X48950Y3946D01*
X48394Y3574D01*
X48023Y3018D01*
X47892Y2362D01*
X48023Y1706D01*
X48216Y1418D01*
X47949Y918D01*
X43390D01*
X43123Y1418D01*
X43316Y1706D01*
X43446Y2362D01*
X43316Y3018D01*
X42944Y3574D01*
X42388Y3946D01*
X41732Y4076D01*
X41076Y3946D01*
X40520Y3574D01*
X40149Y3018D01*
X40018Y2362D01*
X40149Y1706D01*
X40342Y1418D01*
X40075Y918D01*
X27642D01*
X27375Y1418D01*
X27568Y1706D01*
X27698Y2362D01*
X27568Y3018D01*
X27196Y3574D01*
X26640Y3946D01*
X25984Y4076D01*
X25328Y3946D01*
X24772Y3574D01*
X24401Y3018D01*
X24270Y2362D01*
X24401Y1706D01*
X24594Y1418D01*
X24326Y918D01*
X19768D01*
X19501Y1418D01*
X19694Y1706D01*
X19824Y2362D01*
X19694Y3018D01*
X19322Y3574D01*
X18766Y3946D01*
X18110Y4076D01*
X17454Y3946D01*
X16898Y3574D01*
X16527Y3018D01*
X16396Y2362D01*
X16527Y1706D01*
X16720Y1418D01*
X16452Y918D01*
X11894D01*
X11627Y1418D01*
X11820Y1706D01*
X11950Y2362D01*
X11820Y3018D01*
X11448Y3574D01*
X10892Y3946D01*
X10236Y4076D01*
X9580Y3946D01*
X9024Y3574D01*
X8653Y3018D01*
X8522Y2362D01*
X8653Y1706D01*
X8846Y1418D01*
X8578Y918D01*
X7874D01*
X7870Y917D01*
X6517Y1050D01*
X5212Y1446D01*
X4009Y2089D01*
X2954Y2954D01*
X2089Y4009D01*
X1446Y5212D01*
X1050Y6517D01*
X917Y7870D01*
X918Y7874D01*
Y16452D01*
X1418Y16720D01*
X1706Y16527D01*
X2362Y16396D01*
X3018Y16527D01*
X3574Y16898D01*
X3946Y17454D01*
X4076Y18110D01*
X3946Y18766D01*
X3574Y19322D01*
X3018Y19694D01*
X2362Y19824D01*
X1706Y19694D01*
X1418Y19501D01*
X918Y19768D01*
Y32200D01*
X1418Y32468D01*
X1706Y32275D01*
X2362Y32144D01*
X3018Y32275D01*
X3574Y32646D01*
X3946Y33202D01*
X4076Y33858D01*
X3946Y34514D01*
X3574Y35070D01*
X3018Y35442D01*
X2362Y35572D01*
X1706Y35442D01*
X1418Y35249D01*
X918Y35516D01*
X918Y47949D01*
X1418Y48216D01*
X1706Y48023D01*
X2362Y47892D01*
X3018Y48023D01*
X3574Y48394D01*
X3946Y48950D01*
X4076Y49606D01*
X3946Y50262D01*
X3574Y50818D01*
X3018Y51190D01*
X2362Y51320D01*
X1706Y51190D01*
X1418Y50997D01*
X918Y51264D01*
Y63696D01*
X1418Y63964D01*
X1706Y63771D01*
X2362Y63640D01*
X3018Y63771D01*
X3574Y64142D01*
X3946Y64698D01*
X4076Y65354D01*
X3946Y66010D01*
X3574Y66566D01*
X3018Y66938D01*
X2362Y67068D01*
X1706Y66938D01*
X1418Y66745D01*
X918Y67012D01*
Y79445D01*
X1418Y79712D01*
X1706Y79519D01*
X2362Y79388D01*
X3018Y79519D01*
X3574Y79891D01*
X3946Y80446D01*
X4076Y81103D01*
X3946Y81758D01*
X3574Y82314D01*
X3018Y82686D01*
X2362Y82816D01*
X1706Y82686D01*
X1418Y82493D01*
X918Y82760D01*
Y95193D01*
X1418Y95460D01*
X1706Y95267D01*
X2362Y95136D01*
X3018Y95267D01*
X3574Y95639D01*
X3946Y96195D01*
X4076Y96851D01*
X3946Y97506D01*
X3574Y98062D01*
X3018Y98434D01*
X2362Y98564D01*
X1706Y98434D01*
X1418Y98241D01*
X918Y98508D01*
X918Y110941D01*
X1418Y111208D01*
X1706Y111015D01*
X2362Y110884D01*
X3018Y111015D01*
X3574Y111387D01*
X3946Y111943D01*
X4076Y112599D01*
X3946Y113254D01*
X3574Y113811D01*
X3018Y114182D01*
X2362Y114313D01*
X1706Y114182D01*
X1418Y113989D01*
X918Y114256D01*
Y126689D01*
X1418Y126956D01*
X1706Y126763D01*
X2362Y126632D01*
X3018Y126763D01*
X3574Y127135D01*
X3946Y127691D01*
X4076Y128347D01*
X3946Y129002D01*
X3574Y129559D01*
X3018Y129930D01*
X2362Y130061D01*
X1706Y129930D01*
X1418Y129737D01*
X918Y130005D01*
Y142437D01*
X1418Y142704D01*
X1706Y142511D01*
X2362Y142381D01*
X3018Y142511D01*
X3574Y142883D01*
X3946Y143439D01*
X4076Y144095D01*
X3946Y144750D01*
X3574Y145307D01*
X3018Y145678D01*
X2362Y145809D01*
X1706Y145678D01*
X1418Y145485D01*
X918Y145753D01*
Y158185D01*
X1418Y158452D01*
X1706Y158259D01*
X2362Y158129D01*
X3018Y158259D01*
X3574Y158631D01*
X3946Y159187D01*
X4076Y159843D01*
X3946Y160499D01*
X3574Y161055D01*
X3018Y161426D01*
X2362Y161557D01*
X1706Y161426D01*
X1418Y161233D01*
X918Y161501D01*
Y173933D01*
X1418Y174200D01*
X1706Y174007D01*
X2362Y173877D01*
X3018Y174007D01*
X3574Y174379D01*
X3946Y174935D01*
X4076Y175591D01*
X3946Y176247D01*
X3574Y176803D01*
X3018Y177174D01*
X2362Y177305D01*
X1706Y177174D01*
X1418Y176981D01*
X918Y177249D01*
Y189681D01*
X1418Y189948D01*
X1706Y189755D01*
X2362Y189625D01*
X3018Y189755D01*
X3574Y190127D01*
X3946Y190683D01*
X4076Y191339D01*
X3946Y191995D01*
X3574Y192551D01*
X3018Y192922D01*
X2362Y193053D01*
X1706Y192922D01*
X1418Y192729D01*
X918Y192997D01*
Y205429D01*
X1418Y205696D01*
X1706Y205503D01*
X2362Y205373D01*
X3018Y205503D01*
X3574Y205875D01*
X3946Y206431D01*
X4076Y207087D01*
X3946Y207743D01*
X3574Y208299D01*
X3018Y208670D01*
X2362Y208801D01*
X1706Y208670D01*
X1418Y208477D01*
X1082Y208601D01*
X925Y208750D01*
X1050Y210019D01*
X1446Y211324D01*
X2089Y212527D01*
X2954Y213581D01*
X4009Y214446D01*
X5212Y215089D01*
X6517Y215485D01*
X7870Y215619D01*
X7874Y215618D01*
D02*
G37*
%LPC*%
G36*
X66030Y213687D02*
X62680D01*
Y209550D01*
X66030D01*
Y213687D01*
D02*
G37*
G36*
X62280D02*
X58931D01*
Y209550D01*
X62280D01*
Y213687D01*
D02*
G37*
G36*
X156663Y213677D02*
X155788Y213562D01*
X154973Y213224D01*
X154272Y212686D01*
X153735Y211986D01*
X153397Y211171D01*
X153282Y210295D01*
Y208833D01*
X152782Y208565D01*
X152625Y208670D01*
X151969Y208801D01*
X151313Y208670D01*
X150757Y208299D01*
X150494Y207906D01*
X150013Y208086D01*
X150045Y208327D01*
Y210295D01*
X149930Y211171D01*
X149592Y211986D01*
X149055Y212686D01*
X148354Y213224D01*
X147539Y213562D01*
X146663Y213677D01*
X145788Y213562D01*
X144973Y213224D01*
X144272Y212686D01*
X143735Y211986D01*
X143397Y211171D01*
X143282Y210295D01*
Y208327D01*
X143397Y207452D01*
X143735Y206636D01*
X144272Y205936D01*
X144973Y205398D01*
X145788Y205060D01*
X146663Y204945D01*
X147539Y205060D01*
X148354Y205398D01*
X149055Y205936D01*
X149592Y206636D01*
X149782Y207095D01*
X149848Y207094D01*
X150276Y206980D01*
X150385Y206431D01*
X150757Y205875D01*
X151313Y205503D01*
X151969Y205373D01*
X152625Y205503D01*
X153181Y205875D01*
X153417Y206229D01*
X153972Y206292D01*
X154007Y206281D01*
X154272Y205936D01*
X154973Y205398D01*
X155788Y205060D01*
X156663Y204945D01*
X157539Y205060D01*
X158354Y205398D01*
X159055Y205936D01*
X159592Y206636D01*
X159930Y207452D01*
X160045Y208327D01*
Y210295D01*
X159930Y211171D01*
X159592Y211986D01*
X159055Y212686D01*
X158354Y213224D01*
X157539Y213562D01*
X156663Y213677D01*
D02*
G37*
G36*
X62280Y209150D02*
X58931D01*
Y208741D01*
X58431Y208474D01*
X58136Y208670D01*
X57480Y208801D01*
X56824Y208670D01*
X56268Y208299D01*
X55897Y207743D01*
X55766Y207087D01*
X55897Y206431D01*
X56268Y205875D01*
X56824Y205503D01*
X57480Y205373D01*
X58136Y205503D01*
X58431Y205700D01*
X58931Y205433D01*
Y205013D01*
X62280D01*
Y209150D01*
D02*
G37*
G36*
X207087Y208801D02*
X206431Y208670D01*
X205875Y208299D01*
X205503Y207743D01*
X205373Y207087D01*
X205503Y206431D01*
X205875Y205875D01*
X206431Y205503D01*
X207087Y205373D01*
X207743Y205503D01*
X208299Y205875D01*
X208670Y206431D01*
X208801Y207087D01*
X208670Y207743D01*
X208299Y208299D01*
X207743Y208670D01*
X207087Y208801D01*
D02*
G37*
G36*
X199213D02*
X198557Y208670D01*
X198001Y208299D01*
X197629Y207743D01*
X197499Y207087D01*
X197629Y206431D01*
X198001Y205875D01*
X198557Y205503D01*
X199213Y205373D01*
X199869Y205503D01*
X200425Y205875D01*
X200796Y206431D01*
X200927Y207087D01*
X200796Y207743D01*
X200425Y208299D01*
X199869Y208670D01*
X199213Y208801D01*
D02*
G37*
G36*
X175591D02*
X174935Y208670D01*
X174379Y208299D01*
X174007Y207743D01*
X173877Y207087D01*
X174007Y206431D01*
X174379Y205875D01*
X174935Y205503D01*
X175591Y205373D01*
X176247Y205503D01*
X176803Y205875D01*
X177174Y206431D01*
X177305Y207087D01*
X177174Y207743D01*
X176803Y208299D01*
X176247Y208670D01*
X175591Y208801D01*
D02*
G37*
G36*
X66030Y209150D02*
X62680D01*
Y205013D01*
X66030D01*
Y209150D01*
D02*
G37*
G36*
X132480Y213718D02*
X131554Y213596D01*
X130690Y213238D01*
X129949Y212669D01*
X129380Y211928D01*
X129022Y211064D01*
X128900Y210138D01*
Y208563D01*
X129022Y207636D01*
X129380Y206773D01*
X129949Y206031D01*
X130690Y205462D01*
X131554Y205105D01*
X132480Y204983D01*
X133407Y205105D01*
X134270Y205462D01*
X135012Y206031D01*
X135581Y206773D01*
X135939Y207636D01*
X136061Y208563D01*
Y210138D01*
X135939Y211064D01*
X135581Y211928D01*
X135012Y212669D01*
X134270Y213238D01*
X133407Y213596D01*
X132480Y213718D01*
D02*
G37*
G36*
X122480D02*
X121554Y213596D01*
X120690Y213238D01*
X119949Y212669D01*
X119380Y211928D01*
X119022Y211064D01*
X118900Y210138D01*
Y208563D01*
X119022Y207636D01*
X119380Y206773D01*
X119949Y206031D01*
X120690Y205462D01*
X121554Y205105D01*
X122480Y204983D01*
X123407Y205105D01*
X124270Y205462D01*
X125012Y206031D01*
X125581Y206773D01*
X125939Y207636D01*
X126060Y208563D01*
Y210138D01*
X125939Y211064D01*
X125581Y211928D01*
X125012Y212669D01*
X124270Y213238D01*
X123407Y213596D01*
X122480Y213718D01*
D02*
G37*
G36*
X112480D02*
X111554Y213596D01*
X110690Y213238D01*
X109949Y212669D01*
X109380Y211928D01*
X109022Y211064D01*
X108900Y210138D01*
Y208563D01*
X109022Y207636D01*
X109380Y206773D01*
X109949Y206031D01*
X110690Y205462D01*
X111554Y205105D01*
X112480Y204983D01*
X113407Y205105D01*
X114270Y205462D01*
X115012Y206031D01*
X115581Y206773D01*
X115939Y207636D01*
X116060Y208563D01*
Y210138D01*
X115939Y211064D01*
X115581Y211928D01*
X115012Y212669D01*
X114270Y213238D01*
X113407Y213596D01*
X112480Y213718D01*
D02*
G37*
G36*
X102480D02*
X101554Y213596D01*
X100690Y213238D01*
X99949Y212669D01*
X99380Y211928D01*
X99022Y211064D01*
X98900Y210138D01*
Y208563D01*
X99022Y207636D01*
X99380Y206773D01*
X99949Y206031D01*
X100690Y205462D01*
X101554Y205105D01*
X102480Y204983D01*
X103407Y205105D01*
X104270Y205462D01*
X105012Y206031D01*
X105581Y206773D01*
X105939Y207636D01*
X106061Y208563D01*
Y210138D01*
X105939Y211064D01*
X105581Y211928D01*
X105012Y212669D01*
X104270Y213238D01*
X103407Y213596D01*
X102480Y213718D01*
D02*
G37*
G36*
X92480D02*
X91554Y213596D01*
X90690Y213238D01*
X89949Y212669D01*
X89380Y211928D01*
X89022Y211064D01*
X88900Y210138D01*
Y208563D01*
X89022Y207636D01*
X89380Y206773D01*
X89949Y206031D01*
X90690Y205462D01*
X91554Y205105D01*
X92480Y204983D01*
X93407Y205105D01*
X94270Y205462D01*
X95012Y206031D01*
X95581Y206773D01*
X95938Y207636D01*
X96061Y208563D01*
Y210138D01*
X95938Y211064D01*
X95581Y211928D01*
X95012Y212669D01*
X94270Y213238D01*
X93407Y213596D01*
X92480Y213718D01*
D02*
G37*
G36*
X82480D02*
X81554Y213596D01*
X80690Y213238D01*
X79949Y212669D01*
X79380Y211928D01*
X79022Y211064D01*
X78900Y210138D01*
Y208563D01*
X79022Y207636D01*
X79380Y206773D01*
X79949Y206031D01*
X80690Y205462D01*
X81554Y205105D01*
X82480Y204983D01*
X83407Y205105D01*
X84270Y205462D01*
X85012Y206031D01*
X85581Y206773D01*
X85939Y207636D01*
X86061Y208563D01*
Y210138D01*
X85939Y211064D01*
X85581Y211928D01*
X85012Y212669D01*
X84270Y213238D01*
X83407Y213596D01*
X82480Y213718D01*
D02*
G37*
G36*
X72480D02*
X71554Y213596D01*
X70690Y213238D01*
X69949Y212669D01*
X69380Y211928D01*
X69022Y211064D01*
X68900Y210138D01*
Y208563D01*
X69022Y207636D01*
X69380Y206773D01*
X69949Y206031D01*
X70690Y205462D01*
X71554Y205105D01*
X72480Y204983D01*
X73407Y205105D01*
X74270Y205462D01*
X75012Y206031D01*
X75581Y206773D01*
X75938Y207636D01*
X76060Y208563D01*
Y210138D01*
X75938Y211064D01*
X75581Y211928D01*
X75012Y212669D01*
X74270Y213238D01*
X73407Y213596D01*
X72480Y213718D01*
D02*
G37*
G36*
X170016Y213648D02*
X163311D01*
Y204974D01*
X170016D01*
Y213648D01*
D02*
G37*
G36*
X21910Y209228D02*
X21034Y209113D01*
X20219Y208775D01*
X19518Y208238D01*
X18981Y207537D01*
X18643Y206722D01*
X18528Y205847D01*
X18643Y204971D01*
X18981Y204156D01*
X19518Y203455D01*
X20219Y202918D01*
X21034Y202580D01*
X21910Y202465D01*
X22785Y202580D01*
X23600Y202918D01*
X24301Y203455D01*
X24838Y204156D01*
X25176Y204971D01*
X25291Y205847D01*
X25176Y206722D01*
X24838Y207537D01*
X24301Y208238D01*
X23600Y208775D01*
X22785Y209113D01*
X21910Y209228D01*
D02*
G37*
G36*
X11909D02*
X11034Y209113D01*
X10219Y208775D01*
X9518Y208238D01*
X8981Y207537D01*
X8643Y206722D01*
X8528Y205847D01*
X8643Y204971D01*
X8981Y204156D01*
X9518Y203455D01*
X10219Y202918D01*
X11034Y202580D01*
X11909Y202465D01*
X12785Y202580D01*
X13600Y202918D01*
X14301Y203455D01*
X14838Y204156D01*
X15176Y204971D01*
X15291Y205847D01*
X15176Y206722D01*
X14838Y207537D01*
X14301Y208238D01*
X13600Y208775D01*
X12785Y209113D01*
X11909Y209228D01*
D02*
G37*
G36*
X210108Y202358D02*
X208140D01*
X207264Y202243D01*
X206449Y201905D01*
X205749Y201368D01*
X205211Y200667D01*
X204938Y200007D01*
X204920Y199998D01*
X204847Y199972D01*
X204739Y199947D01*
X204600Y199927D01*
X204431Y199914D01*
X204224Y199909D01*
X204190Y199894D01*
X197824D01*
X197473Y199824D01*
X197175Y199625D01*
X195155Y197606D01*
X181031D01*
X180936Y197735D01*
X180810Y198106D01*
X181111Y198557D01*
X181242Y199213D01*
X181111Y199869D01*
X180740Y200425D01*
X180184Y200796D01*
X179528Y200927D01*
X178872Y200796D01*
X178316Y200425D01*
X177944Y199869D01*
X177814Y199213D01*
X177944Y198557D01*
X178246Y198106D01*
X178120Y197735D01*
X178024Y197606D01*
X173157D01*
X173062Y197735D01*
X172936Y198106D01*
X173237Y198557D01*
X173368Y199213D01*
X173237Y199869D01*
X172866Y200425D01*
X172310Y200796D01*
X171654Y200927D01*
X170998Y200796D01*
X170442Y200425D01*
X170070Y199869D01*
X169940Y199213D01*
X170070Y198557D01*
X170372Y198106D01*
X170246Y197735D01*
X170150Y197606D01*
X165283D01*
X165188Y197735D01*
X165062Y198106D01*
X165363Y198557D01*
X165494Y199213D01*
X165363Y199869D01*
X164992Y200425D01*
X164436Y200796D01*
X163780Y200927D01*
X163124Y200796D01*
X162568Y200425D01*
X162196Y199869D01*
X162066Y199213D01*
X162196Y198557D01*
X162498Y198106D01*
X162372Y197735D01*
X162276Y197606D01*
X157409D01*
X157314Y197735D01*
X157188Y198106D01*
X157489Y198557D01*
X157620Y199213D01*
X157489Y199869D01*
X157118Y200425D01*
X156562Y200796D01*
X155906Y200927D01*
X155250Y200796D01*
X154694Y200425D01*
X154322Y199869D01*
X154192Y199213D01*
X154322Y198557D01*
X154624Y198106D01*
X154498Y197735D01*
X154402Y197606D01*
X149535D01*
X149440Y197735D01*
X149314Y198106D01*
X149615Y198557D01*
X149746Y199213D01*
X149615Y199869D01*
X149244Y200425D01*
X148688Y200796D01*
X148032Y200927D01*
X147376Y200796D01*
X146820Y200425D01*
X146448Y199869D01*
X146318Y199213D01*
X146448Y198557D01*
X146820Y198001D01*
X147376Y197629D01*
X147765Y197552D01*
X147930Y197009D01*
X116413Y165492D01*
X116378Y165479D01*
X116300Y165405D01*
X116233Y165349D01*
X116168Y165301D01*
X116106Y165262D01*
X116048Y165230D01*
X116020Y165218D01*
X115772Y165268D01*
X115116Y165137D01*
X114560Y164766D01*
X114188Y164209D01*
X114058Y163554D01*
X114188Y162898D01*
X114560Y162341D01*
X115116Y161970D01*
X115772Y161839D01*
X116428Y161970D01*
X116984Y162341D01*
X117355Y162898D01*
X117486Y163554D01*
X117437Y163801D01*
X117449Y163829D01*
X117480Y163888D01*
X117519Y163950D01*
X117567Y164015D01*
X117624Y164082D01*
X117698Y164160D01*
X117711Y164195D01*
X149286Y195770D01*
X195535D01*
X195887Y195840D01*
X196184Y196039D01*
X198204Y198059D01*
X204190D01*
X204224Y198044D01*
X204431Y198039D01*
X204600Y198026D01*
X204739Y198006D01*
X204847Y197981D01*
X204920Y197955D01*
X204938Y197945D01*
X205211Y197285D01*
X205749Y196585D01*
X206449Y196048D01*
X207264Y195710D01*
X208140Y195595D01*
X210108D01*
X210983Y195710D01*
X211799Y196048D01*
X212499Y196585D01*
X213037Y197285D01*
X213375Y198101D01*
X213490Y198976D01*
X213375Y199852D01*
X213037Y200667D01*
X212499Y201368D01*
X211799Y201905D01*
X210983Y202243D01*
X210108Y202358D01*
D02*
G37*
G36*
X132284Y200927D02*
X131628Y200796D01*
X131072Y200425D01*
X130700Y199869D01*
X130570Y199213D01*
X130700Y198557D01*
X131072Y198001D01*
X131628Y197629D01*
X132284Y197499D01*
X132940Y197629D01*
X133496Y198001D01*
X133867Y198557D01*
X133998Y199213D01*
X133867Y199869D01*
X133496Y200425D01*
X132940Y200796D01*
X132284Y200927D01*
D02*
G37*
G36*
X53543D02*
X52887Y200796D01*
X52331Y200425D01*
X51960Y199869D01*
X51829Y199213D01*
X51960Y198557D01*
X52331Y198001D01*
X52887Y197629D01*
X53543Y197499D01*
X54199Y197629D01*
X54755Y198001D01*
X55127Y198557D01*
X55257Y199213D01*
X55127Y199869D01*
X54755Y200425D01*
X54199Y200796D01*
X53543Y200927D01*
D02*
G37*
G36*
X122916Y200107D02*
Y196952D01*
X126072D01*
X125983Y197627D01*
X125645Y198443D01*
X125108Y199143D01*
X124407Y199681D01*
X123592Y200018D01*
X122916Y200107D01*
D02*
G37*
G36*
X122517D02*
X121841Y200018D01*
X121026Y199681D01*
X120325Y199143D01*
X119788Y198443D01*
X119450Y197627D01*
X119361Y196952D01*
X122517D01*
Y200107D01*
D02*
G37*
G36*
X102917D02*
Y196952D01*
X106072D01*
X105983Y197627D01*
X105645Y198443D01*
X105108Y199143D01*
X104407Y199681D01*
X103592Y200018D01*
X102917Y200107D01*
D02*
G37*
G36*
X102516D02*
X101841Y200018D01*
X101026Y199681D01*
X100325Y199143D01*
X99788Y198443D01*
X99450Y197627D01*
X99361Y196952D01*
X102516D01*
Y200107D01*
D02*
G37*
G36*
X66069Y200105D02*
X62916D01*
Y196952D01*
X66069D01*
Y200105D01*
D02*
G37*
G36*
X62516D02*
X59364D01*
Y196952D01*
X62516D01*
Y200105D01*
D02*
G37*
G36*
Y196552D02*
X59364D01*
Y193399D01*
X62516D01*
Y196552D01*
D02*
G37*
G36*
X126072D02*
X122916D01*
Y193397D01*
X123592Y193485D01*
X124407Y193823D01*
X125108Y194361D01*
X125645Y195061D01*
X125983Y195877D01*
X126072Y196552D01*
D02*
G37*
G36*
X122517D02*
X119361D01*
X119450Y195877D01*
X119788Y195061D01*
X120325Y194361D01*
X121026Y193823D01*
X121841Y193485D01*
X122517Y193397D01*
Y196552D01*
D02*
G37*
G36*
X106072D02*
X102917D01*
Y193397D01*
X103592Y193485D01*
X104407Y193823D01*
X105108Y194361D01*
X105645Y195061D01*
X105983Y195877D01*
X106072Y196552D01*
D02*
G37*
G36*
X102516D02*
X99361D01*
X99450Y195877D01*
X99788Y195061D01*
X100325Y194361D01*
X101026Y193823D01*
X101841Y193485D01*
X102516Y193397D01*
Y196552D01*
D02*
G37*
G36*
X92716Y200134D02*
X91841Y200018D01*
X91026Y199681D01*
X90325Y199143D01*
X89788Y198443D01*
X89450Y197627D01*
X89335Y196752D01*
X89450Y195877D01*
X89788Y195061D01*
X90325Y194361D01*
X91026Y193823D01*
X91841Y193485D01*
X92716Y193370D01*
X93592Y193485D01*
X94407Y193823D01*
X95108Y194361D01*
X95645Y195061D01*
X95983Y195877D01*
X96098Y196752D01*
X95983Y197627D01*
X95645Y198443D01*
X95108Y199143D01*
X94407Y199681D01*
X93592Y200018D01*
X92716Y200134D01*
D02*
G37*
G36*
X82717D02*
X81841Y200018D01*
X81026Y199681D01*
X80325Y199143D01*
X79788Y198443D01*
X79450Y197627D01*
X79335Y196752D01*
X79450Y195877D01*
X79788Y195061D01*
X80325Y194361D01*
X81026Y193823D01*
X81841Y193485D01*
X82717Y193370D01*
X83592Y193485D01*
X84407Y193823D01*
X85108Y194361D01*
X85645Y195061D01*
X85983Y195877D01*
X86098Y196752D01*
X85983Y197627D01*
X85645Y198443D01*
X85108Y199143D01*
X84407Y199681D01*
X83592Y200018D01*
X82717Y200134D01*
D02*
G37*
G36*
X21910Y199228D02*
X21034Y199113D01*
X20219Y198775D01*
X19518Y198238D01*
X18981Y197537D01*
X18643Y196722D01*
X18528Y195846D01*
X18530Y195833D01*
X18524Y195820D01*
X18521Y195409D01*
X18471Y194677D01*
X18427Y194370D01*
X18369Y194091D01*
X18300Y193845D01*
X18220Y193634D01*
X18132Y193456D01*
X18038Y193312D01*
X17918Y193172D01*
X17908Y193142D01*
X16520Y191754D01*
X10351D01*
X9999Y191684D01*
X9702Y191486D01*
X6868Y188652D01*
X6669Y188354D01*
X6599Y188003D01*
Y152566D01*
X6669Y152215D01*
X6868Y151917D01*
X8941Y149843D01*
X9239Y149644D01*
X9590Y149575D01*
X10842D01*
X10942Y149075D01*
X10219Y148775D01*
X9518Y148238D01*
X8981Y147537D01*
X8643Y146722D01*
X8528Y145846D01*
X8643Y144971D01*
X8981Y144156D01*
X9518Y143455D01*
X10219Y142918D01*
X11034Y142580D01*
X11909Y142465D01*
X12785Y142580D01*
X13600Y142918D01*
X14301Y143455D01*
X14838Y144156D01*
X15176Y144971D01*
X15291Y145846D01*
X15176Y146722D01*
X14838Y147537D01*
X14301Y148238D01*
X13600Y148775D01*
X12877Y149075D01*
X12977Y149575D01*
X16883D01*
X17908Y148550D01*
X17918Y148521D01*
X18038Y148381D01*
X18132Y148237D01*
X18220Y148059D01*
X18300Y147847D01*
X18369Y147602D01*
X18427Y147323D01*
X18471Y147015D01*
X18521Y146284D01*
X18524Y145873D01*
X18530Y145860D01*
X18528Y145846D01*
X18643Y144971D01*
X18981Y144156D01*
X19518Y143455D01*
X20219Y142918D01*
X21034Y142580D01*
X21910Y142465D01*
X22785Y142580D01*
X23600Y142918D01*
X24301Y143455D01*
X24309Y143466D01*
X24322Y143471D01*
X24615Y143760D01*
X25167Y144242D01*
X25416Y144428D01*
X25654Y144584D01*
X25877Y144709D01*
X26083Y144802D01*
X26271Y144865D01*
X26440Y144901D01*
X26623Y144915D01*
X26651Y144929D01*
X30477D01*
X30828Y144999D01*
X31125Y145198D01*
X31942Y146014D01*
X32415Y145780D01*
X32406Y145709D01*
X32521Y144833D01*
X32859Y144018D01*
X33396Y143317D01*
X34097Y142780D01*
X34912Y142442D01*
X35787Y142327D01*
X36663Y142442D01*
X37478Y142780D01*
X38179Y143317D01*
X38716Y144018D01*
X39054Y144833D01*
X39169Y145709D01*
X39054Y146584D01*
X38716Y147399D01*
X38179Y148100D01*
X37478Y148637D01*
X36663Y148975D01*
X36178Y149039D01*
X35924Y149577D01*
X35982Y149671D01*
X63736D01*
X67683Y145724D01*
X67692Y145696D01*
X67842Y145516D01*
X67962Y145319D01*
X68072Y145069D01*
X68169Y144768D01*
X68251Y144415D01*
X68315Y144011D01*
X68359Y143562D01*
X68392Y142500D01*
X68377Y141900D01*
X68388Y141873D01*
X68369Y141732D01*
X68520Y140584D01*
X68668Y140226D01*
X68244Y139943D01*
X63516Y144671D01*
Y145615D01*
X63531Y145649D01*
X63534Y145756D01*
X63542Y145844D01*
X63554Y145924D01*
X63570Y145995D01*
X63589Y146059D01*
X63600Y146087D01*
X63810Y146227D01*
X64182Y146783D01*
X64312Y147439D01*
X64182Y148095D01*
X63810Y148651D01*
X63254Y149023D01*
X62598Y149153D01*
X61942Y149023D01*
X61386Y148651D01*
X61015Y148095D01*
X60884Y147439D01*
X61015Y146783D01*
X61386Y146227D01*
X61597Y146087D01*
X61608Y146059D01*
X61627Y145995D01*
X61643Y145923D01*
X61655Y145844D01*
X61663Y145756D01*
X61666Y145649D01*
X61681Y145615D01*
Y144291D01*
X61751Y143940D01*
X61950Y143642D01*
X79830Y125762D01*
Y101021D01*
X79815Y100987D01*
X79812Y100880D01*
X79805Y100792D01*
X79793Y100713D01*
X79777Y100641D01*
X79757Y100578D01*
X79746Y100549D01*
X79536Y100409D01*
X79164Y99853D01*
X79034Y99197D01*
X79164Y98541D01*
X79536Y97985D01*
X80092Y97613D01*
X80748Y97483D01*
X81404Y97613D01*
X81960Y97985D01*
X82332Y98541D01*
X82462Y99197D01*
X82332Y99853D01*
X81960Y100409D01*
X81750Y100549D01*
X81739Y100577D01*
X81719Y100641D01*
X81703Y100713D01*
X81691Y100792D01*
X81684Y100880D01*
X81681Y100987D01*
X81666Y101021D01*
Y126142D01*
X81596Y126493D01*
X81397Y126791D01*
X71018Y137170D01*
X71301Y137594D01*
X71658Y137445D01*
X72086Y137389D01*
X72154Y137348D01*
X72154Y137348D01*
X72154Y137348D01*
X72813Y137244D01*
X73961Y137025D01*
X74884Y136790D01*
X75252Y136671D01*
X75563Y136550D01*
X75811Y136431D01*
X75995Y136318D01*
X76146Y136193D01*
X76174Y136184D01*
X90906Y121452D01*
X90659Y120991D01*
X90510Y121021D01*
X89854Y120891D01*
X89298Y120519D01*
X88926Y119963D01*
X88796Y119307D01*
X88926Y118651D01*
X89298Y118095D01*
X89508Y117955D01*
X89519Y117926D01*
X89539Y117863D01*
X89555Y117791D01*
X89567Y117712D01*
X89574Y117624D01*
X89577Y117517D01*
X89592Y117483D01*
Y96546D01*
X47774Y54727D01*
X43747D01*
X43555Y55189D01*
X72126Y83760D01*
X72161Y83773D01*
X72239Y83847D01*
X72306Y83903D01*
X72371Y83951D01*
X72433Y83991D01*
X72491Y84022D01*
X72519Y84034D01*
X72767Y83985D01*
X73423Y84115D01*
X73979Y84487D01*
X74351Y85043D01*
X74481Y85699D01*
X74351Y86355D01*
X73979Y86911D01*
X73423Y87282D01*
X72767Y87413D01*
X72111Y87282D01*
X71555Y86911D01*
X71184Y86355D01*
X71053Y85699D01*
X71102Y85451D01*
X71090Y85423D01*
X71059Y85364D01*
X71020Y85302D01*
X70972Y85237D01*
X70915Y85170D01*
X70841Y85092D01*
X70828Y85057D01*
X43940Y58169D01*
X43516Y58452D01*
X43775Y59078D01*
X43926Y60226D01*
X43775Y61375D01*
X43332Y62445D01*
X42626Y63364D01*
X41707Y64070D01*
X40637Y64513D01*
X39488Y64664D01*
X38340Y64513D01*
X37269Y64070D01*
X36350Y63364D01*
X36326Y63333D01*
X35894Y62905D01*
X35090Y62185D01*
X34729Y61902D01*
X34390Y61664D01*
X34075Y61474D01*
X33789Y61330D01*
X33533Y61233D01*
X33310Y61178D01*
X33082Y61158D01*
X33055Y61144D01*
X31988D01*
X25222Y67910D01*
X24924Y68109D01*
X24573Y68178D01*
X23966D01*
X23796Y68678D01*
X24301Y69065D01*
X24838Y69766D01*
X25176Y70581D01*
X25291Y71457D01*
X25176Y72332D01*
X24838Y73147D01*
X24301Y73848D01*
X23600Y74385D01*
X22785Y74723D01*
X21910Y74838D01*
X21034Y74723D01*
X20219Y74385D01*
X19518Y73848D01*
X18981Y73147D01*
X18643Y72332D01*
X18528Y71457D01*
X18643Y70581D01*
X18981Y69766D01*
X19518Y69065D01*
X20023Y68678D01*
X19853Y68178D01*
X18967D01*
X16680Y70465D01*
Y83052D01*
X16610Y83404D01*
X16411Y83701D01*
X12880Y87232D01*
X12886Y87263D01*
X12941Y87446D01*
X13019Y87632D01*
X13122Y87822D01*
X13252Y88017D01*
X13409Y88217D01*
X13593Y88419D01*
X13807Y88624D01*
X14057Y88839D01*
X14064Y88855D01*
X14081Y88861D01*
X14102Y88913D01*
X14301Y89065D01*
X14838Y89766D01*
X15176Y90581D01*
X15291Y91457D01*
X15176Y92332D01*
X14838Y93147D01*
X14301Y93848D01*
X14084Y94014D01*
X14062Y94067D01*
X14044Y94074D01*
X14035Y94091D01*
X13789Y94300D01*
X13580Y94499D01*
X13399Y94696D01*
X13244Y94891D01*
X13117Y95082D01*
X13016Y95269D01*
X12939Y95453D01*
X12885Y95634D01*
X12854Y95813D01*
X12842Y96017D01*
X12808Y96086D01*
X12757Y96343D01*
X12558Y96641D01*
X11586Y97613D01*
X11819Y98087D01*
X11909Y98075D01*
X11923Y98077D01*
X11936Y98071D01*
X12347Y98068D01*
X13079Y98018D01*
X13386Y97974D01*
X13665Y97916D01*
X13910Y97847D01*
X14122Y97767D01*
X14300Y97679D01*
X14444Y97585D01*
X14584Y97465D01*
X14614Y97455D01*
X16832Y95236D01*
X17130Y95037D01*
X17481Y94967D01*
X20317D01*
X20416Y94467D01*
X20219Y94385D01*
X19518Y93848D01*
X18981Y93147D01*
X18643Y92332D01*
X18528Y91457D01*
X18643Y90581D01*
X18981Y89766D01*
X19518Y89065D01*
X20219Y88528D01*
X21034Y88190D01*
X21910Y88075D01*
X22785Y88190D01*
X23600Y88528D01*
X24301Y89065D01*
X24838Y89766D01*
X25176Y90581D01*
X25291Y91457D01*
X25176Y92332D01*
X25027Y92692D01*
X25451Y92975D01*
X30076Y88350D01*
Y81979D01*
X30146Y81628D01*
X30345Y81330D01*
X34291Y77384D01*
X34299Y77356D01*
X34447Y77180D01*
X34566Y76984D01*
X34678Y76733D01*
X34779Y76430D01*
X34866Y76073D01*
X34937Y75674D01*
X35053Y74128D01*
X35055Y73524D01*
X35050Y73484D01*
X35201Y72336D01*
X35645Y71265D01*
X36350Y70346D01*
X37269Y69641D01*
X38340Y69197D01*
X39488Y69046D01*
X40637Y69197D01*
X41707Y69641D01*
X42626Y70346D01*
X43332Y71265D01*
X43724Y72214D01*
X44089Y72308D01*
X44273Y72292D01*
X44457Y72016D01*
X45013Y71645D01*
X45669Y71514D01*
X46325Y71645D01*
X46881Y72016D01*
X47253Y72572D01*
X47383Y73228D01*
X47253Y73884D01*
X46881Y74440D01*
X46325Y74812D01*
X45669Y74942D01*
X45013Y74812D01*
X44457Y74440D01*
X44330Y74249D01*
X43809Y74371D01*
X43775Y74633D01*
X43332Y75703D01*
X42626Y76622D01*
X41707Y77328D01*
X40637Y77771D01*
X39488Y77922D01*
X39449Y77917D01*
X38840Y77920D01*
X37764Y77979D01*
X37308Y78034D01*
X36900Y78106D01*
X36543Y78193D01*
X36239Y78294D01*
X35989Y78406D01*
X35792Y78526D01*
X35617Y78673D01*
X35588Y78682D01*
X31911Y82359D01*
Y88730D01*
X31841Y89081D01*
X31642Y89379D01*
X24487Y96534D01*
X24190Y96733D01*
X23839Y96803D01*
X17861D01*
X15911Y98753D01*
X15901Y98782D01*
X15781Y98922D01*
X15687Y99067D01*
X15599Y99244D01*
X15519Y99456D01*
X15450Y99701D01*
X15392Y99980D01*
X15348Y100288D01*
X15298Y101019D01*
X15295Y101430D01*
X15289Y101444D01*
X15291Y101457D01*
X15289Y101470D01*
X15295Y101483D01*
X15298Y101894D01*
X15348Y102626D01*
X15392Y102933D01*
X15450Y103212D01*
X15519Y103458D01*
X15599Y103669D01*
X15687Y103847D01*
X15781Y103992D01*
X15901Y104131D01*
X15911Y104161D01*
X16142Y104392D01*
X19406D01*
X19576Y103892D01*
X19518Y103848D01*
X18981Y103147D01*
X18643Y102332D01*
X18528Y101457D01*
X18643Y100581D01*
X18981Y99766D01*
X19518Y99066D01*
X20219Y98528D01*
X21034Y98190D01*
X21910Y98075D01*
X22785Y98190D01*
X23600Y98528D01*
X24301Y99066D01*
X24838Y99766D01*
X25176Y100581D01*
X25291Y101457D01*
X25176Y102332D01*
X24838Y103147D01*
X24301Y103848D01*
X24243Y103892D01*
X24413Y104392D01*
X34243D01*
X34413Y103892D01*
X34124Y103671D01*
X33587Y102970D01*
X33249Y102155D01*
X33134Y101279D01*
X33249Y100404D01*
X33587Y99589D01*
X34004Y99045D01*
X33933Y98811D01*
X33786Y98550D01*
X33202Y98434D01*
X32646Y98062D01*
X32275Y97506D01*
X32144Y96851D01*
X32275Y96195D01*
X32646Y95639D01*
X33202Y95267D01*
X33858Y95136D01*
X34514Y95267D01*
X35070Y95639D01*
X35442Y96195D01*
X35572Y96851D01*
X35442Y97506D01*
X35398Y97572D01*
X35548Y97846D01*
X35711Y98004D01*
X36516Y97898D01*
X38484D01*
X39360Y98013D01*
X40088Y98315D01*
X40318Y98132D01*
X40441Y97944D01*
X40149Y97506D01*
X40018Y96851D01*
X40149Y96195D01*
X40520Y95639D01*
X41076Y95267D01*
X41732Y95136D01*
X42388Y95267D01*
X42944Y95639D01*
X43316Y96195D01*
X43446Y96851D01*
X43316Y97506D01*
X42944Y98062D01*
X42388Y98434D01*
X41732Y98564D01*
X41076Y98434D01*
X40835Y98857D01*
X40876Y98888D01*
X41413Y99589D01*
X41751Y100404D01*
X41866Y101279D01*
X41751Y102155D01*
X41413Y102970D01*
X40876Y103671D01*
X40587Y103892D01*
X40757Y104392D01*
X46349D01*
X46519Y103892D01*
X46231Y103671D01*
X45693Y102970D01*
X45356Y102155D01*
X45240Y101279D01*
X45356Y100404D01*
X45693Y99589D01*
X46231Y98888D01*
X46931Y98351D01*
X47747Y98013D01*
X48622Y97898D01*
X50591D01*
X51466Y98013D01*
X52281Y98351D01*
X52982Y98888D01*
X53519Y99589D01*
X53857Y100404D01*
X53972Y101279D01*
X53857Y102155D01*
X53519Y102970D01*
X52982Y103671D01*
X52694Y103892D01*
X52863Y104392D01*
X56124D01*
X56475Y104462D01*
X56773Y104661D01*
X57331Y105219D01*
X57366Y105232D01*
X57444Y105306D01*
X57511Y105363D01*
X57576Y105411D01*
X57638Y105450D01*
X57697Y105481D01*
X57724Y105493D01*
X57972Y105444D01*
X58628Y105575D01*
X59184Y105946D01*
X59556Y106502D01*
X59686Y107158D01*
X59556Y107814D01*
X59372Y108089D01*
X59639Y108589D01*
X60927D01*
X60962Y108574D01*
X61069Y108571D01*
X61156Y108564D01*
X61236Y108552D01*
X61308Y108536D01*
X61371Y108516D01*
X61400Y108505D01*
X61540Y108295D01*
X62096Y107923D01*
X62752Y107793D01*
X63408Y107923D01*
X63964Y108295D01*
X64336Y108851D01*
X64466Y109507D01*
X64336Y110163D01*
X63964Y110719D01*
X63408Y111091D01*
X62752Y111221D01*
X62096Y111091D01*
X61540Y110719D01*
X61400Y110509D01*
X61371Y110498D01*
X61308Y110478D01*
X61236Y110462D01*
X61156Y110450D01*
X61069Y110443D01*
X60962Y110440D01*
X60927Y110424D01*
X58218D01*
X58110Y110924D01*
X58558Y111224D01*
X58930Y111780D01*
X59060Y112436D01*
X58930Y113092D01*
X58558Y113648D01*
X58002Y114020D01*
X57346Y114150D01*
X57098Y114101D01*
X57070Y114113D01*
X57011Y114144D01*
X56950Y114183D01*
X56885Y114231D01*
X56818Y114288D01*
X56740Y114362D01*
X56705Y114375D01*
X52686Y118394D01*
X52388Y118593D01*
X52037Y118663D01*
X34063D01*
X33712Y118593D01*
X33414Y118394D01*
X25048Y110028D01*
X10464D01*
X10112Y109958D01*
X9815Y109759D01*
X5989Y105933D01*
X5790Y105636D01*
X5720Y105285D01*
Y76251D01*
X5707Y76226D01*
X5720Y76182D01*
Y48190D01*
X5790Y47839D01*
X5989Y47541D01*
X6575Y46955D01*
X6872Y46756D01*
X7224Y46686D01*
X33223D01*
X33249Y46673D01*
X33435Y46655D01*
X33640Y46606D01*
X33900Y46517D01*
X34209Y46385D01*
X34553Y46215D01*
X36408Y45091D01*
X36966Y44711D01*
X36966Y44711D01*
X36966Y44711D01*
X37028Y44698D01*
X37269Y44513D01*
X38340Y44069D01*
X39488Y43918D01*
X40049Y43992D01*
X40282Y43519D01*
X35285Y38522D01*
X24413D01*
X24243Y39022D01*
X24301Y39066D01*
X24838Y39766D01*
X25176Y40582D01*
X25291Y41457D01*
X25176Y42332D01*
X24838Y43148D01*
X24301Y43848D01*
X23600Y44385D01*
X22785Y44723D01*
X21910Y44838D01*
X21034Y44723D01*
X20219Y44385D01*
X19518Y43848D01*
X18981Y43148D01*
X18643Y42332D01*
X18528Y41457D01*
X18540Y41367D01*
X18066Y41133D01*
X17094Y42105D01*
X16796Y42305D01*
X16539Y42356D01*
X16470Y42389D01*
X16266Y42401D01*
X16086Y42433D01*
X15905Y42486D01*
X15722Y42563D01*
X15534Y42665D01*
X15343Y42792D01*
X15149Y42946D01*
X14952Y43127D01*
X14753Y43336D01*
X14544Y43583D01*
X14527Y43591D01*
X14520Y43609D01*
X14467Y43631D01*
X14301Y43848D01*
X13600Y44385D01*
X12785Y44723D01*
X11909Y44838D01*
X11034Y44723D01*
X10219Y44385D01*
X9518Y43848D01*
X8981Y43148D01*
X8643Y42332D01*
X8528Y41457D01*
X8643Y40582D01*
X8981Y39766D01*
X9518Y39066D01*
X10219Y38528D01*
X11034Y38190D01*
X11909Y38075D01*
X12785Y38190D01*
X13600Y38528D01*
X14301Y39066D01*
X14467Y39282D01*
X14520Y39304D01*
X14527Y39322D01*
X14544Y39331D01*
X14753Y39577D01*
X14952Y39786D01*
X15149Y39968D01*
X15343Y40122D01*
X15534Y40249D01*
X15722Y40350D01*
X15906Y40427D01*
X16086Y40481D01*
X16117Y40486D01*
X19649Y36955D01*
X19946Y36756D01*
X20298Y36686D01*
X35666D01*
X35933Y36740D01*
X36130Y36526D01*
X36228Y36327D01*
X25038Y25138D01*
X25024Y25135D01*
X25010Y25114D01*
X24987Y25106D01*
X24837Y24977D01*
X24692Y24884D01*
X24522Y24806D01*
X24326Y24744D01*
X24101Y24699D01*
X23847Y24672D01*
X23564Y24667D01*
X23253Y24682D01*
X22914Y24721D01*
X22537Y24784D01*
X22460Y24766D01*
X21910Y24838D01*
X21034Y24723D01*
X20219Y24385D01*
X19518Y23848D01*
X18981Y23147D01*
X18643Y22332D01*
X18528Y21457D01*
X18643Y20582D01*
X18802Y20196D01*
X18443Y19758D01*
X18110Y19824D01*
X17454Y19694D01*
X16898Y19322D01*
X16527Y18766D01*
X16396Y18110D01*
X16527Y17454D01*
X16898Y16898D01*
X17454Y16527D01*
X18110Y16396D01*
X18766Y16527D01*
X19322Y16898D01*
X19694Y17454D01*
X19824Y18110D01*
X19803Y18217D01*
X20122Y18456D01*
X20254Y18513D01*
X21034Y18190D01*
X21910Y18075D01*
X22785Y18190D01*
X23600Y18528D01*
X23887Y18748D01*
X24341Y18466D01*
X24270Y18110D01*
X24401Y17454D01*
X24772Y16898D01*
X25328Y16527D01*
X25984Y16396D01*
X26640Y16527D01*
X27196Y16898D01*
X27568Y17454D01*
X27698Y18110D01*
X27568Y18766D01*
X27196Y19322D01*
X26640Y19694D01*
X25984Y19824D01*
X25351Y19698D01*
X25254Y19763D01*
X24954Y20045D01*
X25176Y20582D01*
X25207Y20819D01*
X25245Y20876D01*
X25414Y21741D01*
X25500Y22106D01*
X25689Y22747D01*
X25784Y23001D01*
X25881Y23220D01*
X25978Y23399D01*
X26069Y23536D01*
X26174Y23658D01*
X26184Y23688D01*
X96869Y94373D01*
X97068Y94671D01*
X97138Y95022D01*
Y113031D01*
X97153Y113063D01*
X97248Y113145D01*
X97748Y112916D01*
Y98710D01*
X97818Y98359D01*
X98017Y98062D01*
X103672Y92406D01*
X103678Y92385D01*
X103731Y91922D01*
X103601Y91267D01*
X103731Y90611D01*
X104103Y90055D01*
X104659Y89683D01*
X105315Y89553D01*
X105971Y89683D01*
X106527Y90055D01*
X106898Y90611D01*
X107029Y91267D01*
X106898Y91923D01*
X106527Y92479D01*
X105971Y92850D01*
X105886Y92867D01*
X105123Y93571D01*
X105090Y93584D01*
X104010Y94663D01*
X104026Y94766D01*
X104591Y95163D01*
X104725Y95136D01*
X105380Y95267D01*
X105937Y95639D01*
X106308Y96195D01*
X106439Y96851D01*
X106308Y97506D01*
X105937Y98062D01*
X105380Y98434D01*
X104725Y98564D01*
X104069Y98434D01*
X103513Y98062D01*
X103141Y97506D01*
X103010Y96851D01*
X103037Y96717D01*
X102640Y96152D01*
X102537Y96136D01*
X99583Y99090D01*
Y104038D01*
X100083Y104305D01*
X100191Y104233D01*
X100847Y104103D01*
X101502Y104233D01*
X102058Y104605D01*
X102430Y105161D01*
X102560Y105817D01*
X102430Y106473D01*
X102058Y107029D01*
X101502Y107401D01*
X100847Y107531D01*
X100191Y107401D01*
X100083Y107329D01*
X99583Y107596D01*
Y126630D01*
X99513Y126981D01*
X99314Y127279D01*
X53529Y173064D01*
X53519Y173094D01*
X53399Y173233D01*
X53305Y173378D01*
X53217Y173555D01*
X53137Y173767D01*
X53068Y174012D01*
X53010Y174291D01*
X52966Y174599D01*
X52916Y175330D01*
X52913Y175741D01*
X52908Y175755D01*
X52909Y175768D01*
X52794Y176643D01*
X52456Y177459D01*
X51919Y178159D01*
X51218Y178696D01*
X50403Y179034D01*
X49528Y179149D01*
X48652Y179034D01*
X47837Y178696D01*
X47136Y178159D01*
X46599Y177459D01*
X46261Y176643D01*
X46146Y175768D01*
X46261Y174892D01*
X46599Y174077D01*
X47136Y173377D01*
X47837Y172839D01*
X48652Y172501D01*
X49528Y172386D01*
X49541Y172388D01*
X49554Y172382D01*
X49965Y172379D01*
X50697Y172329D01*
X51004Y172285D01*
X51283Y172227D01*
X51529Y172158D01*
X51740Y172078D01*
X51918Y171990D01*
X52062Y171896D01*
X52202Y171776D01*
X52232Y171766D01*
X97748Y126250D01*
Y116090D01*
X97248Y115938D01*
X97236Y115956D01*
X96680Y116328D01*
X96024Y116458D01*
X95368Y116328D01*
X94937Y116040D01*
X94515Y116198D01*
X94437Y116262D01*
Y120136D01*
X94367Y120487D01*
X94169Y120785D01*
X77598Y137355D01*
X77593Y137374D01*
X77579Y137383D01*
X77574Y137399D01*
X77414Y137589D01*
X77294Y137790D01*
X77193Y138033D01*
X77112Y138321D01*
X77055Y138656D01*
X77024Y139036D01*
X77020Y139455D01*
X77097Y140447D01*
X77180Y141004D01*
X77160Y141084D01*
X77245Y141732D01*
X77094Y142881D01*
X76651Y143951D01*
X75945Y144870D01*
X75026Y145576D01*
X73956Y146019D01*
X72917Y146156D01*
X72898Y146164D01*
X72837Y146166D01*
X72807Y146170D01*
X72789Y146168D01*
X72275Y146185D01*
X71713Y146220D01*
X70722Y146338D01*
X70313Y146418D01*
X69953Y146511D01*
X69647Y146616D01*
X69397Y146730D01*
X69202Y146848D01*
X69030Y146992D01*
X69002Y147001D01*
X64765Y151237D01*
X64467Y151436D01*
X64116Y151506D01*
X35219D01*
X34868Y151436D01*
X34570Y151237D01*
X30097Y146764D01*
X26651D01*
X26623Y146778D01*
X26440Y146792D01*
X26271Y146827D01*
X26083Y146891D01*
X25877Y146984D01*
X25654Y147109D01*
X25416Y147265D01*
X25167Y147451D01*
X24615Y147933D01*
X24322Y148222D01*
X24309Y148227D01*
X24301Y148238D01*
X23600Y148775D01*
X22785Y149113D01*
X21910Y149228D01*
X21896Y149226D01*
X21883Y149232D01*
X21472Y149235D01*
X20741Y149285D01*
X20433Y149329D01*
X20154Y149387D01*
X19908Y149456D01*
X19697Y149536D01*
X19519Y149624D01*
X19375Y149718D01*
X19235Y149838D01*
X19205Y149848D01*
X17912Y151141D01*
X17615Y151340D01*
X17264Y151410D01*
X9970D01*
X8434Y152946D01*
Y154168D01*
X8934Y154268D01*
X8981Y154156D01*
X9518Y153455D01*
X10219Y152918D01*
X11034Y152580D01*
X11909Y152465D01*
X12785Y152580D01*
X13600Y152918D01*
X14301Y153455D01*
X14838Y154156D01*
X15176Y154971D01*
X15291Y155847D01*
X15176Y156722D01*
X14838Y157537D01*
X14301Y158238D01*
X13600Y158775D01*
X12785Y159113D01*
X11909Y159228D01*
X11034Y159113D01*
X10219Y158775D01*
X9518Y158238D01*
X8981Y157537D01*
X8934Y157425D01*
X8434Y157525D01*
Y164168D01*
X8934Y164268D01*
X8981Y164156D01*
X9518Y163455D01*
X10219Y162918D01*
X11034Y162580D01*
X11909Y162465D01*
X12785Y162580D01*
X13600Y162918D01*
X14301Y163455D01*
X14838Y164156D01*
X15176Y164971D01*
X15291Y165847D01*
X15176Y166722D01*
X14838Y167537D01*
X14301Y168238D01*
X13600Y168775D01*
X12785Y169113D01*
X11909Y169228D01*
X11034Y169113D01*
X10219Y168775D01*
X9518Y168238D01*
X8981Y167537D01*
X8934Y167425D01*
X8434Y167525D01*
Y174168D01*
X8934Y174268D01*
X8981Y174156D01*
X9518Y173455D01*
X10219Y172918D01*
X11034Y172580D01*
X11909Y172465D01*
X12785Y172580D01*
X13600Y172918D01*
X14301Y173455D01*
X14838Y174156D01*
X15176Y174971D01*
X15291Y175847D01*
X15176Y176722D01*
X14838Y177537D01*
X14301Y178238D01*
X13600Y178775D01*
X12785Y179113D01*
X11909Y179228D01*
X11034Y179113D01*
X10219Y178775D01*
X9518Y178238D01*
X8981Y177537D01*
X8934Y177425D01*
X8434Y177525D01*
Y184168D01*
X8934Y184268D01*
X8981Y184156D01*
X9518Y183455D01*
X10219Y182918D01*
X11034Y182580D01*
X11909Y182465D01*
X12785Y182580D01*
X13600Y182918D01*
X14301Y183455D01*
X14838Y184156D01*
X15176Y184971D01*
X15291Y185846D01*
X15176Y186722D01*
X14838Y187537D01*
X14301Y188238D01*
X13600Y188775D01*
X12785Y189113D01*
X11909Y189228D01*
X11034Y189113D01*
X10347Y188828D01*
X10064Y189252D01*
X10731Y189919D01*
X16900D01*
X17251Y189989D01*
X17549Y190188D01*
X19205Y191845D01*
X19235Y191855D01*
X19375Y191975D01*
X19519Y192069D01*
X19697Y192157D01*
X19908Y192237D01*
X20154Y192306D01*
X20433Y192364D01*
X20741Y192408D01*
X21472Y192458D01*
X21883Y192461D01*
X21896Y192466D01*
X21910Y192465D01*
X22785Y192580D01*
X23600Y192918D01*
X24301Y193455D01*
X24838Y194156D01*
X25176Y194971D01*
X25291Y195846D01*
X25176Y196722D01*
X24838Y197537D01*
X24301Y198238D01*
X23600Y198775D01*
X22785Y199113D01*
X21910Y199228D01*
D02*
G37*
G36*
X11909D02*
X11034Y199113D01*
X10219Y198775D01*
X9518Y198238D01*
X8981Y197537D01*
X8643Y196722D01*
X8528Y195846D01*
X8643Y194971D01*
X8981Y194156D01*
X9518Y193455D01*
X10219Y192918D01*
X11034Y192580D01*
X11909Y192465D01*
X12785Y192580D01*
X13600Y192918D01*
X14301Y193455D01*
X14838Y194156D01*
X15176Y194971D01*
X15291Y195846D01*
X15176Y196722D01*
X14838Y197537D01*
X14301Y198238D01*
X13600Y198775D01*
X12785Y199113D01*
X11909Y199228D01*
D02*
G37*
G36*
X191339Y193053D02*
X190683Y192922D01*
X190127Y192551D01*
X189755Y191995D01*
X189625Y191339D01*
X189707Y190926D01*
X189239Y190714D01*
X189212Y190749D01*
X188502Y191294D01*
X187675Y191637D01*
X186787Y191754D01*
X185899Y191637D01*
X185072Y191294D01*
X184362Y190749D01*
X183817Y190039D01*
X183475Y189212D01*
X183358Y188324D01*
X183475Y187437D01*
X183817Y186610D01*
X184362Y185899D01*
X185072Y185354D01*
X185899Y185012D01*
X186787Y184895D01*
X187675Y185012D01*
X188502Y185354D01*
X189212Y185899D01*
X189757Y186610D01*
X190100Y187437D01*
X190216Y188324D01*
X190100Y189212D01*
X189910Y189671D01*
X190313Y190002D01*
X190683Y189755D01*
X191339Y189625D01*
X191995Y189755D01*
X192551Y190127D01*
X192922Y190683D01*
X193053Y191339D01*
X192922Y191995D01*
X192551Y192551D01*
X191995Y192922D01*
X191339Y193053D01*
D02*
G37*
G36*
X199213D02*
X198557Y192922D01*
X198001Y192551D01*
X197629Y191995D01*
X197499Y191339D01*
X197629Y190683D01*
X198001Y190127D01*
X198557Y189755D01*
X199213Y189625D01*
X199869Y189755D01*
X200425Y190127D01*
X200796Y190683D01*
X200927Y191339D01*
X200796Y191995D01*
X200425Y192551D01*
X199869Y192922D01*
X199213Y193053D01*
D02*
G37*
G36*
X136221D02*
X135565Y192922D01*
X135009Y192551D01*
X134637Y191995D01*
X134507Y191339D01*
X134637Y190683D01*
X135009Y190127D01*
X135565Y189755D01*
X136221Y189625D01*
X136876Y189755D01*
X137433Y190127D01*
X137804Y190683D01*
X137935Y191339D01*
X137804Y191995D01*
X137433Y192551D01*
X136876Y192922D01*
X136221Y193053D01*
D02*
G37*
G36*
X120473D02*
X119817Y192922D01*
X119261Y192551D01*
X118889Y191995D01*
X118758Y191339D01*
X118889Y190683D01*
X119261Y190127D01*
X119817Y189755D01*
X120473Y189625D01*
X121128Y189755D01*
X121685Y190127D01*
X122056Y190683D01*
X122187Y191339D01*
X122056Y191995D01*
X121685Y192551D01*
X121128Y192922D01*
X120473Y193053D01*
D02*
G37*
G36*
X108661Y200927D02*
X108006Y200796D01*
X107449Y200425D01*
X107078Y199869D01*
X106948Y199213D01*
X107078Y198557D01*
X107449Y198001D01*
X108006Y197629D01*
X108661Y197499D01*
X108936Y197553D01*
X109385Y197133D01*
X109335Y196752D01*
X109450Y195877D01*
X109788Y195061D01*
X110325Y194361D01*
X111026Y193823D01*
X111841Y193485D01*
X112064Y193456D01*
X112080Y192950D01*
X111943Y192922D01*
X111387Y192551D01*
X111015Y191995D01*
X110884Y191339D01*
X111015Y190683D01*
X111387Y190127D01*
X111943Y189755D01*
X112599Y189625D01*
X113254Y189755D01*
X113811Y190127D01*
X114182Y190683D01*
X114313Y191339D01*
X114182Y191995D01*
X113811Y192551D01*
X113254Y192922D01*
X113211Y192931D01*
X113227Y193438D01*
X113592Y193485D01*
X114407Y193823D01*
X115108Y194361D01*
X115645Y195061D01*
X115983Y195877D01*
X116098Y196752D01*
X115983Y197627D01*
X115645Y198443D01*
X115108Y199143D01*
X114407Y199681D01*
X113592Y200018D01*
X112716Y200134D01*
X111841Y200018D01*
X111026Y199681D01*
X110823Y199525D01*
X110272Y199733D01*
X110245Y199869D01*
X109873Y200425D01*
X109318Y200796D01*
X108661Y200927D01*
D02*
G37*
G36*
X104725Y193053D02*
X104069Y192922D01*
X103513Y192551D01*
X103141Y191995D01*
X103010Y191339D01*
X103141Y190683D01*
X103513Y190127D01*
X104069Y189755D01*
X104725Y189625D01*
X105380Y189755D01*
X105937Y190127D01*
X106308Y190683D01*
X106439Y191339D01*
X106308Y191995D01*
X105937Y192551D01*
X105380Y192922D01*
X104725Y193053D01*
D02*
G37*
G36*
X96851D02*
X96195Y192922D01*
X95639Y192551D01*
X95267Y191995D01*
X95136Y191339D01*
X95267Y190683D01*
X95639Y190127D01*
X96195Y189755D01*
X96851Y189625D01*
X97506Y189755D01*
X98062Y190127D01*
X98434Y190683D01*
X98564Y191339D01*
X98434Y191995D01*
X98062Y192551D01*
X97506Y192922D01*
X96851Y193053D01*
D02*
G37*
G36*
X88977D02*
X88321Y192922D01*
X87765Y192551D01*
X87393Y191995D01*
X87262Y191339D01*
X87393Y190683D01*
X87765Y190127D01*
X88321Y189755D01*
X88977Y189625D01*
X89632Y189755D01*
X90188Y190127D01*
X90560Y190683D01*
X90690Y191339D01*
X90560Y191995D01*
X90188Y192551D01*
X89632Y192922D01*
X88977Y193053D01*
D02*
G37*
G36*
X72716Y200134D02*
X71841Y200018D01*
X71026Y199681D01*
X70325Y199143D01*
X69788Y198443D01*
X69450Y197627D01*
X69335Y196752D01*
X69450Y195877D01*
X69788Y195061D01*
X70325Y194361D01*
X71026Y193823D01*
X71841Y193485D01*
X72462Y193404D01*
X72538Y193071D01*
X72526Y192891D01*
X72016Y192551D01*
X71645Y191995D01*
X71514Y191339D01*
X71645Y190683D01*
X72016Y190127D01*
X72572Y189755D01*
X73228Y189625D01*
X73884Y189755D01*
X74440Y190127D01*
X74812Y190683D01*
X74942Y191339D01*
X74812Y191995D01*
X74440Y192551D01*
X73884Y192922D01*
X73590Y192981D01*
X73592Y193485D01*
X74407Y193823D01*
X75108Y194361D01*
X75645Y195061D01*
X75983Y195877D01*
X76098Y196752D01*
X75983Y197627D01*
X75645Y198443D01*
X75108Y199143D01*
X74407Y199681D01*
X73592Y200018D01*
X72716Y200134D01*
D02*
G37*
G36*
X66069Y196552D02*
X62916D01*
Y193399D01*
X64371D01*
X64669Y192936D01*
X64664Y192899D01*
X64142Y192551D01*
X63771Y191995D01*
X63640Y191339D01*
X63771Y190683D01*
X64142Y190127D01*
X64698Y189755D01*
X65354Y189625D01*
X66010Y189755D01*
X66566Y190127D01*
X66938Y190683D01*
X67068Y191339D01*
X66938Y191995D01*
X66566Y192551D01*
X66045Y192899D01*
X66026Y193047D01*
X66069Y193399D01*
X66069D01*
Y196552D01*
D02*
G37*
G36*
X22109Y189202D02*
Y186047D01*
X25265D01*
X25176Y186722D01*
X24838Y187537D01*
X24301Y188238D01*
X23600Y188775D01*
X22785Y189113D01*
X22109Y189202D01*
D02*
G37*
G36*
X21710D02*
X21034Y189113D01*
X20219Y188775D01*
X19518Y188238D01*
X18981Y187537D01*
X18643Y186722D01*
X18554Y186047D01*
X21710D01*
Y189202D01*
D02*
G37*
G36*
X210108Y192358D02*
X208140D01*
X207264Y192243D01*
X206449Y191905D01*
X205749Y191368D01*
X205211Y190667D01*
X204873Y189852D01*
X204758Y188976D01*
X204873Y188101D01*
X205211Y187285D01*
X205749Y186585D01*
X206449Y186048D01*
X207264Y185710D01*
X208140Y185595D01*
X210108D01*
X210983Y185710D01*
X211799Y186048D01*
X212499Y186585D01*
X213037Y187285D01*
X213375Y188101D01*
X213490Y188976D01*
X213375Y189852D01*
X213037Y190667D01*
X212499Y191368D01*
X211799Y191905D01*
X210983Y192243D01*
X210108Y192358D01*
D02*
G37*
G36*
X25265Y185646D02*
X22109D01*
Y182491D01*
X22785Y182580D01*
X23600Y182918D01*
X24301Y183455D01*
X24838Y184156D01*
X25176Y184971D01*
X25265Y185646D01*
D02*
G37*
G36*
X21710D02*
X18554D01*
X18643Y184971D01*
X18981Y184156D01*
X19518Y183455D01*
X20219Y182918D01*
X21034Y182580D01*
X21710Y182491D01*
Y185646D01*
D02*
G37*
G36*
X195276Y185179D02*
X194620Y185048D01*
X194064Y184677D01*
X193692Y184121D01*
X193562Y183465D01*
X193692Y182809D01*
X194064Y182253D01*
X194620Y181881D01*
X195276Y181751D01*
X195932Y181881D01*
X196488Y182253D01*
X196859Y182809D01*
X196990Y183465D01*
X196859Y184121D01*
X196488Y184677D01*
X195932Y185048D01*
X195276Y185179D01*
D02*
G37*
G36*
X148032D02*
X147376Y185048D01*
X146820Y184677D01*
X146448Y184121D01*
X146318Y183465D01*
X146448Y182809D01*
X146820Y182253D01*
X147376Y181881D01*
X148032Y181751D01*
X148688Y181881D01*
X149244Y182253D01*
X149615Y182809D01*
X149746Y183465D01*
X149615Y184121D01*
X149244Y184677D01*
X148688Y185048D01*
X148032Y185179D01*
D02*
G37*
G36*
X92914D02*
X92258Y185048D01*
X91702Y184677D01*
X91330Y184121D01*
X91199Y183465D01*
X91330Y182809D01*
X91702Y182253D01*
X92258Y181881D01*
X92914Y181751D01*
X93569Y181881D01*
X94125Y182253D01*
X94497Y182809D01*
X94627Y183465D01*
X94497Y184121D01*
X94125Y184677D01*
X93569Y185048D01*
X92914Y185179D01*
D02*
G37*
G36*
X61417D02*
X60761Y185048D01*
X60205Y184677D01*
X59834Y184121D01*
X59703Y183465D01*
X59834Y182809D01*
X60205Y182253D01*
X60761Y181881D01*
X61417Y181751D01*
X62073Y181881D01*
X62629Y182253D01*
X63001Y182809D01*
X63131Y183465D01*
X63001Y184121D01*
X62629Y184677D01*
X62073Y185048D01*
X61417Y185179D01*
D02*
G37*
G36*
X186987Y181728D02*
Y178525D01*
X190190D01*
X190100Y179212D01*
X189757Y180040D01*
X189212Y180750D01*
X188502Y181295D01*
X187675Y181637D01*
X186987Y181728D01*
D02*
G37*
G36*
X186587D02*
X185899Y181637D01*
X185072Y181295D01*
X184362Y180750D01*
X183817Y180040D01*
X183475Y179212D01*
X183384Y178525D01*
X186587D01*
Y181728D01*
D02*
G37*
G36*
X203150Y185179D02*
X202494Y185048D01*
X201938Y184677D01*
X201566Y184121D01*
X201436Y183465D01*
X201566Y182809D01*
X201938Y182253D01*
X202494Y181881D01*
X203150Y181751D01*
X203806Y181881D01*
X204287Y182203D01*
X204579Y182118D01*
X204787Y181989D01*
X204787Y181923D01*
Y175624D01*
X213461D01*
Y182329D01*
X205146Y182329D01*
X205014Y182329D01*
X204914Y182499D01*
X204732Y182806D01*
X204733Y182809D01*
X204864Y183465D01*
X204733Y184121D01*
X204362Y184677D01*
X203806Y185048D01*
X203150Y185179D01*
D02*
G37*
G36*
X186587Y178125D02*
X183384D01*
X183475Y177437D01*
X183817Y176610D01*
X184362Y175900D01*
X185072Y175355D01*
X185899Y175012D01*
X186587Y174922D01*
Y178125D01*
D02*
G37*
G36*
X179631Y193831D02*
X152165D01*
X151814Y193761D01*
X151516Y193562D01*
X134292Y176338D01*
X134093Y176040D01*
X134023Y175689D01*
Y151332D01*
X134008Y151298D01*
X134005Y151191D01*
X133998Y151103D01*
X133986Y151024D01*
X133970Y150952D01*
X133950Y150889D01*
X133939Y150860D01*
X133729Y150720D01*
X133357Y150164D01*
X133227Y149508D01*
X133357Y148852D01*
X133729Y148296D01*
X134285Y147924D01*
X134941Y147794D01*
X135597Y147924D01*
X136153Y148296D01*
X136524Y148852D01*
X136655Y149508D01*
X136524Y150164D01*
X136153Y150720D01*
X135943Y150860D01*
X135932Y150889D01*
X135912Y150952D01*
X135896Y151024D01*
X135884Y151103D01*
X135877Y151191D01*
X135874Y151298D01*
X135859Y151332D01*
Y175309D01*
X152545Y191996D01*
X155459D01*
X155559Y191496D01*
X155072Y191294D01*
X154362Y190749D01*
X153817Y190039D01*
X153474Y189212D01*
X153358Y188324D01*
X153474Y187437D01*
X153817Y186610D01*
X154362Y185899D01*
X154949Y185449D01*
X155000Y185020D01*
X154965Y184858D01*
X154694Y184677D01*
X154322Y184121D01*
X154192Y183465D01*
X154322Y182809D01*
X154694Y182253D01*
X155224Y181899D01*
X155251Y181753D01*
X155255Y181370D01*
X155072Y181295D01*
X154362Y180750D01*
X153817Y180040D01*
X153474Y179212D01*
X153358Y178325D01*
X153474Y177437D01*
X153665Y176979D01*
X153221Y176742D01*
X153181Y176803D01*
X152625Y177174D01*
X151969Y177305D01*
X151313Y177174D01*
X150757Y176803D01*
X150385Y176247D01*
X150255Y175591D01*
X150385Y174935D01*
X150757Y174379D01*
X151313Y174007D01*
X151969Y173877D01*
X152625Y174007D01*
X153181Y174379D01*
X153552Y174935D01*
X153683Y175591D01*
X153582Y176095D01*
X154050Y176306D01*
X154362Y175900D01*
X155072Y175355D01*
X155899Y175012D01*
X156787Y174896D01*
X157675Y175012D01*
X158502Y175355D01*
X159212Y175900D01*
X159269Y175975D01*
X159769Y175805D01*
Y117662D01*
X152490Y110382D01*
X138970D01*
X138936Y110397D01*
X138829Y110400D01*
X138741Y110408D01*
X138662Y110420D01*
X138590Y110436D01*
X138526Y110455D01*
X138498Y110467D01*
X138358Y110677D01*
X137802Y111048D01*
X137146Y111179D01*
X136490Y111048D01*
X135934Y110677D01*
X135562Y110120D01*
X135432Y109465D01*
X135540Y108919D01*
X135157Y108637D01*
X135128Y108625D01*
X117625Y126127D01*
X117327Y126326D01*
X116976Y126396D01*
X109266D01*
X109232Y126411D01*
X109125Y126414D01*
X109037Y126422D01*
X108958Y126434D01*
X108886Y126450D01*
X108823Y126469D01*
X108794Y126480D01*
X108654Y126690D01*
X108098Y127062D01*
X107442Y127192D01*
X106786Y127062D01*
X106230Y126690D01*
X105858Y126134D01*
X105728Y125478D01*
X105858Y124822D01*
X106230Y124266D01*
X106786Y123895D01*
X107442Y123764D01*
X108098Y123895D01*
X108654Y124266D01*
X108794Y124477D01*
X108823Y124488D01*
X108886Y124507D01*
X108958Y124523D01*
X109037Y124535D01*
X109125Y124543D01*
X109232Y124546D01*
X109266Y124561D01*
X110287D01*
X110352Y124064D01*
X109796Y123692D01*
X109424Y123136D01*
X109294Y122480D01*
X109424Y121824D01*
X109796Y121268D01*
X110352Y120897D01*
X111008Y120766D01*
X111664Y120897D01*
X112220Y121268D01*
X112591Y121824D01*
X112722Y122480D01*
X112591Y123136D01*
X112220Y123692D01*
X111664Y124064D01*
X111729Y124561D01*
X116596D01*
X116972Y124185D01*
X116807Y123642D01*
X116671Y123615D01*
X116115Y123243D01*
X115743Y122687D01*
X115613Y122031D01*
X115743Y121376D01*
X116115Y120819D01*
X116336Y120671D01*
X116348Y120643D01*
X116367Y120580D01*
X116383Y120509D01*
X116395Y120430D01*
X116403Y120343D01*
X116406Y120236D01*
X116421Y120202D01*
Y111795D01*
X116491Y111444D01*
X116690Y111146D01*
X124303Y103534D01*
X124270Y103315D01*
X124185Y103234D01*
X123718Y102998D01*
X123244Y103092D01*
X122588Y102962D01*
X122032Y102590D01*
X121660Y102034D01*
X121530Y101378D01*
X121660Y100722D01*
X122032Y100166D01*
X122242Y100025D01*
X122253Y99997D01*
X122273Y99934D01*
X122289Y99862D01*
X122301Y99783D01*
X122308Y99695D01*
X122311Y99588D01*
X122327Y99554D01*
Y94928D01*
X121827Y94660D01*
X121641Y94785D01*
X120985Y94915D01*
X120329Y94785D01*
X119773Y94413D01*
X119401Y93857D01*
X119271Y93201D01*
X119401Y92545D01*
X119673Y92138D01*
X119422Y91821D01*
X119330Y91751D01*
X118706Y91875D01*
X118050Y91745D01*
X117494Y91373D01*
X117122Y90817D01*
X116992Y90161D01*
X117122Y89505D01*
X117494Y88949D01*
X118050Y88578D01*
X118706Y88447D01*
X119362Y88578D01*
X119918Y88949D01*
X120289Y89505D01*
X120420Y90161D01*
X120289Y90817D01*
X120017Y91224D01*
X120268Y91541D01*
X120360Y91611D01*
X120985Y91487D01*
X121641Y91618D01*
X121827Y91742D01*
X122327Y91474D01*
Y50758D01*
X121827Y50606D01*
X121685Y50818D01*
X121128Y51190D01*
X120473Y51320D01*
X119817Y51190D01*
X119261Y50818D01*
X118889Y50262D01*
X118758Y49606D01*
X118889Y48950D01*
X119261Y48394D01*
X119817Y48023D01*
X120473Y47892D01*
X121128Y48023D01*
X121685Y48394D01*
X121827Y48607D01*
X122327Y48455D01*
Y40142D01*
X122396Y39791D01*
X122595Y39493D01*
X130049Y32039D01*
X130062Y32004D01*
X130136Y31926D01*
X130193Y31859D01*
X130241Y31794D01*
X130280Y31732D01*
X130311Y31673D01*
X130324Y31646D01*
X130274Y31398D01*
X130405Y30742D01*
X130776Y30186D01*
X131332Y29814D01*
X131988Y29684D01*
X132644Y29814D01*
X133200Y30186D01*
X133572Y30742D01*
X133702Y31398D01*
X133572Y32054D01*
X133200Y32610D01*
X132644Y32981D01*
X131988Y33112D01*
X131740Y33062D01*
X131712Y33074D01*
X131654Y33106D01*
X131592Y33145D01*
X131527Y33193D01*
X131460Y33249D01*
X131382Y33323D01*
X131347Y33337D01*
X124162Y40522D01*
Y57888D01*
X124625Y58094D01*
X124662Y58087D01*
X124844Y57815D01*
X128091Y54568D01*
X128389Y54369D01*
X128740Y54299D01*
X174029D01*
X174636Y53692D01*
X174649Y53658D01*
X174723Y53580D01*
X174780Y53512D01*
X174828Y53448D01*
X174867Y53386D01*
X174898Y53327D01*
X174910Y53299D01*
X174861Y53051D01*
X174991Y52395D01*
X175363Y51839D01*
X175919Y51468D01*
X176575Y51337D01*
X177231Y51468D01*
X177787Y51839D01*
X178158Y52395D01*
X178289Y53051D01*
X178158Y53707D01*
X177787Y54263D01*
X177231Y54635D01*
X176575Y54765D01*
X176327Y54716D01*
X176299Y54728D01*
X176240Y54759D01*
X176178Y54799D01*
X176114Y54846D01*
X176046Y54903D01*
X175968Y54977D01*
X175934Y54990D01*
X175058Y55865D01*
X174761Y56064D01*
X174409Y56134D01*
X141881D01*
X141614Y56634D01*
X141741Y56824D01*
X141872Y57480D01*
X141741Y58136D01*
X141370Y58692D01*
X140814Y59064D01*
X140158Y59194D01*
X139502Y59064D01*
X138946Y58692D01*
X138574Y58136D01*
X138444Y57480D01*
X138574Y56824D01*
X138701Y56634D01*
X138434Y56134D01*
X129120D01*
X126410Y58844D01*
Y79263D01*
X126910Y79531D01*
X127017Y79459D01*
X127673Y79328D01*
X128329Y79459D01*
X128885Y79830D01*
X129257Y80386D01*
X129387Y81042D01*
X129257Y81698D01*
X128885Y82254D01*
X128329Y82626D01*
X127673Y82756D01*
X127017Y82626D01*
X126910Y82554D01*
X126410Y82821D01*
Y103641D01*
X126340Y103993D01*
X126141Y104290D01*
X118256Y112175D01*
Y120213D01*
X118271Y120247D01*
X118274Y120354D01*
X118282Y120442D01*
X118294Y120522D01*
X118310Y120594D01*
X118329Y120659D01*
X118340Y120687D01*
X118539Y120819D01*
X118910Y121376D01*
X118938Y121512D01*
X119480Y121677D01*
X204865Y36292D01*
X204873Y36265D01*
X204889Y36257D01*
X204895Y36240D01*
X205036Y36092D01*
X205144Y35966D01*
X205225Y35857D01*
X205280Y35769D01*
X205303Y35718D01*
X205211Y35598D01*
X204873Y34783D01*
X204758Y33907D01*
X204873Y33032D01*
X205211Y32217D01*
X205749Y31516D01*
X206449Y30979D01*
X207264Y30641D01*
X208140Y30526D01*
X210108D01*
X210983Y30641D01*
X211799Y30979D01*
X212499Y31516D01*
X213037Y32217D01*
X213375Y33032D01*
X213490Y33907D01*
X213375Y34783D01*
X213037Y35598D01*
X212499Y36299D01*
X211799Y36836D01*
X210983Y37174D01*
X210108Y37289D01*
X208140D01*
X207264Y37174D01*
X206914Y37029D01*
X206908Y37030D01*
X206856Y37047D01*
X206778Y37085D01*
X206680Y37147D01*
X206565Y37234D01*
X206435Y37346D01*
X206285Y37489D01*
X206250Y37502D01*
X172429Y71324D01*
X172593Y71866D01*
X172720Y71891D01*
X173276Y72263D01*
X173648Y72819D01*
X173778Y73475D01*
X173648Y74131D01*
X173276Y74687D01*
X172720Y75058D01*
X172064Y75189D01*
X171408Y75058D01*
X170852Y74687D01*
X170481Y74131D01*
X170456Y74004D01*
X169913Y73839D01*
X136306Y107447D01*
X136318Y107476D01*
X136600Y107859D01*
X137146Y107750D01*
X137802Y107881D01*
X138358Y108253D01*
X138498Y108463D01*
X138526Y108474D01*
X138590Y108493D01*
X138662Y108509D01*
X138741Y108521D01*
X138829Y108529D01*
X138936Y108532D01*
X138970Y108547D01*
X152870D01*
X153221Y108617D01*
X153519Y108816D01*
X161336Y116633D01*
X161535Y116930D01*
X161605Y117281D01*
Y179722D01*
X165311Y183429D01*
X172809D01*
X173160Y183499D01*
X173458Y183697D01*
X174029Y184268D01*
X174059Y184278D01*
X174199Y184400D01*
X174347Y184495D01*
X174527Y184584D01*
X174743Y184665D01*
X174994Y184735D01*
X175279Y184794D01*
X175593Y184838D01*
X176340Y184889D01*
X176760Y184892D01*
X176773Y184897D01*
X176787Y184895D01*
X177675Y185012D01*
X178502Y185354D01*
X179212Y185899D01*
X179757Y186610D01*
X180099Y187437D01*
X180578Y187343D01*
Y183451D01*
X179523Y182396D01*
X179494Y182386D01*
X179353Y182265D01*
X179207Y182170D01*
X179025Y182080D01*
X178809Y181999D01*
X178558Y181927D01*
X178272Y181867D01*
X177956Y181820D01*
X177206Y181764D01*
X176784Y181758D01*
X176771Y181752D01*
X175899Y181637D01*
X175072Y181295D01*
X174362Y180750D01*
X173817Y180040D01*
X173475Y179212D01*
X173358Y178325D01*
X173475Y177437D01*
X173817Y176610D01*
X174362Y175900D01*
X175072Y175355D01*
X175899Y175012D01*
X176787Y174896D01*
X177675Y175012D01*
X178502Y175355D01*
X179212Y175900D01*
X179757Y176610D01*
X180099Y177437D01*
X180216Y178325D01*
X180212Y178357D01*
X180219Y178373D01*
X180234Y179192D01*
X180263Y179539D01*
X180306Y179856D01*
X180363Y180140D01*
X180432Y180390D01*
X180512Y180605D01*
X180600Y180786D01*
X180696Y180933D01*
X180818Y181075D01*
X180827Y181105D01*
X182145Y182422D01*
X182344Y182720D01*
X182414Y183071D01*
Y191048D01*
X182344Y191399D01*
X182145Y191697D01*
X180280Y193562D01*
X179982Y193761D01*
X179631Y193831D01*
D02*
G37*
G36*
X199213Y177305D02*
X198557Y177174D01*
X198001Y176803D01*
X197629Y176247D01*
X197499Y175591D01*
X197629Y174935D01*
X198001Y174379D01*
X198557Y174007D01*
X199213Y173877D01*
X199869Y174007D01*
X200425Y174379D01*
X200796Y174935D01*
X200927Y175591D01*
X200796Y176247D01*
X200425Y176803D01*
X199869Y177174D01*
X199213Y177305D01*
D02*
G37*
G36*
X190190Y178125D02*
X186987D01*
Y174922D01*
X187675Y175012D01*
X188502Y175355D01*
X189170Y175868D01*
X189320Y175830D01*
X189632Y175626D01*
X189625Y175591D01*
X189755Y174935D01*
X190127Y174379D01*
X190683Y174007D01*
X191339Y173877D01*
X191995Y174007D01*
X192551Y174379D01*
X192922Y174935D01*
X193053Y175591D01*
X192922Y176247D01*
X192551Y176803D01*
X191995Y177174D01*
X191339Y177305D01*
X190683Y177174D01*
X190474Y177035D01*
X190070Y177366D01*
X190100Y177437D01*
X190190Y178125D01*
D02*
G37*
G36*
X73228Y177305D02*
X72572Y177174D01*
X72016Y176803D01*
X71645Y176247D01*
X71514Y175591D01*
X71645Y174935D01*
X72016Y174379D01*
X72572Y174007D01*
X73228Y173877D01*
X73884Y174007D01*
X74440Y174379D01*
X74812Y174935D01*
X74942Y175591D01*
X74812Y176247D01*
X74440Y176803D01*
X73884Y177174D01*
X73228Y177305D01*
D02*
G37*
G36*
X41732D02*
X41076Y177174D01*
X40520Y176803D01*
X40149Y176247D01*
X40018Y175591D01*
X40149Y174935D01*
X40520Y174379D01*
X41076Y174007D01*
X41732Y173877D01*
X42388Y174007D01*
X42944Y174379D01*
X43316Y174935D01*
X43446Y175591D01*
X43316Y176247D01*
X42944Y176803D01*
X42388Y177174D01*
X41732Y177305D01*
D02*
G37*
G36*
X33858D02*
X33202Y177174D01*
X32646Y176803D01*
X32275Y176247D01*
X32144Y175591D01*
X32275Y174935D01*
X32646Y174379D01*
X33202Y174007D01*
X33858Y173877D01*
X34514Y174007D01*
X35070Y174379D01*
X35442Y174935D01*
X35572Y175591D01*
X35442Y176247D01*
X35070Y176803D01*
X34514Y177174D01*
X33858Y177305D01*
D02*
G37*
G36*
X21910Y179228D02*
X21034Y179113D01*
X20219Y178775D01*
X19518Y178238D01*
X18981Y177537D01*
X18643Y176722D01*
X18528Y175847D01*
X18643Y174971D01*
X18981Y174156D01*
X19518Y173455D01*
X20219Y172918D01*
X21034Y172580D01*
X21910Y172465D01*
X22785Y172580D01*
X23600Y172918D01*
X24301Y173455D01*
X24838Y174156D01*
X25176Y174971D01*
X25291Y175847D01*
X25176Y176722D01*
X24838Y177537D01*
X24301Y178238D01*
X23600Y178775D01*
X22785Y179113D01*
X21910Y179228D01*
D02*
G37*
G36*
X211024Y169431D02*
X210368Y169300D01*
X209812Y168929D01*
X209440Y168373D01*
X209310Y167717D01*
X209440Y167061D01*
X209812Y166505D01*
X210368Y166133D01*
X211024Y166003D01*
X211680Y166133D01*
X212236Y166505D01*
X212607Y167061D01*
X212738Y167717D01*
X212607Y168373D01*
X212236Y168929D01*
X211680Y169300D01*
X211024Y169431D01*
D02*
G37*
G36*
X203150D02*
X202494Y169300D01*
X201938Y168929D01*
X201566Y168373D01*
X201436Y167717D01*
X201566Y167061D01*
X201938Y166505D01*
X202494Y166133D01*
X203150Y166003D01*
X203806Y166133D01*
X204362Y166505D01*
X204733Y167061D01*
X204864Y167717D01*
X204733Y168373D01*
X204362Y168929D01*
X203806Y169300D01*
X203150Y169431D01*
D02*
G37*
G36*
X171654D02*
X170998Y169300D01*
X170442Y168929D01*
X170070Y168373D01*
X169940Y167717D01*
X170070Y167061D01*
X170442Y166505D01*
X170998Y166133D01*
X171654Y166003D01*
X172310Y166133D01*
X172866Y166505D01*
X173237Y167061D01*
X173368Y167717D01*
X173237Y168373D01*
X172866Y168929D01*
X172310Y169300D01*
X171654Y169431D01*
D02*
G37*
G36*
X85040D02*
X84383Y169300D01*
X83828Y168929D01*
X83456Y168373D01*
X83325Y167717D01*
X83456Y167061D01*
X83828Y166505D01*
X84383Y166133D01*
X85040Y166003D01*
X85695Y166133D01*
X86251Y166505D01*
X86623Y167061D01*
X86753Y167717D01*
X86623Y168373D01*
X86251Y168929D01*
X85695Y169300D01*
X85040Y169431D01*
D02*
G37*
G36*
X37795D02*
X37139Y169300D01*
X36583Y168929D01*
X36212Y168373D01*
X36081Y167717D01*
X36212Y167061D01*
X36583Y166505D01*
X37139Y166133D01*
X37795Y166003D01*
X38451Y166133D01*
X39007Y166505D01*
X39379Y167061D01*
X39509Y167717D01*
X39379Y168373D01*
X39007Y168929D01*
X38451Y169300D01*
X37795Y169431D01*
D02*
G37*
G36*
X29921D02*
X29265Y169300D01*
X28709Y168929D01*
X28338Y168373D01*
X28207Y167717D01*
X28338Y167061D01*
X28709Y166505D01*
X29265Y166133D01*
X29921Y166003D01*
X30577Y166133D01*
X31133Y166505D01*
X31505Y167061D01*
X31635Y167717D01*
X31505Y168373D01*
X31133Y168929D01*
X30577Y169300D01*
X29921Y169431D01*
D02*
G37*
G36*
X21910Y169228D02*
X21034Y169113D01*
X20219Y168775D01*
X19518Y168238D01*
X18981Y167537D01*
X18643Y166722D01*
X18528Y165847D01*
X18643Y164971D01*
X18981Y164156D01*
X19518Y163455D01*
X20219Y162918D01*
X21034Y162580D01*
X21910Y162465D01*
X22785Y162580D01*
X23600Y162918D01*
X24301Y163455D01*
X24838Y164156D01*
X25176Y164971D01*
X25291Y165847D01*
X25176Y166722D01*
X24838Y167537D01*
X24301Y168238D01*
X23600Y168775D01*
X22785Y169113D01*
X21910Y169228D01*
D02*
G37*
G36*
X49528Y169149D02*
X48652Y169034D01*
X47837Y168696D01*
X47136Y168159D01*
X46599Y167459D01*
X46261Y166643D01*
X46146Y165768D01*
X46261Y164892D01*
X46599Y164077D01*
X47136Y163376D01*
X47837Y162839D01*
X48652Y162501D01*
X49528Y162386D01*
X50403Y162501D01*
X51218Y162839D01*
X51919Y163376D01*
X52456Y164077D01*
X52794Y164892D01*
X52909Y165768D01*
X52794Y166643D01*
X52456Y167459D01*
X51919Y168159D01*
X51218Y168696D01*
X50403Y169034D01*
X49528Y169149D01*
D02*
G37*
G36*
X125394Y164903D02*
X124738Y164772D01*
X124182Y164401D01*
X123810Y163845D01*
X123680Y163189D01*
X123810Y162533D01*
X124182Y161977D01*
X124738Y161605D01*
X125394Y161475D01*
X126050Y161605D01*
X126606Y161977D01*
X126977Y162533D01*
X127108Y163189D01*
X126977Y163845D01*
X126606Y164401D01*
X126050Y164772D01*
X125394Y164903D01*
D02*
G37*
G36*
X207087Y161557D02*
X206431Y161426D01*
X205875Y161055D01*
X205503Y160499D01*
X205373Y159843D01*
X205503Y159187D01*
X205875Y158631D01*
X206431Y158259D01*
X207087Y158129D01*
X207743Y158259D01*
X208299Y158631D01*
X208670Y159187D01*
X208801Y159843D01*
X208670Y160499D01*
X208299Y161055D01*
X207743Y161426D01*
X207087Y161557D01*
D02*
G37*
G36*
X151969D02*
X151313Y161426D01*
X150757Y161055D01*
X150385Y160499D01*
X150255Y159843D01*
X150385Y159187D01*
X150757Y158631D01*
X151313Y158259D01*
X151969Y158129D01*
X152625Y158259D01*
X153181Y158631D01*
X153552Y159187D01*
X153683Y159843D01*
X153552Y160499D01*
X153181Y161055D01*
X152625Y161426D01*
X151969Y161557D01*
D02*
G37*
G36*
X58029Y158308D02*
X57373Y158178D01*
X56817Y157807D01*
X56446Y157250D01*
X56315Y156595D01*
X56446Y155939D01*
X56817Y155383D01*
X57373Y155011D01*
X58029Y154880D01*
X58685Y155011D01*
X59241Y155383D01*
X59613Y155939D01*
X59743Y156595D01*
X59613Y157250D01*
X59241Y157807D01*
X58685Y158178D01*
X58029Y158308D01*
D02*
G37*
G36*
X21910Y159228D02*
X21034Y159113D01*
X20219Y158775D01*
X19518Y158238D01*
X18981Y157537D01*
X18643Y156722D01*
X18528Y155847D01*
X18643Y154971D01*
X18981Y154156D01*
X19518Y153455D01*
X20219Y152918D01*
X21034Y152580D01*
X21910Y152465D01*
X22785Y152580D01*
X23600Y152918D01*
X24301Y153455D01*
X24838Y154156D01*
X25176Y154971D01*
X25291Y155847D01*
X25176Y156722D01*
X24838Y157537D01*
X24301Y158238D01*
X23600Y158775D01*
X22785Y159113D01*
X21910Y159228D01*
D02*
G37*
G36*
X49528Y159149D02*
X48652Y159034D01*
X47837Y158696D01*
X47136Y158159D01*
X46599Y157459D01*
X46261Y156643D01*
X46146Y155768D01*
X46261Y154893D01*
X46599Y154077D01*
X47136Y153376D01*
X47837Y152839D01*
X48652Y152501D01*
X49528Y152386D01*
X50403Y152501D01*
X51218Y152839D01*
X51919Y153376D01*
X52456Y154077D01*
X52794Y154893D01*
X52909Y155768D01*
X52794Y156643D01*
X52456Y157459D01*
X51919Y158159D01*
X51218Y158696D01*
X50403Y159034D01*
X49528Y159149D01*
D02*
G37*
G36*
X35787Y159090D02*
X34912Y158975D01*
X34097Y158637D01*
X33396Y158100D01*
X32859Y157399D01*
X32521Y156584D01*
X32406Y155709D01*
X32521Y154833D01*
X32859Y154018D01*
X33396Y153317D01*
X34097Y152780D01*
X34912Y152442D01*
X35787Y152327D01*
X36663Y152442D01*
X37478Y152780D01*
X38179Y153317D01*
X38716Y154018D01*
X39054Y154833D01*
X39169Y155709D01*
X39054Y156584D01*
X38716Y157399D01*
X38179Y158100D01*
X37478Y158637D01*
X36663Y158975D01*
X35787Y159090D01*
D02*
G37*
G36*
X211024Y153683D02*
X210368Y153552D01*
X209812Y153181D01*
X209440Y152625D01*
X209310Y151969D01*
X209440Y151313D01*
X209812Y150757D01*
X210368Y150385D01*
X211024Y150255D01*
X211680Y150385D01*
X212236Y150757D01*
X212607Y151313D01*
X212738Y151969D01*
X212607Y152625D01*
X212236Y153181D01*
X211680Y153552D01*
X211024Y153683D01*
D02*
G37*
G36*
X171654D02*
X170998Y153552D01*
X170442Y153181D01*
X170070Y152625D01*
X169940Y151969D01*
X170070Y151313D01*
X170442Y150757D01*
X170998Y150385D01*
X171654Y150255D01*
X172310Y150385D01*
X172866Y150757D01*
X173237Y151313D01*
X173368Y151969D01*
X173237Y152625D01*
X172866Y153181D01*
X172310Y153552D01*
X171654Y153683D01*
D02*
G37*
G36*
X84804Y187375D02*
X83656Y187223D01*
X82586Y186780D01*
X81666Y186075D01*
X80961Y185156D01*
X80518Y184085D01*
X80366Y182937D01*
X80518Y181788D01*
X80961Y180718D01*
X81666Y179798D01*
X82586Y179093D01*
X83656Y178650D01*
X84804Y178499D01*
X85436Y178582D01*
X85512Y178561D01*
X86602Y178696D01*
X87067Y178719D01*
X87492Y178714D01*
X87873Y178682D01*
X88208Y178624D01*
X88497Y178543D01*
X88740Y178442D01*
X88941Y178323D01*
X89131Y178162D01*
X89147Y178157D01*
X89155Y178144D01*
X89174Y178139D01*
X115660Y151653D01*
X115495Y151110D01*
X115368Y151085D01*
X114812Y150714D01*
X114441Y150158D01*
X114339Y149646D01*
X113938Y149461D01*
X113829Y149449D01*
X87924Y175354D01*
X87626Y175552D01*
X87275Y175622D01*
X80557D01*
X77166Y179014D01*
X77157Y179042D01*
X77010Y179218D01*
X76891Y179414D01*
X76779Y179664D01*
X76678Y179968D01*
X76590Y180325D01*
X76520Y180724D01*
X76404Y182270D01*
X76401Y182874D01*
X76407Y182913D01*
X76255Y184062D01*
X75812Y185132D01*
X75107Y186051D01*
X74187Y186757D01*
X73117Y187200D01*
X71969Y187351D01*
X70820Y187200D01*
X69749Y186757D01*
X68830Y186051D01*
X68125Y185132D01*
X67682Y184062D01*
X67531Y182913D01*
X67682Y181765D01*
X68125Y180694D01*
X68830Y179775D01*
X69749Y179070D01*
X70820Y178627D01*
X71969Y178475D01*
X72008Y178481D01*
X72616Y178478D01*
X73693Y178419D01*
X74148Y178364D01*
X74557Y178291D01*
X74914Y178204D01*
X75218Y178103D01*
X75468Y177991D01*
X75664Y177872D01*
X75840Y177725D01*
X75868Y177716D01*
X79528Y174056D01*
X79826Y173857D01*
X80177Y173787D01*
X86895D01*
X109452Y151230D01*
X109273Y150846D01*
X109215Y150759D01*
X108579Y150633D01*
X108023Y150261D01*
X107652Y149705D01*
X107521Y149049D01*
X107652Y148393D01*
X108023Y147837D01*
X108579Y147466D01*
X109235Y147335D01*
X109891Y147466D01*
X110447Y147837D01*
X110819Y148393D01*
X110945Y149029D01*
X111031Y149088D01*
X111416Y149266D01*
X122822Y137860D01*
X122657Y137317D01*
X122530Y137292D01*
X121974Y136921D01*
X121603Y136364D01*
X121472Y135709D01*
X121603Y135053D01*
X121974Y134497D01*
X122530Y134125D01*
X123186Y133995D01*
X123842Y134125D01*
X124398Y134497D01*
X124770Y135053D01*
X124795Y135179D01*
X125338Y135344D01*
X136228Y124454D01*
Y118738D01*
X136213Y118704D01*
X136210Y118596D01*
X136202Y118509D01*
X136190Y118429D01*
X136174Y118358D01*
X136155Y118294D01*
X136144Y118266D01*
X135934Y118125D01*
X135562Y117569D01*
X135432Y116913D01*
X135562Y116258D01*
X135934Y115701D01*
X136490Y115330D01*
X137146Y115199D01*
X137802Y115330D01*
X138358Y115701D01*
X138729Y116258D01*
X138860Y116913D01*
X138729Y117569D01*
X138358Y118125D01*
X138147Y118266D01*
X138136Y118294D01*
X138117Y118358D01*
X138101Y118429D01*
X138089Y118509D01*
X138081Y118596D01*
X138078Y118704D01*
X138063Y118738D01*
Y124834D01*
X137993Y125185D01*
X137794Y125483D01*
X115971Y147306D01*
X115983Y147416D01*
X116168Y147816D01*
X116680Y147918D01*
X117236Y148290D01*
X117608Y148846D01*
X117633Y148973D01*
X118175Y149137D01*
X140535Y126778D01*
Y119835D01*
X140520Y119801D01*
X140517Y119693D01*
X140509Y119606D01*
X140497Y119526D01*
X140481Y119455D01*
X140462Y119391D01*
X140451Y119363D01*
X140241Y119222D01*
X139869Y118666D01*
X139739Y118010D01*
X139869Y117354D01*
X140241Y116798D01*
X140797Y116427D01*
X141453Y116296D01*
X142109Y116427D01*
X142665Y116798D01*
X143036Y117354D01*
X143167Y118010D01*
X143036Y118666D01*
X142665Y119222D01*
X142455Y119363D01*
X142443Y119391D01*
X142424Y119455D01*
X142408Y119526D01*
X142396Y119606D01*
X142388Y119693D01*
X142385Y119801D01*
X142370Y119835D01*
Y127158D01*
X142300Y127509D01*
X142102Y127807D01*
X127961Y141948D01*
X128207Y142408D01*
X128347Y142381D01*
X129002Y142511D01*
X129559Y142883D01*
X129930Y143439D01*
X130061Y144095D01*
X129930Y144750D01*
X129559Y145307D01*
X129002Y145678D01*
X128347Y145809D01*
X127691Y145678D01*
X127135Y145307D01*
X126763Y144750D01*
X126632Y144095D01*
X126660Y143955D01*
X126199Y143709D01*
X96465Y173444D01*
X96711Y173904D01*
X96851Y173877D01*
X97506Y174007D01*
X98062Y174379D01*
X98434Y174935D01*
X98564Y175591D01*
X98434Y176247D01*
X98062Y176803D01*
X97506Y177174D01*
X96851Y177305D01*
X96195Y177174D01*
X95639Y176803D01*
X95267Y176247D01*
X95136Y175591D01*
X95164Y175451D01*
X94703Y175205D01*
X90348Y179560D01*
X90339Y179588D01*
X90213Y179740D01*
X90100Y179924D01*
X89981Y180173D01*
X89860Y180484D01*
X89744Y180844D01*
X89292Y182926D01*
X89191Y183578D01*
X89191Y183578D01*
X89191Y183578D01*
X89149Y183647D01*
X89091Y184085D01*
X88648Y185156D01*
X87943Y186075D01*
X87023Y186780D01*
X85953Y187223D01*
X84804Y187375D01*
D02*
G37*
G36*
X101591Y146612D02*
X100935Y146481D01*
X100379Y146110D01*
X100007Y145554D01*
X99876Y144898D01*
X100007Y144242D01*
X100379Y143686D01*
X100935Y143314D01*
X101591Y143184D01*
X102246Y143314D01*
X102803Y143686D01*
X103174Y144242D01*
X103305Y144898D01*
X103174Y145554D01*
X102803Y146110D01*
X102246Y146481D01*
X101591Y146612D01*
D02*
G37*
G36*
X49528Y149149D02*
X48652Y149034D01*
X47837Y148696D01*
X47136Y148159D01*
X46599Y147459D01*
X46261Y146643D01*
X46146Y145768D01*
X46261Y144893D01*
X46599Y144077D01*
X47136Y143377D01*
X47837Y142839D01*
X48652Y142501D01*
X49528Y142386D01*
X50403Y142501D01*
X51218Y142839D01*
X51919Y143377D01*
X52456Y144077D01*
X52794Y144893D01*
X52909Y145768D01*
X52794Y146643D01*
X52456Y147459D01*
X51919Y148159D01*
X51218Y148696D01*
X50403Y149034D01*
X49528Y149149D01*
D02*
G37*
G36*
X207087Y145809D02*
X206431Y145678D01*
X205875Y145307D01*
X205503Y144750D01*
X205373Y144095D01*
X205503Y143439D01*
X205875Y142883D01*
X206431Y142511D01*
X207087Y142381D01*
X207743Y142511D01*
X208299Y142883D01*
X208670Y143439D01*
X208801Y144095D01*
X208670Y144750D01*
X208299Y145307D01*
X207743Y145678D01*
X207087Y145809D01*
D02*
G37*
G36*
X112599D02*
X111943Y145678D01*
X111387Y145307D01*
X111015Y144750D01*
X110884Y144095D01*
X111015Y143439D01*
X111387Y142883D01*
X111943Y142511D01*
X112599Y142381D01*
X113254Y142511D01*
X113811Y142883D01*
X114182Y143439D01*
X114313Y144095D01*
X114182Y144750D01*
X113811Y145307D01*
X113254Y145678D01*
X112599Y145809D01*
D02*
G37*
G36*
X41732D02*
X41076Y145678D01*
X40520Y145307D01*
X40149Y144750D01*
X40018Y144095D01*
X40149Y143439D01*
X40520Y142883D01*
X41076Y142511D01*
X41732Y142381D01*
X42388Y142511D01*
X42944Y142883D01*
X43316Y143439D01*
X43446Y144095D01*
X43316Y144750D01*
X42944Y145307D01*
X42388Y145678D01*
X41732Y145809D01*
D02*
G37*
G36*
X22109Y139202D02*
Y136047D01*
X25265D01*
X25176Y136722D01*
X24838Y137537D01*
X24301Y138238D01*
X23600Y138775D01*
X22785Y139113D01*
X22109Y139202D01*
D02*
G37*
G36*
X12109D02*
Y136047D01*
X15265D01*
X15176Y136722D01*
X14838Y137537D01*
X14301Y138238D01*
X13600Y138775D01*
X12785Y139113D01*
X12109Y139202D01*
D02*
G37*
G36*
X21710D02*
X21034Y139113D01*
X20219Y138775D01*
X19518Y138238D01*
X18981Y137537D01*
X18643Y136722D01*
X18554Y136047D01*
X21710D01*
Y139202D01*
D02*
G37*
G36*
X11709D02*
X11034Y139113D01*
X10219Y138775D01*
X9518Y138238D01*
X8981Y137537D01*
X8643Y136722D01*
X8554Y136047D01*
X11709D01*
Y139202D01*
D02*
G37*
G36*
X52880Y139120D02*
X49728D01*
Y135968D01*
X52880D01*
Y139120D01*
D02*
G37*
G36*
X49328D02*
X46175D01*
Y135968D01*
X49328D01*
Y139120D01*
D02*
G37*
G36*
X211024Y137935D02*
X210368Y137804D01*
X209812Y137433D01*
X209440Y136876D01*
X209310Y136221D01*
X209440Y135565D01*
X209812Y135009D01*
X210368Y134637D01*
X211024Y134507D01*
X211680Y134637D01*
X212236Y135009D01*
X212607Y135565D01*
X212738Y136221D01*
X212607Y136876D01*
X212236Y137433D01*
X211680Y137804D01*
X211024Y137935D01*
D02*
G37*
G36*
X171654D02*
X170998Y137804D01*
X170442Y137433D01*
X170070Y136876D01*
X169940Y136221D01*
X170070Y135565D01*
X170442Y135009D01*
X170998Y134637D01*
X171654Y134507D01*
X172310Y134637D01*
X172866Y135009D01*
X173237Y135565D01*
X173368Y136221D01*
X173237Y136876D01*
X172866Y137433D01*
X172310Y137804D01*
X171654Y137935D01*
D02*
G37*
G36*
X29921D02*
X29265Y137804D01*
X28709Y137433D01*
X28338Y136876D01*
X28207Y136221D01*
X28338Y135565D01*
X28709Y135009D01*
X29265Y134637D01*
X29921Y134507D01*
X30577Y134637D01*
X31133Y135009D01*
X31505Y135565D01*
X31635Y136221D01*
X31505Y136876D01*
X31133Y137433D01*
X30577Y137804D01*
X29921Y137935D01*
D02*
G37*
G36*
X25265Y135646D02*
X22109D01*
Y132491D01*
X22785Y132580D01*
X23600Y132918D01*
X24301Y133455D01*
X24838Y134156D01*
X25176Y134971D01*
X25265Y135646D01*
D02*
G37*
G36*
X15265D02*
X12109D01*
Y132491D01*
X12785Y132580D01*
X13600Y132918D01*
X14301Y133455D01*
X14838Y134156D01*
X15176Y134971D01*
X15265Y135646D01*
D02*
G37*
G36*
X21710D02*
X18554D01*
X18643Y134971D01*
X18981Y134156D01*
X19518Y133455D01*
X20219Y132918D01*
X21034Y132580D01*
X21710Y132491D01*
Y135646D01*
D02*
G37*
G36*
X11709D02*
X8554D01*
X8643Y134971D01*
X8981Y134156D01*
X9518Y133455D01*
X10219Y132918D01*
X11034Y132580D01*
X11709Y132491D01*
Y135646D01*
D02*
G37*
G36*
X52880Y135568D02*
X49728D01*
Y132415D01*
X52880D01*
Y135568D01*
D02*
G37*
G36*
X49328D02*
X46175D01*
Y132415D01*
X49328D01*
Y135568D01*
D02*
G37*
G36*
X39140Y139061D02*
X32435D01*
Y132356D01*
X39140D01*
Y139061D01*
D02*
G37*
G36*
X25984Y130061D02*
X25328Y129930D01*
X24772Y129559D01*
X24401Y129002D01*
X24364Y128819D01*
X23813Y128612D01*
X23600Y128775D01*
X22785Y129113D01*
X21910Y129228D01*
X21034Y129113D01*
X20219Y128775D01*
X19518Y128238D01*
X18981Y127537D01*
X18643Y126722D01*
X18528Y125847D01*
X18643Y124971D01*
X18981Y124156D01*
X19518Y123455D01*
X20219Y122918D01*
X21034Y122580D01*
X21910Y122465D01*
X22785Y122580D01*
X23600Y122918D01*
X24301Y123455D01*
X24838Y124156D01*
X25176Y124971D01*
X25291Y125847D01*
X25235Y126272D01*
X25684Y126692D01*
X25984Y126632D01*
X26640Y126763D01*
X27196Y127135D01*
X27568Y127691D01*
X27698Y128347D01*
X27568Y129002D01*
X27196Y129559D01*
X26640Y129930D01*
X25984Y130061D01*
D02*
G37*
G36*
X207087D02*
X206431Y129930D01*
X205875Y129559D01*
X205503Y129002D01*
X205373Y128347D01*
X205503Y127691D01*
X205875Y127135D01*
X206431Y126763D01*
X207087Y126632D01*
X207743Y126763D01*
X208299Y127135D01*
X208670Y127691D01*
X208801Y128347D01*
X208670Y129002D01*
X208299Y129559D01*
X207743Y129930D01*
X207087Y130061D01*
D02*
G37*
G36*
X128347D02*
X127691Y129930D01*
X127135Y129559D01*
X126763Y129002D01*
X126632Y128347D01*
X126763Y127691D01*
X127135Y127135D01*
X127691Y126763D01*
X128347Y126632D01*
X129002Y126763D01*
X129559Y127135D01*
X129930Y127691D01*
X130061Y128347D01*
X129930Y129002D01*
X129559Y129559D01*
X129002Y129930D01*
X128347Y130061D01*
D02*
G37*
G36*
X33858D02*
X33202Y129930D01*
X32646Y129559D01*
X32275Y129002D01*
X32144Y128347D01*
X32275Y127691D01*
X32646Y127135D01*
X33202Y126763D01*
X33858Y126632D01*
X34514Y126763D01*
X35070Y127135D01*
X35442Y127691D01*
X35572Y128347D01*
X35442Y129002D01*
X35070Y129559D01*
X34514Y129930D01*
X33858Y130061D01*
D02*
G37*
G36*
X101865Y126423D02*
X101210Y126293D01*
X100654Y125921D01*
X100282Y125365D01*
X100152Y124709D01*
X100282Y124053D01*
X100654Y123497D01*
X101210Y123126D01*
X101865Y122995D01*
X102521Y123126D01*
X103077Y123497D01*
X103449Y124053D01*
X103579Y124709D01*
X103449Y125365D01*
X103077Y125921D01*
X102521Y126293D01*
X101865Y126423D01*
D02*
G37*
G36*
X11909Y129228D02*
X11034Y129113D01*
X10219Y128775D01*
X9518Y128238D01*
X8981Y127537D01*
X8643Y126722D01*
X8528Y125847D01*
X8643Y124971D01*
X8981Y124156D01*
X9518Y123455D01*
X10219Y122918D01*
X11034Y122580D01*
X11909Y122465D01*
X12785Y122580D01*
X13600Y122918D01*
X14301Y123455D01*
X14838Y124156D01*
X15176Y124971D01*
X15291Y125847D01*
X15176Y126722D01*
X14838Y127537D01*
X14301Y128238D01*
X13600Y128775D01*
X12785Y129113D01*
X11909Y129228D01*
D02*
G37*
G36*
X14173Y122187D02*
X13517Y122056D01*
X12961Y121685D01*
X12590Y121128D01*
X12459Y120473D01*
X12590Y119817D01*
X12717Y119626D01*
X12427Y119160D01*
X11909Y119228D01*
X11034Y119113D01*
X10219Y118775D01*
X9518Y118238D01*
X8981Y117537D01*
X8643Y116722D01*
X8528Y115847D01*
X8643Y114971D01*
X8981Y114156D01*
X9518Y113455D01*
X10219Y112918D01*
X11034Y112580D01*
X11909Y112465D01*
X12785Y112580D01*
X13600Y112918D01*
X14301Y113455D01*
X14838Y114156D01*
X15176Y114971D01*
X15291Y115847D01*
X15176Y116722D01*
X14838Y117537D01*
X14301Y118238D01*
X14257Y118271D01*
X14388Y118801D01*
X14829Y118889D01*
X15385Y119261D01*
X15757Y119817D01*
X15887Y120473D01*
X15757Y121128D01*
X15385Y121685D01*
X14829Y122056D01*
X14173Y122187D01*
D02*
G37*
G36*
X211024D02*
X210368Y122056D01*
X209812Y121685D01*
X209440Y121128D01*
X209310Y120473D01*
X209440Y119817D01*
X209812Y119261D01*
X210368Y118889D01*
X211024Y118758D01*
X211680Y118889D01*
X212236Y119261D01*
X212607Y119817D01*
X212738Y120473D01*
X212607Y121128D01*
X212236Y121685D01*
X211680Y122056D01*
X211024Y122187D01*
D02*
G37*
G36*
X203150D02*
X202494Y122056D01*
X201938Y121685D01*
X201566Y121128D01*
X201436Y120473D01*
X201566Y119817D01*
X201938Y119261D01*
X202494Y118889D01*
X203150Y118758D01*
X203806Y118889D01*
X204362Y119261D01*
X204733Y119817D01*
X204864Y120473D01*
X204733Y121128D01*
X204362Y121685D01*
X203806Y122056D01*
X203150Y122187D01*
D02*
G37*
G36*
X179528D02*
X178872Y122056D01*
X178316Y121685D01*
X177944Y121128D01*
X177814Y120473D01*
X177944Y119817D01*
X178316Y119261D01*
X178872Y118889D01*
X179528Y118758D01*
X180184Y118889D01*
X180740Y119261D01*
X181111Y119817D01*
X181242Y120473D01*
X181111Y121128D01*
X180740Y121685D01*
X180184Y122056D01*
X179528Y122187D01*
D02*
G37*
G36*
X69171Y118216D02*
X68515Y118085D01*
X67959Y117714D01*
X67587Y117157D01*
X67457Y116502D01*
X67587Y115846D01*
X67959Y115290D01*
X68515Y114918D01*
X69171Y114788D01*
X69827Y114918D01*
X70383Y115290D01*
X70754Y115846D01*
X70885Y116502D01*
X70754Y117157D01*
X70383Y117714D01*
X69827Y118085D01*
X69171Y118216D01*
D02*
G37*
G36*
X60625D02*
X59970Y118085D01*
X59413Y117714D01*
X59042Y117157D01*
X58911Y116502D01*
X59042Y115846D01*
X59413Y115290D01*
X59970Y114918D01*
X60625Y114788D01*
X61281Y114918D01*
X61837Y115290D01*
X62209Y115846D01*
X62339Y116502D01*
X62209Y117157D01*
X61837Y117714D01*
X61281Y118085D01*
X60625Y118216D01*
D02*
G37*
G36*
X152111Y117285D02*
X151455Y117154D01*
X150899Y116783D01*
X150528Y116227D01*
X150397Y115571D01*
X150528Y114915D01*
X150899Y114359D01*
X151455Y113987D01*
X152111Y113857D01*
X152767Y113987D01*
X153323Y114359D01*
X153695Y114915D01*
X153825Y115571D01*
X153695Y116227D01*
X153323Y116783D01*
X152767Y117154D01*
X152111Y117285D01*
D02*
G37*
G36*
X25262Y119199D02*
X18557D01*
Y112494D01*
X25262D01*
Y119199D01*
D02*
G37*
G36*
X183465Y114313D02*
X182809Y114182D01*
X182253Y113811D01*
X181881Y113254D01*
X181751Y112599D01*
X181881Y111943D01*
X182253Y111387D01*
X182809Y111015D01*
X183465Y110884D01*
X184121Y111015D01*
X184677Y111387D01*
X185048Y111943D01*
X185179Y112599D01*
X185048Y113254D01*
X184677Y113811D01*
X184121Y114182D01*
X183465Y114313D01*
D02*
G37*
G36*
X210108Y113254D02*
X209324D01*
Y110072D01*
X213464D01*
X213375Y110747D01*
X213037Y111563D01*
X212499Y112263D01*
X211799Y112801D01*
X210983Y113138D01*
X210108Y113254D01*
D02*
G37*
G36*
X208924D02*
X208140D01*
X207264Y113138D01*
X206449Y112801D01*
X205749Y112263D01*
X205211Y111563D01*
X204873Y110747D01*
X204784Y110072D01*
X208924D01*
Y113254D01*
D02*
G37*
G36*
X125399Y112918D02*
X124743Y112787D01*
X124187Y112416D01*
X123815Y111860D01*
X123685Y111204D01*
X123815Y110548D01*
X124187Y109992D01*
X124743Y109620D01*
X125399Y109490D01*
X126055Y109620D01*
X126611Y109992D01*
X126982Y110548D01*
X127113Y111204D01*
X126982Y111860D01*
X126611Y112416D01*
X126055Y112787D01*
X125399Y112918D01*
D02*
G37*
G36*
X166787Y181754D02*
X165899Y181637D01*
X165072Y181295D01*
X164362Y180750D01*
X163817Y180040D01*
X163475Y179212D01*
X163358Y178325D01*
X163475Y177437D01*
X163817Y176610D01*
X164362Y175900D01*
X164374Y175891D01*
X164379Y175879D01*
X164674Y175579D01*
X165166Y175015D01*
X165357Y174762D01*
X165517Y174519D01*
X165645Y174292D01*
X165740Y174082D01*
X165805Y173891D01*
X165841Y173720D01*
X165855Y173535D01*
X165869Y173507D01*
Y114317D01*
X158904Y107352D01*
X158870Y107339D01*
X158792Y107265D01*
X158724Y107209D01*
X158660Y107161D01*
X158598Y107122D01*
X158539Y107090D01*
X158511Y107078D01*
X158263Y107127D01*
X157607Y106997D01*
X157051Y106625D01*
X156680Y106069D01*
X156549Y105413D01*
X156680Y104757D01*
X157051Y104201D01*
X157607Y103830D01*
X158263Y103699D01*
X158919Y103830D01*
X159475Y104201D01*
X159847Y104757D01*
X159977Y105413D01*
X159928Y105661D01*
X159940Y105689D01*
X159971Y105748D01*
X160011Y105810D01*
X160058Y105875D01*
X160115Y105942D01*
X160189Y106020D01*
X160202Y106055D01*
X167436Y113288D01*
X167635Y113586D01*
X167705Y113937D01*
Y173507D01*
X167719Y173535D01*
X167733Y173720D01*
X167769Y173891D01*
X167834Y174082D01*
X167929Y174292D01*
X168057Y174519D01*
X168217Y174762D01*
X168407Y175015D01*
X168901Y175579D01*
X169195Y175879D01*
X169201Y175891D01*
X169212Y175900D01*
X169757Y176610D01*
X170099Y177437D01*
X170216Y178325D01*
X170099Y179212D01*
X169757Y180040D01*
X169212Y180750D01*
X168502Y181295D01*
X167675Y181637D01*
X166787Y181754D01*
D02*
G37*
G36*
X208924Y109672D02*
X204784D01*
X204873Y108997D01*
X205211Y108181D01*
X205749Y107481D01*
X206449Y106943D01*
X207264Y106606D01*
X208140Y106490D01*
X208924D01*
Y109672D01*
D02*
G37*
G36*
X203150Y106439D02*
X202494Y106308D01*
X201938Y105937D01*
X201566Y105380D01*
X201436Y104725D01*
X201566Y104069D01*
X201938Y103513D01*
X202494Y103141D01*
X203150Y103010D01*
X203806Y103141D01*
X204362Y103513D01*
X204733Y104069D01*
X204864Y104725D01*
X204733Y105380D01*
X204362Y105937D01*
X203806Y106308D01*
X203150Y106439D01*
D02*
G37*
G36*
X195276D02*
X194620Y106308D01*
X194064Y105937D01*
X193692Y105380D01*
X193562Y104725D01*
X193692Y104069D01*
X194064Y103513D01*
X194620Y103141D01*
X195276Y103010D01*
X195932Y103141D01*
X196488Y103513D01*
X196859Y104069D01*
X196990Y104725D01*
X196859Y105380D01*
X196488Y105937D01*
X195932Y106308D01*
X195276Y106439D01*
D02*
G37*
G36*
X187402D02*
X186746Y106308D01*
X186190Y105937D01*
X185818Y105380D01*
X185688Y104725D01*
X185818Y104069D01*
X186190Y103513D01*
X186746Y103141D01*
X187402Y103010D01*
X188058Y103141D01*
X188614Y103513D01*
X188985Y104069D01*
X189116Y104725D01*
X188985Y105380D01*
X188614Y105937D01*
X188058Y106308D01*
X187402Y106439D01*
D02*
G37*
G36*
X179528D02*
X178872Y106308D01*
X178316Y105937D01*
X177944Y105380D01*
X177814Y104725D01*
X177944Y104069D01*
X178316Y103513D01*
X178872Y103141D01*
X179528Y103010D01*
X180184Y103141D01*
X180740Y103513D01*
X181111Y104069D01*
X181242Y104725D01*
X181111Y105380D01*
X180740Y105937D01*
X180184Y106308D01*
X179528Y106439D01*
D02*
G37*
G36*
X171654D02*
X170998Y106308D01*
X170442Y105937D01*
X170070Y105380D01*
X169940Y104725D01*
X170070Y104069D01*
X170442Y103513D01*
X170998Y103141D01*
X171654Y103010D01*
X172310Y103141D01*
X172866Y103513D01*
X173237Y104069D01*
X173368Y104725D01*
X173237Y105380D01*
X172866Y105937D01*
X172310Y106308D01*
X171654Y106439D01*
D02*
G37*
G36*
X116535D02*
X115880Y106308D01*
X115324Y105937D01*
X114952Y105380D01*
X114822Y104725D01*
X114952Y104069D01*
X115324Y103513D01*
X115880Y103141D01*
X116535Y103010D01*
X117192Y103141D01*
X117748Y103513D01*
X118119Y104069D01*
X118250Y104725D01*
X118119Y105380D01*
X117748Y105937D01*
X117192Y106308D01*
X116535Y106439D01*
D02*
G37*
G36*
X108661D02*
X108006Y106308D01*
X107449Y105937D01*
X107078Y105380D01*
X106948Y104725D01*
X107078Y104069D01*
X107449Y103513D01*
X108006Y103141D01*
X108661Y103010D01*
X109318Y103141D01*
X109873Y103513D01*
X110245Y104069D01*
X110376Y104725D01*
X110245Y105380D01*
X109873Y105937D01*
X109318Y106308D01*
X108661Y106439D01*
D02*
G37*
G36*
X72807Y128021D02*
X71658Y127869D01*
X70588Y127426D01*
X69669Y126721D01*
X68964Y125802D01*
X68520Y124731D01*
X68369Y123583D01*
X68520Y122434D01*
X68964Y121364D01*
X69669Y120445D01*
X69701Y120420D01*
X70129Y119988D01*
X70848Y119185D01*
X71131Y118824D01*
X71369Y118484D01*
X71560Y118170D01*
X71703Y117884D01*
X71801Y117628D01*
X71856Y117404D01*
X71876Y117176D01*
X71890Y117150D01*
Y107394D01*
X71959Y107043D01*
X72158Y106745D01*
X74703Y104200D01*
X74716Y104165D01*
X74790Y104088D01*
X74847Y104020D01*
X74894Y103955D01*
X74934Y103894D01*
X74965Y103835D01*
X74977Y103807D01*
X74928Y103559D01*
X75058Y102903D01*
X75430Y102347D01*
X75986Y101976D01*
X76642Y101845D01*
X77298Y101976D01*
X77854Y102347D01*
X78225Y102903D01*
X78356Y103559D01*
X78225Y104215D01*
X77854Y104771D01*
X77298Y105143D01*
X76642Y105273D01*
X76394Y105224D01*
X76366Y105236D01*
X76307Y105267D01*
X76245Y105306D01*
X76180Y105354D01*
X76113Y105411D01*
X76035Y105485D01*
X76000Y105498D01*
X73725Y107774D01*
Y117150D01*
X73738Y117176D01*
X73759Y117405D01*
X73813Y117628D01*
X73911Y117884D01*
X74054Y118170D01*
X74245Y118484D01*
X74477Y118816D01*
X75488Y119991D01*
X75914Y120420D01*
X75945Y120445D01*
X76651Y121364D01*
X77094Y122434D01*
X77245Y123583D01*
X77094Y124731D01*
X76651Y125802D01*
X75945Y126721D01*
X75026Y127426D01*
X73956Y127869D01*
X72807Y128021D01*
D02*
G37*
G36*
X213464Y109672D02*
X209324D01*
Y106490D01*
X209741D01*
X209892Y105990D01*
X209812Y105937D01*
X209440Y105380D01*
X209310Y104725D01*
X209440Y104069D01*
X209651Y103754D01*
X209383Y103254D01*
X208140D01*
X207264Y103138D01*
X206449Y102801D01*
X205749Y102263D01*
X205211Y101563D01*
X204873Y100747D01*
X204758Y99872D01*
X204873Y98997D01*
X205211Y98181D01*
X205749Y97481D01*
X206449Y96943D01*
X207264Y96606D01*
X208140Y96490D01*
X210108D01*
X210983Y96606D01*
X211799Y96943D01*
X212499Y97481D01*
X213037Y98181D01*
X213375Y98997D01*
X213490Y99872D01*
X213375Y100747D01*
X213037Y101563D01*
X212499Y102263D01*
X211910Y102716D01*
X211873Y103128D01*
X211911Y103296D01*
X212236Y103513D01*
X212607Y104069D01*
X212738Y104725D01*
X212607Y105380D01*
X212236Y105937D01*
X211680Y106308D01*
X211607Y106323D01*
X211556Y106843D01*
X211799Y106943D01*
X212499Y107481D01*
X213037Y108181D01*
X213375Y108997D01*
X213464Y109672D01*
D02*
G37*
G36*
X199213Y98564D02*
X198557Y98434D01*
X198001Y98062D01*
X197629Y97506D01*
X197499Y96851D01*
X197629Y96195D01*
X198001Y95639D01*
X198557Y95267D01*
X199213Y95136D01*
X199869Y95267D01*
X200425Y95639D01*
X200796Y96195D01*
X200927Y96851D01*
X200796Y97506D01*
X200425Y98062D01*
X199869Y98434D01*
X199213Y98564D01*
D02*
G37*
G36*
X191339D02*
X190683Y98434D01*
X190127Y98062D01*
X189755Y97506D01*
X189625Y96851D01*
X189755Y96195D01*
X190127Y95639D01*
X190683Y95267D01*
X191339Y95136D01*
X191995Y95267D01*
X192551Y95639D01*
X192922Y96195D01*
X193053Y96851D01*
X192922Y97506D01*
X192551Y98062D01*
X191995Y98434D01*
X191339Y98564D01*
D02*
G37*
G36*
X183465D02*
X182809Y98434D01*
X182253Y98062D01*
X181881Y97506D01*
X181751Y96851D01*
X181881Y96195D01*
X182253Y95639D01*
X182809Y95267D01*
X183465Y95136D01*
X184121Y95267D01*
X184677Y95639D01*
X185048Y96195D01*
X185179Y96851D01*
X185048Y97506D01*
X184677Y98062D01*
X184121Y98434D01*
X183465Y98564D01*
D02*
G37*
G36*
X175591D02*
X174935Y98434D01*
X174379Y98062D01*
X174007Y97506D01*
X173877Y96851D01*
X174007Y96195D01*
X174379Y95639D01*
X174935Y95267D01*
X175591Y95136D01*
X176247Y95267D01*
X176803Y95639D01*
X177174Y96195D01*
X177305Y96851D01*
X177174Y97506D01*
X176803Y98062D01*
X176247Y98434D01*
X175591Y98564D01*
D02*
G37*
G36*
X165682Y101377D02*
X165026Y101247D01*
X164470Y100875D01*
X164099Y100319D01*
X163968Y99663D01*
X164099Y99007D01*
X164470Y98451D01*
X165026Y98080D01*
X165682Y97949D01*
X165850Y97982D01*
X166150Y97532D01*
X166133Y97506D01*
X166003Y96851D01*
X166133Y96195D01*
X166505Y95639D01*
X167061Y95267D01*
X167717Y95136D01*
X168373Y95267D01*
X168929Y95639D01*
X169300Y96195D01*
X169431Y96851D01*
X169300Y97506D01*
X168929Y98062D01*
X168373Y98434D01*
X167717Y98564D01*
X167549Y98531D01*
X167248Y98981D01*
X167266Y99007D01*
X167396Y99663D01*
X167266Y100319D01*
X166894Y100875D01*
X166338Y101247D01*
X165682Y101377D01*
D02*
G37*
G36*
X112599Y98564D02*
X111943Y98434D01*
X111387Y98062D01*
X111015Y97506D01*
X110884Y96851D01*
X111015Y96195D01*
X111387Y95639D01*
X111943Y95267D01*
X112599Y95136D01*
X113254Y95267D01*
X113518Y95443D01*
X114049Y95197D01*
X114125Y94816D01*
X114497Y94260D01*
X115053Y93889D01*
X115709Y93758D01*
X116365Y93889D01*
X116921Y94260D01*
X117292Y94816D01*
X117423Y95472D01*
X117292Y96128D01*
X116921Y96684D01*
X116365Y97056D01*
X115709Y97186D01*
X115053Y97056D01*
X114789Y96880D01*
X114258Y97126D01*
X114182Y97506D01*
X113811Y98062D01*
X113254Y98434D01*
X112599Y98564D01*
D02*
G37*
G36*
X136638Y96435D02*
X135982Y96304D01*
X135426Y95933D01*
X135054Y95377D01*
X134924Y94721D01*
X135054Y94065D01*
X135426Y93509D01*
X135982Y93137D01*
X136638Y93007D01*
X137294Y93137D01*
X137850Y93509D01*
X138222Y94065D01*
X138352Y94721D01*
X138222Y95377D01*
X137850Y95933D01*
X137294Y96304D01*
X136638Y96435D01*
D02*
G37*
G36*
X140559Y92412D02*
X139903Y92281D01*
X139347Y91910D01*
X138976Y91354D01*
X138845Y90698D01*
X138976Y90042D01*
X139347Y89486D01*
X139903Y89114D01*
X140559Y88984D01*
X141215Y89114D01*
X141771Y89486D01*
X142143Y90042D01*
X142273Y90698D01*
X142143Y91354D01*
X141771Y91910D01*
X141215Y92281D01*
X140559Y92412D01*
D02*
G37*
G36*
X53943Y94632D02*
X45269D01*
Y87927D01*
X53943D01*
Y94632D01*
D02*
G37*
G36*
X41837Y94632D02*
X33163D01*
Y87927D01*
X41837D01*
Y94632D01*
D02*
G37*
G36*
X195276Y90690D02*
X194620Y90560D01*
X194064Y90188D01*
X193692Y89632D01*
X193562Y88977D01*
X193692Y88321D01*
X194064Y87765D01*
X194620Y87393D01*
X195276Y87262D01*
X195932Y87393D01*
X196488Y87765D01*
X196859Y88321D01*
X196990Y88977D01*
X196859Y89632D01*
X196488Y90188D01*
X195932Y90560D01*
X195276Y90690D01*
D02*
G37*
G36*
X187402D02*
X186746Y90560D01*
X186190Y90188D01*
X185818Y89632D01*
X185688Y88977D01*
X185818Y88321D01*
X186190Y87765D01*
X186746Y87393D01*
X187402Y87262D01*
X188058Y87393D01*
X188614Y87765D01*
X188985Y88321D01*
X189116Y88977D01*
X188985Y89632D01*
X188614Y90188D01*
X188058Y90560D01*
X187402Y90690D01*
D02*
G37*
G36*
X179528D02*
X178872Y90560D01*
X178316Y90188D01*
X177944Y89632D01*
X177814Y88977D01*
X177944Y88321D01*
X178316Y87765D01*
X178872Y87393D01*
X179528Y87262D01*
X180184Y87393D01*
X180740Y87765D01*
X181111Y88321D01*
X181242Y88977D01*
X181111Y89632D01*
X180740Y90188D01*
X180184Y90560D01*
X179528Y90690D01*
D02*
G37*
G36*
X171654D02*
X170998Y90560D01*
X170442Y90188D01*
X170070Y89632D01*
X169940Y88977D01*
X170070Y88321D01*
X170442Y87765D01*
X170998Y87393D01*
X171654Y87262D01*
X172310Y87393D01*
X172866Y87765D01*
X173237Y88321D01*
X173368Y88977D01*
X173237Y89632D01*
X172866Y90188D01*
X172310Y90560D01*
X171654Y90690D01*
D02*
G37*
G36*
X163780D02*
X163124Y90560D01*
X162568Y90188D01*
X162196Y89632D01*
X162066Y88977D01*
X162196Y88321D01*
X162568Y87765D01*
X163124Y87393D01*
X163780Y87262D01*
X164436Y87393D01*
X164992Y87765D01*
X165363Y88321D01*
X165494Y88977D01*
X165363Y89632D01*
X164992Y90188D01*
X164436Y90560D01*
X163780Y90690D01*
D02*
G37*
G36*
X213461Y93225D02*
X204787D01*
Y86519D01*
X213461D01*
Y93225D01*
D02*
G37*
G36*
X207087Y82816D02*
X206431Y82686D01*
X205875Y82314D01*
X205503Y81758D01*
X205373Y81103D01*
X205503Y80446D01*
X205875Y79891D01*
X206431Y79519D01*
X207087Y79388D01*
X207743Y79519D01*
X208299Y79891D01*
X208670Y80446D01*
X208801Y81103D01*
X208670Y81758D01*
X208299Y82314D01*
X207743Y82686D01*
X207087Y82816D01*
D02*
G37*
G36*
X199213D02*
X198557Y82686D01*
X198001Y82314D01*
X197629Y81758D01*
X197499Y81103D01*
X197629Y80446D01*
X198001Y79891D01*
X198557Y79519D01*
X199213Y79388D01*
X199869Y79519D01*
X200425Y79891D01*
X200796Y80446D01*
X200927Y81103D01*
X200796Y81758D01*
X200425Y82314D01*
X199869Y82686D01*
X199213Y82816D01*
D02*
G37*
G36*
X21910Y84838D02*
X21034Y84723D01*
X20219Y84385D01*
X19518Y83848D01*
X18981Y83148D01*
X18643Y82332D01*
X18528Y81457D01*
X18643Y80581D01*
X18981Y79766D01*
X19518Y79066D01*
X20219Y78528D01*
X21034Y78190D01*
X21910Y78075D01*
X22785Y78190D01*
X23600Y78528D01*
X24301Y79066D01*
X24838Y79766D01*
X25176Y80581D01*
X25291Y81457D01*
X25176Y82332D01*
X24838Y83148D01*
X24301Y83848D01*
X23600Y84385D01*
X22785Y84723D01*
X21910Y84838D01*
D02*
G37*
G36*
X136763Y80427D02*
X136107Y80296D01*
X135551Y79925D01*
X135179Y79369D01*
X135049Y78713D01*
X135179Y78057D01*
X135551Y77501D01*
X136107Y77129D01*
X136763Y76999D01*
X137419Y77129D01*
X137975Y77501D01*
X138346Y78057D01*
X138477Y78713D01*
X138346Y79369D01*
X137975Y79925D01*
X137419Y80296D01*
X136763Y80427D01*
D02*
G37*
G36*
X211024Y74942D02*
X210368Y74812D01*
X209812Y74440D01*
X209440Y73884D01*
X209310Y73228D01*
X209440Y72572D01*
X209812Y72016D01*
X210368Y71645D01*
X211024Y71514D01*
X211680Y71645D01*
X212236Y72016D01*
X212607Y72572D01*
X212738Y73228D01*
X212607Y73884D01*
X212236Y74440D01*
X211680Y74812D01*
X211024Y74942D01*
D02*
G37*
G36*
X203150D02*
X202494Y74812D01*
X201938Y74440D01*
X201566Y73884D01*
X201436Y73228D01*
X201566Y72572D01*
X201938Y72016D01*
X202494Y71645D01*
X203150Y71514D01*
X203806Y71645D01*
X204362Y72016D01*
X204733Y72572D01*
X204864Y73228D01*
X204733Y73884D01*
X204362Y74440D01*
X203806Y74812D01*
X203150Y74942D01*
D02*
G37*
G36*
X187402D02*
X186746Y74812D01*
X186190Y74440D01*
X185818Y73884D01*
X185688Y73228D01*
X185818Y72572D01*
X186190Y72016D01*
X186746Y71645D01*
X187402Y71514D01*
X188058Y71645D01*
X188614Y72016D01*
X188985Y72572D01*
X189116Y73228D01*
X188985Y73884D01*
X188614Y74440D01*
X188058Y74812D01*
X187402Y74942D01*
D02*
G37*
G36*
X53543D02*
X52887Y74812D01*
X52331Y74440D01*
X51960Y73884D01*
X51829Y73228D01*
X51960Y72572D01*
X52331Y72016D01*
X52887Y71645D01*
X53543Y71514D01*
X54199Y71645D01*
X54755Y72016D01*
X55127Y72572D01*
X55257Y73228D01*
X55127Y73884D01*
X54755Y74440D01*
X54199Y74812D01*
X53543Y74942D01*
D02*
G37*
G36*
X29921D02*
X29265Y74812D01*
X28709Y74440D01*
X28338Y73884D01*
X28207Y73228D01*
X28338Y72572D01*
X28709Y72016D01*
X29265Y71645D01*
X29921Y71514D01*
X30577Y71645D01*
X31133Y72016D01*
X31505Y72572D01*
X31635Y73228D01*
X31505Y73884D01*
X31133Y74440D01*
X30577Y74812D01*
X29921Y74942D01*
D02*
G37*
G36*
X99823Y73611D02*
X99167Y73480D01*
X98611Y73109D01*
X98239Y72553D01*
X98109Y71897D01*
X98239Y71241D01*
X98611Y70685D01*
X99167Y70313D01*
X99823Y70183D01*
X100479Y70313D01*
X101035Y70685D01*
X101406Y71241D01*
X101537Y71897D01*
X101406Y72553D01*
X101035Y73109D01*
X100479Y73480D01*
X99823Y73611D01*
D02*
G37*
G36*
X156666Y73088D02*
X156010Y72958D01*
X155454Y72586D01*
X155083Y72030D01*
X154952Y71374D01*
X155083Y70718D01*
X155454Y70162D01*
X156010Y69791D01*
X156666Y69660D01*
X157322Y69791D01*
X157878Y70162D01*
X158250Y70718D01*
X158380Y71374D01*
X158250Y72030D01*
X157878Y72586D01*
X157322Y72958D01*
X156666Y73088D01*
D02*
G37*
G36*
X191339Y67068D02*
X190683Y66938D01*
X190127Y66566D01*
X189755Y66010D01*
X189625Y65354D01*
X189755Y64698D01*
X190127Y64142D01*
X190683Y63771D01*
X191339Y63640D01*
X191995Y63771D01*
X192551Y64142D01*
X192922Y64698D01*
X193053Y65354D01*
X192922Y66010D01*
X192551Y66566D01*
X191995Y66938D01*
X191339Y67068D01*
D02*
G37*
G36*
X151969D02*
X151313Y66938D01*
X150757Y66566D01*
X150385Y66010D01*
X150255Y65354D01*
X150385Y64698D01*
X150757Y64142D01*
X151313Y63771D01*
X151969Y63640D01*
X152625Y63771D01*
X153181Y64142D01*
X153552Y64698D01*
X153683Y65354D01*
X153552Y66010D01*
X153181Y66566D01*
X152625Y66938D01*
X151969Y67068D01*
D02*
G37*
G36*
X73228D02*
X72572Y66938D01*
X72016Y66566D01*
X71645Y66010D01*
X71514Y65354D01*
X71645Y64698D01*
X72016Y64142D01*
X72572Y63771D01*
X73228Y63640D01*
X73884Y63771D01*
X74440Y64142D01*
X74812Y64698D01*
X74942Y65354D01*
X74812Y66010D01*
X74440Y66566D01*
X73884Y66938D01*
X73228Y67068D01*
D02*
G37*
G36*
X33858D02*
X33202Y66938D01*
X32646Y66566D01*
X32275Y66010D01*
X32144Y65354D01*
X32275Y64698D01*
X32646Y64142D01*
X33202Y63771D01*
X33858Y63640D01*
X34514Y63771D01*
X35070Y64142D01*
X35442Y64698D01*
X35572Y65354D01*
X35442Y66010D01*
X35070Y66566D01*
X34514Y66938D01*
X33858Y67068D01*
D02*
G37*
G36*
X207087D02*
X206431Y66938D01*
X205875Y66566D01*
X205503Y66010D01*
X205373Y65354D01*
X205503Y64698D01*
X205875Y64142D01*
X206431Y63771D01*
X206550Y63747D01*
X206667Y63433D01*
X206695Y63209D01*
X206195Y62557D01*
X205858Y61741D01*
X205742Y60866D01*
X205858Y59991D01*
X206195Y59175D01*
X206733Y58475D01*
X207433Y57938D01*
X208249Y57600D01*
X209124Y57485D01*
X209999Y57600D01*
X210815Y57938D01*
X211515Y58475D01*
X212053Y59175D01*
X212390Y59991D01*
X212506Y60866D01*
X212390Y61741D01*
X212053Y62557D01*
X211515Y63257D01*
X210815Y63795D01*
X209999Y64133D01*
X209124Y64248D01*
X208956Y64226D01*
X208666Y64692D01*
X208670Y64698D01*
X208801Y65354D01*
X208670Y66010D01*
X208299Y66566D01*
X207743Y66938D01*
X207087Y67068D01*
D02*
G37*
G36*
X167717Y51320D02*
X167061Y51190D01*
X166505Y50818D01*
X166133Y50262D01*
X166003Y49606D01*
X166133Y48950D01*
X166505Y48394D01*
X167061Y48023D01*
X167717Y47892D01*
X168373Y48023D01*
X168929Y48394D01*
X169300Y48950D01*
X169431Y49606D01*
X169300Y50262D01*
X168929Y50818D01*
X168373Y51190D01*
X167717Y51320D01*
D02*
G37*
G36*
X144095D02*
X143439Y51190D01*
X142883Y50818D01*
X142511Y50262D01*
X142381Y49606D01*
X142511Y48950D01*
X142883Y48394D01*
X143439Y48023D01*
X144095Y47892D01*
X144750Y48023D01*
X145307Y48394D01*
X145678Y48950D01*
X145809Y49606D01*
X145678Y50262D01*
X145307Y50818D01*
X144750Y51190D01*
X144095Y51320D01*
D02*
G37*
G36*
X136221D02*
X135565Y51190D01*
X135009Y50818D01*
X134637Y50262D01*
X134507Y49606D01*
X134637Y48950D01*
X135009Y48394D01*
X135565Y48023D01*
X136221Y47892D01*
X136876Y48023D01*
X137433Y48394D01*
X137804Y48950D01*
X137935Y49606D01*
X137804Y50262D01*
X137433Y50818D01*
X136876Y51190D01*
X136221Y51320D01*
D02*
G37*
G36*
X128347D02*
X127691Y51190D01*
X127135Y50818D01*
X126763Y50262D01*
X126632Y49606D01*
X126763Y48950D01*
X127135Y48394D01*
X127691Y48023D01*
X128347Y47892D01*
X129002Y48023D01*
X129559Y48394D01*
X129930Y48950D01*
X130061Y49606D01*
X129930Y50262D01*
X129559Y50818D01*
X129002Y51190D01*
X128347Y51320D01*
D02*
G37*
G36*
X212477Y54219D02*
X205771D01*
Y47513D01*
X212477D01*
Y54219D01*
D02*
G37*
G36*
X107071Y75280D02*
X106415Y75150D01*
X105859Y74778D01*
X105487Y74222D01*
X105357Y73566D01*
X105461Y73042D01*
X105443Y73004D01*
X105412Y72949D01*
X105370Y72890D01*
X105318Y72825D01*
X105245Y72748D01*
X105232Y72714D01*
X105225Y72706D01*
X105198Y72688D01*
X105196Y72677D01*
X103015Y70496D01*
X102816Y70199D01*
X102746Y69847D01*
Y58476D01*
X102246Y58324D01*
X101999Y58692D01*
X101443Y59064D01*
X100787Y59194D01*
X100132Y59064D01*
X99576Y58692D01*
X99204Y58136D01*
X99073Y57480D01*
X99204Y56824D01*
X99576Y56268D01*
X100132Y55897D01*
X100787Y55766D01*
X101443Y55897D01*
X101999Y56268D01*
X102246Y56637D01*
X102746Y56485D01*
Y54131D01*
X100038Y51424D01*
X100011Y51415D01*
X100004Y51402D01*
X99990Y51397D01*
X99912Y51323D01*
X99847Y51269D01*
X99784Y51224D01*
X99726Y51189D01*
X99671Y51161D01*
X99649Y51153D01*
X99283Y51226D01*
X98628Y51095D01*
X98071Y50724D01*
X97700Y50168D01*
X97569Y49512D01*
X97700Y48856D01*
X98071Y48300D01*
X98628Y47928D01*
X99283Y47798D01*
X99939Y47928D01*
X100496Y48300D01*
X100867Y48856D01*
X100997Y49512D01*
X100970Y49652D01*
X100978Y49669D01*
X101014Y49731D01*
X101057Y49795D01*
X101108Y49862D01*
X101167Y49931D01*
X101242Y50010D01*
X101255Y50045D01*
X104312Y53102D01*
X104511Y53400D01*
X104581Y53751D01*
Y69467D01*
X104966Y69853D01*
X105427Y69606D01*
X105357Y69253D01*
X105487Y68597D01*
X105859Y68041D01*
X106069Y67901D01*
X106080Y67872D01*
X106100Y67809D01*
X106116Y67737D01*
X106128Y67658D01*
X106135Y67570D01*
X106138Y67462D01*
X106153Y67428D01*
Y52696D01*
X94165Y40708D01*
X94165Y40708D01*
X63617Y10160D01*
X63452Y10186D01*
X63107Y10357D01*
X63001Y10892D01*
X62629Y11448D01*
X62073Y11820D01*
X61417Y11950D01*
X60761Y11820D01*
X60205Y11448D01*
X59834Y10892D01*
X59703Y10236D01*
X59834Y9580D01*
X59892Y9494D01*
X59662Y8938D01*
X59221Y8643D01*
X58850Y8087D01*
X58719Y7431D01*
X58850Y6775D01*
X59221Y6219D01*
X59777Y5847D01*
X60433Y5717D01*
X61089Y5847D01*
X61645Y6219D01*
X61827Y6492D01*
X61830Y6493D01*
X61898Y6502D01*
X62095Y6516D01*
X62212Y6517D01*
X62283Y6548D01*
X62556Y6603D01*
X62854Y6802D01*
X95463Y39410D01*
X95463Y39410D01*
X107720Y51667D01*
X107919Y51965D01*
X107989Y52316D01*
Y67428D01*
X108004Y67462D01*
X108007Y67570D01*
X108014Y67658D01*
X108026Y67737D01*
X108042Y67809D01*
X108062Y67872D01*
X108073Y67901D01*
X108283Y68041D01*
X108413Y68236D01*
X108886Y68048D01*
Y50013D01*
X104690Y45817D01*
X104657Y45805D01*
X104496Y45658D01*
X104431Y45608D01*
X104365Y45562D01*
X104302Y45523D01*
X104238Y45536D01*
X103582Y45405D01*
X103026Y45034D01*
X102655Y44478D01*
X102524Y43822D01*
X102655Y43166D01*
X103026Y42610D01*
X103582Y42238D01*
X104238Y42108D01*
X104894Y42238D01*
X105450Y42610D01*
X105822Y43166D01*
X105952Y43822D01*
X105860Y44284D01*
X105861Y44288D01*
X105886Y44339D01*
X105919Y44396D01*
X105962Y44456D01*
X106015Y44521D01*
X106088Y44598D01*
X106099Y44627D01*
X106124Y44643D01*
X106129Y44660D01*
X108434Y46966D01*
X108977Y46802D01*
X109002Y46675D01*
X109374Y46119D01*
X109930Y45747D01*
X110586Y45617D01*
X111242Y45747D01*
X111798Y46119D01*
X112169Y46675D01*
X112300Y47331D01*
X112250Y47579D01*
X112262Y47607D01*
X112294Y47665D01*
X112333Y47727D01*
X112381Y47792D01*
X112437Y47859D01*
X112511Y47937D01*
X112525Y47972D01*
X117142Y52589D01*
X117341Y52887D01*
X117411Y53238D01*
Y68633D01*
X117426Y68667D01*
X117429Y68775D01*
X117436Y68862D01*
X117448Y68942D01*
X117464Y69013D01*
X117484Y69077D01*
X117495Y69105D01*
X117705Y69246D01*
X118077Y69802D01*
X118207Y70458D01*
X118077Y71114D01*
X117705Y71670D01*
X117149Y72041D01*
X116493Y72172D01*
X115837Y72041D01*
X115281Y71670D01*
X114910Y71114D01*
X114779Y70458D01*
X114910Y69802D01*
X115281Y69246D01*
X115491Y69105D01*
X115502Y69077D01*
X115522Y69013D01*
X115538Y68942D01*
X115550Y68862D01*
X115557Y68775D01*
X115560Y68667D01*
X115576Y68633D01*
Y53618D01*
X111329Y49372D01*
X111155Y49380D01*
X110721Y49633D01*
Y67303D01*
X111008Y67539D01*
X111664Y67669D01*
X112220Y68041D01*
X112592Y68597D01*
X112722Y69253D01*
X112592Y69909D01*
X112220Y70465D01*
X111664Y70837D01*
X111008Y70967D01*
X110352Y70837D01*
X109796Y70465D01*
X109424Y69909D01*
X109294Y69253D01*
X109263Y69216D01*
X109167Y69223D01*
X108758Y69389D01*
X108654Y69909D01*
X108283Y70465D01*
X107727Y70837D01*
X107071Y70967D01*
X106673Y71398D01*
X106717Y71581D01*
X106792Y71654D01*
X106941Y71779D01*
X107004Y71824D01*
X107054Y71855D01*
X107071Y71852D01*
X107727Y71982D01*
X108283Y72354D01*
X108654Y72910D01*
X108785Y73566D01*
X108654Y74222D01*
X108283Y74778D01*
X107727Y75150D01*
X107071Y75280D01*
D02*
G37*
G36*
X211024Y43446D02*
X210368Y43316D01*
X209812Y42944D01*
X209440Y42388D01*
X209310Y41732D01*
X209440Y41076D01*
X209812Y40520D01*
X210368Y40149D01*
X211024Y40018D01*
X211680Y40149D01*
X212236Y40520D01*
X212607Y41076D01*
X212738Y41732D01*
X212607Y42388D01*
X212236Y42944D01*
X211680Y43316D01*
X211024Y43446D01*
D02*
G37*
G36*
X171654D02*
X170998Y43316D01*
X170442Y42944D01*
X170070Y42388D01*
X169940Y41732D01*
X170070Y41076D01*
X170442Y40520D01*
X170998Y40149D01*
X171654Y40018D01*
X172310Y40149D01*
X172866Y40520D01*
X173237Y41076D01*
X173368Y41732D01*
X173237Y42388D01*
X172866Y42944D01*
X172310Y43316D01*
X171654Y43446D01*
D02*
G37*
G36*
X163780D02*
X163124Y43316D01*
X162568Y42944D01*
X162196Y42388D01*
X162066Y41732D01*
X162196Y41076D01*
X162568Y40520D01*
X163124Y40149D01*
X163780Y40018D01*
X164436Y40149D01*
X164992Y40520D01*
X165363Y41076D01*
X165494Y41732D01*
X165363Y42388D01*
X164992Y42944D01*
X164436Y43316D01*
X163780Y43446D01*
D02*
G37*
G36*
X132284D02*
X131628Y43316D01*
X131072Y42944D01*
X130700Y42388D01*
X130570Y41732D01*
X130700Y41076D01*
X131072Y40520D01*
X131628Y40149D01*
X132284Y40018D01*
X132940Y40149D01*
X133496Y40520D01*
X133867Y41076D01*
X133998Y41732D01*
X133867Y42388D01*
X133496Y42944D01*
X132940Y43316D01*
X132284Y43446D01*
D02*
G37*
G36*
X53543D02*
X52887Y43316D01*
X52331Y42944D01*
X51960Y42388D01*
X51829Y41732D01*
X51960Y41076D01*
X52331Y40520D01*
X52887Y40149D01*
X53543Y40018D01*
X54199Y40149D01*
X54755Y40520D01*
X55127Y41076D01*
X55257Y41732D01*
X55127Y42388D01*
X54755Y42944D01*
X54199Y43316D01*
X53543Y43446D01*
D02*
G37*
G36*
X107874Y38704D02*
X107218Y38573D01*
X106662Y38202D01*
X106290Y37646D01*
X106160Y36990D01*
X106290Y36334D01*
X106662Y35778D01*
X107218Y35406D01*
X107874Y35276D01*
X108530Y35406D01*
X109086Y35778D01*
X109458Y36334D01*
X109588Y36990D01*
X109458Y37646D01*
X109086Y38202D01*
X108530Y38573D01*
X107874Y38704D01*
D02*
G37*
G36*
X25984Y35572D02*
X25328Y35442D01*
X24772Y35070D01*
X24401Y34514D01*
X24365Y34334D01*
X23897Y34158D01*
X23600Y34385D01*
X22785Y34723D01*
X21910Y34838D01*
X21034Y34723D01*
X20219Y34385D01*
X19518Y33848D01*
X18981Y33147D01*
X18643Y32332D01*
X18528Y31457D01*
X18643Y30582D01*
X18981Y29766D01*
X19518Y29065D01*
X20219Y28528D01*
X21034Y28190D01*
X21910Y28075D01*
X22785Y28190D01*
X23600Y28528D01*
X24301Y29065D01*
X24838Y29766D01*
X25176Y30582D01*
X25291Y31457D01*
X25248Y31781D01*
X25697Y32201D01*
X25984Y32144D01*
X26640Y32275D01*
X27196Y32646D01*
X27568Y33202D01*
X27698Y33858D01*
X27568Y34514D01*
X27196Y35070D01*
X26640Y35442D01*
X25984Y35572D01*
D02*
G37*
G36*
X199213D02*
X198557Y35442D01*
X198001Y35070D01*
X197629Y34514D01*
X197499Y33858D01*
X197629Y33202D01*
X198001Y32646D01*
X198557Y32275D01*
X199213Y32144D01*
X199869Y32275D01*
X200425Y32646D01*
X200796Y33202D01*
X200927Y33858D01*
X200796Y34514D01*
X200425Y35070D01*
X199869Y35442D01*
X199213Y35572D01*
D02*
G37*
G36*
X167717D02*
X167061Y35442D01*
X166505Y35070D01*
X166133Y34514D01*
X166003Y33858D01*
X166133Y33202D01*
X166505Y32646D01*
X167061Y32275D01*
X167717Y32144D01*
X168373Y32275D01*
X168929Y32646D01*
X169300Y33202D01*
X169431Y33858D01*
X169300Y34514D01*
X168929Y35070D01*
X168373Y35442D01*
X167717Y35572D01*
D02*
G37*
G36*
X120473D02*
X119817Y35442D01*
X119261Y35070D01*
X118889Y34514D01*
X118758Y33858D01*
X118889Y33202D01*
X119261Y32646D01*
X119817Y32275D01*
X120473Y32144D01*
X121128Y32275D01*
X121685Y32646D01*
X122056Y33202D01*
X122187Y33858D01*
X122056Y34514D01*
X121685Y35070D01*
X121128Y35442D01*
X120473Y35572D01*
D02*
G37*
G36*
X112599D02*
X111943Y35442D01*
X111387Y35070D01*
X111015Y34514D01*
X110884Y33858D01*
X111015Y33202D01*
X111387Y32646D01*
X111943Y32275D01*
X112599Y32144D01*
X113254Y32275D01*
X113811Y32646D01*
X114182Y33202D01*
X114313Y33858D01*
X114182Y34514D01*
X113811Y35070D01*
X113254Y35442D01*
X112599Y35572D01*
D02*
G37*
G36*
X104725D02*
X104069Y35442D01*
X103513Y35070D01*
X103141Y34514D01*
X103010Y33858D01*
X103141Y33202D01*
X103513Y32646D01*
X104069Y32275D01*
X104725Y32144D01*
X105380Y32275D01*
X105937Y32646D01*
X106308Y33202D01*
X106439Y33858D01*
X106308Y34514D01*
X105937Y35070D01*
X105380Y35442D01*
X104725Y35572D01*
D02*
G37*
G36*
X96851D02*
X96195Y35442D01*
X95639Y35070D01*
X95267Y34514D01*
X95136Y33858D01*
X95267Y33202D01*
X95639Y32646D01*
X96195Y32275D01*
X96851Y32144D01*
X97506Y32275D01*
X98062Y32646D01*
X98434Y33202D01*
X98564Y33858D01*
X98434Y34514D01*
X98062Y35070D01*
X97506Y35442D01*
X96851Y35572D01*
D02*
G37*
G36*
X65354D02*
X64698Y35442D01*
X64142Y35070D01*
X63771Y34514D01*
X63640Y33858D01*
X63771Y33202D01*
X64142Y32646D01*
X64698Y32275D01*
X65354Y32144D01*
X66010Y32275D01*
X66566Y32646D01*
X66938Y33202D01*
X67068Y33858D01*
X66938Y34514D01*
X66566Y35070D01*
X66010Y35442D01*
X65354Y35572D01*
D02*
G37*
G36*
X12109Y34812D02*
Y31657D01*
X15265D01*
X15176Y32332D01*
X14838Y33147D01*
X14301Y33848D01*
X13600Y34385D01*
X12785Y34723D01*
X12109Y34812D01*
D02*
G37*
G36*
X11709D02*
X11034Y34723D01*
X10219Y34385D01*
X9518Y33848D01*
X8981Y33147D01*
X8643Y32332D01*
X8554Y31657D01*
X11709D01*
Y34812D01*
D02*
G37*
G36*
X11909Y31457D02*
D01*
D01*
D01*
D02*
G37*
G36*
X15265Y31257D02*
X12109D01*
Y28101D01*
X12785Y28190D01*
X13600Y28528D01*
X14301Y29065D01*
X14838Y29766D01*
X15176Y30582D01*
X15265Y31257D01*
D02*
G37*
G36*
X11709D02*
X8554D01*
X8643Y30582D01*
X8981Y29766D01*
X9518Y29065D01*
X10219Y28528D01*
X11034Y28190D01*
X11709Y28101D01*
Y31257D01*
D02*
G37*
G36*
X187402Y27698D02*
X186746Y27568D01*
X186190Y27196D01*
X185818Y26640D01*
X185688Y25984D01*
X185818Y25328D01*
X186190Y24772D01*
X186746Y24401D01*
X187402Y24270D01*
X188058Y24401D01*
X188614Y24772D01*
X188985Y25328D01*
X189116Y25984D01*
X188985Y26640D01*
X188614Y27196D01*
X188058Y27568D01*
X187402Y27698D01*
D02*
G37*
G36*
X179528D02*
X178872Y27568D01*
X178316Y27196D01*
X177944Y26640D01*
X177814Y25984D01*
X177944Y25328D01*
X178316Y24772D01*
X178872Y24401D01*
X179528Y24270D01*
X180184Y24401D01*
X180740Y24772D01*
X181111Y25328D01*
X181242Y25984D01*
X181111Y26640D01*
X180740Y27196D01*
X180184Y27568D01*
X179528Y27698D01*
D02*
G37*
G36*
X171654D02*
X170998Y27568D01*
X170442Y27196D01*
X170070Y26640D01*
X169940Y25984D01*
X170070Y25328D01*
X170442Y24772D01*
X170998Y24401D01*
X171654Y24270D01*
X172310Y24401D01*
X172866Y24772D01*
X173237Y25328D01*
X173368Y25984D01*
X173237Y26640D01*
X172866Y27196D01*
X172310Y27568D01*
X171654Y27698D01*
D02*
G37*
G36*
X163780D02*
X163124Y27568D01*
X162568Y27196D01*
X162196Y26640D01*
X162066Y25984D01*
X162196Y25328D01*
X162568Y24772D01*
X163124Y24401D01*
X163780Y24270D01*
X164436Y24401D01*
X164992Y24772D01*
X165363Y25328D01*
X165494Y25984D01*
X165363Y26640D01*
X164992Y27196D01*
X164436Y27568D01*
X163780Y27698D01*
D02*
G37*
G36*
X155906D02*
X155250Y27568D01*
X154694Y27196D01*
X154322Y26640D01*
X154192Y25984D01*
X154322Y25328D01*
X154694Y24772D01*
X155250Y24401D01*
X155906Y24270D01*
X156562Y24401D01*
X157118Y24772D01*
X157489Y25328D01*
X157620Y25984D01*
X157489Y26640D01*
X157118Y27196D01*
X156562Y27568D01*
X155906Y27698D01*
D02*
G37*
G36*
X148032D02*
X147376Y27568D01*
X146820Y27196D01*
X146448Y26640D01*
X146318Y25984D01*
X146448Y25328D01*
X146820Y24772D01*
X147376Y24401D01*
X148032Y24270D01*
X148688Y24401D01*
X149244Y24772D01*
X149615Y25328D01*
X149746Y25984D01*
X149615Y26640D01*
X149244Y27196D01*
X148688Y27568D01*
X148032Y27698D01*
D02*
G37*
G36*
X140158D02*
X139502Y27568D01*
X138946Y27196D01*
X138574Y26640D01*
X138444Y25984D01*
X138574Y25328D01*
X138946Y24772D01*
X139502Y24401D01*
X140158Y24270D01*
X140814Y24401D01*
X141370Y24772D01*
X141741Y25328D01*
X141872Y25984D01*
X141741Y26640D01*
X141370Y27196D01*
X140814Y27568D01*
X140158Y27698D01*
D02*
G37*
G36*
X132284D02*
X131628Y27568D01*
X131072Y27196D01*
X130700Y26640D01*
X130570Y25984D01*
X130700Y25328D01*
X131072Y24772D01*
X131628Y24401D01*
X132284Y24270D01*
X132940Y24401D01*
X133496Y24772D01*
X133867Y25328D01*
X133998Y25984D01*
X133867Y26640D01*
X133496Y27196D01*
X132940Y27568D01*
X132284Y27698D01*
D02*
G37*
G36*
X124410D02*
X123754Y27568D01*
X123198Y27196D01*
X122826Y26640D01*
X122696Y25984D01*
X122826Y25328D01*
X123198Y24772D01*
X123754Y24401D01*
X124410Y24270D01*
X125066Y24401D01*
X125622Y24772D01*
X125993Y25328D01*
X126124Y25984D01*
X125993Y26640D01*
X125622Y27196D01*
X125066Y27568D01*
X124410Y27698D01*
D02*
G37*
G36*
X116535D02*
X115880Y27568D01*
X115324Y27196D01*
X114952Y26640D01*
X114822Y25984D01*
X114952Y25328D01*
X115324Y24772D01*
X115880Y24401D01*
X116535Y24270D01*
X117192Y24401D01*
X117748Y24772D01*
X118119Y25328D01*
X118250Y25984D01*
X118119Y26640D01*
X117748Y27196D01*
X117192Y27568D01*
X116535Y27698D01*
D02*
G37*
G36*
X108661D02*
X108006Y27568D01*
X107449Y27196D01*
X107078Y26640D01*
X106948Y25984D01*
X107078Y25328D01*
X107449Y24772D01*
X108006Y24401D01*
X108661Y24270D01*
X109318Y24401D01*
X109873Y24772D01*
X110245Y25328D01*
X110376Y25984D01*
X110245Y26640D01*
X109873Y27196D01*
X109318Y27568D01*
X108661Y27698D01*
D02*
G37*
G36*
X53543D02*
X52887Y27568D01*
X52331Y27196D01*
X51960Y26640D01*
X51829Y25984D01*
X51960Y25328D01*
X52331Y24772D01*
X52887Y24401D01*
X53543Y24270D01*
X54199Y24401D01*
X54755Y24772D01*
X55127Y25328D01*
X55257Y25984D01*
X55127Y26640D01*
X54755Y27196D01*
X54199Y27568D01*
X53543Y27698D01*
D02*
G37*
G36*
X210108Y27289D02*
X208140D01*
X207264Y27174D01*
X206449Y26836D01*
X205749Y26299D01*
X205211Y25598D01*
X204873Y24783D01*
X204758Y23908D01*
X204873Y23032D01*
X205211Y22217D01*
X205749Y21516D01*
X206449Y20979D01*
X207264Y20641D01*
X208140Y20526D01*
X210108D01*
X210983Y20641D01*
X211799Y20979D01*
X212499Y21516D01*
X213037Y22217D01*
X213375Y23032D01*
X213490Y23908D01*
X213375Y24783D01*
X213037Y25598D01*
X212499Y26299D01*
X211799Y26836D01*
X210983Y27174D01*
X210108Y27289D01*
D02*
G37*
G36*
X11909Y24838D02*
X11034Y24723D01*
X10219Y24385D01*
X9518Y23848D01*
X8981Y23147D01*
X8643Y22332D01*
X8528Y21457D01*
X8643Y20582D01*
X8981Y19766D01*
X9518Y19065D01*
X10219Y18528D01*
X11034Y18190D01*
X11909Y18075D01*
X12785Y18190D01*
X13600Y18528D01*
X14301Y19065D01*
X14838Y19766D01*
X15176Y20582D01*
X15291Y21457D01*
X15176Y22332D01*
X14838Y23147D01*
X14301Y23848D01*
X13600Y24385D01*
X12785Y24723D01*
X11909Y24838D01*
D02*
G37*
G36*
X199213Y19824D02*
X198557Y19694D01*
X198001Y19322D01*
X197629Y18766D01*
X197499Y18110D01*
X197629Y17454D01*
X198001Y16898D01*
X198557Y16527D01*
X199213Y16396D01*
X199869Y16527D01*
X200425Y16898D01*
X200796Y17454D01*
X200927Y18110D01*
X200796Y18766D01*
X200425Y19322D01*
X199869Y19694D01*
X199213Y19824D01*
D02*
G37*
G36*
X191339D02*
X190683Y19694D01*
X190127Y19322D01*
X189755Y18766D01*
X189625Y18110D01*
X189755Y17454D01*
X190127Y16898D01*
X190683Y16527D01*
X191339Y16396D01*
X191995Y16527D01*
X192551Y16898D01*
X192922Y17454D01*
X193053Y18110D01*
X192922Y18766D01*
X192551Y19322D01*
X191995Y19694D01*
X191339Y19824D01*
D02*
G37*
G36*
X183465D02*
X182809Y19694D01*
X182253Y19322D01*
X181881Y18766D01*
X181751Y18110D01*
X181881Y17454D01*
X182253Y16898D01*
X182809Y16527D01*
X183465Y16396D01*
X184121Y16527D01*
X184677Y16898D01*
X185048Y17454D01*
X185179Y18110D01*
X185048Y18766D01*
X184677Y19322D01*
X184121Y19694D01*
X183465Y19824D01*
D02*
G37*
G36*
X175591D02*
X174935Y19694D01*
X174379Y19322D01*
X174007Y18766D01*
X173877Y18110D01*
X174007Y17454D01*
X174379Y16898D01*
X174935Y16527D01*
X175591Y16396D01*
X176247Y16527D01*
X176803Y16898D01*
X177174Y17454D01*
X177305Y18110D01*
X177174Y18766D01*
X176803Y19322D01*
X176247Y19694D01*
X175591Y19824D01*
D02*
G37*
G36*
X167717D02*
X167061Y19694D01*
X166505Y19322D01*
X166133Y18766D01*
X166003Y18110D01*
X166133Y17454D01*
X166505Y16898D01*
X167061Y16527D01*
X167717Y16396D01*
X168373Y16527D01*
X168929Y16898D01*
X169300Y17454D01*
X169431Y18110D01*
X169300Y18766D01*
X168929Y19322D01*
X168373Y19694D01*
X167717Y19824D01*
D02*
G37*
G36*
X159843D02*
X159187Y19694D01*
X158631Y19322D01*
X158259Y18766D01*
X158129Y18110D01*
X158259Y17454D01*
X158631Y16898D01*
X159187Y16527D01*
X159843Y16396D01*
X160499Y16527D01*
X161055Y16898D01*
X161426Y17454D01*
X161557Y18110D01*
X161426Y18766D01*
X161055Y19322D01*
X160499Y19694D01*
X159843Y19824D01*
D02*
G37*
G36*
X151969D02*
X151313Y19694D01*
X150757Y19322D01*
X150385Y18766D01*
X150255Y18110D01*
X150385Y17454D01*
X150757Y16898D01*
X151313Y16527D01*
X151969Y16396D01*
X152625Y16527D01*
X153181Y16898D01*
X153552Y17454D01*
X153683Y18110D01*
X153552Y18766D01*
X153181Y19322D01*
X152625Y19694D01*
X151969Y19824D01*
D02*
G37*
G36*
X144095D02*
X143439Y19694D01*
X142883Y19322D01*
X142511Y18766D01*
X142381Y18110D01*
X142511Y17454D01*
X142883Y16898D01*
X143439Y16527D01*
X144095Y16396D01*
X144750Y16527D01*
X145307Y16898D01*
X145678Y17454D01*
X145809Y18110D01*
X145678Y18766D01*
X145307Y19322D01*
X144750Y19694D01*
X144095Y19824D01*
D02*
G37*
G36*
X213461Y17260D02*
X204787D01*
Y10555D01*
X213461D01*
Y17260D01*
D02*
G37*
G36*
X195276Y11950D02*
X194620Y11820D01*
X194064Y11448D01*
X193692Y10892D01*
X193562Y10236D01*
X193692Y9580D01*
X194064Y9024D01*
X194620Y8653D01*
X195276Y8522D01*
X195932Y8653D01*
X196488Y9024D01*
X196859Y9580D01*
X196990Y10236D01*
X196859Y10892D01*
X196488Y11448D01*
X195932Y11820D01*
X195276Y11950D01*
D02*
G37*
G36*
X187402D02*
X186746Y11820D01*
X186190Y11448D01*
X185818Y10892D01*
X185688Y10236D01*
X185818Y9580D01*
X186190Y9024D01*
X186746Y8653D01*
X187402Y8522D01*
X188058Y8653D01*
X188614Y9024D01*
X188985Y9580D01*
X189116Y10236D01*
X188985Y10892D01*
X188614Y11448D01*
X188058Y11820D01*
X187402Y11950D01*
D02*
G37*
G36*
X179528D02*
X178872Y11820D01*
X178316Y11448D01*
X177944Y10892D01*
X177814Y10236D01*
X177944Y9580D01*
X178316Y9024D01*
X178872Y8653D01*
X179528Y8522D01*
X180184Y8653D01*
X180740Y9024D01*
X181111Y9580D01*
X181242Y10236D01*
X181111Y10892D01*
X180740Y11448D01*
X180184Y11820D01*
X179528Y11950D01*
D02*
G37*
G36*
X171654D02*
X170998Y11820D01*
X170442Y11448D01*
X170070Y10892D01*
X169940Y10236D01*
X170070Y9580D01*
X170442Y9024D01*
X170998Y8653D01*
X171654Y8522D01*
X172310Y8653D01*
X172866Y9024D01*
X173237Y9580D01*
X173368Y10236D01*
X173237Y10892D01*
X172866Y11448D01*
X172310Y11820D01*
X171654Y11950D01*
D02*
G37*
G36*
X163780D02*
X163124Y11820D01*
X162568Y11448D01*
X162196Y10892D01*
X162066Y10236D01*
X162196Y9580D01*
X162568Y9024D01*
X163124Y8653D01*
X163780Y8522D01*
X164436Y8653D01*
X164992Y9024D01*
X165363Y9580D01*
X165494Y10236D01*
X165363Y10892D01*
X164992Y11448D01*
X164436Y11820D01*
X163780Y11950D01*
D02*
G37*
G36*
X155906D02*
X155250Y11820D01*
X154694Y11448D01*
X154322Y10892D01*
X154192Y10236D01*
X154322Y9580D01*
X154694Y9024D01*
X155250Y8653D01*
X155906Y8522D01*
X156562Y8653D01*
X157118Y9024D01*
X157489Y9580D01*
X157620Y10236D01*
X157489Y10892D01*
X157118Y11448D01*
X156562Y11820D01*
X155906Y11950D01*
D02*
G37*
G36*
X148032D02*
X147376Y11820D01*
X146820Y11448D01*
X146448Y10892D01*
X146318Y10236D01*
X146448Y9580D01*
X146820Y9024D01*
X147376Y8653D01*
X148032Y8522D01*
X148688Y8653D01*
X149244Y9024D01*
X149615Y9580D01*
X149746Y10236D01*
X149615Y10892D01*
X149244Y11448D01*
X148688Y11820D01*
X148032Y11950D01*
D02*
G37*
G36*
X140158D02*
X139502Y11820D01*
X138946Y11448D01*
X138574Y10892D01*
X138444Y10236D01*
X138574Y9580D01*
X138946Y9024D01*
X139502Y8653D01*
X140158Y8522D01*
X140814Y8653D01*
X141370Y9024D01*
X141741Y9580D01*
X141872Y10236D01*
X141741Y10892D01*
X141370Y11448D01*
X140814Y11820D01*
X140158Y11950D01*
D02*
G37*
G36*
X116535D02*
X115880Y11820D01*
X115324Y11448D01*
X114952Y10892D01*
X114822Y10236D01*
X114952Y9580D01*
X115324Y9024D01*
X115880Y8653D01*
X116535Y8522D01*
X117192Y8653D01*
X117748Y9024D01*
X118119Y9580D01*
X118250Y10236D01*
X118119Y10892D01*
X117748Y11448D01*
X117192Y11820D01*
X116535Y11950D01*
D02*
G37*
G36*
X92914D02*
X92258Y11820D01*
X91702Y11448D01*
X91330Y10892D01*
X91199Y10236D01*
X91330Y9580D01*
X91702Y9024D01*
X92258Y8653D01*
X92914Y8522D01*
X93569Y8653D01*
X94125Y9024D01*
X94497Y9580D01*
X94627Y10236D01*
X94497Y10892D01*
X94125Y11448D01*
X93569Y11820D01*
X92914Y11950D01*
D02*
G37*
G36*
X37795D02*
X37139Y11820D01*
X36583Y11448D01*
X36212Y10892D01*
X36081Y10236D01*
X36212Y9580D01*
X36583Y9024D01*
X37139Y8653D01*
X37795Y8522D01*
X38451Y8653D01*
X39007Y9024D01*
X39379Y9580D01*
X39509Y10236D01*
X39379Y10892D01*
X39007Y11448D01*
X38451Y11820D01*
X37795Y11950D01*
D02*
G37*
G36*
X29921D02*
X29265Y11820D01*
X28709Y11448D01*
X28338Y10892D01*
X28207Y10236D01*
X28338Y9580D01*
X28709Y9024D01*
X29265Y8653D01*
X29921Y8522D01*
X30577Y8653D01*
X31133Y9024D01*
X31505Y9580D01*
X31635Y10236D01*
X31505Y10892D01*
X31133Y11448D01*
X30577Y11820D01*
X29921Y11950D01*
D02*
G37*
G36*
X6299D02*
X5643Y11820D01*
X5087Y11448D01*
X4716Y10892D01*
X4585Y10236D01*
X4716Y9580D01*
X5087Y9024D01*
X5643Y8653D01*
X6299Y8522D01*
X6955Y8653D01*
X7511Y9024D01*
X7883Y9580D01*
X8013Y10236D01*
X7883Y10892D01*
X7511Y11448D01*
X6955Y11820D01*
X6299Y11950D01*
D02*
G37*
G36*
X25262Y14809D02*
X18557D01*
Y8104D01*
X25262D01*
Y14809D01*
D02*
G37*
G36*
X11909Y14838D02*
X11034Y14723D01*
X10219Y14385D01*
X9518Y13848D01*
X8981Y13148D01*
X8643Y12332D01*
X8528Y11457D01*
X8643Y10581D01*
X8981Y9766D01*
X9518Y9065D01*
X10219Y8528D01*
X11034Y8190D01*
X11909Y8075D01*
X12785Y8190D01*
X13600Y8528D01*
X14301Y9065D01*
X14838Y9766D01*
X15176Y10581D01*
X15291Y11457D01*
X15176Y12332D01*
X14838Y13148D01*
X14301Y13848D01*
X13600Y14385D01*
X12785Y14723D01*
X11909Y14838D01*
D02*
G37*
G36*
X129478Y23639D02*
X127856Y23479D01*
X126297Y23006D01*
X124859Y22238D01*
X123599Y21204D01*
X122565Y19944D01*
X121797Y18507D01*
X121324Y16947D01*
X121164Y15325D01*
X121324Y13703D01*
X121797Y12143D01*
X122565Y10706D01*
X123599Y9446D01*
X124859Y8412D01*
X126297Y7644D01*
X127856Y7170D01*
X129478Y7011D01*
X131100Y7170D01*
X132660Y7644D01*
X134097Y8412D01*
X135357Y9446D01*
X136391Y10706D01*
X137160Y12143D01*
X137633Y13703D01*
X137792Y15325D01*
X137633Y16947D01*
X137160Y18507D01*
X136391Y19944D01*
X135357Y21204D01*
X134097Y22238D01*
X132660Y23006D01*
X131100Y23479D01*
X129478Y23639D01*
D02*
G37*
%LPD*%
G36*
X205381Y197980D02*
X205370Y198074D01*
X205336Y198159D01*
X205278Y198233D01*
X205198Y198298D01*
X205095Y198352D01*
X204968Y198397D01*
X204819Y198432D01*
X204647Y198457D01*
X204452Y198471D01*
X204234Y198476D01*
Y199476D01*
X204452Y199481D01*
X204647Y199496D01*
X204819Y199521D01*
X204968Y199556D01*
X205095Y199601D01*
X205198Y199655D01*
X205278Y199720D01*
X205336Y199794D01*
X205370Y199879D01*
X205381Y199973D01*
Y197980D01*
D02*
G37*
G36*
X117383Y164458D02*
X117301Y164371D01*
X117227Y164283D01*
X117162Y164195D01*
X117106Y164106D01*
X117058Y164017D01*
X117019Y163928D01*
X116990Y163838D01*
X116969Y163747D01*
X116956Y163657D01*
X116953Y163565D01*
X115784Y164734D01*
X115875Y164738D01*
X115966Y164750D01*
X116056Y164771D01*
X116146Y164801D01*
X116235Y164840D01*
X116324Y164887D01*
X116413Y164943D01*
X116501Y165008D01*
X116589Y165082D01*
X116676Y165165D01*
X117383Y164458D01*
D02*
G37*
G36*
X21880Y192894D02*
X21456Y192891D01*
X20695Y192839D01*
X20358Y192791D01*
X20051Y192727D01*
X19773Y192648D01*
X19524Y192554D01*
X19304Y192446D01*
X19114Y192322D01*
X18952Y192182D01*
X18245Y192889D01*
X18384Y193051D01*
X18508Y193241D01*
X18617Y193461D01*
X18711Y193710D01*
X18790Y193988D01*
X18854Y194295D01*
X18902Y194632D01*
X18954Y195393D01*
X18957Y195817D01*
X21880Y192894D01*
D02*
G37*
G36*
X52483Y175314D02*
X52535Y174553D01*
X52583Y174217D01*
X52647Y173909D01*
X52726Y173631D01*
X52820Y173382D01*
X52929Y173163D01*
X53053Y172972D01*
X53192Y172811D01*
X52485Y172104D01*
X52323Y172243D01*
X52133Y172367D01*
X51913Y172476D01*
X51664Y172570D01*
X51386Y172648D01*
X51079Y172712D01*
X50742Y172760D01*
X49981Y172812D01*
X49557Y172815D01*
X52480Y175738D01*
X52483Y175314D01*
D02*
G37*
G36*
X19114Y149371D02*
X19304Y149247D01*
X19524Y149138D01*
X19773Y149045D01*
X20051Y148966D01*
X20358Y148902D01*
X20695Y148854D01*
X21456Y148802D01*
X21880Y148799D01*
X18957Y145876D01*
X18954Y146300D01*
X18902Y147061D01*
X18854Y147397D01*
X18790Y147705D01*
X18711Y147983D01*
X18617Y148232D01*
X18508Y148452D01*
X18384Y148642D01*
X18245Y148803D01*
X18952Y149511D01*
X19114Y149371D01*
D02*
G37*
G36*
X63363Y146529D02*
X63308Y146456D01*
X63259Y146377D01*
X63216Y146292D01*
X63180Y146202D01*
X63151Y146106D01*
X63128Y146003D01*
X63112Y145895D01*
X63102Y145781D01*
X63098Y145661D01*
X62098D01*
X62095Y145781D01*
X62085Y145895D01*
X62069Y146003D01*
X62046Y146106D01*
X62017Y146202D01*
X61981Y146292D01*
X61938Y146377D01*
X61889Y146456D01*
X61834Y146529D01*
X61772Y146596D01*
X63425D01*
X63363Y146529D01*
D02*
G37*
G36*
X24320Y147616D02*
X24895Y147114D01*
X25167Y146911D01*
X25429Y146738D01*
X25682Y146597D01*
X25924Y146487D01*
X26156Y146409D01*
X26379Y146362D01*
X26591Y146346D01*
Y145346D01*
X26379Y145331D01*
X26156Y145284D01*
X25924Y145205D01*
X25682Y145096D01*
X25429Y144955D01*
X25167Y144782D01*
X24895Y144579D01*
X24320Y144077D01*
X24018Y143780D01*
Y147913D01*
X24320Y147616D01*
D02*
G37*
G36*
X68949Y146495D02*
X69194Y146346D01*
X69487Y146213D01*
X69828Y146096D01*
X70218Y145995D01*
X70655Y145910D01*
X71673Y145789D01*
X72255Y145752D01*
X72884Y145731D01*
X68810Y141889D01*
X68825Y142501D01*
X68792Y143590D01*
X68744Y144066D01*
X68676Y144497D01*
X68587Y144883D01*
X68477Y145224D01*
X68347Y145519D01*
X68196Y145769D01*
X68024Y145974D01*
X68752Y146660D01*
X68949Y146495D01*
D02*
G37*
G36*
X76667Y140496D02*
X76586Y139470D01*
X76591Y139016D01*
X76625Y138602D01*
X76689Y138226D01*
X76783Y137891D01*
X76907Y137594D01*
X77060Y137337D01*
X77243Y137120D01*
X76423Y136525D01*
X76248Y136671D01*
X76019Y136811D01*
X75735Y136948D01*
X75397Y137079D01*
X75004Y137207D01*
X74055Y137448D01*
X72887Y137671D01*
X72222Y137775D01*
X76752Y141068D01*
X76667Y140496D01*
D02*
G37*
G36*
X91275Y118397D02*
X91219Y118324D01*
X91170Y118245D01*
X91128Y118160D01*
X91092Y118070D01*
X91062Y117973D01*
X91039Y117871D01*
X91023Y117763D01*
X91013Y117648D01*
X91010Y117528D01*
X90010D01*
X90007Y117648D01*
X89997Y117763D01*
X89981Y117871D01*
X89958Y117973D01*
X89928Y118070D01*
X89892Y118160D01*
X89850Y118245D01*
X89801Y118324D01*
X89745Y118397D01*
X89683Y118464D01*
X91337D01*
X91275Y118397D01*
D02*
G37*
G36*
X96930Y113976D02*
X96886Y113897D01*
X96847Y113813D01*
X96814Y113724D01*
X96785Y113630D01*
X96762Y113530D01*
X96744Y113426D01*
X96731Y113316D01*
X96720Y113082D01*
X95720Y112894D01*
X95717Y113015D01*
X95705Y113128D01*
X95687Y113234D01*
X95661Y113333D01*
X95627Y113425D01*
X95587Y113510D01*
X95538Y113587D01*
X95483Y113657D01*
X95420Y113719D01*
X95349Y113775D01*
X96979Y114050D01*
X96930Y113976D01*
D02*
G37*
G36*
X56529Y113965D02*
X56617Y113891D01*
X56705Y113826D01*
X56793Y113770D01*
X56882Y113722D01*
X56972Y113684D01*
X57062Y113654D01*
X57152Y113633D01*
X57243Y113620D01*
X57334Y113617D01*
X56165Y112448D01*
X56161Y112539D01*
X56149Y112630D01*
X56128Y112720D01*
X56098Y112810D01*
X56060Y112900D01*
X56012Y112989D01*
X55956Y113077D01*
X55891Y113165D01*
X55817Y113253D01*
X55735Y113340D01*
X56442Y114047D01*
X56529Y113965D01*
D02*
G37*
G36*
X55407Y113077D02*
X55420Y113042D01*
X55494Y112965D01*
X55551Y112897D01*
X55599Y112832D01*
X55638Y112771D01*
X55669Y112712D01*
X55681Y112684D01*
X55632Y112436D01*
X55762Y111780D01*
X56134Y111224D01*
X56582Y110924D01*
X56474Y110424D01*
X54364D01*
X54139Y110585D01*
X53918Y110865D01*
X53946Y111080D01*
X49606D01*
X45267D01*
X45356Y110404D01*
X45693Y109589D01*
X46231Y108888D01*
X46482Y108695D01*
X46312Y108195D01*
X40794D01*
X40624Y108695D01*
X40876Y108888D01*
X41413Y109589D01*
X41751Y110404D01*
X41866Y111279D01*
X41751Y112155D01*
X41413Y112970D01*
X40876Y113671D01*
X40175Y114208D01*
X39360Y114546D01*
X38484Y114661D01*
X36516D01*
X35640Y114546D01*
X34825Y114208D01*
X34124Y113671D01*
X33587Y112970D01*
X33249Y112155D01*
X33134Y111279D01*
X33249Y110404D01*
X33587Y109589D01*
X34124Y108888D01*
X34376Y108695D01*
X34206Y108195D01*
X26518D01*
X26311Y108695D01*
X34443Y116827D01*
X51657D01*
X55407Y113077D01*
D02*
G37*
G36*
X61909Y108680D02*
X61841Y108742D01*
X61769Y108798D01*
X61690Y108847D01*
X61605Y108889D01*
X61515Y108925D01*
X61418Y108955D01*
X61316Y108977D01*
X61207Y108994D01*
X61093Y109004D01*
X60973Y109007D01*
Y110007D01*
X61093Y110010D01*
X61207Y110020D01*
X61316Y110036D01*
X61418Y110059D01*
X61515Y110089D01*
X61605Y110125D01*
X61690Y110167D01*
X61769Y110216D01*
X61841Y110272D01*
X61909Y110334D01*
Y108680D01*
D02*
G37*
G36*
X94023Y106908D02*
X94033Y106794D01*
X94049Y106685D01*
X94072Y106583D01*
X94101Y106486D01*
X94137Y106396D01*
X94180Y106311D01*
X94229Y106232D01*
X94284Y106159D01*
X94346Y106093D01*
X92693D01*
X92755Y106159D01*
X92811Y106232D01*
X92860Y106311D01*
X92902Y106396D01*
X92938Y106486D01*
X92967Y106583D01*
X92990Y106685D01*
X93007Y106794D01*
X93016Y106908D01*
X93020Y107028D01*
X94020D01*
X94023Y106908D01*
D02*
G37*
G36*
X57961Y105977D02*
X57869Y105974D01*
X57779Y105961D01*
X57688Y105940D01*
X57598Y105910D01*
X57509Y105872D01*
X57420Y105824D01*
X57331Y105768D01*
X57243Y105703D01*
X57155Y105629D01*
X57068Y105547D01*
X56361Y106254D01*
X56444Y106341D01*
X56517Y106429D01*
X56582Y106517D01*
X56639Y106605D01*
X56686Y106694D01*
X56725Y106784D01*
X56755Y106874D01*
X56776Y106964D01*
X56788Y107055D01*
X56791Y107146D01*
X57961Y105977D01*
D02*
G37*
G36*
X15574Y104414D02*
X15434Y104252D01*
X15310Y104062D01*
X15201Y103842D01*
X15108Y103593D01*
X15029Y103315D01*
X14965Y103008D01*
X14917Y102671D01*
X14865Y101910D01*
X14862Y101486D01*
X11939Y104409D01*
X12363Y104412D01*
X13124Y104464D01*
X13461Y104513D01*
X13768Y104576D01*
X14046Y104655D01*
X14295Y104749D01*
X14515Y104858D01*
X14705Y104982D01*
X14866Y105121D01*
X15574Y104414D01*
D02*
G37*
G36*
X81251Y100856D02*
X81261Y100741D01*
X81277Y100633D01*
X81300Y100531D01*
X81330Y100434D01*
X81366Y100344D01*
X81408Y100259D01*
X81457Y100180D01*
X81513Y100107D01*
X81575Y100040D01*
X79921D01*
X79983Y100107D01*
X80039Y100180D01*
X80088Y100259D01*
X80130Y100344D01*
X80166Y100434D01*
X80196Y100531D01*
X80219Y100633D01*
X80235Y100741D01*
X80245Y100856D01*
X80248Y100976D01*
X81248D01*
X81251Y100856D01*
D02*
G37*
G36*
X14865Y101003D02*
X14917Y100242D01*
X14965Y99906D01*
X15029Y99598D01*
X15108Y99320D01*
X15201Y99071D01*
X15310Y98852D01*
X15434Y98661D01*
X15574Y98500D01*
X14866Y97793D01*
X14705Y97932D01*
X14515Y98056D01*
X14295Y98165D01*
X14046Y98259D01*
X13768Y98337D01*
X13461Y98401D01*
X13124Y98449D01*
X12363Y98501D01*
X11939Y98504D01*
X14862Y101427D01*
X14865Y101003D01*
D02*
G37*
G36*
X91936Y104593D02*
X92308Y104037D01*
X92864Y103665D01*
X93520Y103535D01*
X94176Y103665D01*
X94732Y104037D01*
X94803Y104143D01*
X95303Y103992D01*
Y97704D01*
X94803Y97437D01*
X94695Y97509D01*
X94039Y97639D01*
X93383Y97509D01*
X92827Y97137D01*
X92456Y96581D01*
X92325Y95925D01*
X92366Y95719D01*
X92355Y95693D01*
X92322Y95633D01*
X92281Y95570D01*
X92232Y95504D01*
X92175Y95436D01*
X92101Y95358D01*
X92087Y95323D01*
X44326Y47562D01*
X43852Y47796D01*
X43926Y48356D01*
X43775Y49505D01*
X43332Y50575D01*
X42626Y51494D01*
X41707Y52200D01*
X41243Y52392D01*
X41343Y52892D01*
X48154D01*
X48505Y52962D01*
X48803Y53161D01*
X91159Y95517D01*
X91358Y95814D01*
X91428Y96166D01*
Y104587D01*
X91928Y104636D01*
X91936Y104593D01*
D02*
G37*
G36*
X93990Y94745D02*
X93899Y94744D01*
X93808Y94735D01*
X93718Y94716D01*
X93628Y94688D01*
X93538Y94650D01*
X93449Y94604D01*
X93361Y94549D01*
X93272Y94485D01*
X93184Y94411D01*
X93097Y94328D01*
X92414Y95060D01*
X92497Y95147D01*
X92571Y95235D01*
X92637Y95323D01*
X92694Y95411D01*
X92743Y95500D01*
X92783Y95589D01*
X92814Y95679D01*
X92838Y95769D01*
X92852Y95859D01*
X92858Y95951D01*
X93990Y94745D01*
D02*
G37*
G36*
X12423Y95762D02*
X12463Y95534D01*
X12531Y95307D01*
X12625Y95082D01*
X12746Y94858D01*
X12894Y94636D01*
X13069Y94415D01*
X13271Y94195D01*
X13500Y93977D01*
X13756Y93761D01*
X10063D01*
X10319Y93977D01*
X10548Y94195D01*
X10750Y94415D01*
X10925Y94636D01*
X11073Y94858D01*
X11194Y95082D01*
X11288Y95307D01*
X11356Y95534D01*
X11396Y95762D01*
X11409Y95992D01*
X12409D01*
X12423Y95762D01*
D02*
G37*
G36*
X105830Y92330D02*
X104282Y91839D01*
X104314Y91910D01*
X104334Y91984D01*
X104340Y92059D01*
X104334Y92137D01*
X104315Y92217D01*
X104282Y92299D01*
X104237Y92382D01*
X104179Y92468D01*
X104108Y92556D01*
X104023Y92645D01*
X104830Y93253D01*
X105830Y92330D01*
D02*
G37*
G36*
X13515Y88945D02*
X13283Y88721D01*
X13078Y88497D01*
X12901Y88272D01*
X12751Y88046D01*
X12628Y87819D01*
X12532Y87592D01*
X12464Y87364D01*
X12423Y87135D01*
X12409Y86905D01*
X11409D01*
X11396Y87135D01*
X11355Y87364D01*
X11287Y87592D01*
X11191Y87819D01*
X11068Y88046D01*
X10918Y88272D01*
X10741Y88497D01*
X10536Y88721D01*
X10304Y88945D01*
X10044Y89167D01*
X13774D01*
X13515Y88945D01*
D02*
G37*
G36*
X10939Y95665D02*
X10933Y95634D01*
X10880Y95453D01*
X10803Y95269D01*
X10701Y95082D01*
X10574Y94891D01*
X10420Y94696D01*
X10239Y94499D01*
X10030Y94300D01*
X9783Y94091D01*
X9775Y94074D01*
X9757Y94067D01*
X9735Y94014D01*
X9518Y93848D01*
X8981Y93147D01*
X8643Y92332D01*
X8528Y91457D01*
X8643Y90581D01*
X8981Y89766D01*
X9518Y89065D01*
X9717Y88913D01*
X9738Y88861D01*
X9754Y88855D01*
X9762Y88839D01*
X10012Y88624D01*
X10225Y88419D01*
X10410Y88217D01*
X10567Y88017D01*
X10697Y87822D01*
X10800Y87632D01*
X10878Y87446D01*
X10933Y87263D01*
X10965Y87084D01*
X10977Y86880D01*
X11011Y86811D01*
X11062Y86554D01*
X11261Y86256D01*
X12214Y85303D01*
X11981Y84829D01*
X11909Y84838D01*
X11034Y84723D01*
X10219Y84385D01*
X9518Y83848D01*
X8981Y83148D01*
X8643Y82332D01*
X8528Y81457D01*
X8529Y81444D01*
X8524Y81430D01*
X8521Y81019D01*
X8471Y80288D01*
X8427Y79980D01*
X8369Y79701D01*
X8300Y79456D01*
X8255Y79337D01*
X8055Y79216D01*
X7555Y79497D01*
Y98395D01*
X8017Y98586D01*
X10939Y95665D01*
D02*
G37*
G36*
X72755Y84518D02*
X72664Y84514D01*
X72573Y84502D01*
X72483Y84481D01*
X72393Y84451D01*
X72303Y84412D01*
X72214Y84365D01*
X72126Y84309D01*
X72038Y84244D01*
X71950Y84170D01*
X71863Y84087D01*
X71156Y84794D01*
X71238Y84882D01*
X71312Y84969D01*
X71377Y85057D01*
X71433Y85146D01*
X71481Y85235D01*
X71519Y85324D01*
X71549Y85414D01*
X71570Y85505D01*
X71583Y85596D01*
X71586Y85687D01*
X72755Y84518D01*
D02*
G37*
G36*
X14845Y78953D02*
Y73960D01*
X14345Y73791D01*
X14301Y73848D01*
X13600Y74385D01*
X12785Y74723D01*
X11909Y74838D01*
X11034Y74723D01*
X10219Y74385D01*
X9518Y73848D01*
X8981Y73147D01*
X8643Y72332D01*
X8528Y71457D01*
X8643Y70581D01*
X8981Y69766D01*
X9518Y69065D01*
X10219Y68528D01*
X11034Y68190D01*
X11909Y68075D01*
X12785Y68190D01*
X13600Y68528D01*
X14301Y69065D01*
X14546Y69385D01*
X14992Y69425D01*
X15171Y69379D01*
X17938Y66612D01*
X18235Y66413D01*
X18587Y66343D01*
X24193D01*
X30959Y59578D01*
X31256Y59379D01*
X31607Y59309D01*
X33055D01*
X33082Y59295D01*
X33310Y59275D01*
X33533Y59220D01*
X33789Y59123D01*
X34075Y58979D01*
X34390Y58789D01*
X34721Y58556D01*
X35897Y57545D01*
X36326Y57120D01*
X36350Y57088D01*
X36821Y56727D01*
X36651Y56227D01*
X15762D01*
X15411Y56157D01*
X15113Y55958D01*
X14614Y55458D01*
X14584Y55449D01*
X14444Y55329D01*
X14300Y55234D01*
X14122Y55146D01*
X13910Y55067D01*
X13665Y54997D01*
X13386Y54939D01*
X13078Y54895D01*
X12347Y54845D01*
X11936Y54842D01*
X11923Y54837D01*
X11909Y54838D01*
X11034Y54723D01*
X10219Y54385D01*
X9518Y53848D01*
X8981Y53148D01*
X8643Y52332D01*
X8528Y51457D01*
X8643Y50582D01*
X8981Y49766D01*
X9518Y49066D01*
X9576Y49022D01*
X9406Y48522D01*
X7604D01*
X7555Y48570D01*
Y74912D01*
X7569Y74937D01*
X7565Y74950D01*
X7570Y74962D01*
X7577Y75143D01*
X7594Y75302D01*
X7623Y75453D01*
X7664Y75599D01*
X7715Y75739D01*
X7778Y75874D01*
X7852Y76006D01*
X7939Y76133D01*
X8038Y76258D01*
X8162Y76390D01*
X8174Y76424D01*
X9205Y77455D01*
X9235Y77465D01*
X9375Y77585D01*
X9519Y77679D01*
X9697Y77767D01*
X9909Y77847D01*
X10154Y77916D01*
X10433Y77974D01*
X10741Y78018D01*
X11472Y78068D01*
X11883Y78071D01*
X11896Y78077D01*
X11909Y78075D01*
X12785Y78190D01*
X13600Y78528D01*
X14301Y79066D01*
X14345Y79123D01*
X14845Y78953D01*
D02*
G37*
G36*
X11880Y78504D02*
X11456Y78501D01*
X10695Y78449D01*
X10358Y78401D01*
X10051Y78337D01*
X9773Y78259D01*
X9524Y78165D01*
X9304Y78056D01*
X9114Y77932D01*
X8952Y77793D01*
X8245Y78500D01*
X8384Y78661D01*
X8508Y78851D01*
X8617Y79071D01*
X8711Y79320D01*
X8790Y79598D01*
X8854Y79906D01*
X8902Y80242D01*
X8954Y81003D01*
X8957Y81427D01*
X11880Y78504D01*
D02*
G37*
G36*
X7145Y78209D02*
X7166Y78060D01*
X7201Y77946D01*
X7251Y77865D01*
X7315Y77819D01*
X7392Y77807D01*
X7484Y77829D01*
X7590Y77885D01*
X7711Y77975D01*
X7845Y78099D01*
Y76685D01*
X7711Y76541D01*
X7590Y76390D01*
X7484Y76234D01*
X7392Y76073D01*
X7315Y75905D01*
X7251Y75731D01*
X7201Y75552D01*
X7166Y75366D01*
X7145Y75175D01*
X7138Y74978D01*
X6138Y76185D01*
X7138Y78392D01*
X7145Y78209D01*
D02*
G37*
G36*
X35540Y78172D02*
X35787Y78022D01*
X36082Y77890D01*
X36423Y77777D01*
X36810Y77682D01*
X37245Y77606D01*
X37726Y77548D01*
X38827Y77487D01*
X39448Y77484D01*
X35488Y73524D01*
X35486Y74145D01*
X35367Y75728D01*
X35290Y76162D01*
X35195Y76550D01*
X35082Y76891D01*
X34950Y77185D01*
X34800Y77433D01*
X34631Y77634D01*
X35338Y78341D01*
X35540Y78172D01*
D02*
G37*
G36*
X36632Y57426D02*
X36191Y57863D01*
X34988Y58898D01*
X34626Y59151D01*
X34285Y59358D01*
X33964Y59519D01*
X33663Y59634D01*
X33381Y59703D01*
X33120Y59726D01*
Y60726D01*
X33381Y60749D01*
X33663Y60818D01*
X33964Y60933D01*
X34285Y61094D01*
X34626Y61301D01*
X34988Y61554D01*
X35369Y61853D01*
X36191Y62589D01*
X36632Y63026D01*
Y57426D01*
D02*
G37*
G36*
X25943Y53456D02*
X25776Y53275D01*
X25621Y53080D01*
X25479Y52871D01*
X25349Y52647D01*
X25231Y52408D01*
X25125Y52155D01*
X25032Y51888D01*
X24951Y51605D01*
X24826Y50998D01*
X23301Y54061D01*
X23536Y53947D01*
X23761Y53861D01*
X23977Y53802D01*
X24184Y53771D01*
X24382Y53767D01*
X24571Y53791D01*
X24751Y53843D01*
X24922Y53922D01*
X25084Y54029D01*
X25236Y54163D01*
X25943Y53456D01*
D02*
G37*
G36*
X15574Y54414D02*
X15434Y54252D01*
X15310Y54062D01*
X15201Y53842D01*
X15108Y53593D01*
X15029Y53315D01*
X14965Y53008D01*
X14917Y52671D01*
X14865Y51910D01*
X14862Y51486D01*
X11939Y54409D01*
X12363Y54413D01*
X13124Y54464D01*
X13461Y54513D01*
X13768Y54576D01*
X14046Y54655D01*
X14295Y54749D01*
X14515Y54858D01*
X14705Y54982D01*
X14866Y55121D01*
X15574Y54414D01*
D02*
G37*
G36*
X37733Y52392D02*
X37269Y52200D01*
X36350Y51494D01*
X35858Y50853D01*
X35800Y50816D01*
X35481Y50356D01*
X35173Y49954D01*
X34873Y49604D01*
X34582Y49305D01*
X34301Y49058D01*
X34032Y48862D01*
X33777Y48715D01*
X33536Y48614D01*
X33311Y48557D01*
X33059Y48535D01*
X33038Y48524D01*
X33014Y48529D01*
X33003Y48522D01*
X24413D01*
X24243Y49022D01*
X24301Y49066D01*
X24838Y49766D01*
X25176Y50582D01*
X25208Y50827D01*
X25237Y50860D01*
X25235Y50888D01*
X25250Y50911D01*
X25372Y51502D01*
X25445Y51757D01*
X25530Y52000D01*
X25625Y52229D01*
X25730Y52442D01*
X25846Y52640D01*
X25970Y52824D01*
X26024Y52892D01*
X37634D01*
X37733Y52392D01*
D02*
G37*
G36*
X37209Y45069D02*
X36642Y45456D01*
X34762Y46595D01*
X34389Y46778D01*
X34056Y46921D01*
X33761Y47023D01*
X33506Y47084D01*
X33289Y47104D01*
X33096Y48104D01*
X33383Y48129D01*
X33674Y48202D01*
X33969Y48326D01*
X34269Y48498D01*
X34573Y48720D01*
X34881Y48991D01*
X35193Y49312D01*
X35510Y49682D01*
X35831Y50101D01*
X36156Y50569D01*
X37209Y45069D01*
D02*
G37*
G36*
X14430Y43047D02*
X14648Y42818D01*
X14868Y42616D01*
X15089Y42441D01*
X15311Y42293D01*
X15535Y42172D01*
X15760Y42078D01*
X15987Y42011D01*
X16215Y41970D01*
X16445Y41957D01*
Y40957D01*
X16215Y40943D01*
X15987Y40903D01*
X15760Y40835D01*
X15535Y40741D01*
X15311Y40620D01*
X15089Y40472D01*
X14868Y40297D01*
X14648Y40095D01*
X14430Y39866D01*
X14214Y39610D01*
Y43303D01*
X14430Y43047D01*
D02*
G37*
G36*
X25846Y23940D02*
X25724Y23799D01*
X25606Y23622D01*
X25492Y23411D01*
X25383Y23165D01*
X25278Y22884D01*
X25082Y22218D01*
X24990Y21833D01*
X24820Y20958D01*
X22466Y24356D01*
X22854Y24292D01*
X23218Y24251D01*
X23558Y24233D01*
X23874Y24240D01*
X24166Y24270D01*
X24434Y24324D01*
X24679Y24402D01*
X24900Y24503D01*
X25096Y24629D01*
X25269Y24778D01*
X25846Y23940D01*
D02*
G37*
%LPC*%
G36*
X50591Y114661D02*
X49806D01*
Y111479D01*
X53946D01*
X53857Y112155D01*
X53519Y112970D01*
X52982Y113671D01*
X52281Y114208D01*
X51466Y114546D01*
X50591Y114661D01*
D02*
G37*
G36*
X49406D02*
X48622D01*
X47747Y114546D01*
X46931Y114208D01*
X46231Y113671D01*
X45693Y112970D01*
X45356Y112155D01*
X45267Y111479D01*
X49406D01*
Y114661D01*
D02*
G37*
G36*
X21910Y64838D02*
X21034Y64723D01*
X20219Y64385D01*
X19518Y63848D01*
X18981Y63147D01*
X18643Y62332D01*
X18528Y61457D01*
X18643Y60581D01*
X18981Y59766D01*
X19518Y59066D01*
X20219Y58528D01*
X21034Y58190D01*
X21910Y58075D01*
X22785Y58190D01*
X23600Y58528D01*
X24301Y59066D01*
X24838Y59766D01*
X25176Y60581D01*
X25291Y61457D01*
X25176Y62332D01*
X24838Y63147D01*
X24301Y63848D01*
X23600Y64385D01*
X22785Y64723D01*
X21910Y64838D01*
D02*
G37*
G36*
X11909D02*
X11034Y64723D01*
X10219Y64385D01*
X9518Y63848D01*
X8981Y63147D01*
X8643Y62332D01*
X8528Y61457D01*
X8643Y60581D01*
X8981Y59766D01*
X9518Y59066D01*
X10219Y58528D01*
X11034Y58190D01*
X11909Y58075D01*
X12785Y58190D01*
X13600Y58528D01*
X14301Y59066D01*
X14838Y59766D01*
X15176Y60581D01*
X15291Y61457D01*
X15176Y62332D01*
X14838Y63147D01*
X14301Y63848D01*
X13600Y64385D01*
X12785Y64723D01*
X11909Y64838D01*
D02*
G37*
%LPD*%
G36*
X175559Y191496D02*
X175072Y191294D01*
X174362Y190749D01*
X173817Y190039D01*
X173475Y189212D01*
X173358Y188324D01*
X173360Y188310D01*
X173354Y188298D01*
X173351Y187877D01*
X173301Y187130D01*
X173256Y186816D01*
X173198Y186531D01*
X173127Y186281D01*
X173047Y186065D01*
X172958Y185884D01*
X172862Y185737D01*
X172741Y185596D01*
X172731Y185566D01*
X172429Y185264D01*
X169205D01*
X169035Y185764D01*
X169212Y185899D01*
X169757Y186610D01*
X170099Y187437D01*
X170216Y188324D01*
X170099Y189212D01*
X169757Y190039D01*
X169212Y190749D01*
X168502Y191294D01*
X168015Y191496D01*
X168115Y191996D01*
X175459D01*
X175559Y191496D01*
D02*
G37*
G36*
X176757Y185325D02*
X176324Y185321D01*
X175548Y185269D01*
X175205Y185220D01*
X174892Y185156D01*
X174609Y185077D01*
X174355Y184982D01*
X174132Y184872D01*
X173939Y184747D01*
X173776Y184606D01*
X173069Y185313D01*
X173210Y185477D01*
X173335Y185670D01*
X173445Y185893D01*
X173539Y186146D01*
X173619Y186429D01*
X173683Y186742D01*
X173732Y187085D01*
X173784Y187861D01*
X173787Y188294D01*
X176757Y185325D01*
D02*
G37*
G36*
X165559Y191496D02*
X165072Y191294D01*
X164362Y190749D01*
X163817Y190039D01*
X163475Y189212D01*
X163358Y188324D01*
X163475Y187437D01*
X163817Y186610D01*
X164362Y185899D01*
X164609Y185710D01*
X164595Y185465D01*
X164516Y185151D01*
X164282Y184995D01*
X160038Y180751D01*
X159946Y180614D01*
X159459Y180539D01*
X159356Y180562D01*
X159212Y180750D01*
X158502Y181295D01*
X157675Y181637D01*
X157192Y181701D01*
X157070Y182221D01*
X157118Y182253D01*
X157489Y182809D01*
X157620Y183465D01*
X157489Y184121D01*
X157267Y184454D01*
X157485Y184987D01*
X157675Y185012D01*
X158502Y185354D01*
X159212Y185899D01*
X159757Y186610D01*
X160099Y187437D01*
X160216Y188324D01*
X160099Y189212D01*
X159757Y190039D01*
X159212Y190749D01*
X158502Y191294D01*
X158015Y191496D01*
X158115Y191996D01*
X165459D01*
X165559Y191496D01*
D02*
G37*
G36*
X180490Y181357D02*
X180348Y181193D01*
X180223Y181000D01*
X180113Y180777D01*
X180019Y180524D01*
X179941Y180241D01*
X179879Y179928D01*
X179832Y179586D01*
X179801Y179214D01*
X179787Y178381D01*
X176791Y181325D01*
X177225Y181332D01*
X178004Y181390D01*
X178348Y181441D01*
X178662Y181507D01*
X178945Y181587D01*
X179198Y181683D01*
X179421Y181793D01*
X179614Y181918D01*
X179776Y182058D01*
X180490Y181357D01*
D02*
G37*
G36*
X135444Y151166D02*
X135454Y151052D01*
X135470Y150944D01*
X135493Y150842D01*
X135523Y150745D01*
X135559Y150655D01*
X135601Y150570D01*
X135650Y150491D01*
X135706Y150418D01*
X135768Y150351D01*
X134114D01*
X134176Y150418D01*
X134232Y150491D01*
X134281Y150570D01*
X134323Y150655D01*
X134359Y150745D01*
X134389Y150842D01*
X134412Y150944D01*
X134428Y151052D01*
X134438Y151166D01*
X134441Y151287D01*
X135441D01*
X135444Y151166D01*
D02*
G37*
G36*
X108352Y126243D02*
X108425Y126188D01*
X108504Y126138D01*
X108589Y126096D01*
X108679Y126060D01*
X108776Y126031D01*
X108878Y126008D01*
X108986Y125991D01*
X109101Y125982D01*
X109221Y125978D01*
Y124978D01*
X109101Y124975D01*
X108986Y124965D01*
X108878Y124949D01*
X108776Y124926D01*
X108679Y124897D01*
X108589Y124861D01*
X108504Y124818D01*
X108425Y124769D01*
X108352Y124714D01*
X108285Y124652D01*
Y126305D01*
X108352Y126243D01*
D02*
G37*
G36*
X118101Y121129D02*
X118045Y121055D01*
X117997Y120976D01*
X117955Y120891D01*
X117919Y120800D01*
X117890Y120703D01*
X117868Y120601D01*
X117851Y120493D01*
X117842Y120378D01*
X117839Y120258D01*
X116839Y120247D01*
X116835Y120367D01*
X116825Y120482D01*
X116809Y120590D01*
X116786Y120692D01*
X116756Y120788D01*
X116720Y120878D01*
X116677Y120963D01*
X116627Y121041D01*
X116571Y121113D01*
X116508Y121180D01*
X118162Y121196D01*
X118101Y121129D01*
D02*
G37*
G36*
X138056Y110229D02*
X138129Y110174D01*
X138208Y110125D01*
X138293Y110082D01*
X138383Y110046D01*
X138480Y110017D01*
X138582Y109994D01*
X138690Y109978D01*
X138804Y109968D01*
X138924Y109965D01*
Y108965D01*
X138804Y108961D01*
X138690Y108951D01*
X138582Y108935D01*
X138480Y108912D01*
X138383Y108883D01*
X138293Y108847D01*
X138208Y108805D01*
X138129Y108755D01*
X138056Y108700D01*
X137989Y108638D01*
Y110291D01*
X138056Y110229D01*
D02*
G37*
G36*
X124009Y100468D02*
X123953Y100395D01*
X123904Y100316D01*
X123862Y100231D01*
X123826Y100141D01*
X123796Y100044D01*
X123774Y99942D01*
X123757Y99833D01*
X123747Y99719D01*
X123744Y99599D01*
X122744D01*
X122741Y99719D01*
X122731Y99833D01*
X122715Y99942D01*
X122692Y100044D01*
X122662Y100141D01*
X122626Y100231D01*
X122584Y100316D01*
X122535Y100395D01*
X122479Y100468D01*
X122417Y100534D01*
X124071D01*
X124009Y100468D01*
D02*
G37*
G36*
X175758Y54580D02*
X175846Y54506D01*
X175934Y54441D01*
X176022Y54385D01*
X176111Y54338D01*
X176201Y54299D01*
X176291Y54269D01*
X176381Y54248D01*
X176472Y54236D01*
X176563Y54232D01*
X175394Y53063D01*
X175390Y53154D01*
X175378Y53245D01*
X175357Y53335D01*
X175327Y53425D01*
X175288Y53515D01*
X175241Y53604D01*
X175185Y53692D01*
X175120Y53781D01*
X175046Y53868D01*
X174963Y53955D01*
X175671Y54663D01*
X175758Y54580D01*
D02*
G37*
G36*
X206144Y37025D02*
X206293Y36896D01*
X206434Y36790D01*
X206567Y36707D01*
X206691Y36646D01*
X206806Y36607D01*
X206913Y36591D01*
X207012Y36598D01*
X207101Y36626D01*
X207183Y36678D01*
X205627Y35419D01*
X205692Y35486D01*
X205734Y35564D01*
X205752Y35651D01*
X205746Y35749D01*
X205716Y35856D01*
X205662Y35973D01*
X205585Y36100D01*
X205483Y36237D01*
X205358Y36383D01*
X205208Y36539D01*
X205986Y37176D01*
X206144Y37025D01*
D02*
G37*
G36*
X131171Y32926D02*
X131259Y32853D01*
X131347Y32788D01*
X131436Y32731D01*
X131525Y32684D01*
X131614Y32645D01*
X131704Y32616D01*
X131794Y32594D01*
X131885Y32582D01*
X131976Y32579D01*
X130807Y31409D01*
X130804Y31501D01*
X130791Y31592D01*
X130770Y31682D01*
X130740Y31772D01*
X130702Y31861D01*
X130655Y31950D01*
X130598Y32039D01*
X130533Y32127D01*
X130459Y32215D01*
X130377Y32302D01*
X131084Y33009D01*
X131171Y32926D01*
D02*
G37*
G36*
X88866Y182847D02*
X89325Y180732D01*
X89452Y180339D01*
X89583Y180000D01*
X89719Y179716D01*
X89860Y179487D01*
X90006Y179311D01*
X89410Y178493D01*
X89192Y178676D01*
X88936Y178830D01*
X88639Y178953D01*
X88303Y179047D01*
X87928Y179112D01*
X87513Y179147D01*
X87059Y179152D01*
X86565Y179128D01*
X85459Y178990D01*
X88763Y183512D01*
X88866Y182847D01*
D02*
G37*
G36*
X75971Y182253D02*
X76090Y180670D01*
X76166Y180236D01*
X76261Y179848D01*
X76375Y179507D01*
X76507Y179213D01*
X76657Y178965D01*
X76825Y178764D01*
X76118Y178057D01*
X75917Y178225D01*
X75669Y178375D01*
X75375Y178507D01*
X75034Y178621D01*
X74646Y178715D01*
X74212Y178792D01*
X73731Y178850D01*
X72629Y178911D01*
X72009Y178914D01*
X75968Y182873D01*
X75971Y182253D01*
D02*
G37*
G36*
X141956Y119669D02*
X141966Y119555D01*
X141982Y119447D01*
X142005Y119344D01*
X142034Y119248D01*
X142070Y119157D01*
X142113Y119072D01*
X142162Y118994D01*
X142217Y118921D01*
X142279Y118854D01*
X140626D01*
X140688Y118921D01*
X140744Y118994D01*
X140793Y119072D01*
X140835Y119157D01*
X140871Y119248D01*
X140900Y119344D01*
X140923Y119447D01*
X140939Y119555D01*
X140949Y119669D01*
X140953Y119789D01*
X141953D01*
X141956Y119669D01*
D02*
G37*
G36*
X137649Y118572D02*
X137659Y118458D01*
X137675Y118350D01*
X137698Y118247D01*
X137727Y118151D01*
X137763Y118060D01*
X137806Y117976D01*
X137855Y117897D01*
X137910Y117824D01*
X137972Y117757D01*
X136319D01*
X136381Y117824D01*
X136436Y117897D01*
X136486Y117976D01*
X136528Y118060D01*
X136564Y118151D01*
X136593Y118247D01*
X136616Y118350D01*
X136633Y118458D01*
X136642Y118572D01*
X136646Y118692D01*
X137646D01*
X137649Y118572D01*
D02*
G37*
G36*
X168583Y175874D02*
X168071Y175288D01*
X167863Y175011D01*
X167687Y174744D01*
X167543Y174488D01*
X167431Y174242D01*
X167351Y174006D01*
X167303Y173781D01*
X167287Y173567D01*
X166287D01*
X166271Y173781D01*
X166223Y174006D01*
X166143Y174242D01*
X166031Y174488D01*
X165887Y174744D01*
X165711Y175011D01*
X165503Y175288D01*
X164991Y175874D01*
X164687Y176182D01*
X168887D01*
X168583Y175874D01*
D02*
G37*
G36*
X159874Y106318D02*
X159792Y106230D01*
X159718Y106143D01*
X159653Y106055D01*
X159597Y105966D01*
X159549Y105877D01*
X159511Y105788D01*
X159481Y105698D01*
X159460Y105607D01*
X159448Y105517D01*
X159444Y105425D01*
X158275Y106594D01*
X158366Y106598D01*
X158457Y106610D01*
X158547Y106631D01*
X158637Y106661D01*
X158727Y106700D01*
X158816Y106747D01*
X158904Y106803D01*
X158993Y106868D01*
X159080Y106942D01*
X159167Y107025D01*
X159874Y106318D01*
D02*
G37*
G36*
X75170Y120285D02*
X74135Y119082D01*
X73882Y118721D01*
X73675Y118380D01*
X73514Y118058D01*
X73399Y117757D01*
X73330Y117475D01*
X73307Y117214D01*
X72307D01*
X72284Y117475D01*
X72215Y117757D01*
X72100Y118058D01*
X71939Y118380D01*
X71732Y118721D01*
X71479Y119082D01*
X71180Y119463D01*
X70444Y120285D01*
X70007Y120726D01*
X75607D01*
X75170Y120285D01*
D02*
G37*
G36*
X75825Y105088D02*
X75912Y105014D01*
X76000Y104949D01*
X76089Y104893D01*
X76178Y104845D01*
X76267Y104807D01*
X76357Y104777D01*
X76448Y104756D01*
X76539Y104744D01*
X76630Y104740D01*
X75461Y103571D01*
X75457Y103662D01*
X75445Y103753D01*
X75424Y103843D01*
X75394Y103933D01*
X75355Y104023D01*
X75308Y104112D01*
X75252Y104200D01*
X75187Y104288D01*
X75113Y104376D01*
X75030Y104463D01*
X75738Y105170D01*
X75825Y105088D01*
D02*
G37*
G36*
X107279Y72403D02*
X107193Y72384D01*
X107107Y72358D01*
X107021Y72325D01*
X106935Y72285D01*
X106849Y72237D01*
X106762Y72183D01*
X106676Y72121D01*
X106503Y71977D01*
X106417Y71894D01*
X105560Y72452D01*
X105643Y72540D01*
X105716Y72628D01*
X105777Y72716D01*
X105828Y72804D01*
X105869Y72893D01*
X105899Y72981D01*
X105918Y73069D01*
X105927Y73158D01*
X105925Y73246D01*
X105913Y73334D01*
X107279Y72403D01*
D02*
G37*
G36*
X117258Y69547D02*
X117202Y69474D01*
X117153Y69396D01*
X117111Y69311D01*
X117075Y69220D01*
X117045Y69124D01*
X117023Y69021D01*
X117006Y68913D01*
X116996Y68799D01*
X116993Y68679D01*
X115993D01*
X115990Y68799D01*
X115980Y68913D01*
X115964Y69021D01*
X115941Y69124D01*
X115911Y69220D01*
X115875Y69311D01*
X115833Y69396D01*
X115784Y69474D01*
X115728Y69547D01*
X115666Y69614D01*
X117320D01*
X117258Y69547D01*
D02*
G37*
G36*
X110724Y68107D02*
X110696Y68108D01*
X110661Y68100D01*
X110620Y68082D01*
X110573Y68055D01*
X110520Y68019D01*
X110460Y67973D01*
X110321Y67853D01*
X110157Y67695D01*
X109450Y68402D01*
X109533Y68487D01*
X109774Y68765D01*
X109810Y68818D01*
X109837Y68866D01*
X109855Y68906D01*
X109863Y68941D01*
X109862Y68969D01*
X110724Y68107D01*
D02*
G37*
G36*
X107835Y68343D02*
X107780Y68270D01*
X107731Y68191D01*
X107688Y68106D01*
X107653Y68015D01*
X107623Y67919D01*
X107600Y67817D01*
X107584Y67708D01*
X107574Y67594D01*
X107571Y67474D01*
X106571D01*
X106568Y67594D01*
X106558Y67708D01*
X106542Y67817D01*
X106519Y67919D01*
X106489Y68015D01*
X106453Y68106D01*
X106411Y68191D01*
X106362Y68270D01*
X106306Y68343D01*
X106244Y68410D01*
X107898D01*
X107835Y68343D01*
D02*
G37*
G36*
X100928Y50309D02*
X100845Y50222D01*
X100771Y50135D01*
X100704Y50047D01*
X100645Y49959D01*
X100595Y49871D01*
X100552Y49782D01*
X100517Y49693D01*
X100491Y49604D01*
X100472Y49514D01*
X100461Y49424D01*
X99395Y50688D01*
X99486Y50684D01*
X99576Y50690D01*
X99666Y50705D01*
X99756Y50730D01*
X99845Y50765D01*
X99935Y50809D01*
X100023Y50863D01*
X100111Y50926D01*
X100199Y50999D01*
X100287Y51082D01*
X100928Y50309D01*
D02*
G37*
G36*
X112197Y48235D02*
X112114Y48148D01*
X112041Y48060D01*
X111976Y47972D01*
X111919Y47883D01*
X111872Y47794D01*
X111833Y47705D01*
X111803Y47615D01*
X111783Y47525D01*
X111770Y47434D01*
X111767Y47343D01*
X110598Y48512D01*
X110689Y48515D01*
X110780Y48528D01*
X110870Y48549D01*
X110960Y48578D01*
X111049Y48617D01*
X111138Y48665D01*
X111227Y48721D01*
X111315Y48786D01*
X111403Y48860D01*
X111490Y48942D01*
X112197Y48235D01*
D02*
G37*
G36*
X105773Y44895D02*
X105690Y44807D01*
X105617Y44719D01*
X105555Y44631D01*
X105503Y44542D01*
X105461Y44453D01*
X105429Y44365D01*
X105408Y44276D01*
X105396Y44186D01*
X105395Y44097D01*
X105405Y44007D01*
X104076Y44992D01*
X104164Y45008D01*
X104252Y45031D01*
X104339Y45062D01*
X104427Y45100D01*
X104514Y45146D01*
X104601Y45199D01*
X104688Y45259D01*
X104775Y45327D01*
X104949Y45485D01*
X105773Y44895D01*
D02*
G37*
G36*
X61414Y8101D02*
X61458Y8070D01*
X61513Y8042D01*
X61578Y8017D01*
X61655Y7997D01*
X61743Y7980D01*
X61841Y7967D01*
X62071Y7952D01*
X62203Y7950D01*
X62205Y6950D01*
X62077Y6949D01*
X61853Y6933D01*
X61756Y6920D01*
X61671Y6902D01*
X61596Y6881D01*
X61532Y6856D01*
X61478Y6827D01*
X61435Y6794D01*
X61403Y6757D01*
X61380Y8137D01*
X61414Y8101D01*
D02*
G37*
D14*
X197824Y198976D02*
X209124D01*
X195535Y196688D02*
X197824Y198976D01*
X87275Y174705D02*
X137146Y124834D01*
X80177Y174705D02*
X87275D01*
X71969Y182913D02*
X80177Y174705D01*
X85674Y182937D02*
X141453Y127158D01*
X84804Y182937D02*
X85674D01*
X141453Y118010D02*
Y127158D01*
X62598Y144291D02*
Y147439D01*
X117339Y111795D02*
X125492Y103641D01*
Y58464D02*
Y103641D01*
Y58464D02*
X128740Y55216D01*
X105315Y91267D02*
Y92061D01*
X98665Y98710D02*
X105315Y92061D01*
X93987Y95925D02*
X94039D01*
X35666Y37604D02*
X93987Y95925D01*
X123244Y40142D02*
Y101378D01*
Y40142D02*
X131988Y31398D01*
X117327Y122031D02*
X117339Y122020D01*
Y111795D02*
Y122020D01*
X137146Y116913D02*
Y124834D01*
X80748Y99197D02*
Y126142D01*
X62598Y144291D02*
X80748Y126142D01*
X9590Y150492D02*
X17264D01*
X7517Y152566D02*
X9590Y150492D01*
X7517Y152566D02*
Y188003D01*
X17264Y150492D02*
X21910Y145846D01*
X98665Y98710D02*
Y126630D01*
X49528Y175768D02*
X98665Y126630D01*
X96024Y114744D02*
X96220Y114547D01*
Y95022D02*
Y114547D01*
X137146Y109465D02*
X152870D01*
X115772Y163554D02*
X148906Y196688D01*
X195535D01*
X152165Y192913D02*
X179631D01*
X134941Y175689D02*
X152165Y192913D01*
X134941Y149508D02*
Y175689D01*
X56124Y105309D02*
X57972Y107158D01*
X8057Y99845D02*
Y104409D01*
X10925Y107278D02*
X52038D01*
X15762Y105309D02*
X56124D01*
X8057Y104409D02*
X10925Y107278D01*
X104238Y44068D02*
X109803Y49633D01*
X104238Y43822D02*
Y44068D01*
X18587Y67261D02*
X24573D01*
X15762Y70085D02*
Y83052D01*
Y70085D02*
X18587Y67261D01*
X11909Y86905D02*
X15762Y83052D01*
X42378Y55309D02*
X72767Y85699D01*
X15762Y55309D02*
X42378D01*
X21910Y50057D02*
Y51457D01*
X11909D02*
X15762Y55309D01*
X21910Y50057D02*
Y50129D01*
X48154Y53809D02*
X90510Y96166D01*
X21910Y50129D02*
X25590Y53809D01*
X48154D01*
X11909Y86905D02*
Y91457D01*
X6638Y48190D02*
Y76185D01*
Y48190D02*
X7224Y47604D01*
X24573Y67261D02*
X31607Y60226D01*
X39488D01*
X90510Y96166D02*
Y119307D01*
X93520Y105249D02*
Y120136D01*
X72807Y140848D02*
X93520Y120136D01*
X22655Y21457D02*
X96220Y95022D01*
X21910Y21457D02*
X22655D01*
X16445Y41457D02*
X20298Y37604D01*
X11909Y41457D02*
X16445D01*
X20298Y37604D02*
X35666D01*
X60433Y7431D02*
X60452Y7450D01*
X94814Y40059D02*
X94814D01*
X62205Y7450D02*
X94814Y40059D01*
X60452Y7450D02*
X62205D01*
X99424Y49512D02*
X103663Y53751D01*
X99283Y49512D02*
X99424D01*
X109803Y49633D02*
Y68048D01*
X110586Y47331D02*
X116493Y53238D01*
X72807Y107394D02*
X76642Y103559D01*
X52037Y117745D02*
X57346Y112436D01*
X54267Y109507D02*
X62752D01*
X34063Y117745D02*
X52037D01*
X52038Y107278D02*
X54267Y109507D01*
X10464Y109110D02*
X25428D01*
X34063Y117745D01*
X6638Y105285D02*
X10464Y109110D01*
X6638Y76185D02*
Y105285D01*
X11909Y91457D02*
Y95992D01*
X8057Y99845D02*
X11909Y95992D01*
Y101457D02*
X15762Y105309D01*
X11909Y101457D02*
X17481Y95885D01*
X23839D01*
X30994Y81979D02*
X39488Y73484D01*
X30994Y81979D02*
Y88730D01*
X23839Y95885D02*
X30994Y88730D01*
X7224Y47604D02*
X38736D01*
X6638Y76185D02*
X11909Y81457D01*
X38736Y47604D02*
X39488Y48356D01*
X72807Y107394D02*
Y123583D01*
Y140848D02*
Y141732D01*
X10351Y190837D02*
X16900D01*
X7517Y188003D02*
X10351Y190837D01*
X16900D02*
X21910Y195846D01*
X21412Y145349D02*
X21910Y145846D01*
X72807Y141732D02*
Y141898D01*
X64116Y150589D02*
X72807Y141898D01*
X35219Y150589D02*
X64116D01*
X30477Y145846D02*
X35219Y150589D01*
X21910Y145846D02*
X30477D01*
X107071Y73255D02*
Y73566D01*
X103663Y69847D02*
X107071Y73255D01*
X152870Y109465D02*
X160687Y117281D01*
Y180102D01*
X158263Y105413D02*
X166787Y113937D01*
X107071Y52316D02*
Y69253D01*
X94814Y40059D02*
X107071Y52316D01*
X103663Y53751D02*
Y69847D01*
X109803Y68048D02*
X111008Y69253D01*
X116493Y53238D02*
Y70458D01*
X174409Y55216D02*
X176575Y53051D01*
X128740Y55216D02*
X174409D01*
X208547Y33907D02*
X209124D01*
X116976Y125478D02*
X208547Y33907D01*
X107442Y125478D02*
X116976D01*
X176787Y178325D02*
Y178362D01*
X181496Y183071D01*
Y191048D01*
X179631Y192913D02*
X181496Y191048D01*
X160687Y180102D02*
X164931Y184346D01*
X172809D02*
X176787Y188324D01*
X164931Y184346D02*
X172809D01*
X166787Y113937D02*
Y178325D01*
D68*
X21910Y195846D02*
D03*
Y185846D02*
D03*
Y145846D02*
D03*
X11909Y135846D02*
D03*
X21910D02*
D03*
X49528Y175768D02*
D03*
X122716Y196752D02*
D03*
X102717D02*
D03*
X21910Y21457D02*
D03*
X11909Y31457D02*
D03*
Y41457D02*
D03*
X21910Y51457D02*
D03*
X11909D02*
D03*
Y81457D02*
D03*
Y91457D02*
D03*
Y101457D02*
D03*
D69*
X49528Y135768D02*
D03*
D70*
X166787Y178325D02*
D03*
X176787D02*
D03*
Y188324D02*
D03*
X186787Y178325D02*
D03*
D71*
X62480Y209350D02*
D03*
D73*
X72807Y141732D02*
D03*
Y123583D02*
D03*
X39488Y48356D02*
D03*
Y73484D02*
D03*
Y60226D02*
D03*
X84804Y182937D02*
D03*
X71969Y182913D02*
D03*
D75*
X209124Y33907D02*
D03*
Y198976D02*
D03*
X49606Y111279D02*
D03*
X209124Y109872D02*
D03*
D79*
X62717Y196752D02*
D03*
D80*
X82391Y137079D02*
D03*
X62598Y147439D02*
D03*
X105315Y91267D02*
D03*
X94039Y95925D02*
D03*
X129957Y83212D02*
D03*
X158263Y95607D02*
D03*
X123244Y101378D02*
D03*
X117327Y122031D02*
D03*
X80748Y99197D02*
D03*
X96024Y114744D02*
D03*
X137146Y116913D02*
D03*
X141453Y118010D02*
D03*
X137146Y109465D02*
D03*
X115772Y163554D02*
D03*
X63297Y85699D02*
D03*
X55603Y131545D02*
D03*
X104238Y43822D02*
D03*
X72767Y85699D02*
D03*
X90510Y119307D02*
D03*
X57346Y112436D02*
D03*
X107442Y125478D02*
D03*
X158263Y105413D02*
D03*
X93520Y105249D02*
D03*
X107071Y69253D02*
D03*
X57972Y107158D02*
D03*
X107071Y73566D02*
D03*
X62752Y109507D02*
D03*
X116493Y70458D02*
D03*
X134941Y149508D02*
D03*
X76642Y103559D02*
D03*
X111008Y69253D02*
D03*
X68244Y10404D02*
D03*
X99283Y49512D02*
D03*
X110586Y47331D02*
D03*
X149840Y127050D02*
D03*
X60433Y7431D02*
D03*
X176575Y53051D02*
D03*
X91378Y28543D02*
D03*
X131988Y31398D02*
D03*
D81*
X197106Y164886D02*
D03*
X187657D02*
D03*
X197106Y160161D02*
D03*
X192382Y162524D02*
D03*
X187657Y160161D02*
D03*
X182933Y162524D02*
D03*
X178209Y160161D02*
D03*
X197106Y155437D02*
D03*
X192382Y157799D02*
D03*
X187657Y155437D02*
D03*
X182933Y157799D02*
D03*
X178209Y155437D02*
D03*
X197106Y150713D02*
D03*
X192382Y153075D02*
D03*
X187657Y150713D02*
D03*
X182933Y153075D02*
D03*
X178209Y150713D02*
D03*
X197106Y145988D02*
D03*
X192382Y148350D02*
D03*
X187657Y145988D02*
D03*
X182933Y148350D02*
D03*
X178209Y145988D02*
D03*
X197106Y141264D02*
D03*
X192382Y143626D02*
D03*
X187657Y141264D02*
D03*
X182933Y143626D02*
D03*
X178209Y141264D02*
D03*
X197106Y136539D02*
D03*
X192382Y138902D02*
D03*
X187657Y136539D02*
D03*
X182933Y138902D02*
D03*
X178209Y136539D02*
D03*
X197106Y131815D02*
D03*
X192382Y134177D02*
D03*
X187657Y131815D02*
D03*
X182933Y134177D02*
D03*
M02*
