G04*
G04 #@! TF.GenerationSoftware,Altium Limited,Altium Designer,20.2.5 (213)*
G04*
G04 Layer_Color=2752767*
%FSLAX25Y25*%
%MOIN*%
G70*
G04*
G04 #@! TF.SameCoordinates,36CD812C-5D22-435A-9ACA-62E3915E2B62*
G04*
G04*
G04 #@! TF.FilePolarity,Positive*
G04*
G01*
G75*
%ADD100C,0.00200*%
%ADD101C,0.00267*%
D100*
X11109Y205047D02*
Y206646D01*
X12709D01*
Y205047D01*
X11109D01*
X21110D02*
Y206646D01*
X22709D01*
Y205047D01*
X21110D01*
X11109Y195046D02*
Y196646D01*
X12709D01*
Y195046D01*
X11109D01*
X21110D02*
Y196646D01*
X22709D01*
Y195046D01*
X21110D01*
X11109Y185047D02*
Y186646D01*
X12709D01*
Y185047D01*
X11109D01*
X21110D02*
Y186646D01*
X22709D01*
Y185047D01*
X21110D01*
X11109Y175047D02*
Y176646D01*
X12709D01*
Y175047D01*
X11109D01*
X21110D02*
Y176646D01*
X22709D01*
Y175047D01*
X21110D01*
X11109Y165047D02*
Y166647D01*
X12709D01*
Y165047D01*
X11109D01*
X21110D02*
Y166647D01*
X22709D01*
Y165047D01*
X21110D01*
X11109Y155046D02*
Y156647D01*
X12709D01*
Y155046D01*
X11109D01*
X21110D02*
Y156647D01*
X22709D01*
Y155046D01*
X21110D01*
X11109Y145046D02*
Y146646D01*
X12709D01*
Y145046D01*
X11109D01*
X21110D02*
Y146646D01*
X22709D01*
Y145046D01*
X21110D01*
X11109Y135047D02*
Y136646D01*
X12709D01*
Y135047D01*
X11109D01*
X21110D02*
Y136646D01*
X22709D01*
Y135047D01*
X21110D01*
X11109Y125047D02*
Y126646D01*
X12709D01*
Y125047D01*
X11109D01*
X21110D02*
Y126646D01*
X22709D01*
Y125047D01*
X21110D01*
X11109Y115047D02*
Y116647D01*
X12709D01*
Y115047D01*
X11109D01*
X21110D02*
Y116647D01*
X22709D01*
Y115047D01*
X21110D01*
X48728Y134968D02*
Y136568D01*
X50328D01*
Y134968D01*
X48728D01*
Y144968D02*
Y146568D01*
X50328D01*
Y144968D01*
X48728D01*
Y154968D02*
Y156568D01*
X50328D01*
Y154968D01*
X48728D01*
Y164968D02*
Y166568D01*
X50328D01*
Y164968D01*
X48728D01*
Y174968D02*
Y176568D01*
X50328D01*
Y174968D01*
X48728D01*
X62480Y208550D02*
X61680Y210150D01*
X63280D01*
X62480Y208550D01*
X72480D02*
X71680Y210150D01*
X73280D01*
X72480Y208550D01*
X82480D02*
X81680Y210150D01*
X83280D01*
X82480Y208550D01*
X92480D02*
X91680Y210150D01*
X93280D01*
X92480Y208550D01*
X102480D02*
X101680Y210150D01*
X103280D01*
X102480Y208550D01*
X112480D02*
X111680Y210150D01*
X113280D01*
X112480Y208550D01*
X122480D02*
X121680Y210150D01*
X123280D01*
X122480Y208550D01*
X132480D02*
X131680Y210150D01*
X133280D01*
X132480Y208550D01*
X208324Y50066D02*
Y51666D01*
X209924D01*
Y50066D01*
X208324D01*
Y60066D02*
Y61666D01*
X209924D01*
Y60066D01*
X208324D01*
Y13107D02*
Y14707D01*
X209924D01*
Y13107D01*
X208324D01*
Y23108D02*
Y24708D01*
X209924D01*
Y23108D01*
X208324D01*
Y33108D02*
Y34707D01*
X209924D01*
Y33108D01*
X208324D01*
X36700Y90479D02*
Y92080D01*
X38300D01*
Y90479D01*
X36700D01*
Y100479D02*
Y102079D01*
X38300D01*
Y100479D01*
X36700D01*
Y110479D02*
Y112080D01*
X38300D01*
Y110479D01*
X36700D01*
X208324Y178176D02*
Y179776D01*
X209924D01*
Y178176D01*
X208324D01*
Y188176D02*
Y189776D01*
X209924D01*
Y188176D01*
X208324D01*
Y198176D02*
Y199776D01*
X209924D01*
Y198176D01*
X208324D01*
X165863Y208511D02*
Y210111D01*
X167463D01*
Y208511D01*
X165863D01*
X155863D02*
Y210111D01*
X157463D01*
Y208511D01*
X155863D01*
X145863D02*
Y210111D01*
X147463D01*
Y208511D01*
X145863D01*
X186713Y206188D02*
X187113Y206588D01*
X187513D01*
X187113Y206988D01*
X187513Y207388D01*
X187113D01*
X186713Y207788D01*
X186313Y207388D01*
X185913D01*
X186313Y206988D01*
X185913Y206588D01*
X186313D01*
X186713Y206188D01*
X129478Y14525D02*
X129878Y14925D01*
X130278D01*
X129878Y15325D01*
X130278Y15725D01*
X129878D01*
X129478Y16125D01*
X129078Y15725D01*
X128678D01*
X129078Y15325D01*
X128678Y14925D01*
X129078D01*
X129478Y14525D01*
X43504Y206188D02*
X43904Y206588D01*
X44304D01*
X43904Y206988D01*
X44304Y207388D01*
X43904D01*
X43504Y207788D01*
X43104Y207388D01*
X42704D01*
X43104Y206988D01*
X42704Y206588D01*
X43104D01*
X43504Y206188D01*
X34987Y134909D02*
Y136509D01*
X36587D01*
Y134909D01*
X34987D01*
Y144909D02*
Y146509D01*
X36587D01*
Y144909D01*
X34987D01*
Y154909D02*
Y156509D01*
X36587D01*
Y154909D01*
X34987D01*
X48806Y90479D02*
Y92080D01*
X50406D01*
Y90479D01*
X48806D01*
Y100479D02*
Y102079D01*
X50406D01*
Y100479D01*
X48806D01*
Y110479D02*
Y112080D01*
X50406D01*
Y110479D01*
X48806D01*
X121916Y195952D02*
Y197552D01*
X123516D01*
Y195952D01*
X121916D01*
X111916D02*
Y197552D01*
X113516D01*
Y195952D01*
X111916D01*
X101917D02*
Y197552D01*
X103516D01*
Y195952D01*
X101917D01*
X91917D02*
Y197552D01*
X93516D01*
Y195952D01*
X91917D01*
X71917D02*
Y197552D01*
X73516D01*
Y195952D01*
X71917D01*
X61917D02*
Y197552D01*
X63516D01*
Y195952D01*
X61917D01*
X81916D02*
Y197552D01*
X83517D01*
Y195952D01*
X81916D01*
X208324Y89072D02*
Y90672D01*
X209924D01*
Y89072D01*
X208324D01*
Y99072D02*
Y100672D01*
X209924D01*
Y99072D01*
X208324D01*
Y109072D02*
Y110672D01*
X209924D01*
Y109072D01*
X208324D01*
X21110Y10657D02*
Y12257D01*
X22709D01*
Y10657D01*
X21110D01*
X11109D02*
Y12257D01*
X12709D01*
Y10657D01*
X11109D01*
X21110Y20657D02*
Y22257D01*
X22709D01*
Y20657D01*
X21110D01*
X11109D02*
Y22257D01*
X12709D01*
Y20657D01*
X11109D01*
X21110Y30657D02*
Y32257D01*
X22709D01*
Y30657D01*
X21110D01*
X11109D02*
Y32257D01*
X12709D01*
Y30657D01*
X11109D01*
X21110Y40657D02*
Y42257D01*
X22709D01*
Y40657D01*
X21110D01*
X11109D02*
Y42257D01*
X12709D01*
Y40657D01*
X11109D01*
X21110Y50657D02*
Y52257D01*
X22709D01*
Y50657D01*
X21110D01*
X11109D02*
Y52257D01*
X12709D01*
Y50657D01*
X11109D01*
X21110Y60657D02*
Y62257D01*
X22709D01*
Y60657D01*
X21110D01*
X11109D02*
Y62257D01*
X12709D01*
Y60657D01*
X11109D01*
X21110Y70657D02*
Y72257D01*
X22709D01*
Y70657D01*
X21110D01*
X11109D02*
Y72257D01*
X12709D01*
Y70657D01*
X11109D01*
X21110Y80657D02*
Y82257D01*
X22709D01*
Y80657D01*
X21110D01*
X11109D02*
Y82257D01*
X12709D01*
Y80657D01*
X11109D01*
X21110Y90657D02*
Y92257D01*
X22709D01*
Y90657D01*
X21110D01*
X11109D02*
Y92257D01*
X12709D01*
Y90657D01*
X11109D01*
X21110Y100657D02*
Y102257D01*
X22709D01*
Y100657D01*
X21110D01*
X11109D02*
Y102257D01*
X12709D01*
Y100657D01*
X11109D01*
X206287Y206287D02*
X206687Y207087D01*
X206287Y207887D01*
X207087Y207487D01*
X207887Y207887D01*
X207487Y207087D01*
X207887Y206287D01*
X207087Y206687D01*
X206287Y206287D01*
X210224Y166917D02*
X210624Y167717D01*
X210224Y168517D01*
X211024Y168117D01*
X211824Y168517D01*
X211424Y167717D01*
X211824Y166917D01*
X211024Y167317D01*
X210224Y166917D01*
X206287Y159043D02*
X206687Y159843D01*
X206287Y160643D01*
X207087Y160243D01*
X207887Y160643D01*
X207487Y159843D01*
X207887Y159043D01*
X207087Y159443D01*
X206287Y159043D01*
X210224Y151169D02*
X210624Y151969D01*
X210224Y152769D01*
X211024Y152369D01*
X211824Y152769D01*
X211424Y151969D01*
X211824Y151169D01*
X211024Y151569D01*
X210224Y151169D01*
X206287Y143295D02*
X206687Y144095D01*
X206287Y144895D01*
X207087Y144495D01*
X207887Y144895D01*
X207487Y144095D01*
X207887Y143295D01*
X207087Y143695D01*
X206287Y143295D01*
X210224Y135421D02*
X210624Y136221D01*
X210224Y137021D01*
X211024Y136621D01*
X211824Y137021D01*
X211424Y136221D01*
X211824Y135421D01*
X211024Y135821D01*
X210224Y135421D01*
X206287Y127547D02*
X206687Y128347D01*
X206287Y129147D01*
X207087Y128747D01*
X207887Y129147D01*
X207487Y128347D01*
X207887Y127547D01*
X207087Y127947D01*
X206287Y127547D01*
X210224Y119673D02*
X210624Y120473D01*
X210224Y121273D01*
X211024Y120873D01*
X211824Y121273D01*
X211424Y120473D01*
X211824Y119673D01*
X211024Y120073D01*
X210224Y119673D01*
Y103925D02*
X210624Y104725D01*
X210224Y105525D01*
X211024Y105124D01*
X211824Y105525D01*
X211424Y104725D01*
X211824Y103925D01*
X211024Y104324D01*
X210224Y103925D01*
X206287Y80303D02*
X206687Y81103D01*
X206287Y81902D01*
X207087Y81502D01*
X207887Y81902D01*
X207487Y81103D01*
X207887Y80303D01*
X207087Y80703D01*
X206287Y80303D01*
X210224Y72428D02*
X210624Y73228D01*
X210224Y74028D01*
X211024Y73628D01*
X211824Y74028D01*
X211424Y73228D01*
X211824Y72428D01*
X211024Y72828D01*
X210224Y72428D01*
X206287Y64554D02*
X206687Y65354D01*
X206287Y66154D01*
X207087Y65754D01*
X207887Y66154D01*
X207487Y65354D01*
X207887Y64554D01*
X207087Y64954D01*
X206287Y64554D01*
X210224Y40932D02*
X210624Y41732D01*
X210224Y42532D01*
X211024Y42132D01*
X211824Y42532D01*
X211424Y41732D01*
X211824Y40932D01*
X211024Y41332D01*
X210224Y40932D01*
X206287Y1562D02*
X206687Y2362D01*
X206287Y3162D01*
X207087Y2762D01*
X207887Y3162D01*
X207487Y2362D01*
X207887Y1562D01*
X207087Y1962D01*
X206287Y1562D01*
X198413Y206287D02*
X198813Y207087D01*
X198413Y207887D01*
X199213Y207487D01*
X200013Y207887D01*
X199613Y207087D01*
X200013Y206287D01*
X199213Y206687D01*
X198413Y206287D01*
Y190539D02*
X198813Y191339D01*
X198413Y192139D01*
X199213Y191739D01*
X200013Y192139D01*
X199613Y191339D01*
X200013Y190539D01*
X199213Y190939D01*
X198413Y190539D01*
X202350Y182665D02*
X202750Y183465D01*
X202350Y184265D01*
X203150Y183865D01*
X203950Y184265D01*
X203550Y183465D01*
X203950Y182665D01*
X203150Y183065D01*
X202350Y182665D01*
X198413Y174791D02*
X198813Y175591D01*
X198413Y176391D01*
X199213Y175991D01*
X200013Y176391D01*
X199613Y175591D01*
X200013Y174791D01*
X199213Y175191D01*
X198413Y174791D01*
X202350Y166917D02*
X202750Y167717D01*
X202350Y168517D01*
X203150Y168117D01*
X203950Y168517D01*
X203550Y167717D01*
X203950Y166917D01*
X203150Y167317D01*
X202350Y166917D01*
Y119673D02*
X202750Y120473D01*
X202350Y121273D01*
X203150Y120873D01*
X203950Y121273D01*
X203550Y120473D01*
X203950Y119673D01*
X203150Y120073D01*
X202350Y119673D01*
Y103925D02*
X202750Y104725D01*
X202350Y105525D01*
X203150Y105124D01*
X203950Y105525D01*
X203550Y104725D01*
X203950Y103925D01*
X203150Y104324D01*
X202350Y103925D01*
X198413Y96051D02*
X198813Y96851D01*
X198413Y97650D01*
X199213Y97250D01*
X200013Y97650D01*
X199613Y96851D01*
X200013Y96051D01*
X199213Y96451D01*
X198413Y96051D01*
Y80303D02*
X198813Y81103D01*
X198413Y81902D01*
X199213Y81502D01*
X200013Y81902D01*
X199613Y81103D01*
X200013Y80303D01*
X199213Y80703D01*
X198413Y80303D01*
X202350Y72428D02*
X202750Y73228D01*
X202350Y74028D01*
X203150Y73628D01*
X203950Y74028D01*
X203550Y73228D01*
X203950Y72428D01*
X203150Y72828D01*
X202350Y72428D01*
X198413Y33058D02*
X198813Y33858D01*
X198413Y34658D01*
X199213Y34258D01*
X200013Y34658D01*
X199613Y33858D01*
X200013Y33058D01*
X199213Y33458D01*
X198413Y33058D01*
Y17310D02*
X198813Y18110D01*
X198413Y18910D01*
X199213Y18510D01*
X200013Y18910D01*
X199613Y18110D01*
X200013Y17310D01*
X199213Y17710D01*
X198413Y17310D01*
Y1562D02*
X198813Y2362D01*
X198413Y3162D01*
X199213Y2762D01*
X200013Y3162D01*
X199613Y2362D01*
X200013Y1562D01*
X199213Y1962D01*
X198413Y1562D01*
X190539Y190539D02*
X190939Y191339D01*
X190539Y192139D01*
X191339Y191739D01*
X192139Y192139D01*
X191739Y191339D01*
X192139Y190539D01*
X191339Y190939D01*
X190539Y190539D01*
X194476Y182665D02*
X194876Y183465D01*
X194476Y184265D01*
X195276Y183865D01*
X196076Y184265D01*
X195676Y183465D01*
X196076Y182665D01*
X195276Y183065D01*
X194476Y182665D01*
X190539Y174791D02*
X190939Y175591D01*
X190539Y176391D01*
X191339Y175991D01*
X192139Y176391D01*
X191739Y175591D01*
X192139Y174791D01*
X191339Y175191D01*
X190539Y174791D01*
X194476Y103925D02*
X194876Y104725D01*
X194476Y105525D01*
X195276Y105124D01*
X196076Y105525D01*
X195676Y104725D01*
X196076Y103925D01*
X195276Y104324D01*
X194476Y103925D01*
X190539Y96051D02*
X190939Y96851D01*
X190539Y97650D01*
X191339Y97250D01*
X192139Y97650D01*
X191739Y96851D01*
X192139Y96051D01*
X191339Y96451D01*
X190539Y96051D01*
X194476Y88177D02*
X194876Y88977D01*
X194476Y89776D01*
X195276Y89376D01*
X196076Y89776D01*
X195676Y88977D01*
X196076Y88177D01*
X195276Y88577D01*
X194476Y88177D01*
X190539Y64554D02*
X190939Y65354D01*
X190539Y66154D01*
X191339Y65754D01*
X192139Y66154D01*
X191739Y65354D01*
X192139Y64554D01*
X191339Y64954D01*
X190539Y64554D01*
Y17310D02*
X190939Y18110D01*
X190539Y18910D01*
X191339Y18510D01*
X192139Y18910D01*
X191739Y18110D01*
X192139Y17310D01*
X191339Y17710D01*
X190539Y17310D01*
X194476Y9436D02*
X194876Y10236D01*
X194476Y11036D01*
X195276Y10636D01*
X196076Y11036D01*
X195676Y10236D01*
X196076Y9436D01*
X195276Y9836D01*
X194476Y9436D01*
X190539Y1562D02*
X190939Y2362D01*
X190539Y3162D01*
X191339Y2762D01*
X192139Y3162D01*
X191739Y2362D01*
X192139Y1562D01*
X191339Y1962D01*
X190539Y1562D01*
X182665Y111799D02*
X183065Y112599D01*
X182665Y113399D01*
X183465Y112998D01*
X184265Y113399D01*
X183865Y112599D01*
X184265Y111799D01*
X183465Y112198D01*
X182665Y111799D01*
X186602Y103925D02*
X187002Y104725D01*
X186602Y105525D01*
X187402Y105124D01*
X188202Y105525D01*
X187802Y104725D01*
X188202Y103925D01*
X187402Y104324D01*
X186602Y103925D01*
X182665Y96051D02*
X183065Y96851D01*
X182665Y97650D01*
X183465Y97250D01*
X184265Y97650D01*
X183865Y96851D01*
X184265Y96051D01*
X183465Y96451D01*
X182665Y96051D01*
X186602Y88177D02*
X187002Y88977D01*
X186602Y89776D01*
X187402Y89376D01*
X188202Y89776D01*
X187802Y88977D01*
X188202Y88177D01*
X187402Y88577D01*
X186602Y88177D01*
Y72428D02*
X187002Y73228D01*
X186602Y74028D01*
X187402Y73628D01*
X188202Y74028D01*
X187802Y73228D01*
X188202Y72428D01*
X187402Y72828D01*
X186602Y72428D01*
Y25184D02*
X187002Y25984D01*
X186602Y26784D01*
X187402Y26384D01*
X188202Y26784D01*
X187802Y25984D01*
X188202Y25184D01*
X187402Y25584D01*
X186602Y25184D01*
X182665Y17310D02*
X183065Y18110D01*
X182665Y18910D01*
X183465Y18510D01*
X184265Y18910D01*
X183865Y18110D01*
X184265Y17310D01*
X183465Y17710D01*
X182665Y17310D01*
X186602Y9436D02*
X187002Y10236D01*
X186602Y11036D01*
X187402Y10636D01*
X188202Y11036D01*
X187802Y10236D01*
X188202Y9436D01*
X187402Y9836D01*
X186602Y9436D01*
X182665Y1562D02*
X183065Y2362D01*
X182665Y3162D01*
X183465Y2762D01*
X184265Y3162D01*
X183865Y2362D01*
X184265Y1562D01*
X183465Y1962D01*
X182665Y1562D01*
X174791Y206287D02*
X175191Y207087D01*
X174791Y207887D01*
X175591Y207487D01*
X176391Y207887D01*
X175991Y207087D01*
X176391Y206287D01*
X175591Y206687D01*
X174791Y206287D01*
X178728Y198413D02*
X179128Y199213D01*
X178728Y200013D01*
X179528Y199613D01*
X180328Y200013D01*
X179928Y199213D01*
X180328Y198413D01*
X179528Y198813D01*
X178728Y198413D01*
Y119673D02*
X179128Y120473D01*
X178728Y121273D01*
X179528Y120873D01*
X180328Y121273D01*
X179928Y120473D01*
X180328Y119673D01*
X179528Y120073D01*
X178728Y119673D01*
Y103925D02*
X179128Y104725D01*
X178728Y105525D01*
X179528Y105124D01*
X180328Y105525D01*
X179928Y104725D01*
X180328Y103925D01*
X179528Y104324D01*
X178728Y103925D01*
X174791Y96051D02*
X175191Y96851D01*
X174791Y97650D01*
X175591Y97250D01*
X176391Y97650D01*
X175991Y96851D01*
X176391Y96051D01*
X175591Y96451D01*
X174791Y96051D01*
X178728Y88177D02*
X179128Y88977D01*
X178728Y89776D01*
X179528Y89376D01*
X180328Y89776D01*
X179928Y88977D01*
X180328Y88177D01*
X179528Y88577D01*
X178728Y88177D01*
Y25184D02*
X179128Y25984D01*
X178728Y26784D01*
X179528Y26384D01*
X180328Y26784D01*
X179928Y25984D01*
X180328Y25184D01*
X179528Y25584D01*
X178728Y25184D01*
X174791Y17310D02*
X175191Y18110D01*
X174791Y18910D01*
X175591Y18510D01*
X176391Y18910D01*
X175991Y18110D01*
X176391Y17310D01*
X175591Y17710D01*
X174791Y17310D01*
X178728Y9436D02*
X179128Y10236D01*
X178728Y11036D01*
X179528Y10636D01*
X180328Y11036D01*
X179928Y10236D01*
X180328Y9436D01*
X179528Y9836D01*
X178728Y9436D01*
X174791Y1562D02*
X175191Y2362D01*
X174791Y3162D01*
X175591Y2762D01*
X176391Y3162D01*
X175991Y2362D01*
X176391Y1562D01*
X175591Y1962D01*
X174791Y1562D01*
X170854Y198413D02*
X171254Y199213D01*
X170854Y200013D01*
X171654Y199613D01*
X172454Y200013D01*
X172054Y199213D01*
X172454Y198413D01*
X171654Y198813D01*
X170854Y198413D01*
Y166917D02*
X171254Y167717D01*
X170854Y168517D01*
X171654Y168117D01*
X172454Y168517D01*
X172054Y167717D01*
X172454Y166917D01*
X171654Y167317D01*
X170854Y166917D01*
Y151169D02*
X171254Y151969D01*
X170854Y152769D01*
X171654Y152369D01*
X172454Y152769D01*
X172054Y151969D01*
X172454Y151169D01*
X171654Y151569D01*
X170854Y151169D01*
Y135421D02*
X171254Y136221D01*
X170854Y137021D01*
X171654Y136621D01*
X172454Y137021D01*
X172054Y136221D01*
X172454Y135421D01*
X171654Y135821D01*
X170854Y135421D01*
Y103925D02*
X171254Y104725D01*
X170854Y105525D01*
X171654Y105124D01*
X172454Y105525D01*
X172054Y104725D01*
X172454Y103925D01*
X171654Y104324D01*
X170854Y103925D01*
X166917Y96051D02*
X167317Y96851D01*
X166917Y97650D01*
X167717Y97250D01*
X168517Y97650D01*
X168117Y96851D01*
X168517Y96051D01*
X167717Y96451D01*
X166917Y96051D01*
X170854Y88177D02*
X171254Y88977D01*
X170854Y89776D01*
X171654Y89376D01*
X172454Y89776D01*
X172054Y88977D01*
X172454Y88177D01*
X171654Y88577D01*
X170854Y88177D01*
X166917Y48806D02*
X167317Y49606D01*
X166917Y50406D01*
X167717Y50006D01*
X168517Y50406D01*
X168117Y49606D01*
X168517Y48806D01*
X167717Y49206D01*
X166917Y48806D01*
X170854Y40932D02*
X171254Y41732D01*
X170854Y42532D01*
X171654Y42132D01*
X172454Y42532D01*
X172054Y41732D01*
X172454Y40932D01*
X171654Y41332D01*
X170854Y40932D01*
X166917Y33058D02*
X167317Y33858D01*
X166917Y34658D01*
X167717Y34258D01*
X168517Y34658D01*
X168117Y33858D01*
X168517Y33058D01*
X167717Y33458D01*
X166917Y33058D01*
X170854Y25184D02*
X171254Y25984D01*
X170854Y26784D01*
X171654Y26384D01*
X172454Y26784D01*
X172054Y25984D01*
X172454Y25184D01*
X171654Y25584D01*
X170854Y25184D01*
X166917Y17310D02*
X167317Y18110D01*
X166917Y18910D01*
X167717Y18510D01*
X168517Y18910D01*
X168117Y18110D01*
X168517Y17310D01*
X167717Y17710D01*
X166917Y17310D01*
X170854Y9436D02*
X171254Y10236D01*
X170854Y11036D01*
X171654Y10636D01*
X172454Y11036D01*
X172054Y10236D01*
X172454Y9436D01*
X171654Y9836D01*
X170854Y9436D01*
X166917Y1562D02*
X167317Y2362D01*
X166917Y3162D01*
X167717Y2762D01*
X168517Y3162D01*
X168117Y2362D01*
X168517Y1562D01*
X167717Y1962D01*
X166917Y1562D01*
X162980Y198413D02*
X163380Y199213D01*
X162980Y200013D01*
X163780Y199613D01*
X164580Y200013D01*
X164180Y199213D01*
X164580Y198413D01*
X163780Y198813D01*
X162980Y198413D01*
Y88177D02*
X163380Y88977D01*
X162980Y89776D01*
X163780Y89376D01*
X164580Y89776D01*
X164180Y88977D01*
X164580Y88177D01*
X163780Y88577D01*
X162980Y88177D01*
Y40932D02*
X163380Y41732D01*
X162980Y42532D01*
X163780Y42132D01*
X164580Y42532D01*
X164180Y41732D01*
X164580Y40932D01*
X163780Y41332D01*
X162980Y40932D01*
Y25184D02*
X163380Y25984D01*
X162980Y26784D01*
X163780Y26384D01*
X164580Y26784D01*
X164180Y25984D01*
X164580Y25184D01*
X163780Y25584D01*
X162980Y25184D01*
X159043Y17310D02*
X159443Y18110D01*
X159043Y18910D01*
X159843Y18510D01*
X160643Y18910D01*
X160243Y18110D01*
X160643Y17310D01*
X159843Y17710D01*
X159043Y17310D01*
X162980Y9436D02*
X163380Y10236D01*
X162980Y11036D01*
X163780Y10636D01*
X164580Y11036D01*
X164180Y10236D01*
X164580Y9436D01*
X163780Y9836D01*
X162980Y9436D01*
X159043Y1562D02*
X159443Y2362D01*
X159043Y3162D01*
X159843Y2762D01*
X160643Y3162D01*
X160243Y2362D01*
X160643Y1562D01*
X159843Y1962D01*
X159043Y1562D01*
X151169Y206287D02*
X151569Y207087D01*
X151169Y207887D01*
X151969Y207487D01*
X152769Y207887D01*
X152369Y207087D01*
X152769Y206287D01*
X151969Y206687D01*
X151169Y206287D01*
X155106Y198413D02*
X155506Y199213D01*
X155106Y200013D01*
X155906Y199613D01*
X156706Y200013D01*
X156306Y199213D01*
X156706Y198413D01*
X155906Y198813D01*
X155106Y198413D01*
Y182665D02*
X155506Y183465D01*
X155106Y184265D01*
X155906Y183865D01*
X156706Y184265D01*
X156306Y183465D01*
X156706Y182665D01*
X155906Y183065D01*
X155106Y182665D01*
X151169Y174791D02*
X151569Y175591D01*
X151169Y176391D01*
X151969Y175991D01*
X152769Y176391D01*
X152369Y175591D01*
X152769Y174791D01*
X151969Y175191D01*
X151169Y174791D01*
Y159043D02*
X151569Y159843D01*
X151169Y160643D01*
X151969Y160243D01*
X152769Y160643D01*
X152369Y159843D01*
X152769Y159043D01*
X151969Y159443D01*
X151169Y159043D01*
Y64554D02*
X151569Y65354D01*
X151169Y66154D01*
X151969Y65754D01*
X152769Y66154D01*
X152369Y65354D01*
X152769Y64554D01*
X151969Y64954D01*
X151169Y64554D01*
X155106Y25184D02*
X155506Y25984D01*
X155106Y26784D01*
X155906Y26384D01*
X156706Y26784D01*
X156306Y25984D01*
X156706Y25184D01*
X155906Y25584D01*
X155106Y25184D01*
X151169Y17310D02*
X151569Y18110D01*
X151169Y18910D01*
X151969Y18510D01*
X152769Y18910D01*
X152369Y18110D01*
X152769Y17310D01*
X151969Y17710D01*
X151169Y17310D01*
X155106Y9436D02*
X155506Y10236D01*
X155106Y11036D01*
X155906Y10636D01*
X156706Y11036D01*
X156306Y10236D01*
X156706Y9436D01*
X155906Y9836D01*
X155106Y9436D01*
X151169Y1562D02*
X151569Y2362D01*
X151169Y3162D01*
X151969Y2762D01*
X152769Y3162D01*
X152369Y2362D01*
X152769Y1562D01*
X151969Y1962D01*
X151169Y1562D01*
X147232Y198413D02*
X147632Y199213D01*
X147232Y200013D01*
X148032Y199613D01*
X148832Y200013D01*
X148432Y199213D01*
X148832Y198413D01*
X148032Y198813D01*
X147232Y198413D01*
Y182665D02*
X147632Y183465D01*
X147232Y184265D01*
X148032Y183865D01*
X148832Y184265D01*
X148432Y183465D01*
X148832Y182665D01*
X148032Y183065D01*
X147232Y182665D01*
X143295Y48806D02*
X143695Y49606D01*
X143295Y50406D01*
X144095Y50006D01*
X144895Y50406D01*
X144495Y49606D01*
X144895Y48806D01*
X144095Y49206D01*
X143295Y48806D01*
X147232Y25184D02*
X147632Y25984D01*
X147232Y26784D01*
X148032Y26384D01*
X148832Y26784D01*
X148432Y25984D01*
X148832Y25184D01*
X148032Y25584D01*
X147232Y25184D01*
X143295Y17310D02*
X143695Y18110D01*
X143295Y18910D01*
X144095Y18510D01*
X144895Y18910D01*
X144495Y18110D01*
X144895Y17310D01*
X144095Y17710D01*
X143295Y17310D01*
X147232Y9436D02*
X147632Y10236D01*
X147232Y11036D01*
X148032Y10636D01*
X148832Y11036D01*
X148432Y10236D01*
X148832Y9436D01*
X148032Y9836D01*
X147232Y9436D01*
X143295Y1562D02*
X143695Y2362D01*
X143295Y3162D01*
X144095Y2762D01*
X144895Y3162D01*
X144495Y2362D01*
X144895Y1562D01*
X144095Y1962D01*
X143295Y1562D01*
X135421Y190539D02*
X135821Y191339D01*
X135421Y192139D01*
X136221Y191739D01*
X137021Y192139D01*
X136621Y191339D01*
X137021Y190539D01*
X136221Y190939D01*
X135421Y190539D01*
X139358Y56680D02*
X139758Y57480D01*
X139358Y58280D01*
X140158Y57880D01*
X140958Y58280D01*
X140558Y57480D01*
X140958Y56680D01*
X140158Y57080D01*
X139358Y56680D01*
X135421Y48806D02*
X135821Y49606D01*
X135421Y50406D01*
X136221Y50006D01*
X137021Y50406D01*
X136621Y49606D01*
X137021Y48806D01*
X136221Y49206D01*
X135421Y48806D01*
X139358Y25184D02*
X139758Y25984D01*
X139358Y26784D01*
X140158Y26384D01*
X140958Y26784D01*
X140558Y25984D01*
X140958Y25184D01*
X140158Y25584D01*
X139358Y25184D01*
Y9436D02*
X139758Y10236D01*
X139358Y11036D01*
X140158Y10636D01*
X140958Y11036D01*
X140558Y10236D01*
X140958Y9436D01*
X140158Y9836D01*
X139358Y9436D01*
X135421Y1562D02*
X135821Y2362D01*
X135421Y3162D01*
X136221Y2762D01*
X137021Y3162D01*
X136621Y2362D01*
X137021Y1562D01*
X136221Y1962D01*
X135421Y1562D01*
X131484Y198413D02*
X131884Y199213D01*
X131484Y200013D01*
X132284Y199613D01*
X133084Y200013D01*
X132684Y199213D01*
X133084Y198413D01*
X132284Y198813D01*
X131484Y198413D01*
X127547Y143295D02*
X127947Y144095D01*
X127547Y144895D01*
X128347Y144495D01*
X129147Y144895D01*
X128747Y144095D01*
X129147Y143295D01*
X128347Y143695D01*
X127547Y143295D01*
Y127547D02*
X127947Y128347D01*
X127547Y129147D01*
X128347Y128747D01*
X129147Y129147D01*
X128747Y128347D01*
X129147Y127547D01*
X128347Y127947D01*
X127547Y127547D01*
Y48806D02*
X127947Y49606D01*
X127547Y50406D01*
X128347Y50006D01*
X129147Y50406D01*
X128747Y49606D01*
X129147Y48806D01*
X128347Y49206D01*
X127547Y48806D01*
X131484Y40932D02*
X131884Y41732D01*
X131484Y42532D01*
X132284Y42132D01*
X133084Y42532D01*
X132684Y41732D01*
X133084Y40932D01*
X132284Y41332D01*
X131484Y40932D01*
Y25184D02*
X131884Y25984D01*
X131484Y26784D01*
X132284Y26384D01*
X133084Y26784D01*
X132684Y25984D01*
X133084Y25184D01*
X132284Y25584D01*
X131484Y25184D01*
X127547Y1562D02*
X127947Y2362D01*
X127547Y3162D01*
X128347Y2762D01*
X129147Y3162D01*
X128747Y2362D01*
X129147Y1562D01*
X128347Y1962D01*
X127547Y1562D01*
X119673Y190539D02*
X120073Y191339D01*
X119673Y192139D01*
X120473Y191739D01*
X121273Y192139D01*
X120873Y191339D01*
X121273Y190539D01*
X120473Y190939D01*
X119673Y190539D01*
Y48806D02*
X120073Y49606D01*
X119673Y50406D01*
X120473Y50006D01*
X121273Y50406D01*
X120873Y49606D01*
X121273Y48806D01*
X120473Y49206D01*
X119673Y48806D01*
Y33058D02*
X120073Y33858D01*
X119673Y34658D01*
X120473Y34258D01*
X121273Y34658D01*
X120873Y33858D01*
X121273Y33058D01*
X120473Y33458D01*
X119673Y33058D01*
X123610Y25184D02*
X124010Y25984D01*
X123610Y26784D01*
X124410Y26384D01*
X125210Y26784D01*
X124810Y25984D01*
X125210Y25184D01*
X124410Y25584D01*
X123610Y25184D01*
X119673Y1562D02*
X120073Y2362D01*
X119673Y3162D01*
X120473Y2762D01*
X121273Y3162D01*
X120873Y2362D01*
X121273Y1562D01*
X120473Y1962D01*
X119673Y1562D01*
X111799Y190539D02*
X112198Y191339D01*
X111799Y192139D01*
X112599Y191739D01*
X113399Y192139D01*
X112998Y191339D01*
X113399Y190539D01*
X112599Y190939D01*
X111799Y190539D01*
Y143295D02*
X112198Y144095D01*
X111799Y144895D01*
X112599Y144495D01*
X113399Y144895D01*
X112998Y144095D01*
X113399Y143295D01*
X112599Y143695D01*
X111799Y143295D01*
X115735Y103925D02*
X116136Y104725D01*
X115735Y105525D01*
X116535Y105124D01*
X117335Y105525D01*
X116936Y104725D01*
X117335Y103925D01*
X116535Y104324D01*
X115735Y103925D01*
X111799Y96051D02*
X112198Y96851D01*
X111799Y97650D01*
X112599Y97250D01*
X113399Y97650D01*
X112998Y96851D01*
X113399Y96051D01*
X112599Y96451D01*
X111799Y96051D01*
Y33058D02*
X112198Y33858D01*
X111799Y34658D01*
X112599Y34258D01*
X113399Y34658D01*
X112998Y33858D01*
X113399Y33058D01*
X112599Y33458D01*
X111799Y33058D01*
X115735Y25184D02*
X116136Y25984D01*
X115735Y26784D01*
X116535Y26384D01*
X117335Y26784D01*
X116936Y25984D01*
X117335Y25184D01*
X116535Y25584D01*
X115735Y25184D01*
Y9436D02*
X116136Y10236D01*
X115735Y11036D01*
X116535Y10636D01*
X117335Y11036D01*
X116936Y10236D01*
X117335Y9436D01*
X116535Y9836D01*
X115735Y9436D01*
X111799Y1562D02*
X112198Y2362D01*
X111799Y3162D01*
X112599Y2762D01*
X113399Y3162D01*
X112998Y2362D01*
X113399Y1562D01*
X112599Y1962D01*
X111799Y1562D01*
X107861Y198413D02*
X108262Y199213D01*
X107861Y200013D01*
X108661Y199613D01*
X109461Y200013D01*
X109062Y199213D01*
X109461Y198413D01*
X108661Y198813D01*
X107861Y198413D01*
X103925Y190539D02*
X104324Y191339D01*
X103925Y192139D01*
X104725Y191739D01*
X105525Y192139D01*
X105124Y191339D01*
X105525Y190539D01*
X104725Y190939D01*
X103925Y190539D01*
X107861Y103925D02*
X108262Y104725D01*
X107861Y105525D01*
X108661Y105124D01*
X109461Y105525D01*
X109062Y104725D01*
X109461Y103925D01*
X108661Y104324D01*
X107861Y103925D01*
X103925Y96051D02*
X104324Y96851D01*
X103925Y97650D01*
X104725Y97250D01*
X105525Y97650D01*
X105124Y96851D01*
X105525Y96051D01*
X104725Y96451D01*
X103925Y96051D01*
Y33058D02*
X104324Y33858D01*
X103925Y34658D01*
X104725Y34258D01*
X105525Y34658D01*
X105124Y33858D01*
X105525Y33058D01*
X104725Y33458D01*
X103925Y33058D01*
X107861Y25184D02*
X108262Y25984D01*
X107861Y26784D01*
X108661Y26384D01*
X109461Y26784D01*
X109062Y25984D01*
X109461Y25184D01*
X108661Y25584D01*
X107861Y25184D01*
X96051Y190539D02*
X96451Y191339D01*
X96051Y192139D01*
X96851Y191739D01*
X97650Y192139D01*
X97250Y191339D01*
X97650Y190539D01*
X96851Y190939D01*
X96051Y190539D01*
Y174791D02*
X96451Y175591D01*
X96051Y176391D01*
X96851Y175991D01*
X97650Y176391D01*
X97250Y175591D01*
X97650Y174791D01*
X96851Y175191D01*
X96051Y174791D01*
X99988Y56680D02*
X100388Y57480D01*
X99988Y58280D01*
X100787Y57880D01*
X101587Y58280D01*
X101188Y57480D01*
X101587Y56680D01*
X100787Y57080D01*
X99988Y56680D01*
X96051Y33058D02*
X96451Y33858D01*
X96051Y34658D01*
X96851Y34258D01*
X97650Y34658D01*
X97250Y33858D01*
X97650Y33058D01*
X96851Y33458D01*
X96051Y33058D01*
X88177Y190539D02*
X88577Y191339D01*
X88177Y192139D01*
X88977Y191739D01*
X89776Y192139D01*
X89376Y191339D01*
X89776Y190539D01*
X88977Y190939D01*
X88177Y190539D01*
X92114Y182665D02*
X92514Y183465D01*
X92114Y184265D01*
X92914Y183865D01*
X93713Y184265D01*
X93313Y183465D01*
X93713Y182665D01*
X92914Y183065D01*
X92114Y182665D01*
Y9436D02*
X92514Y10236D01*
X92114Y11036D01*
X92914Y10636D01*
X93713Y11036D01*
X93313Y10236D01*
X93713Y9436D01*
X92914Y9836D01*
X92114Y9436D01*
X84240Y166917D02*
X84640Y167717D01*
X84240Y168517D01*
X85040Y168117D01*
X85839Y168517D01*
X85439Y167717D01*
X85839Y166917D01*
X85040Y167317D01*
X84240Y166917D01*
X72428Y190539D02*
X72828Y191339D01*
X72428Y192139D01*
X73228Y191739D01*
X74028Y192139D01*
X73628Y191339D01*
X74028Y190539D01*
X73228Y190939D01*
X72428Y190539D01*
Y174791D02*
X72828Y175591D01*
X72428Y176391D01*
X73228Y175991D01*
X74028Y176391D01*
X73628Y175591D01*
X74028Y174791D01*
X73228Y175191D01*
X72428Y174791D01*
Y64554D02*
X72828Y65354D01*
X72428Y66154D01*
X73228Y65754D01*
X74028Y66154D01*
X73628Y65354D01*
X74028Y64554D01*
X73228Y64954D01*
X72428Y64554D01*
X64554Y190539D02*
X64954Y191339D01*
X64554Y192139D01*
X65354Y191739D01*
X66154Y192139D01*
X65754Y191339D01*
X66154Y190539D01*
X65354Y190939D01*
X64554Y190539D01*
Y33058D02*
X64954Y33858D01*
X64554Y34658D01*
X65354Y34258D01*
X66154Y34658D01*
X65754Y33858D01*
X66154Y33058D01*
X65354Y33458D01*
X64554Y33058D01*
Y1562D02*
X64954Y2362D01*
X64554Y3162D01*
X65354Y2762D01*
X66154Y3162D01*
X65754Y2362D01*
X66154Y1562D01*
X65354Y1962D01*
X64554Y1562D01*
X56680Y206287D02*
X57080Y207087D01*
X56680Y207887D01*
X57480Y207487D01*
X58280Y207887D01*
X57880Y207087D01*
X58280Y206287D01*
X57480Y206687D01*
X56680Y206287D01*
X60617Y182665D02*
X61017Y183465D01*
X60617Y184265D01*
X61417Y183865D01*
X62217Y184265D01*
X61817Y183465D01*
X62217Y182665D01*
X61417Y183065D01*
X60617Y182665D01*
Y9436D02*
X61017Y10236D01*
X60617Y11036D01*
X61417Y10636D01*
X62217Y11036D01*
X61817Y10236D01*
X62217Y9436D01*
X61417Y9836D01*
X60617Y9436D01*
X56680Y1562D02*
X57080Y2362D01*
X56680Y3162D01*
X57480Y2762D01*
X58280Y3162D01*
X57880Y2362D01*
X58280Y1562D01*
X57480Y1962D01*
X56680Y1562D01*
X52743Y198413D02*
X53143Y199213D01*
X52743Y200013D01*
X53543Y199613D01*
X54343Y200013D01*
X53943Y199213D01*
X54343Y198413D01*
X53543Y198813D01*
X52743Y198413D01*
Y72428D02*
X53143Y73228D01*
X52743Y74028D01*
X53543Y73628D01*
X54343Y74028D01*
X53943Y73228D01*
X54343Y72428D01*
X53543Y72828D01*
X52743Y72428D01*
Y40932D02*
X53143Y41732D01*
X52743Y42532D01*
X53543Y42132D01*
X54343Y42532D01*
X53943Y41732D01*
X54343Y40932D01*
X53543Y41332D01*
X52743Y40932D01*
Y25184D02*
X53143Y25984D01*
X52743Y26784D01*
X53543Y26384D01*
X54343Y26784D01*
X53943Y25984D01*
X54343Y25184D01*
X53543Y25584D01*
X52743Y25184D01*
X48806Y1562D02*
X49206Y2362D01*
X48806Y3162D01*
X49606Y2762D01*
X50406Y3162D01*
X50006Y2362D01*
X50406Y1562D01*
X49606Y1962D01*
X48806Y1562D01*
X40932Y174791D02*
X41332Y175591D01*
X40932Y176391D01*
X41732Y175991D01*
X42532Y176391D01*
X42132Y175591D01*
X42532Y174791D01*
X41732Y175191D01*
X40932Y174791D01*
Y143295D02*
X41332Y144095D01*
X40932Y144895D01*
X41732Y144495D01*
X42532Y144895D01*
X42132Y144095D01*
X42532Y143295D01*
X41732Y143695D01*
X40932Y143295D01*
Y96051D02*
X41332Y96851D01*
X40932Y97650D01*
X41732Y97250D01*
X42532Y97650D01*
X42132Y96851D01*
X42532Y96051D01*
X41732Y96451D01*
X40932Y96051D01*
X44869Y72428D02*
X45269Y73228D01*
X44869Y74028D01*
X45669Y73628D01*
X46469Y74028D01*
X46069Y73228D01*
X46469Y72428D01*
X45669Y72828D01*
X44869Y72428D01*
X40932Y1562D02*
X41332Y2362D01*
X40932Y3162D01*
X41732Y2762D01*
X42532Y3162D01*
X42132Y2362D01*
X42532Y1562D01*
X41732Y1962D01*
X40932Y1562D01*
X33058Y206287D02*
X33458Y207087D01*
X33058Y207887D01*
X33858Y207487D01*
X34658Y207887D01*
X34258Y207087D01*
X34658Y206287D01*
X33858Y206687D01*
X33058Y206287D01*
X36995Y198413D02*
X37395Y199213D01*
X36995Y200013D01*
X37795Y199613D01*
X38595Y200013D01*
X38195Y199213D01*
X38595Y198413D01*
X37795Y198813D01*
X36995Y198413D01*
X33058Y174791D02*
X33458Y175591D01*
X33058Y176391D01*
X33858Y175991D01*
X34658Y176391D01*
X34258Y175591D01*
X34658Y174791D01*
X33858Y175191D01*
X33058Y174791D01*
X36995Y166917D02*
X37395Y167717D01*
X36995Y168517D01*
X37795Y168117D01*
X38595Y168517D01*
X38195Y167717D01*
X38595Y166917D01*
X37795Y167317D01*
X36995Y166917D01*
X33058Y127547D02*
X33458Y128347D01*
X33058Y129147D01*
X33858Y128747D01*
X34658Y129147D01*
X34258Y128347D01*
X34658Y127547D01*
X33858Y127947D01*
X33058Y127547D01*
Y96051D02*
X33458Y96851D01*
X33058Y97650D01*
X33858Y97250D01*
X34658Y97650D01*
X34258Y96851D01*
X34658Y96051D01*
X33858Y96451D01*
X33058Y96051D01*
Y64554D02*
X33458Y65354D01*
X33058Y66154D01*
X33858Y65754D01*
X34658Y66154D01*
X34258Y65354D01*
X34658Y64554D01*
X33858Y64954D01*
X33058Y64554D01*
X36995Y9436D02*
X37395Y10236D01*
X36995Y11036D01*
X37795Y10636D01*
X38595Y11036D01*
X38195Y10236D01*
X38595Y9436D01*
X37795Y9836D01*
X36995Y9436D01*
X29121Y166917D02*
X29521Y167717D01*
X29121Y168517D01*
X29921Y168117D01*
X30721Y168517D01*
X30321Y167717D01*
X30721Y166917D01*
X29921Y167317D01*
X29121Y166917D01*
Y135421D02*
X29521Y136221D01*
X29121Y137021D01*
X29921Y136621D01*
X30721Y137021D01*
X30321Y136221D01*
X30721Y135421D01*
X29921Y135821D01*
X29121Y135421D01*
X25184Y127547D02*
X25584Y128347D01*
X25184Y129147D01*
X25984Y128747D01*
X26784Y129147D01*
X26384Y128347D01*
X26784Y127547D01*
X25984Y127947D01*
X25184Y127547D01*
X29121Y72428D02*
X29521Y73228D01*
X29121Y74028D01*
X29921Y73628D01*
X30721Y74028D01*
X30321Y73228D01*
X30721Y72428D01*
X29921Y72828D01*
X29121Y72428D01*
X25184Y33058D02*
X25584Y33858D01*
X25184Y34658D01*
X25984Y34258D01*
X26784Y34658D01*
X26384Y33858D01*
X26784Y33058D01*
X25984Y33458D01*
X25184Y33058D01*
Y17310D02*
X25584Y18110D01*
X25184Y18910D01*
X25984Y18510D01*
X26784Y18910D01*
X26384Y18110D01*
X26784Y17310D01*
X25984Y17710D01*
X25184Y17310D01*
X29121Y9436D02*
X29521Y10236D01*
X29121Y11036D01*
X29921Y10636D01*
X30721Y11036D01*
X30321Y10236D01*
X30721Y9436D01*
X29921Y9836D01*
X29121Y9436D01*
X25184Y1562D02*
X25584Y2362D01*
X25184Y3162D01*
X25984Y2762D01*
X26784Y3162D01*
X26384Y2362D01*
X26784Y1562D01*
X25984Y1962D01*
X25184Y1562D01*
X17310Y17310D02*
X17710Y18110D01*
X17310Y18910D01*
X18110Y18510D01*
X18910Y18910D01*
X18510Y18110D01*
X18910Y17310D01*
X18110Y17710D01*
X17310Y17310D01*
Y1562D02*
X17710Y2362D01*
X17310Y3162D01*
X18110Y2762D01*
X18910Y3162D01*
X18510Y2362D01*
X18910Y1562D01*
X18110Y1962D01*
X17310Y1562D01*
X13373Y119673D02*
X13773Y120473D01*
X13373Y121273D01*
X14173Y120873D01*
X14973Y121273D01*
X14573Y120473D01*
X14973Y119673D01*
X14173Y120073D01*
X13373Y119673D01*
X9436Y1562D02*
X9836Y2362D01*
X9436Y3162D01*
X10236Y2762D01*
X11036Y3162D01*
X10636Y2362D01*
X11036Y1562D01*
X10236Y1962D01*
X9436Y1562D01*
X1562Y206287D02*
X1962Y207087D01*
X1562Y207887D01*
X2362Y207487D01*
X3162Y207887D01*
X2762Y207087D01*
X3162Y206287D01*
X2362Y206687D01*
X1562Y206287D01*
Y190539D02*
X1962Y191339D01*
X1562Y192139D01*
X2362Y191739D01*
X3162Y192139D01*
X2762Y191339D01*
X3162Y190539D01*
X2362Y190939D01*
X1562Y190539D01*
Y174791D02*
X1962Y175591D01*
X1562Y176391D01*
X2362Y175991D01*
X3162Y176391D01*
X2762Y175591D01*
X3162Y174791D01*
X2362Y175191D01*
X1562Y174791D01*
Y159043D02*
X1962Y159843D01*
X1562Y160643D01*
X2362Y160243D01*
X3162Y160643D01*
X2762Y159843D01*
X3162Y159043D01*
X2362Y159443D01*
X1562Y159043D01*
Y143295D02*
X1962Y144095D01*
X1562Y144895D01*
X2362Y144495D01*
X3162Y144895D01*
X2762Y144095D01*
X3162Y143295D01*
X2362Y143695D01*
X1562Y143295D01*
Y127547D02*
X1962Y128347D01*
X1562Y129147D01*
X2362Y128747D01*
X3162Y129147D01*
X2762Y128347D01*
X3162Y127547D01*
X2362Y127947D01*
X1562Y127547D01*
Y111799D02*
X1962Y112599D01*
X1562Y113399D01*
X2362Y112998D01*
X3162Y113399D01*
X2762Y112599D01*
X3162Y111799D01*
X2362Y112198D01*
X1562Y111799D01*
Y96051D02*
X1962Y96851D01*
X1562Y97650D01*
X2362Y97250D01*
X3162Y97650D01*
X2762Y96851D01*
X3162Y96051D01*
X2362Y96451D01*
X1562Y96051D01*
Y80303D02*
X1962Y81103D01*
X1562Y81902D01*
X2362Y81502D01*
X3162Y81902D01*
X2762Y81103D01*
X3162Y80303D01*
X2362Y80703D01*
X1562Y80303D01*
Y64554D02*
X1962Y65354D01*
X1562Y66154D01*
X2362Y65754D01*
X3162Y66154D01*
X2762Y65354D01*
X3162Y64554D01*
X2362Y64954D01*
X1562Y64554D01*
Y48806D02*
X1962Y49606D01*
X1562Y50406D01*
X2362Y50006D01*
X3162Y50406D01*
X2762Y49606D01*
X3162Y48806D01*
X2362Y49206D01*
X1562Y48806D01*
Y33058D02*
X1962Y33858D01*
X1562Y34658D01*
X2362Y34258D01*
X3162Y34658D01*
X2762Y33858D01*
X3162Y33058D01*
X2362Y33458D01*
X1562Y33058D01*
Y17310D02*
X1962Y18110D01*
X1562Y18910D01*
X2362Y18510D01*
X3162Y18910D01*
X2762Y18110D01*
X3162Y17310D01*
X2362Y17710D01*
X1562Y17310D01*
X5499Y9436D02*
X5899Y10236D01*
X5499Y11036D01*
X6299Y10636D01*
X7099Y11036D01*
X6699Y10236D01*
X7099Y9436D01*
X6299Y9836D01*
X5499Y9436D01*
X124594Y162389D02*
X124994Y163189D01*
X124594Y163989D01*
X125394Y163589D01*
X126194Y163989D01*
X125794Y163189D01*
X126194Y162389D01*
X125394Y162789D01*
X124594Y162389D01*
X115224Y148702D02*
X115624Y149502D01*
X115224Y150302D01*
X116024Y149902D01*
X116824Y150302D01*
X116424Y149502D01*
X116824Y148702D01*
X116024Y149102D01*
X115224Y148702D01*
X108435Y148249D02*
X108835Y149049D01*
X108435Y149849D01*
X109235Y149449D01*
X110035Y149849D01*
X109635Y149049D01*
X110035Y148249D01*
X109235Y148649D01*
X108435Y148249D01*
X100791Y144098D02*
X101190Y144898D01*
X100791Y145698D01*
X101591Y145298D01*
X102391Y145698D01*
X101990Y144898D01*
X102391Y144098D01*
X101591Y144498D01*
X100791Y144098D01*
X81591Y136279D02*
X81991Y137079D01*
X81591Y137879D01*
X82391Y137479D01*
X83191Y137879D01*
X82791Y137079D01*
X83191Y136279D01*
X82391Y136679D01*
X81591Y136279D01*
X61798Y146639D02*
X62198Y147439D01*
X61798Y148239D01*
X62598Y147839D01*
X63398Y148239D01*
X62998Y147439D01*
X63398Y146639D01*
X62598Y147039D01*
X61798Y146639D01*
X57229Y155795D02*
X57629Y156595D01*
X57229Y157395D01*
X58029Y156994D01*
X58829Y157395D01*
X58429Y156595D01*
X58829Y155795D01*
X58029Y156194D01*
X57229Y155795D01*
X126873Y80242D02*
X127273Y81042D01*
X126873Y81842D01*
X127673Y81442D01*
X128473Y81842D01*
X128073Y81042D01*
X128473Y80242D01*
X127673Y80642D01*
X126873Y80242D01*
X135838Y93921D02*
X136238Y94721D01*
X135838Y95521D01*
X136638Y95121D01*
X137438Y95521D01*
X137038Y94721D01*
X137438Y93921D01*
X136638Y94321D01*
X135838Y93921D01*
X114909Y94672D02*
X115309Y95472D01*
X114909Y96272D01*
X115709Y95872D01*
X116509Y96272D01*
X116109Y95472D01*
X116509Y94672D01*
X115709Y95072D01*
X114909Y94672D01*
X104515Y90467D02*
X104915Y91267D01*
X104515Y92067D01*
X105315Y91667D01*
X106115Y92067D01*
X105715Y91267D01*
X106115Y90467D01*
X105315Y90867D01*
X104515Y90467D01*
X93239Y95125D02*
X93639Y95925D01*
X93239Y96725D01*
X94039Y96325D01*
X94839Y96725D01*
X94439Y95925D01*
X94839Y95125D01*
X94039Y95525D01*
X93239Y95125D01*
X129157Y82412D02*
X129557Y83212D01*
X129157Y84012D01*
X129957Y83612D01*
X130757Y84012D01*
X130357Y83212D01*
X130757Y82412D01*
X129957Y82812D01*
X129157Y82412D01*
X157463Y94807D02*
X157863Y95607D01*
X157463Y96407D01*
X158263Y96007D01*
X159063Y96407D01*
X158663Y95607D01*
X159063Y94807D01*
X158263Y95207D01*
X157463Y94807D01*
X151311Y114771D02*
X151711Y115571D01*
X151311Y116371D01*
X152111Y115971D01*
X152911Y116371D01*
X152511Y115571D01*
X152911Y114771D01*
X152111Y115171D01*
X151311Y114771D01*
X122386Y134909D02*
X122786Y135709D01*
X122386Y136509D01*
X123186Y136109D01*
X123986Y136509D01*
X123586Y135709D01*
X123986Y134909D01*
X123186Y135309D01*
X122386Y134909D01*
X117906Y89361D02*
X118306Y90161D01*
X117906Y90961D01*
X118706Y90561D01*
X119506Y90961D01*
X119106Y90161D01*
X119506Y89361D01*
X118706Y89761D01*
X117906Y89361D01*
X120185Y92401D02*
X120585Y93201D01*
X120185Y94001D01*
X120985Y93601D01*
X121785Y94001D01*
X121385Y93201D01*
X121785Y92401D01*
X120985Y92801D01*
X120185Y92401D01*
X122444Y100578D02*
X122844Y101378D01*
X122444Y102178D01*
X123244Y101778D01*
X124044Y102178D01*
X123644Y101378D01*
X124044Y100578D01*
X123244Y100978D01*
X122444Y100578D01*
X116527Y121231D02*
X116927Y122031D01*
X116527Y122831D01*
X117327Y122432D01*
X118127Y122831D01*
X117727Y122031D01*
X118127Y121231D01*
X117327Y121632D01*
X116527Y121231D01*
X79948Y98397D02*
X80348Y99197D01*
X79948Y99997D01*
X80748Y99597D01*
X81548Y99997D01*
X81148Y99197D01*
X81548Y98397D01*
X80748Y98797D01*
X79948Y98397D01*
X59825Y115702D02*
X60225Y116502D01*
X59825Y117302D01*
X60625Y116902D01*
X61425Y117302D01*
X61025Y116502D01*
X61425Y115702D01*
X60625Y116102D01*
X59825Y115702D01*
X68371D02*
X68771Y116502D01*
X68371Y117302D01*
X69171Y116902D01*
X69971Y117302D01*
X69571Y116502D01*
X69971Y115702D01*
X69171Y116102D01*
X68371Y115702D01*
X100047Y105017D02*
X100446Y105817D01*
X100047Y106617D01*
X100847Y106217D01*
X101646Y106617D01*
X101247Y105817D01*
X101646Y105017D01*
X100847Y105417D01*
X100047Y105017D01*
X95224Y113944D02*
X95624Y114744D01*
X95224Y115544D01*
X96024Y115144D01*
X96824Y115544D01*
X96424Y114744D01*
X96824Y113944D01*
X96024Y114344D01*
X95224Y113944D01*
X101066Y123909D02*
X101465Y124709D01*
X101066Y125509D01*
X101865Y125109D01*
X102665Y125509D01*
X102266Y124709D01*
X102665Y123909D01*
X101865Y124309D01*
X101066Y123909D01*
X136346Y116113D02*
X136746Y116913D01*
X136346Y117713D01*
X137146Y117313D01*
X137946Y117713D01*
X137546Y116913D01*
X137946Y116113D01*
X137146Y116513D01*
X136346Y116113D01*
X140653Y117210D02*
X141053Y118010D01*
X140653Y118810D01*
X141453Y118410D01*
X142253Y118810D01*
X141853Y118010D01*
X142253Y117210D01*
X141453Y117610D01*
X140653Y117210D01*
X136346Y108665D02*
X136746Y109465D01*
X136346Y110265D01*
X137146Y109865D01*
X137946Y110265D01*
X137546Y109465D01*
X137946Y108665D01*
X137146Y109065D01*
X136346Y108665D01*
X124599Y110404D02*
X124999Y111204D01*
X124599Y112004D01*
X125399Y111604D01*
X126199Y112004D01*
X125799Y111204D01*
X126199Y110404D01*
X125399Y110804D01*
X124599Y110404D01*
X114972Y162753D02*
X115372Y163554D01*
X114972Y164354D01*
X115772Y163953D01*
X116572Y164354D01*
X116172Y163554D01*
X116572Y162753D01*
X115772Y163154D01*
X114972Y162753D01*
X164882Y98863D02*
X165282Y99663D01*
X164882Y100463D01*
X165682Y100063D01*
X166482Y100463D01*
X166082Y99663D01*
X166482Y98863D01*
X165682Y99263D01*
X164882Y98863D01*
X62497Y84899D02*
X62897Y85699D01*
X62497Y86499D01*
X63297Y86099D01*
X64097Y86499D01*
X63697Y85699D01*
X64097Y84899D01*
X63297Y85299D01*
X62497Y84899D01*
X54803Y130745D02*
X55203Y131545D01*
X54803Y132345D01*
X55603Y131945D01*
X56403Y132345D01*
X56003Y131545D01*
X56403Y130745D01*
X55603Y131145D01*
X54803Y130745D01*
X99023Y71097D02*
X99423Y71897D01*
X99023Y72697D01*
X99823Y72297D01*
X100623Y72697D01*
X100223Y71897D01*
X100623Y71097D01*
X99823Y71497D01*
X99023Y71097D01*
X107074Y36190D02*
X107474Y36990D01*
X107074Y37790D01*
X107874Y37390D01*
X108674Y37790D01*
X108274Y36990D01*
X108674Y36190D01*
X107874Y36590D01*
X107074Y36190D01*
X103438Y43022D02*
X103838Y43822D01*
X103438Y44622D01*
X104238Y44222D01*
X105038Y44622D01*
X104638Y43822D01*
X105038Y43022D01*
X104238Y43422D01*
X103438Y43022D01*
X71967Y84899D02*
X72367Y85699D01*
X71967Y86499D01*
X72767Y86099D01*
X73567Y86499D01*
X73167Y85699D01*
X73567Y84899D01*
X72767Y85299D01*
X71967Y84899D01*
X110208Y121680D02*
X110608Y122480D01*
X110208Y123280D01*
X111008Y122880D01*
X111808Y123280D01*
X111408Y122480D01*
X111808Y121680D01*
X111008Y122080D01*
X110208Y121680D01*
X89710Y118507D02*
X90110Y119307D01*
X89710Y120107D01*
X90510Y119707D01*
X91310Y120107D01*
X90910Y119307D01*
X91310Y118507D01*
X90510Y118907D01*
X89710Y118507D01*
X56546Y111636D02*
X56946Y112436D01*
X56546Y113236D01*
X57346Y112836D01*
X58146Y113236D01*
X57746Y112436D01*
X58146Y111636D01*
X57346Y112036D01*
X56546Y111636D01*
X106642Y124678D02*
X107042Y125478D01*
X106642Y126278D01*
X107442Y125878D01*
X108242Y126278D01*
X107842Y125478D01*
X108242Y124678D01*
X107442Y125078D01*
X106642Y124678D01*
X157463Y104613D02*
X157863Y105413D01*
X157463Y106213D01*
X158263Y105813D01*
X159063Y106213D01*
X158663Y105413D01*
X159063Y104613D01*
X158263Y105013D01*
X157463Y104613D01*
X92720Y104449D02*
X93120Y105249D01*
X92720Y106049D01*
X93520Y105649D01*
X94320Y106049D01*
X93920Y105249D01*
X94320Y104449D01*
X93520Y104849D01*
X92720Y104449D01*
X106271Y68453D02*
X106671Y69253D01*
X106271Y70053D01*
X107071Y69653D01*
X107871Y70053D01*
X107471Y69253D01*
X107871Y68453D01*
X107071Y68853D01*
X106271Y68453D01*
X57172Y106358D02*
X57572Y107158D01*
X57172Y107958D01*
X57972Y107558D01*
X58772Y107958D01*
X58372Y107158D01*
X58772Y106358D01*
X57972Y106758D01*
X57172Y106358D01*
X106271Y72766D02*
X106671Y73566D01*
X106271Y74366D01*
X107071Y73966D01*
X107871Y74366D01*
X107471Y73566D01*
X107871Y72766D01*
X107071Y73166D01*
X106271Y72766D01*
X61952Y108707D02*
X62352Y109507D01*
X61952Y110307D01*
X62752Y109907D01*
X63552Y110307D01*
X63152Y109507D01*
X63552Y108707D01*
X62752Y109107D01*
X61952Y108707D01*
X115693Y69658D02*
X116093Y70458D01*
X115693Y71258D01*
X116493Y70858D01*
X117293Y71258D01*
X116893Y70458D01*
X117293Y69658D01*
X116493Y70058D01*
X115693Y69658D01*
X134141Y148708D02*
X134541Y149508D01*
X134141Y150308D01*
X134941Y149908D01*
X135741Y150308D01*
X135341Y149508D01*
X135741Y148708D01*
X134941Y149108D01*
X134141Y148708D01*
X75842Y102759D02*
X76242Y103559D01*
X75842Y104359D01*
X76642Y103959D01*
X77442Y104359D01*
X77042Y103559D01*
X77442Y102759D01*
X76642Y103159D01*
X75842Y102759D01*
X110208Y68453D02*
X110608Y69253D01*
X110208Y70053D01*
X111008Y69653D01*
X111808Y70053D01*
X111408Y69253D01*
X111808Y68453D01*
X111008Y68853D01*
X110208Y68453D01*
X67444Y9604D02*
X67844Y10404D01*
X67444Y11204D01*
X68244Y10804D01*
X69044Y11204D01*
X68644Y10404D01*
X69044Y9604D01*
X68244Y10004D01*
X67444Y9604D01*
X98484Y48712D02*
X98883Y49512D01*
X98484Y50312D01*
X99283Y49912D01*
X100083Y50312D01*
X99683Y49512D01*
X100083Y48712D01*
X99283Y49112D01*
X98484Y48712D01*
X109786Y46531D02*
X110186Y47331D01*
X109786Y48131D01*
X110586Y47731D01*
X111386Y48131D01*
X110986Y47331D01*
X111386Y46531D01*
X110586Y46931D01*
X109786Y46531D01*
X135963Y77913D02*
X136363Y78713D01*
X135963Y79513D01*
X136763Y79113D01*
X137563Y79513D01*
X137163Y78713D01*
X137563Y77913D01*
X136763Y78313D01*
X135963Y77913D01*
X139759Y89898D02*
X140159Y90698D01*
X139759Y91498D01*
X140559Y91098D01*
X141359Y91498D01*
X140959Y90698D01*
X141359Y89898D01*
X140559Y90298D01*
X139759Y89898D01*
X149040Y126250D02*
X149440Y127050D01*
X149040Y127850D01*
X149840Y127450D01*
X150640Y127850D01*
X150240Y127050D01*
X150640Y126250D01*
X149840Y126650D01*
X149040Y126250D01*
X171264Y72675D02*
X171664Y73475D01*
X171264Y74275D01*
X172064Y73875D01*
X172864Y74275D01*
X172464Y73475D01*
X172864Y72675D01*
X172064Y73075D01*
X171264Y72675D01*
X155866Y70574D02*
X156266Y71374D01*
X155866Y72174D01*
X156666Y71774D01*
X157466Y72174D01*
X157066Y71374D01*
X157466Y70574D01*
X156666Y70974D01*
X155866Y70574D01*
X59633Y6631D02*
X60033Y7431D01*
X59633Y8231D01*
X60433Y7831D01*
X61233Y8231D01*
X60833Y7431D01*
X61233Y6631D01*
X60433Y7031D01*
X59633Y6631D01*
X175775Y52251D02*
X176175Y53051D01*
X175775Y53851D01*
X176575Y53451D01*
X177375Y53851D01*
X176975Y53051D01*
X177375Y52251D01*
X176575Y52651D01*
X175775Y52251D01*
X90578Y27743D02*
X90978Y28543D01*
X90578Y29343D01*
X91378Y28943D01*
X92178Y29343D01*
X91778Y28543D01*
X92178Y27743D01*
X91378Y28143D01*
X90578Y27743D01*
X131188Y30598D02*
X131588Y31398D01*
X131188Y32198D01*
X131988Y31798D01*
X132788Y32198D01*
X132388Y31398D01*
X132788Y30598D01*
X131988Y30998D01*
X131188Y30598D01*
X196706Y164486D02*
Y164086D01*
X197506D01*
Y164486D01*
X197906D01*
Y165286D01*
X197506D01*
Y165686D01*
X196706D01*
Y165286D01*
X196306D01*
Y164486D01*
X196706D01*
X187258D02*
Y164086D01*
X188057D01*
Y164486D01*
X188458D01*
Y165286D01*
X188057D01*
Y165686D01*
X187258D01*
Y165286D01*
X186857D01*
Y164486D01*
X187258D01*
X196706Y159761D02*
Y159361D01*
X197506D01*
Y159761D01*
X197906D01*
Y160561D01*
X197506D01*
Y160961D01*
X196706D01*
Y160561D01*
X196306D01*
Y159761D01*
X196706D01*
X191982Y162124D02*
Y161724D01*
X192782D01*
Y162124D01*
X193182D01*
Y162924D01*
X192782D01*
Y163324D01*
X191982D01*
Y162924D01*
X191582D01*
Y162124D01*
X191982D01*
X187258Y159761D02*
Y159361D01*
X188057D01*
Y159761D01*
X188458D01*
Y160561D01*
X188057D01*
Y160961D01*
X187258D01*
Y160561D01*
X186857D01*
Y159761D01*
X187258D01*
X182533Y162124D02*
Y161724D01*
X183333D01*
Y162124D01*
X183733D01*
Y162924D01*
X183333D01*
Y163324D01*
X182533D01*
Y162924D01*
X182133D01*
Y162124D01*
X182533D01*
X177809Y159761D02*
Y159361D01*
X178609D01*
Y159761D01*
X179009D01*
Y160561D01*
X178609D01*
Y160961D01*
X177809D01*
Y160561D01*
X177409D01*
Y159761D01*
X177809D01*
X196706Y155037D02*
Y154637D01*
X197506D01*
Y155037D01*
X197906D01*
Y155837D01*
X197506D01*
Y156237D01*
X196706D01*
Y155837D01*
X196306D01*
Y155037D01*
X196706D01*
X191982Y157399D02*
Y156999D01*
X192782D01*
Y157399D01*
X193182D01*
Y158199D01*
X192782D01*
Y158599D01*
X191982D01*
Y158199D01*
X191582D01*
Y157399D01*
X191982D01*
X187258Y155037D02*
Y154637D01*
X188057D01*
Y155037D01*
X188458D01*
Y155837D01*
X188057D01*
Y156237D01*
X187258D01*
Y155837D01*
X186857D01*
Y155037D01*
X187258D01*
X182533Y157399D02*
Y156999D01*
X183333D01*
Y157399D01*
X183733D01*
Y158199D01*
X183333D01*
Y158599D01*
X182533D01*
Y158199D01*
X182133D01*
Y157399D01*
X182533D01*
X177809Y155037D02*
Y154637D01*
X178609D01*
Y155037D01*
X179009D01*
Y155837D01*
X178609D01*
Y156237D01*
X177809D01*
Y155837D01*
X177409D01*
Y155037D01*
X177809D01*
X196706Y150313D02*
Y149913D01*
X197506D01*
Y150313D01*
X197906D01*
Y151113D01*
X197506D01*
Y151513D01*
X196706D01*
Y151113D01*
X196306D01*
Y150313D01*
X196706D01*
X191982Y152675D02*
Y152275D01*
X192782D01*
Y152675D01*
X193182D01*
Y153475D01*
X192782D01*
Y153875D01*
X191982D01*
Y153475D01*
X191582D01*
Y152675D01*
X191982D01*
X187258Y150313D02*
Y149913D01*
X188057D01*
Y150313D01*
X188458D01*
Y151113D01*
X188057D01*
Y151513D01*
X187258D01*
Y151113D01*
X186857D01*
Y150313D01*
X187258D01*
X182533Y152675D02*
Y152275D01*
X183333D01*
Y152675D01*
X183733D01*
Y153475D01*
X183333D01*
Y153875D01*
X182533D01*
Y153475D01*
X182133D01*
Y152675D01*
X182533D01*
X177809Y150313D02*
Y149913D01*
X178609D01*
Y150313D01*
X179009D01*
Y151113D01*
X178609D01*
Y151513D01*
X177809D01*
Y151113D01*
X177409D01*
Y150313D01*
X177809D01*
X196706Y145588D02*
Y145188D01*
X197506D01*
Y145588D01*
X197906D01*
Y146388D01*
X197506D01*
Y146788D01*
X196706D01*
Y146388D01*
X196306D01*
Y145588D01*
X196706D01*
X191982Y147950D02*
Y147550D01*
X192782D01*
Y147950D01*
X193182D01*
Y148750D01*
X192782D01*
Y149150D01*
X191982D01*
Y148750D01*
X191582D01*
Y147950D01*
X191982D01*
X187258Y145588D02*
Y145188D01*
X188057D01*
Y145588D01*
X188458D01*
Y146388D01*
X188057D01*
Y146788D01*
X187258D01*
Y146388D01*
X186857D01*
Y145588D01*
X187258D01*
X182533Y147950D02*
Y147550D01*
X183333D01*
Y147950D01*
X183733D01*
Y148750D01*
X183333D01*
Y149150D01*
X182533D01*
Y148750D01*
X182133D01*
Y147950D01*
X182533D01*
X177809Y145588D02*
Y145188D01*
X178609D01*
Y145588D01*
X179009D01*
Y146388D01*
X178609D01*
Y146788D01*
X177809D01*
Y146388D01*
X177409D01*
Y145588D01*
X177809D01*
X196706Y140864D02*
Y140464D01*
X197506D01*
Y140864D01*
X197906D01*
Y141664D01*
X197506D01*
Y142064D01*
X196706D01*
Y141664D01*
X196306D01*
Y140864D01*
X196706D01*
X191982Y143226D02*
Y142826D01*
X192782D01*
Y143226D01*
X193182D01*
Y144026D01*
X192782D01*
Y144426D01*
X191982D01*
Y144026D01*
X191582D01*
Y143226D01*
X191982D01*
X187258Y140864D02*
Y140464D01*
X188057D01*
Y140864D01*
X188458D01*
Y141664D01*
X188057D01*
Y142064D01*
X187258D01*
Y141664D01*
X186857D01*
Y140864D01*
X187258D01*
X182533Y143226D02*
Y142826D01*
X183333D01*
Y143226D01*
X183733D01*
Y144026D01*
X183333D01*
Y144426D01*
X182533D01*
Y144026D01*
X182133D01*
Y143226D01*
X182533D01*
X177809Y140864D02*
Y140464D01*
X178609D01*
Y140864D01*
X179009D01*
Y141664D01*
X178609D01*
Y142064D01*
X177809D01*
Y141664D01*
X177409D01*
Y140864D01*
X177809D01*
X196706Y136139D02*
Y135739D01*
X197506D01*
Y136139D01*
X197906D01*
Y136939D01*
X197506D01*
Y137339D01*
X196706D01*
Y136939D01*
X196306D01*
Y136139D01*
X196706D01*
X191982Y138502D02*
Y138102D01*
X192782D01*
Y138502D01*
X193182D01*
Y139302D01*
X192782D01*
Y139702D01*
X191982D01*
Y139302D01*
X191582D01*
Y138502D01*
X191982D01*
X187258Y136139D02*
Y135739D01*
X188057D01*
Y136139D01*
X188458D01*
Y136939D01*
X188057D01*
Y137339D01*
X187258D01*
Y136939D01*
X186857D01*
Y136139D01*
X187258D01*
X182533Y138502D02*
Y138102D01*
X183333D01*
Y138502D01*
X183733D01*
Y139302D01*
X183333D01*
Y139702D01*
X182533D01*
Y139302D01*
X182133D01*
Y138502D01*
X182533D01*
X177809Y136139D02*
Y135739D01*
X178609D01*
Y136139D01*
X179009D01*
Y136939D01*
X178609D01*
Y137339D01*
X177809D01*
Y136939D01*
X177409D01*
Y136139D01*
X177809D01*
X196706Y131415D02*
Y131015D01*
X197506D01*
Y131415D01*
X197906D01*
Y132215D01*
X197506D01*
Y132615D01*
X196706D01*
Y132215D01*
X196306D01*
Y131415D01*
X196706D01*
X191982Y133777D02*
Y133377D01*
X192782D01*
Y133777D01*
X193182D01*
Y134577D01*
X192782D01*
Y134977D01*
X191982D01*
Y134577D01*
X191582D01*
Y133777D01*
X191982D01*
X187258Y131415D02*
Y131015D01*
X188057D01*
Y131415D01*
X188458D01*
Y132215D01*
X188057D01*
Y132615D01*
X187258D01*
Y132215D01*
X186857D01*
Y131415D01*
X187258D01*
X182533Y133777D02*
Y133377D01*
X183333D01*
Y133777D01*
X183733D01*
Y134577D01*
X183333D01*
Y134977D01*
X182533D01*
Y134577D01*
X182133D01*
Y133777D01*
X182533D01*
D101*
X157587Y178325D02*
G03*
X157587Y178325I-800J0D01*
G01*
Y188324D02*
G03*
X157587Y188324I-800J0D01*
G01*
X167587Y178325D02*
G03*
X167587Y178325I-800J0D01*
G01*
Y188324D02*
G03*
X167587Y188324I-800J0D01*
G01*
X177587Y178325D02*
G03*
X177587Y178325I-800J0D01*
G01*
Y188324D02*
G03*
X177587Y188324I-800J0D01*
G01*
X187587Y178325D02*
G03*
X187587Y178325I-800J0D01*
G01*
Y188324D02*
G03*
X187587Y188324I-800J0D01*
G01*
X73607Y141732D02*
G03*
X73607Y141732I-800J0D01*
G01*
Y123583D02*
G03*
X73607Y123583I-800J0D01*
G01*
X40288Y48356D02*
G03*
X40288Y48356I-800J0D01*
G01*
Y73484D02*
G03*
X40288Y73484I-800J0D01*
G01*
Y60226D02*
G03*
X40288Y60226I-800J0D01*
G01*
X85605Y182937D02*
G03*
X85605Y182937I-800J0D01*
G01*
X72768Y182913D02*
G03*
X72768Y182913I-800J0D01*
G01*
M02*
