G04*
G04 #@! TF.GenerationSoftware,Altium Limited,Altium Designer,20.2.5 (213)*
G04*
G04 Layer_Color=16711935*
%FSLAX25Y25*%
%MOIN*%
G70*
G04*
G04 #@! TF.SameCoordinates,36CD812C-5D22-435A-9ACA-62E3915E2B62*
G04*
G04*
G04 #@! TF.FilePolarity,Negative*
G04*
G01*
G75*
G04:AMPARAMS|DCode=32|XSize=45.28mil|YSize=41.34mil|CornerRadius=11.81mil|HoleSize=0mil|Usage=FLASHONLY|Rotation=90.000|XOffset=0mil|YOffset=0mil|HoleType=Round|Shape=RoundedRectangle|*
%AMROUNDEDRECTD32*
21,1,0.04528,0.01772,0,0,90.0*
21,1,0.02165,0.04134,0,0,90.0*
1,1,0.02362,0.00886,0.01083*
1,1,0.02362,0.00886,-0.01083*
1,1,0.02362,-0.00886,-0.01083*
1,1,0.02362,-0.00886,0.01083*
%
%ADD32ROUNDEDRECTD32*%
G04:AMPARAMS|DCode=38|XSize=45.28mil|YSize=41.34mil|CornerRadius=11.81mil|HoleSize=0mil|Usage=FLASHONLY|Rotation=180.000|XOffset=0mil|YOffset=0mil|HoleType=Round|Shape=RoundedRectangle|*
%AMROUNDEDRECTD38*
21,1,0.04528,0.01772,0,0,180.0*
21,1,0.02165,0.04134,0,0,180.0*
1,1,0.02362,-0.01083,0.00886*
1,1,0.02362,0.01083,0.00886*
1,1,0.02362,0.01083,-0.00886*
1,1,0.02362,-0.01083,-0.00886*
%
%ADD38ROUNDEDRECTD38*%
G04:AMPARAMS|DCode=40|XSize=65.75mil|YSize=49.21mil|CornerRadius=13.78mil|HoleSize=0mil|Usage=FLASHONLY|Rotation=180.000|XOffset=0mil|YOffset=0mil|HoleType=Round|Shape=RoundedRectangle|*
%AMROUNDEDRECTD40*
21,1,0.06575,0.02165,0,0,180.0*
21,1,0.03819,0.04921,0,0,180.0*
1,1,0.02756,-0.01909,0.01083*
1,1,0.02756,0.01909,0.01083*
1,1,0.02756,0.01909,-0.01083*
1,1,0.02756,-0.01909,-0.01083*
%
%ADD40ROUNDEDRECTD40*%
%ADD42R,0.05709X0.04921*%
G04:AMPARAMS|DCode=45|XSize=397.7mil|YSize=279.59mil|CornerRadius=70.9mil|HoleSize=0mil|Usage=FLASHONLY|Rotation=270.000|XOffset=0mil|YOffset=0mil|HoleType=Round|Shape=RoundedRectangle|*
%AMROUNDEDRECTD45*
21,1,0.39770,0.13780,0,0,270.0*
21,1,0.25591,0.27959,0,0,270.0*
1,1,0.14179,-0.06890,-0.12795*
1,1,0.14179,-0.06890,0.12795*
1,1,0.14179,0.06890,0.12795*
1,1,0.14179,0.06890,-0.12795*
%
%ADD45ROUNDEDRECTD45*%
%ADD49C,0.06496*%
%ADD50R,0.06496X0.06496*%
%ADD51C,0.06591*%
%ADD52R,0.06890X0.08465*%
%ADD53O,0.06890X0.08465*%
%ADD54C,0.08591*%
%ADD55R,0.08465X0.06496*%
%ADD56O,0.08465X0.06496*%
%ADD57R,0.06496X0.08465*%
%ADD58O,0.06496X0.08465*%
%ADD59C,0.16339*%
%ADD60R,0.06496X0.06496*%
%ADD61C,0.03740*%
G04:AMPARAMS|DCode=89|XSize=80.71mil|YSize=61.02mil|CornerRadius=16.73mil|HoleSize=0mil|Usage=FLASHONLY|Rotation=90.000|XOffset=0mil|YOffset=0mil|HoleType=Round|Shape=RoundedRectangle|*
%AMROUNDEDRECTD89*
21,1,0.08071,0.02756,0,0,90.0*
21,1,0.04724,0.06102,0,0,90.0*
1,1,0.03347,0.01378,0.02362*
1,1,0.03347,0.01378,-0.02362*
1,1,0.03347,-0.01378,-0.02362*
1,1,0.03347,-0.01378,0.02362*
%
%ADD89ROUNDEDRECTD89*%
G04:AMPARAMS|DCode=90|XSize=61.02mil|YSize=57.09mil|CornerRadius=15.75mil|HoleSize=0mil|Usage=FLASHONLY|Rotation=90.000|XOffset=0mil|YOffset=0mil|HoleType=Round|Shape=RoundedRectangle|*
%AMROUNDEDRECTD90*
21,1,0.06102,0.02559,0,0,90.0*
21,1,0.02953,0.05709,0,0,90.0*
1,1,0.03150,0.01280,0.01476*
1,1,0.03150,0.01280,-0.01476*
1,1,0.03150,-0.01280,-0.01476*
1,1,0.03150,-0.01280,0.01476*
%
%ADD90ROUNDEDRECTD90*%
G04:AMPARAMS|DCode=91|XSize=45.28mil|YSize=43.31mil|CornerRadius=12.3mil|HoleSize=0mil|Usage=FLASHONLY|Rotation=180.000|XOffset=0mil|YOffset=0mil|HoleType=Round|Shape=RoundedRectangle|*
%AMROUNDEDRECTD91*
21,1,0.04528,0.01870,0,0,180.0*
21,1,0.02067,0.04331,0,0,180.0*
1,1,0.02461,-0.01034,0.00935*
1,1,0.02461,0.01034,0.00935*
1,1,0.02461,0.01034,-0.00935*
1,1,0.02461,-0.01034,-0.00935*
%
%ADD91ROUNDEDRECTD91*%
G04:AMPARAMS|DCode=92|XSize=64.96mil|YSize=37.4mil|CornerRadius=10.83mil|HoleSize=0mil|Usage=FLASHONLY|Rotation=90.000|XOffset=0mil|YOffset=0mil|HoleType=Round|Shape=RoundedRectangle|*
%AMROUNDEDRECTD92*
21,1,0.06496,0.01575,0,0,90.0*
21,1,0.04331,0.03740,0,0,90.0*
1,1,0.02165,0.00787,0.02165*
1,1,0.02165,0.00787,-0.02165*
1,1,0.02165,-0.00787,-0.02165*
1,1,0.02165,-0.00787,0.02165*
%
%ADD92ROUNDEDRECTD92*%
G04:AMPARAMS|DCode=93|XSize=84.65mil|YSize=72.84mil|CornerRadius=19.68mil|HoleSize=0mil|Usage=FLASHONLY|Rotation=270.000|XOffset=0mil|YOffset=0mil|HoleType=Round|Shape=RoundedRectangle|*
%AMROUNDEDRECTD93*
21,1,0.08465,0.03347,0,0,270.0*
21,1,0.04528,0.07284,0,0,270.0*
1,1,0.03937,-0.01673,-0.02264*
1,1,0.03937,-0.01673,0.02264*
1,1,0.03937,0.01673,0.02264*
1,1,0.03937,0.01673,-0.02264*
%
%ADD93ROUNDEDRECTD93*%
%ADD94R,0.04921X0.08268*%
G04:AMPARAMS|DCode=95|XSize=43.37mil|YSize=110.3mil|CornerRadius=11.84mil|HoleSize=0mil|Usage=FLASHONLY|Rotation=270.000|XOffset=0mil|YOffset=0mil|HoleType=Round|Shape=RoundedRectangle|*
%AMROUNDEDRECTD95*
21,1,0.04337,0.08661,0,0,270.0*
21,1,0.01968,0.11030,0,0,270.0*
1,1,0.02368,-0.04331,-0.00984*
1,1,0.02368,-0.04331,0.00984*
1,1,0.02368,0.04331,0.00984*
1,1,0.02368,0.04331,-0.00984*
%
%ADD95ROUNDEDRECTD95*%
D32*
X125394Y153839D02*
D03*
X131693D02*
D03*
D38*
X109843Y17323D02*
D03*
Y10630D02*
D03*
X103543Y17323D02*
D03*
Y10630D02*
D03*
X97441Y17323D02*
D03*
Y10630D02*
D03*
D40*
X187593Y123622D02*
D03*
Y115748D02*
D03*
X61319Y139469D02*
D03*
Y131595D02*
D03*
X173105Y115748D02*
D03*
Y123622D02*
D03*
X164758Y115748D02*
D03*
Y123622D02*
D03*
X131732Y168307D02*
D03*
Y160433D02*
D03*
D42*
X196648Y124084D02*
D03*
Y115817D02*
D03*
D45*
X188779Y148524D02*
D03*
D49*
X11909Y205847D02*
D03*
X21910D02*
D03*
X11909Y195846D02*
D03*
X21910D02*
D03*
X11909Y185846D02*
D03*
X21910D02*
D03*
X11909Y175847D02*
D03*
X21910D02*
D03*
X11909Y165847D02*
D03*
X21910D02*
D03*
X11909Y155847D02*
D03*
X21910D02*
D03*
X11909Y145846D02*
D03*
X21910D02*
D03*
X11909Y135846D02*
D03*
X21910D02*
D03*
X11909Y125847D02*
D03*
X21910D02*
D03*
X11909Y115847D02*
D03*
X49528Y145768D02*
D03*
Y155768D02*
D03*
Y165768D02*
D03*
Y175768D02*
D03*
X209124Y60866D02*
D03*
X35787Y145709D02*
D03*
Y155709D02*
D03*
X122716Y196752D02*
D03*
X112716D02*
D03*
X102717D02*
D03*
X92716D02*
D03*
X72716D02*
D03*
X82717D02*
D03*
X11909Y11457D02*
D03*
X21910Y21457D02*
D03*
X11909D02*
D03*
X21910Y31457D02*
D03*
X11909D02*
D03*
X21910Y41457D02*
D03*
X11909D02*
D03*
X21910Y51457D02*
D03*
X11909D02*
D03*
X21910Y61457D02*
D03*
X11909D02*
D03*
X21910Y71457D02*
D03*
X11909D02*
D03*
X21910Y81457D02*
D03*
X11909D02*
D03*
X21910Y91457D02*
D03*
X11909D02*
D03*
X21910Y101457D02*
D03*
X11909D02*
D03*
D50*
X21910Y115847D02*
D03*
X49528Y135768D02*
D03*
X209124Y50866D02*
D03*
X35787Y135709D02*
D03*
X21910Y11457D02*
D03*
D51*
X156787Y178325D02*
D03*
Y188324D02*
D03*
X166787Y178325D02*
D03*
Y188324D02*
D03*
X176787Y178325D02*
D03*
Y188324D02*
D03*
X186787Y178325D02*
D03*
Y188324D02*
D03*
D52*
X62480Y209350D02*
D03*
D53*
X72480D02*
D03*
X82480D02*
D03*
X92480D02*
D03*
X102480D02*
D03*
X112480D02*
D03*
X122480D02*
D03*
X132480D02*
D03*
D54*
X72807Y141732D02*
D03*
Y123583D02*
D03*
X39488Y48356D02*
D03*
Y73484D02*
D03*
Y60226D02*
D03*
X84804Y182937D02*
D03*
X71969Y182913D02*
D03*
D55*
X209124Y13907D02*
D03*
X37500Y91280D02*
D03*
X209124Y178976D02*
D03*
X49606Y91280D02*
D03*
X209124Y89872D02*
D03*
D56*
Y23908D02*
D03*
Y33907D02*
D03*
X37500Y101279D02*
D03*
Y111279D02*
D03*
X209124Y188976D02*
D03*
Y198976D02*
D03*
X49606Y101279D02*
D03*
Y111279D02*
D03*
X209124Y99872D02*
D03*
Y109872D02*
D03*
D57*
X166663Y209311D02*
D03*
D58*
X156663D02*
D03*
X146663D02*
D03*
D59*
X186713Y206988D02*
D03*
X129478Y15325D02*
D03*
X43504Y206988D02*
D03*
D60*
X62717Y196752D02*
D03*
D61*
X197106Y164886D02*
D03*
X187657D02*
D03*
X197106Y160161D02*
D03*
X192382Y162524D02*
D03*
X187657Y160161D02*
D03*
X182933Y162524D02*
D03*
X178209Y160161D02*
D03*
X197106Y155437D02*
D03*
X192382Y157799D02*
D03*
X187657Y155437D02*
D03*
X182933Y157799D02*
D03*
X178209Y155437D02*
D03*
X197106Y150713D02*
D03*
X192382Y153075D02*
D03*
X187657Y150713D02*
D03*
X182933Y153075D02*
D03*
X178209Y150713D02*
D03*
X197106Y145988D02*
D03*
X192382Y148350D02*
D03*
X187657Y145988D02*
D03*
X182933Y148350D02*
D03*
X178209Y145988D02*
D03*
X197106Y141264D02*
D03*
X192382Y143626D02*
D03*
X187657Y141264D02*
D03*
X182933Y143626D02*
D03*
X178209Y141264D02*
D03*
X197106Y136539D02*
D03*
X192382Y138902D02*
D03*
X187657Y136539D02*
D03*
X182933Y138902D02*
D03*
X178209Y136539D02*
D03*
X197106Y131815D02*
D03*
X192382Y134177D02*
D03*
X187657Y131815D02*
D03*
X182933Y134177D02*
D03*
D89*
X33465Y4921D02*
D03*
X85236Y8858D02*
D03*
D90*
X56496Y60630D02*
D03*
X78937D02*
D03*
D91*
X73465Y61516D02*
D03*
D92*
X82126Y17874D02*
D03*
X77795D02*
D03*
X73465Y17087D02*
D03*
X69134Y17874D02*
D03*
X64803Y17087D02*
D03*
X60473Y17874D02*
D03*
X56142Y19449D02*
D03*
X51811Y17874D02*
D03*
D93*
X145374Y150098D02*
D03*
Y165847D02*
D03*
D94*
X134350Y141043D02*
D03*
X117421D02*
D03*
D95*
X162665Y138268D02*
D03*
Y147324D02*
D03*
Y156379D02*
D03*
M02*
