G04*
G04 #@! TF.GenerationSoftware,Altium Limited,Altium Designer,20.2.5 (213)*
G04*
G04 Layer_Color=32768*
%FSLAX25Y25*%
%MOIN*%
G70*
G04*
G04 #@! TF.SameCoordinates,36CD812C-5D22-435A-9ACA-62E3915E2B62*
G04*
G04*
G04 #@! TF.FilePolarity,Positive*
G04*
G01*
G75*
%ADD12C,0.00500*%
%ADD13C,0.00394*%
%ADD63C,0.01181*%
%ADD97C,0.00591*%
%ADD98C,0.00197*%
%ADD99C,0.00197*%
D12*
X204222Y8908D02*
Y38908D01*
X214025D01*
Y8908D02*
Y38908D01*
X204222Y8908D02*
X214025D01*
X32598Y86280D02*
Y116280D01*
X42401D01*
Y86280D02*
Y116280D01*
X32598Y86280D02*
X42401D01*
X204222Y173977D02*
Y203977D01*
X214025D01*
Y173977D02*
Y203977D01*
X204222Y173977D02*
X214025D01*
X141663Y204409D02*
X171662D01*
X141663D02*
Y214212D01*
X171662D01*
Y204409D02*
Y214212D01*
X44704Y86280D02*
Y116280D01*
X54507D01*
Y86280D02*
Y116280D01*
X44704Y86280D02*
X54507D01*
X204222Y84873D02*
Y114873D01*
X214025D01*
Y84873D02*
Y114873D01*
X204222Y84873D02*
X214025D01*
D13*
X45866Y34350D02*
X57480D01*
X45866Y39665D02*
X57480D01*
Y34350D02*
Y39665D01*
X45866Y34350D02*
Y39665D01*
X62008Y106890D02*
X73622D01*
X62008Y101575D02*
X73622D01*
X62008D02*
Y106890D01*
X73622Y101575D02*
Y106890D01*
X142913Y123721D02*
X154527D01*
X142913Y118405D02*
X154527D01*
X142913D02*
Y123721D01*
X154527Y118405D02*
Y123721D01*
X61722Y78415D02*
X73337D01*
X61722Y73100D02*
X73337D01*
X61722D02*
Y78415D01*
X73337Y73100D02*
Y78415D01*
X90659Y73100D02*
X102274D01*
X90659Y78415D02*
X102274D01*
Y73100D02*
Y78415D01*
X90659Y73100D02*
Y78415D01*
X209124Y22923D02*
Y24892D01*
X208140Y23908D02*
X210108D01*
X37500Y100295D02*
Y102264D01*
X36516Y101279D02*
X38484D01*
X209124Y187992D02*
Y189961D01*
X208140Y188976D02*
X210108D01*
X155679Y209311D02*
X157648D01*
X156663Y208327D02*
Y210295D01*
X167215Y58002D02*
X180797D01*
X167215Y65285D02*
X180797D01*
Y58002D02*
Y65285D01*
X167215Y58002D02*
Y65285D01*
X159892Y58789D02*
X165207D01*
X159892Y70404D02*
X165207D01*
X159892Y58789D02*
Y70404D01*
X165207Y58789D02*
Y70404D01*
X144547Y65138D02*
X158130D01*
X144547Y57854D02*
X158130D01*
X144547D02*
Y65138D01*
X158130Y57854D02*
Y65138D01*
X182146Y37075D02*
Y69953D01*
X203405D01*
Y37075D02*
Y69953D01*
X182146Y37075D02*
X203405D01*
X193602Y31398D02*
Y36713D01*
X181988Y31398D02*
Y36713D01*
Y31398D02*
X193602D01*
X181988Y36713D02*
X193602D01*
X137352Y29262D02*
Y34577D01*
X148966Y29262D02*
Y34577D01*
X137352D02*
X148966D01*
X137352Y29262D02*
X148966D01*
X143563Y48219D02*
X148878D01*
X143563Y36604D02*
X148878D01*
Y48219D01*
X143563Y36604D02*
Y48219D01*
X136969D02*
X142283D01*
X136969Y36604D02*
X142283D01*
Y48219D01*
X136969Y36604D02*
Y48219D01*
X141831Y175787D02*
Y189370D01*
X134547Y175787D02*
Y189370D01*
X141831D01*
X134547Y175787D02*
X141831D01*
X110925Y174902D02*
Y188484D01*
X103642Y174902D02*
Y188484D01*
X110925D01*
X103642Y174902D02*
X110925D01*
X183951Y112894D02*
Y126476D01*
X191234Y112894D02*
Y126476D01*
X183951D02*
X191234D01*
X183951Y112894D02*
X191234D01*
X194679Y119950D02*
X198616D01*
X196648Y117982D02*
Y121919D01*
X193148Y112451D02*
Y127951D01*
X200148Y112451D02*
Y127951D01*
X193148D02*
X200148D01*
X193148Y112451D02*
X200148D01*
X97539Y186909D02*
X102854D01*
X97539Y175295D02*
X102854D01*
Y186909D01*
X97539Y175295D02*
Y186909D01*
X138681Y167520D02*
X143996D01*
X138681Y155905D02*
X143996D01*
Y167520D01*
X138681Y155905D02*
Y167520D01*
X112106Y188189D02*
X117421D01*
X112106Y176575D02*
X117421D01*
Y188189D01*
X112106Y176575D02*
Y188189D01*
X103591Y173819D02*
X136469D01*
Y152559D02*
Y173819D01*
X103591Y152559D02*
X136469D01*
X103591D02*
Y173819D01*
X111673Y146653D02*
Y151969D01*
X100059Y146653D02*
Y151969D01*
Y146653D02*
X111673D01*
X100059Y151969D02*
X111673D01*
X60433Y152854D02*
Y158169D01*
X72047Y152854D02*
Y158169D01*
X60433D02*
X72047D01*
X60433Y152854D02*
X72047D01*
X60630Y170306D02*
X65945D01*
X60630Y158691D02*
X65945D01*
Y170306D01*
X60630Y158691D02*
Y170306D01*
X66634D02*
X71949D01*
X66634Y158691D02*
X71949D01*
Y170306D01*
X66634Y158691D02*
Y170306D01*
X42618Y184646D02*
X56201D01*
X42618Y191929D02*
X56201D01*
Y184646D02*
Y191929D01*
X42618Y184646D02*
Y191929D01*
X34886Y191555D02*
X41886D01*
X34886Y176055D02*
X41886D01*
Y191555D01*
X34886Y176055D02*
Y191555D01*
X38386Y182087D02*
Y186024D01*
X36417Y184055D02*
X40354D01*
X107185Y19783D02*
X112500D01*
X107185Y8169D02*
X112500D01*
X107185D02*
Y19783D01*
X112500Y8169D02*
Y19783D01*
X100886D02*
X106201D01*
X100886Y8169D02*
X106201D01*
X100886D02*
Y19783D01*
X106201Y8169D02*
Y19783D01*
X94784D02*
X100098D01*
X94784Y8169D02*
X100098D01*
X94784D02*
Y19783D01*
X100098Y8169D02*
Y19783D01*
X65059Y128642D02*
Y142421D01*
X57579Y128642D02*
Y142421D01*
Y128642D02*
X65059D01*
X57579Y142421D02*
X65059D01*
X33760Y16634D02*
X39075D01*
X33760Y28248D02*
X39075D01*
X33760Y16634D02*
Y28248D01*
X39075Y16634D02*
Y28248D01*
X45472Y4724D02*
Y10039D01*
X57087Y4724D02*
Y10039D01*
X45472D02*
X57087D01*
X45472Y4724D02*
X57087D01*
X63878Y16142D02*
X69193D01*
X63878Y27756D02*
X69193D01*
X63878Y16142D02*
Y27756D01*
X69193Y16142D02*
Y27756D01*
X51476Y29331D02*
Y32874D01*
X49705Y31102D02*
X53248D01*
X45472Y33661D02*
X57976D01*
X45472Y28543D02*
X57976D01*
X45472D02*
Y33661D01*
X57976Y28543D02*
Y33661D01*
X49606Y100295D02*
Y102264D01*
X48622Y101279D02*
X50591D01*
X169365Y112795D02*
Y126575D01*
X176845Y112795D02*
Y126575D01*
X169365D02*
X176845D01*
X169365Y112795D02*
X176845D01*
X161018D02*
Y126575D01*
X168498Y112795D02*
Y126575D01*
X161018D02*
X168498D01*
X161018Y112795D02*
X168498D01*
X143898Y157972D02*
X146850D01*
X145374Y156496D02*
Y159449D01*
X135472Y157480D02*
Y171260D01*
X127992Y157480D02*
Y171260D01*
Y157480D02*
X135472D01*
X127992Y171260D02*
X135472D01*
X123917Y141043D02*
X127854D01*
X125886Y139075D02*
Y143012D01*
X58661Y21752D02*
X62205D01*
X60433Y19980D02*
Y23524D01*
X57874Y15748D02*
Y28252D01*
X62992Y15748D02*
Y28252D01*
X57874Y15748D02*
X62992D01*
X57874Y28252D02*
X62992D01*
X51181Y11220D02*
Y14764D01*
X49409Y12992D02*
X52953D01*
X45177Y15551D02*
X57681D01*
X45177Y10433D02*
X57681D01*
X45177D02*
Y15551D01*
X57681Y10433D02*
Y15551D01*
X40650Y22441D02*
X44193D01*
X42421Y20669D02*
Y24213D01*
X44980Y15941D02*
Y28445D01*
X39862Y15941D02*
Y28445D01*
X44980D01*
X39862Y15941D02*
X44980D01*
X147244Y136398D02*
X152559D01*
X147244Y124784D02*
X152559D01*
Y136398D01*
X147244Y124784D02*
Y136398D01*
X141142D02*
X146457D01*
X141142Y124784D02*
X146457D01*
Y136398D01*
X141142Y124784D02*
Y136398D01*
X143701Y86453D02*
X149016D01*
X143701Y98067D02*
X149016D01*
X143701Y86453D02*
Y98067D01*
X149016Y86453D02*
Y98067D01*
X150000Y86453D02*
X155315D01*
X150000Y98067D02*
X155315D01*
X150000Y86453D02*
Y98067D01*
X155315Y86453D02*
Y98067D01*
X73721Y99803D02*
X79035D01*
X73721Y88189D02*
X79035D01*
Y99803D01*
X73721Y88189D02*
Y99803D01*
X67913D02*
X73228D01*
X67913Y88189D02*
X73228D01*
Y99803D01*
X67913Y88189D02*
Y99803D01*
X62169D02*
X67484D01*
X62169Y88189D02*
X67484D01*
Y99803D01*
X62169Y88189D02*
Y99803D01*
X56398D02*
X61713D01*
X56398Y88189D02*
X61713D01*
Y99803D01*
X56398Y88189D02*
Y99803D01*
X86614Y150886D02*
X91929D01*
X86614Y139272D02*
X91929D01*
Y150886D01*
X86614Y139272D02*
Y150886D01*
X80413D02*
X85728D01*
X80413Y139272D02*
X85728D01*
Y150886D01*
X80413Y139272D02*
Y150886D01*
X139099Y73100D02*
Y78415D01*
X127485Y73100D02*
Y78415D01*
Y73100D02*
X139099D01*
X127485Y78415D02*
X139099D01*
X125422Y43133D02*
Y48448D01*
X113808Y43133D02*
Y48448D01*
Y43133D02*
X125422D01*
X113808Y48448D02*
X125422D01*
X95571Y25886D02*
Y31201D01*
X107185Y25886D02*
Y31201D01*
X95571D02*
X107185D01*
X95571Y25886D02*
X107185D01*
X89468D02*
Y31201D01*
X77854Y25886D02*
Y31201D01*
Y25886D02*
X89468D01*
X77854Y31201D02*
X89468D01*
X209124Y98888D02*
Y100856D01*
X208140Y99872D02*
X210108D01*
X142913Y108858D02*
Y114173D01*
X154527Y108858D02*
Y114173D01*
X142913D02*
X154527D01*
X142913Y108858D02*
X154527D01*
X92716Y150886D02*
X98032D01*
X92716Y139272D02*
X98032D01*
Y150886D01*
X92716Y139272D02*
Y150886D01*
X68218Y58612D02*
Y63927D01*
X56604Y58612D02*
Y63927D01*
Y58612D02*
X68218D01*
X56604Y63927D02*
X68218D01*
X137805Y49852D02*
Y72687D01*
X70876D02*
X137805D01*
X70876Y49852D02*
Y72687D01*
Y49852D02*
X137805D01*
X175187Y65896D02*
X180502D01*
X175187Y77510D02*
X180502D01*
X175187Y65896D02*
Y77510D01*
X180502Y65896D02*
Y77510D01*
X144695Y65974D02*
X150010D01*
X144695Y77589D02*
X150010D01*
X144695Y65974D02*
Y77589D01*
X150010Y65974D02*
Y77589D01*
D63*
X152075Y147047D02*
G03*
X152075Y147047I-599J0D01*
G01*
D97*
X137374Y144972D02*
X153374D01*
X137374D02*
Y170972D01*
X153374D01*
Y144972D02*
Y170972D01*
D98*
X51673Y36713D02*
Y37303D01*
X51378Y37008D02*
X51968D01*
X67815Y103937D02*
Y104528D01*
X67520Y104232D02*
X68110D01*
X114370Y72805D02*
Y78711D01*
Y72805D02*
X126181D01*
Y78711D01*
X114370D02*
X126181D01*
X134468Y82067D02*
Y134468D01*
X82067Y82067D02*
Y134468D01*
Y82067D02*
X134468D01*
X82067Y134468D02*
X134468D01*
X195103Y160681D02*
Y194309D01*
X144354D02*
X195103D01*
X144354Y160681D02*
Y194309D01*
X148721Y120472D02*
Y121653D01*
X148130Y121063D02*
X149311D01*
X67529Y75167D02*
Y76348D01*
X66939Y75758D02*
X68120D01*
X96466Y75167D02*
Y76348D01*
X95876Y75758D02*
X97057D01*
X73524Y173917D02*
X102854D01*
Y152264D02*
Y173917D01*
X73524Y152264D02*
X102854D01*
X73524D02*
Y173917D01*
X185531Y70866D02*
X199311D01*
Y85630D01*
X185531Y70866D02*
Y85630D01*
X199311D01*
X174006Y61348D02*
Y61939D01*
X173711Y61644D02*
X174301D01*
X162549Y64006D02*
Y65187D01*
X161959Y64596D02*
X163140D01*
X151339Y61201D02*
Y61791D01*
X151043Y61496D02*
X151634D01*
X151848Y30738D02*
Y52392D01*
Y30738D02*
X181179D01*
Y52392D01*
X151848D02*
X181179D01*
X187500Y34055D02*
X188091D01*
X187795Y33760D02*
Y34350D01*
X142864Y31919D02*
X143455D01*
X143159Y31624D02*
Y32215D01*
X146221Y41821D02*
Y43002D01*
X145630Y42411D02*
X146811D01*
X139626Y41821D02*
Y43002D01*
X139035Y42411D02*
X140217D01*
X137894Y182579D02*
X138484D01*
X138189Y182283D02*
Y182874D01*
X106988Y181693D02*
X107579D01*
X107283Y181398D02*
Y181988D01*
X187297Y119685D02*
X187888D01*
X187592Y119390D02*
Y119980D01*
X100197Y180512D02*
Y181693D01*
X99606Y181102D02*
X100787D01*
X119095Y189075D02*
X132874D01*
X119095Y174311D02*
Y189075D01*
X132874Y174311D02*
Y189075D01*
X119095Y174311D02*
X132874D01*
X141339Y161417D02*
Y162008D01*
X141043Y161713D02*
X141634D01*
X114764Y182087D02*
Y182677D01*
X114469Y182382D02*
X115059D01*
X105571Y149311D02*
X106161D01*
X105866Y149016D02*
Y149606D01*
X65945Y155512D02*
X66535D01*
X66240Y155217D02*
Y155807D01*
X63287Y163908D02*
Y165089D01*
X62697Y164498D02*
X63878D01*
X69291Y163908D02*
Y165089D01*
X68701Y164498D02*
X69882D01*
X49409Y187992D02*
Y188583D01*
X49114Y188287D02*
X49705D01*
X109843Y13681D02*
Y14272D01*
X109547Y13976D02*
X110138D01*
X103543Y13681D02*
Y14272D01*
X103248Y13976D02*
X103839D01*
X97441Y13681D02*
Y14272D01*
X97146Y13976D02*
X97736D01*
X61319Y134843D02*
Y136221D01*
X60630Y135531D02*
X62008D01*
X36417Y22146D02*
Y22736D01*
X36122Y22441D02*
X36713D01*
X50984Y7382D02*
X51575D01*
X51279Y7087D02*
Y7677D01*
X66535Y21654D02*
Y22244D01*
X66240Y21949D02*
X66831D01*
X122638Y150886D02*
X134449D01*
Y156791D01*
X122638D02*
X134449D01*
X122638Y150886D02*
Y156791D01*
X173105Y118996D02*
Y120374D01*
X172416Y119685D02*
X173794D01*
X164758Y118996D02*
Y120374D01*
X164069Y119685D02*
X165447D01*
X131732Y163681D02*
Y165059D01*
X131043Y164370D02*
X132421D01*
X137106Y135138D02*
Y146949D01*
X114665Y135138D02*
Y146949D01*
X137106D01*
X114665Y135138D02*
X137106D01*
X149902Y130000D02*
Y131181D01*
X149311Y130591D02*
X150492D01*
X143799Y130000D02*
Y131181D01*
X143209Y130591D02*
X144390D01*
X146358Y91670D02*
Y92851D01*
X145768Y92260D02*
X146949D01*
X152657Y91670D02*
Y92851D01*
X152067Y92260D02*
X153248D01*
X76378Y93405D02*
Y94587D01*
X75787Y93996D02*
X76968D01*
X70571Y93405D02*
Y94587D01*
X69980Y93996D02*
X71161D01*
X64826Y93405D02*
Y94587D01*
X64236Y93996D02*
X65417D01*
X59055Y93405D02*
Y94587D01*
X58465Y93996D02*
X59646D01*
X89272Y144488D02*
Y145669D01*
X88681Y145079D02*
X89862D01*
X83071Y144488D02*
Y145669D01*
X82480Y145079D02*
X83661D01*
X132701Y75758D02*
X133882D01*
X133292Y75167D02*
Y76348D01*
X119025Y45790D02*
X120206D01*
X119615Y45200D02*
Y46381D01*
X100787Y28543D02*
X101969D01*
X101378Y27953D02*
Y29134D01*
X83366Y28543D02*
X83957D01*
X83661Y28248D02*
Y28839D01*
X148425Y111516D02*
X149016D01*
X148721Y111221D02*
Y111811D01*
X95374Y144488D02*
Y145669D01*
X94784Y145079D02*
X95965D01*
X61821Y61270D02*
X63002D01*
X62411Y60679D02*
Y61860D01*
X177845Y71408D02*
Y71998D01*
X177549Y71703D02*
X178140D01*
X147352Y71486D02*
Y72077D01*
X147057Y71781D02*
X147648D01*
D99*
X144389Y160681D02*
X195103D01*
M02*
