G04*
G04 #@! TF.GenerationSoftware,Altium Limited,Altium Designer,20.2.5 (213)*
G04*
G04 Layer_Color=128*
%FSLAX25Y25*%
%MOIN*%
G70*
G04*
G04 #@! TF.SameCoordinates,36CD812C-5D22-435A-9ACA-62E3915E2B62*
G04*
G04*
G04 #@! TF.FilePolarity,Positive*
G04*
G01*
G75*
%ADD100C,0.00200*%
D100*
X10138Y205847D02*
X13681D01*
X11909Y204075D02*
Y207618D01*
X20138Y205847D02*
X23681D01*
X21910Y204075D02*
Y207618D01*
X10138Y195846D02*
X13681D01*
X11909Y194075D02*
Y197618D01*
X20138Y195846D02*
X23681D01*
X21910Y194075D02*
Y197618D01*
X10138Y185846D02*
X13681D01*
X11909Y184075D02*
Y187618D01*
X20138Y185846D02*
X23681D01*
X21910Y184075D02*
Y187618D01*
X10138Y175847D02*
X13681D01*
X11909Y174075D02*
Y177618D01*
X20138Y175847D02*
X23681D01*
X21910Y174075D02*
Y177618D01*
X10138Y165847D02*
X13681D01*
X11909Y164075D02*
Y167618D01*
X20138Y165847D02*
X23681D01*
X21910Y164075D02*
Y167618D01*
X10138Y155847D02*
X13681D01*
X11909Y154075D02*
Y157618D01*
X20138Y155847D02*
X23681D01*
X21910Y154075D02*
Y157618D01*
X10138Y145846D02*
X13681D01*
X11909Y144075D02*
Y147618D01*
X20138Y145846D02*
X23681D01*
X21910Y144075D02*
Y147618D01*
X10138Y135846D02*
X13681D01*
X11909Y134075D02*
Y137618D01*
X20138Y135846D02*
X23681D01*
X21910Y134075D02*
Y137618D01*
X10138Y125847D02*
X13681D01*
X11909Y124075D02*
Y127618D01*
X20138Y125847D02*
X23681D01*
X21910Y124075D02*
Y127618D01*
X10138Y115847D02*
X13681D01*
X11909Y114075D02*
Y117618D01*
X20138Y115847D02*
X23681D01*
X21910Y114075D02*
Y117618D01*
X47756Y135768D02*
X51299D01*
X49528Y133996D02*
Y137539D01*
X47756Y145768D02*
X51299D01*
X49528Y143996D02*
Y147539D01*
X47756Y155768D02*
X51299D01*
X49528Y153996D02*
Y157539D01*
X47756Y165768D02*
X51299D01*
X49528Y163996D02*
Y167539D01*
X47756Y175768D02*
X51299D01*
X49528Y173996D02*
Y177539D01*
X154787Y178325D02*
X158787D01*
X156787Y176325D02*
Y180325D01*
X154787Y188324D02*
X158787D01*
X156787Y186324D02*
Y190324D01*
X164787Y178325D02*
X168787D01*
X166787Y176325D02*
Y180325D01*
X164787Y188324D02*
X168787D01*
X166787Y186324D02*
Y190324D01*
X174787Y178325D02*
X178787D01*
X176787Y176325D02*
Y180325D01*
X174787Y188324D02*
X178787D01*
X176787Y186324D02*
Y190324D01*
X184787Y178325D02*
X188787D01*
X186787Y176325D02*
Y180325D01*
X184787Y188324D02*
X188787D01*
X186787Y186324D02*
Y190324D01*
X60512Y209350D02*
X64449D01*
X62480Y207382D02*
Y211319D01*
X70512Y209350D02*
X74449D01*
X72480Y207382D02*
Y211319D01*
X80512Y209350D02*
X84449D01*
X82480Y207382D02*
Y211319D01*
X90512Y209350D02*
X94449D01*
X92480Y207382D02*
Y211319D01*
X100512Y209350D02*
X104449D01*
X102480Y207382D02*
Y211319D01*
X110512Y209350D02*
X114449D01*
X112480Y207382D02*
Y211319D01*
X120512Y209350D02*
X124449D01*
X122480Y207382D02*
Y211319D01*
X130512Y209350D02*
X134449D01*
X132480Y207382D02*
Y211319D01*
X70807Y141732D02*
X74807D01*
X72807Y139732D02*
Y143732D01*
X70807Y123583D02*
X74807D01*
X72807Y121583D02*
Y125583D01*
X37488Y48356D02*
X41488D01*
X39488Y46356D02*
Y50356D01*
X37488Y73484D02*
X41488D01*
X39488Y71484D02*
Y75484D01*
X37488Y60226D02*
X41488D01*
X39488Y58226D02*
Y62226D01*
X82805Y182937D02*
X86804D01*
X84804Y180937D02*
Y184937D01*
X69968Y182913D02*
X73968D01*
X71969Y180913D02*
Y184913D01*
X207352Y50866D02*
X210896D01*
X209124Y49095D02*
Y52638D01*
X207352Y60866D02*
X210896D01*
X209124Y59095D02*
Y62638D01*
X207352Y13907D02*
X210896D01*
X209124Y12136D02*
Y15679D01*
X207352Y23908D02*
X210896D01*
X209124Y22136D02*
Y25679D01*
X207352Y33907D02*
X210896D01*
X209124Y32136D02*
Y35679D01*
X35728Y91280D02*
X39272D01*
X37500Y89508D02*
Y93051D01*
X35728Y101279D02*
X39272D01*
X37500Y99508D02*
Y103051D01*
X35728Y111279D02*
X39272D01*
X37500Y109508D02*
Y113051D01*
X207352Y178976D02*
X210896D01*
X209124Y177205D02*
Y180748D01*
X207352Y188976D02*
X210896D01*
X209124Y187205D02*
Y190748D01*
X207352Y198976D02*
X210896D01*
X209124Y197205D02*
Y200748D01*
X164892Y209311D02*
X168435D01*
X166663Y207539D02*
Y211083D01*
X154892Y209311D02*
X158435D01*
X156663Y207539D02*
Y211083D01*
X144892Y209311D02*
X148435D01*
X146663Y207539D02*
Y211083D01*
X179823Y206988D02*
X193602D01*
X186713Y200098D02*
Y213878D01*
X122589Y15325D02*
X136368D01*
X129478Y8435D02*
Y22215D01*
X36614Y206988D02*
X50394D01*
X43504Y200098D02*
Y213878D01*
X34016Y135709D02*
X37559D01*
X35787Y133937D02*
Y137480D01*
X34016Y145709D02*
X37559D01*
X35787Y143937D02*
Y147480D01*
X34016Y155709D02*
X37559D01*
X35787Y153937D02*
Y157480D01*
X47835Y91280D02*
X51378D01*
X49606Y89508D02*
Y93051D01*
X47835Y101279D02*
X51378D01*
X49606Y99508D02*
Y103051D01*
X47835Y111279D02*
X51378D01*
X49606Y109508D02*
Y113051D01*
X120945Y196752D02*
X124488D01*
X122716Y194980D02*
Y198524D01*
X110945Y196752D02*
X114488D01*
X112716Y194980D02*
Y198524D01*
X100945Y196752D02*
X104488D01*
X102717Y194980D02*
Y198524D01*
X90945Y196752D02*
X94488D01*
X92716Y194980D02*
Y198524D01*
X70945Y196752D02*
X74488D01*
X72716Y194980D02*
Y198524D01*
X60945Y196752D02*
X64488D01*
X62717Y194980D02*
Y198524D01*
X80945Y196752D02*
X84488D01*
X82717Y194980D02*
Y198524D01*
X207352Y89872D02*
X210896D01*
X209124Y88100D02*
Y91644D01*
X207352Y99872D02*
X210896D01*
X209124Y98100D02*
Y101644D01*
X207352Y109872D02*
X210896D01*
X209124Y108100D02*
Y111644D01*
X20138Y11457D02*
X23681D01*
X21910Y9685D02*
Y13228D01*
X10138Y11457D02*
X13681D01*
X11909Y9685D02*
Y13228D01*
X20138Y21457D02*
X23681D01*
X21910Y19685D02*
Y23228D01*
X10138Y21457D02*
X13681D01*
X11909Y19685D02*
Y23228D01*
X20138Y31457D02*
X23681D01*
X21910Y29685D02*
Y33228D01*
X10138Y31457D02*
X13681D01*
X11909Y29685D02*
Y33228D01*
X20138Y41457D02*
X23681D01*
X21910Y39685D02*
Y43228D01*
X10138Y41457D02*
X13681D01*
X11909Y39685D02*
Y43228D01*
X20138Y51457D02*
X23681D01*
X21910Y49685D02*
Y53228D01*
X10138Y51457D02*
X13681D01*
X11909Y49685D02*
Y53228D01*
X20138Y61457D02*
X23681D01*
X21910Y59685D02*
Y63228D01*
X10138Y61457D02*
X13681D01*
X11909Y59685D02*
Y63228D01*
X20138Y71457D02*
X23681D01*
X21910Y69685D02*
Y73228D01*
X10138Y71457D02*
X13681D01*
X11909Y69685D02*
Y73228D01*
X20138Y81457D02*
X23681D01*
X21910Y79685D02*
Y83228D01*
X10138Y81457D02*
X13681D01*
X11909Y79685D02*
Y83228D01*
X20138Y91457D02*
X23681D01*
X21910Y89685D02*
Y93228D01*
X10138Y91457D02*
X13681D01*
X11909Y89685D02*
Y93228D01*
X20138Y101457D02*
X23681D01*
X21910Y99685D02*
Y103228D01*
X10138Y101457D02*
X13681D01*
X11909Y99685D02*
Y103228D01*
X206496Y207087D02*
X207677D01*
X207087Y206496D02*
Y207677D01*
X210433Y167717D02*
X211614D01*
X211024Y167126D02*
Y168307D01*
X206496Y159843D02*
X207677D01*
X207087Y159252D02*
Y160433D01*
X210433Y151969D02*
X211614D01*
X211024Y151378D02*
Y152559D01*
X206496Y144095D02*
X207677D01*
X207087Y143504D02*
Y144685D01*
X210433Y136221D02*
X211614D01*
X211024Y135630D02*
Y136811D01*
X206496Y128347D02*
X207677D01*
X207087Y127756D02*
Y128937D01*
X210433Y120473D02*
X211614D01*
X211024Y119882D02*
Y121063D01*
X210433Y104725D02*
X211614D01*
X211024Y104134D02*
Y105315D01*
X206496Y81103D02*
X207677D01*
X207087Y80512D02*
Y81693D01*
X210433Y73228D02*
X211614D01*
X211024Y72638D02*
Y73819D01*
X206496Y65354D02*
X207677D01*
X207087Y64764D02*
Y65945D01*
X210433Y41732D02*
X211614D01*
X211024Y41142D02*
Y42323D01*
X206496Y2362D02*
X207677D01*
X207087Y1772D02*
Y2953D01*
X198622Y207087D02*
X199803D01*
X199213Y206496D02*
Y207677D01*
X198622Y191339D02*
X199803D01*
X199213Y190748D02*
Y191929D01*
X202559Y183465D02*
X203740D01*
X203150Y182874D02*
Y184055D01*
X198622Y175591D02*
X199803D01*
X199213Y175000D02*
Y176181D01*
X202559Y167717D02*
X203740D01*
X203150Y167126D02*
Y168307D01*
X202559Y120473D02*
X203740D01*
X203150Y119882D02*
Y121063D01*
X202559Y104725D02*
X203740D01*
X203150Y104134D02*
Y105315D01*
X198622Y96851D02*
X199803D01*
X199213Y96260D02*
Y97441D01*
X198622Y81103D02*
X199803D01*
X199213Y80512D02*
Y81693D01*
X202559Y73228D02*
X203740D01*
X203150Y72638D02*
Y73819D01*
X198622Y33858D02*
X199803D01*
X199213Y33268D02*
Y34449D01*
X198622Y18110D02*
X199803D01*
X199213Y17520D02*
Y18701D01*
X198622Y2362D02*
X199803D01*
X199213Y1772D02*
Y2953D01*
X190748Y191339D02*
X191929D01*
X191339Y190748D02*
Y191929D01*
X194685Y183465D02*
X195866D01*
X195276Y182874D02*
Y184055D01*
X190748Y175591D02*
X191929D01*
X191339Y175000D02*
Y176181D01*
X194685Y104725D02*
X195866D01*
X195276Y104134D02*
Y105315D01*
X190748Y96851D02*
X191929D01*
X191339Y96260D02*
Y97441D01*
X194685Y88977D02*
X195866D01*
X195276Y88386D02*
Y89567D01*
X190748Y65354D02*
X191929D01*
X191339Y64764D02*
Y65945D01*
X190748Y18110D02*
X191929D01*
X191339Y17520D02*
Y18701D01*
X194685Y10236D02*
X195866D01*
X195276Y9646D02*
Y10827D01*
X190748Y2362D02*
X191929D01*
X191339Y1772D02*
Y2953D01*
X182874Y112599D02*
X184055D01*
X183465Y112008D02*
Y113189D01*
X186811Y104725D02*
X187992D01*
X187402Y104134D02*
Y105315D01*
X182874Y96851D02*
X184055D01*
X183465Y96260D02*
Y97441D01*
X186811Y88977D02*
X187992D01*
X187402Y88386D02*
Y89567D01*
X186811Y73228D02*
X187992D01*
X187402Y72638D02*
Y73819D01*
X186811Y25984D02*
X187992D01*
X187402Y25394D02*
Y26575D01*
X182874Y18110D02*
X184055D01*
X183465Y17520D02*
Y18701D01*
X186811Y10236D02*
X187992D01*
X187402Y9646D02*
Y10827D01*
X182874Y2362D02*
X184055D01*
X183465Y1772D02*
Y2953D01*
X175000Y207087D02*
X176181D01*
X175591Y206496D02*
Y207677D01*
X178937Y199213D02*
X180118D01*
X179528Y198622D02*
Y199803D01*
X178937Y120473D02*
X180118D01*
X179528Y119882D02*
Y121063D01*
X178937Y104725D02*
X180118D01*
X179528Y104134D02*
Y105315D01*
X175000Y96851D02*
X176181D01*
X175591Y96260D02*
Y97441D01*
X178937Y88977D02*
X180118D01*
X179528Y88386D02*
Y89567D01*
X178937Y25984D02*
X180118D01*
X179528Y25394D02*
Y26575D01*
X175000Y18110D02*
X176181D01*
X175591Y17520D02*
Y18701D01*
X178937Y10236D02*
X180118D01*
X179528Y9646D02*
Y10827D01*
X175000Y2362D02*
X176181D01*
X175591Y1772D02*
Y2953D01*
X171063Y199213D02*
X172244D01*
X171654Y198622D02*
Y199803D01*
X171063Y167717D02*
X172244D01*
X171654Y167126D02*
Y168307D01*
X171063Y151969D02*
X172244D01*
X171654Y151378D02*
Y152559D01*
X171063Y136221D02*
X172244D01*
X171654Y135630D02*
Y136811D01*
X171063Y104725D02*
X172244D01*
X171654Y104134D02*
Y105315D01*
X167126Y96851D02*
X168307D01*
X167717Y96260D02*
Y97441D01*
X171063Y88977D02*
X172244D01*
X171654Y88386D02*
Y89567D01*
X167126Y49606D02*
X168307D01*
X167717Y49016D02*
Y50197D01*
X171063Y41732D02*
X172244D01*
X171654Y41142D02*
Y42323D01*
X167126Y33858D02*
X168307D01*
X167717Y33268D02*
Y34449D01*
X171063Y25984D02*
X172244D01*
X171654Y25394D02*
Y26575D01*
X167126Y18110D02*
X168307D01*
X167717Y17520D02*
Y18701D01*
X171063Y10236D02*
X172244D01*
X171654Y9646D02*
Y10827D01*
X167126Y2362D02*
X168307D01*
X167717Y1772D02*
Y2953D01*
X163189Y199213D02*
X164370D01*
X163780Y198622D02*
Y199803D01*
X163189Y88977D02*
X164370D01*
X163780Y88386D02*
Y89567D01*
X163189Y41732D02*
X164370D01*
X163780Y41142D02*
Y42323D01*
X163189Y25984D02*
X164370D01*
X163780Y25394D02*
Y26575D01*
X159252Y18110D02*
X160433D01*
X159843Y17520D02*
Y18701D01*
X163189Y10236D02*
X164370D01*
X163780Y9646D02*
Y10827D01*
X159252Y2362D02*
X160433D01*
X159843Y1772D02*
Y2953D01*
X151378Y207087D02*
X152559D01*
X151969Y206496D02*
Y207677D01*
X155315Y199213D02*
X156496D01*
X155906Y198622D02*
Y199803D01*
X155315Y183465D02*
X156496D01*
X155906Y182874D02*
Y184055D01*
X151378Y175591D02*
X152559D01*
X151969Y175000D02*
Y176181D01*
X151378Y159843D02*
X152559D01*
X151969Y159252D02*
Y160433D01*
X151378Y65354D02*
X152559D01*
X151969Y64764D02*
Y65945D01*
X155315Y25984D02*
X156496D01*
X155906Y25394D02*
Y26575D01*
X151378Y18110D02*
X152559D01*
X151969Y17520D02*
Y18701D01*
X155315Y10236D02*
X156496D01*
X155906Y9646D02*
Y10827D01*
X151378Y2362D02*
X152559D01*
X151969Y1772D02*
Y2953D01*
X147441Y199213D02*
X148622D01*
X148032Y198622D02*
Y199803D01*
X147441Y183465D02*
X148622D01*
X148032Y182874D02*
Y184055D01*
X143504Y49606D02*
X144685D01*
X144095Y49016D02*
Y50197D01*
X147441Y25984D02*
X148622D01*
X148032Y25394D02*
Y26575D01*
X143504Y18110D02*
X144685D01*
X144095Y17520D02*
Y18701D01*
X147441Y10236D02*
X148622D01*
X148032Y9646D02*
Y10827D01*
X143504Y2362D02*
X144685D01*
X144095Y1772D02*
Y2953D01*
X135630Y191339D02*
X136811D01*
X136221Y190748D02*
Y191929D01*
X139567Y57480D02*
X140748D01*
X140158Y56890D02*
Y58071D01*
X135630Y49606D02*
X136811D01*
X136221Y49016D02*
Y50197D01*
X139567Y25984D02*
X140748D01*
X140158Y25394D02*
Y26575D01*
X139567Y10236D02*
X140748D01*
X140158Y9646D02*
Y10827D01*
X135630Y2362D02*
X136811D01*
X136221Y1772D02*
Y2953D01*
X131693Y199213D02*
X132874D01*
X132284Y198622D02*
Y199803D01*
X127756Y144095D02*
X128937D01*
X128347Y143504D02*
Y144685D01*
X127756Y128347D02*
X128937D01*
X128347Y127756D02*
Y128937D01*
X127756Y49606D02*
X128937D01*
X128347Y49016D02*
Y50197D01*
X131693Y41732D02*
X132874D01*
X132284Y41142D02*
Y42323D01*
X131693Y25984D02*
X132874D01*
X132284Y25394D02*
Y26575D01*
X127756Y2362D02*
X128937D01*
X128347Y1772D02*
Y2953D01*
X119882Y191339D02*
X121063D01*
X120473Y190748D02*
Y191929D01*
X119882Y49606D02*
X121063D01*
X120473Y49016D02*
Y50197D01*
X119882Y33858D02*
X121063D01*
X120473Y33268D02*
Y34449D01*
X123819Y25984D02*
X125000D01*
X124410Y25394D02*
Y26575D01*
X119882Y2362D02*
X121063D01*
X120473Y1772D02*
Y2953D01*
X112008Y191339D02*
X113189D01*
X112599Y190748D02*
Y191929D01*
X112008Y144095D02*
X113189D01*
X112599Y143504D02*
Y144685D01*
X115945Y104725D02*
X117126D01*
X116535Y104134D02*
Y105315D01*
X112008Y96851D02*
X113189D01*
X112599Y96260D02*
Y97441D01*
X112008Y33858D02*
X113189D01*
X112599Y33268D02*
Y34449D01*
X115945Y25984D02*
X117126D01*
X116535Y25394D02*
Y26575D01*
X115945Y10236D02*
X117126D01*
X116535Y9646D02*
Y10827D01*
X112008Y2362D02*
X113189D01*
X112599Y1772D02*
Y2953D01*
X108071Y199213D02*
X109252D01*
X108661Y198622D02*
Y199803D01*
X104134Y191339D02*
X105315D01*
X104725Y190748D02*
Y191929D01*
X108071Y104725D02*
X109252D01*
X108661Y104134D02*
Y105315D01*
X104134Y96851D02*
X105315D01*
X104725Y96260D02*
Y97441D01*
X104134Y33858D02*
X105315D01*
X104725Y33268D02*
Y34449D01*
X108071Y25984D02*
X109252D01*
X108661Y25394D02*
Y26575D01*
X96260Y191339D02*
X97441D01*
X96851Y190748D02*
Y191929D01*
X96260Y175591D02*
X97441D01*
X96851Y175000D02*
Y176181D01*
X100197Y57480D02*
X101378D01*
X100787Y56890D02*
Y58071D01*
X96260Y33858D02*
X97441D01*
X96851Y33268D02*
Y34449D01*
X88386Y191339D02*
X89567D01*
X88977Y190748D02*
Y191929D01*
X92323Y183465D02*
X93504D01*
X92914Y182874D02*
Y184055D01*
X92323Y10236D02*
X93504D01*
X92914Y9646D02*
Y10827D01*
X84449Y167717D02*
X85630D01*
X85040Y167126D02*
Y168307D01*
X72638Y191339D02*
X73819D01*
X73228Y190748D02*
Y191929D01*
X72638Y175591D02*
X73819D01*
X73228Y175000D02*
Y176181D01*
X72638Y65354D02*
X73819D01*
X73228Y64764D02*
Y65945D01*
X64764Y191339D02*
X65945D01*
X65354Y190748D02*
Y191929D01*
X64764Y33858D02*
X65945D01*
X65354Y33268D02*
Y34449D01*
X64764Y2362D02*
X65945D01*
X65354Y1772D02*
Y2953D01*
X56890Y207087D02*
X58071D01*
X57480Y206496D02*
Y207677D01*
X60827Y183465D02*
X62008D01*
X61417Y182874D02*
Y184055D01*
X60827Y10236D02*
X62008D01*
X61417Y9646D02*
Y10827D01*
X56890Y2362D02*
X58071D01*
X57480Y1772D02*
Y2953D01*
X52953Y199213D02*
X54134D01*
X53543Y198622D02*
Y199803D01*
X52953Y73228D02*
X54134D01*
X53543Y72638D02*
Y73819D01*
X52953Y41732D02*
X54134D01*
X53543Y41142D02*
Y42323D01*
X52953Y25984D02*
X54134D01*
X53543Y25394D02*
Y26575D01*
X49016Y2362D02*
X50197D01*
X49606Y1772D02*
Y2953D01*
X41142Y175591D02*
X42323D01*
X41732Y175000D02*
Y176181D01*
X41142Y144095D02*
X42323D01*
X41732Y143504D02*
Y144685D01*
X41142Y96851D02*
X42323D01*
X41732Y96260D02*
Y97441D01*
X45079Y73228D02*
X46260D01*
X45669Y72638D02*
Y73819D01*
X41142Y2362D02*
X42323D01*
X41732Y1772D02*
Y2953D01*
X33268Y207087D02*
X34449D01*
X33858Y206496D02*
Y207677D01*
X37205Y199213D02*
X38386D01*
X37795Y198622D02*
Y199803D01*
X33268Y175591D02*
X34449D01*
X33858Y175000D02*
Y176181D01*
X37205Y167717D02*
X38386D01*
X37795Y167126D02*
Y168307D01*
X33268Y128347D02*
X34449D01*
X33858Y127756D02*
Y128937D01*
X33268Y96851D02*
X34449D01*
X33858Y96260D02*
Y97441D01*
X33268Y65354D02*
X34449D01*
X33858Y64764D02*
Y65945D01*
X37205Y10236D02*
X38386D01*
X37795Y9646D02*
Y10827D01*
X29331Y167717D02*
X30512D01*
X29921Y167126D02*
Y168307D01*
X29331Y136221D02*
X30512D01*
X29921Y135630D02*
Y136811D01*
X25394Y128347D02*
X26575D01*
X25984Y127756D02*
Y128937D01*
X29331Y73228D02*
X30512D01*
X29921Y72638D02*
Y73819D01*
X25394Y33858D02*
X26575D01*
X25984Y33268D02*
Y34449D01*
X25394Y18110D02*
X26575D01*
X25984Y17520D02*
Y18701D01*
X29331Y10236D02*
X30512D01*
X29921Y9646D02*
Y10827D01*
X25394Y2362D02*
X26575D01*
X25984Y1772D02*
Y2953D01*
X17520Y18110D02*
X18701D01*
X18110Y17520D02*
Y18701D01*
X17520Y2362D02*
X18701D01*
X18110Y1772D02*
Y2953D01*
X13583Y120473D02*
X14764D01*
X14173Y119882D02*
Y121063D01*
X9646Y2362D02*
X10827D01*
X10236Y1772D02*
Y2953D01*
X1772Y207087D02*
X2953D01*
X2362Y206496D02*
Y207677D01*
X1772Y191339D02*
X2953D01*
X2362Y190748D02*
Y191929D01*
X1772Y175591D02*
X2953D01*
X2362Y175000D02*
Y176181D01*
X1772Y159843D02*
X2953D01*
X2362Y159252D02*
Y160433D01*
X1772Y144095D02*
X2953D01*
X2362Y143504D02*
Y144685D01*
X1772Y128347D02*
X2953D01*
X2362Y127756D02*
Y128937D01*
X1772Y112599D02*
X2953D01*
X2362Y112008D02*
Y113189D01*
X1772Y96851D02*
X2953D01*
X2362Y96260D02*
Y97441D01*
X1772Y81103D02*
X2953D01*
X2362Y80512D02*
Y81693D01*
X1772Y65354D02*
X2953D01*
X2362Y64764D02*
Y65945D01*
X1772Y49606D02*
X2953D01*
X2362Y49016D02*
Y50197D01*
X1772Y33858D02*
X2953D01*
X2362Y33268D02*
Y34449D01*
X1772Y18110D02*
X2953D01*
X2362Y17520D02*
Y18701D01*
X5709Y10236D02*
X6890D01*
X6299Y9646D02*
Y10827D01*
X124803Y163189D02*
X125984D01*
X125394Y162598D02*
Y163779D01*
X115434Y149502D02*
X116615D01*
X116024Y148911D02*
Y150092D01*
X108645Y149049D02*
X109826D01*
X109235Y148459D02*
Y149640D01*
X101000Y144898D02*
X102181D01*
X101591Y144307D02*
Y145488D01*
X81801Y137079D02*
X82982D01*
X82391Y136489D02*
Y137670D01*
X62008Y147439D02*
X63189D01*
X62598Y146849D02*
Y148030D01*
X57439Y156595D02*
X58620D01*
X58029Y156004D02*
Y157185D01*
X127083Y81042D02*
X128264D01*
X127673Y80452D02*
Y81633D01*
X136047Y94721D02*
X137229D01*
X136638Y94130D02*
Y95311D01*
X115118Y95472D02*
X116299D01*
X115709Y94882D02*
Y96063D01*
X104724Y91267D02*
X105905D01*
X105315Y90676D02*
Y91857D01*
X93449Y95925D02*
X94630D01*
X94039Y95335D02*
Y96516D01*
X129366Y83212D02*
X130547D01*
X129957Y82621D02*
Y83802D01*
X157673Y95607D02*
X158854D01*
X158263Y95016D02*
Y96197D01*
X151521Y115571D02*
X152702D01*
X152111Y114980D02*
Y116161D01*
X122596Y135709D02*
X123777D01*
X123186Y135118D02*
Y136299D01*
X118115Y90161D02*
X119296D01*
X118706Y89571D02*
Y90752D01*
X120394Y93201D02*
X121575D01*
X120985Y92611D02*
Y93792D01*
X122653Y101378D02*
X123835D01*
X123244Y100787D02*
Y101969D01*
X116736Y122031D02*
X117917D01*
X117327Y121441D02*
Y122622D01*
X80158Y99197D02*
X81339D01*
X80748Y98606D02*
Y99787D01*
X60035Y116502D02*
X61216D01*
X60625Y115911D02*
Y117092D01*
X68580Y116502D02*
X69761D01*
X69171Y115911D02*
Y117092D01*
X100256Y105817D02*
X101437D01*
X100847Y105226D02*
Y106407D01*
X95433Y114744D02*
X96614D01*
X96024Y114154D02*
Y115335D01*
X101275Y124709D02*
X102456D01*
X101865Y124118D02*
Y125300D01*
X136555Y116913D02*
X137736D01*
X137146Y116323D02*
Y117504D01*
X140862Y118010D02*
X142043D01*
X141453Y117420D02*
Y118601D01*
X136555Y109465D02*
X137736D01*
X137146Y108874D02*
Y110055D01*
X124808Y111204D02*
X125989D01*
X125399Y110613D02*
Y111794D01*
X115181Y163554D02*
X116362D01*
X115772Y162963D02*
Y164144D01*
X165092Y99663D02*
X166273D01*
X165682Y99073D02*
Y100254D01*
X62707Y85699D02*
X63888D01*
X63297Y85108D02*
Y86289D01*
X55013Y131545D02*
X56194D01*
X55603Y130955D02*
Y132136D01*
X99232Y71897D02*
X100413D01*
X99823Y71306D02*
Y72487D01*
X107283Y36990D02*
X108465D01*
X107874Y36399D02*
Y37580D01*
X103648Y43822D02*
X104829D01*
X104238Y43231D02*
Y44412D01*
X72176Y85699D02*
X73358D01*
X72767Y85108D02*
Y86289D01*
X110417Y122480D02*
X111598D01*
X111008Y121890D02*
Y123071D01*
X89919Y119307D02*
X91101D01*
X90510Y118717D02*
Y119898D01*
X56756Y112436D02*
X57937D01*
X57346Y111846D02*
Y113027D01*
X106851Y125478D02*
X108033D01*
X107442Y124888D02*
Y126069D01*
X157673Y105413D02*
X158854D01*
X158263Y104823D02*
Y106004D01*
X92929Y105249D02*
X94110D01*
X93520Y104658D02*
Y105840D01*
X106480Y69253D02*
X107661D01*
X107071Y68662D02*
Y69844D01*
X57382Y107158D02*
X58563D01*
X57972Y106568D02*
Y107749D01*
X106480Y73566D02*
X107661D01*
X107071Y72975D02*
Y74156D01*
X62161Y109507D02*
X63342D01*
X62752Y108916D02*
Y110098D01*
X115903Y70458D02*
X117084D01*
X116493Y69867D02*
Y71048D01*
X134350Y149508D02*
X135531D01*
X134941Y148917D02*
Y150098D01*
X76051Y103559D02*
X77232D01*
X76642Y102969D02*
Y104150D01*
X110417Y69253D02*
X111598D01*
X111008Y68662D02*
Y69844D01*
X67653Y10404D02*
X68834D01*
X68244Y9814D02*
Y10995D01*
X98693Y49512D02*
X99874D01*
X99283Y48921D02*
Y50102D01*
X109995Y47331D02*
X111176D01*
X110586Y46740D02*
Y47921D01*
X136172Y78713D02*
X137353D01*
X136763Y78122D02*
Y79303D01*
X139969Y90698D02*
X141150D01*
X140559Y90107D02*
Y91288D01*
X149249Y127050D02*
X150430D01*
X149840Y126460D02*
Y127641D01*
X171474Y73475D02*
X172655D01*
X172064Y72884D02*
Y74065D01*
X156076Y71374D02*
X157257D01*
X156666Y70784D02*
Y71965D01*
X59842Y7431D02*
X61024D01*
X60433Y6841D02*
Y8022D01*
X175984Y53051D02*
X177165D01*
X176575Y52461D02*
Y53642D01*
X90787Y28543D02*
X91969D01*
X91378Y27953D02*
Y29134D01*
X131398Y31398D02*
X132579D01*
X131988Y30807D02*
Y31988D01*
X196319Y164886D02*
X197894D01*
X197106Y164098D02*
Y165673D01*
X186870Y164886D02*
X188445D01*
X187657Y164098D02*
Y165673D01*
X196319Y160161D02*
X197894D01*
X197106Y159374D02*
Y160949D01*
X191595Y162524D02*
X193169D01*
X192382Y161736D02*
Y163311D01*
X186870Y160161D02*
X188445D01*
X187657Y159374D02*
Y160949D01*
X182146Y162524D02*
X183721D01*
X182933Y161736D02*
Y163311D01*
X177421Y160161D02*
X178996D01*
X178209Y159374D02*
Y160949D01*
X196319Y155437D02*
X197894D01*
X197106Y154650D02*
Y156224D01*
X191595Y157799D02*
X193169D01*
X192382Y157012D02*
Y158587D01*
X186870Y155437D02*
X188445D01*
X187657Y154650D02*
Y156224D01*
X182146Y157799D02*
X183721D01*
X182933Y157012D02*
Y158587D01*
X177421Y155437D02*
X178996D01*
X178209Y154650D02*
Y156224D01*
X196319Y150713D02*
X197894D01*
X197106Y149925D02*
Y151500D01*
X191595Y153075D02*
X193169D01*
X192382Y152287D02*
Y153862D01*
X186870Y150713D02*
X188445D01*
X187657Y149925D02*
Y151500D01*
X182146Y153075D02*
X183721D01*
X182933Y152287D02*
Y153862D01*
X177421Y150713D02*
X178996D01*
X178209Y149925D02*
Y151500D01*
X196319Y145988D02*
X197894D01*
X197106Y145201D02*
Y146776D01*
X191595Y148350D02*
X193169D01*
X192382Y147563D02*
Y149138D01*
X186870Y145988D02*
X188445D01*
X187657Y145201D02*
Y146776D01*
X182146Y148350D02*
X183721D01*
X182933Y147563D02*
Y149138D01*
X177421Y145988D02*
X178996D01*
X178209Y145201D02*
Y146776D01*
X196319Y141264D02*
X197894D01*
X197106Y140476D02*
Y142051D01*
X191595Y143626D02*
X193169D01*
X192382Y142839D02*
Y144413D01*
X186870Y141264D02*
X188445D01*
X187657Y140476D02*
Y142051D01*
X182146Y143626D02*
X183721D01*
X182933Y142839D02*
Y144413D01*
X177421Y141264D02*
X178996D01*
X178209Y140476D02*
Y142051D01*
X196319Y136539D02*
X197894D01*
X197106Y135752D02*
Y137327D01*
X191595Y138902D02*
X193169D01*
X192382Y138114D02*
Y139689D01*
X186870Y136539D02*
X188445D01*
X187657Y135752D02*
Y137327D01*
X182146Y138902D02*
X183721D01*
X182933Y138114D02*
Y139689D01*
X177421Y136539D02*
X178996D01*
X178209Y135752D02*
Y137327D01*
X196319Y131815D02*
X197894D01*
X197106Y131028D02*
Y132602D01*
X191595Y134177D02*
X193169D01*
X192382Y133390D02*
Y134965D01*
X186870Y131815D02*
X188445D01*
X187657Y131028D02*
Y132602D01*
X182146Y134177D02*
X183721D01*
X182933Y133390D02*
Y134965D01*
M02*
