G04*
G04 #@! TF.GenerationSoftware,Altium Limited,Altium Designer,20.2.5 (213)*
G04*
G04 Layer_Color=16711935*
%FSLAX25Y25*%
%MOIN*%
G70*
G04*
G04 #@! TF.SameCoordinates,36CD812C-5D22-435A-9ACA-62E3915E2B62*
G04*
G04*
G04 #@! TF.FilePolarity,Positive*
G04*
G01*
G75*
%ADD12C,0.00500*%
D12*
X78638Y141732D02*
G03*
X78638Y141732I-5831J0D01*
G01*
Y123583D02*
G03*
X78638Y123583I-5831J0D01*
G01*
X45319Y48356D02*
G03*
X45319Y48356I-5831J0D01*
G01*
Y73484D02*
G03*
X45319Y73484I-5831J0D01*
G01*
Y60226D02*
G03*
X45319Y60226I-5831J0D01*
G01*
X90635Y182937D02*
G03*
X90635Y182937I-5831J0D01*
G01*
X77799Y182913D02*
G03*
X77799Y182913I-5831J0D01*
G01*
X70306Y143231D02*
X69807Y143731D01*
X68807D01*
X68307Y143231D01*
Y142732D01*
X68807Y142232D01*
X69807D01*
X70306Y141732D01*
Y141232D01*
X69807Y140732D01*
X68807D01*
X68307Y141232D01*
X72806Y140732D02*
Y143731D01*
X71306Y142232D01*
X73305D01*
X70306Y125082D02*
X69807Y125582D01*
X68807D01*
X68307Y125082D01*
Y124582D01*
X68807Y124082D01*
X69807D01*
X70306Y123582D01*
Y123082D01*
X69807Y122583D01*
X68807D01*
X68307Y123082D01*
X73305Y125582D02*
X71306D01*
Y124082D01*
X72306Y124582D01*
X72806D01*
X73305Y124082D01*
Y123082D01*
X72806Y122583D01*
X71806D01*
X71306Y123082D01*
X82304Y184436D02*
X81804Y184936D01*
X80804D01*
X80304Y184436D01*
Y183936D01*
X80804Y183436D01*
X81804D01*
X82304Y182936D01*
Y182436D01*
X81804Y181937D01*
X80804D01*
X80304Y182436D01*
X83303Y184936D02*
X85303D01*
Y184436D01*
X83303Y182436D01*
Y181937D01*
X69468Y184413D02*
X68968Y184912D01*
X67968D01*
X67469Y184413D01*
Y183913D01*
X67968Y183413D01*
X68968D01*
X69468Y182913D01*
Y182413D01*
X68968Y181913D01*
X67968D01*
X67469Y182413D01*
X72467Y184912D02*
X71467Y184413D01*
X70468Y183413D01*
Y182413D01*
X70967Y181913D01*
X71967D01*
X72467Y182413D01*
Y182913D01*
X71967Y183413D01*
X70468D01*
M02*
