M48
;Layer_Color=9474304
;FILE_FORMAT=2:5
INCH,LZ
;TYPE=PLATED
T1F00S00C0.01181
T2F00S00C0.01968
T3F00S00C0.02362
T5F00S00C0.03150
T6F00S00C0.03543
T7F00S00C0.03937
T9F00S00C0.10630
T10F00S00C0.13780
%
T01
X-0021457Y0020177
X-0024409Y0026083
X-0012598Y0014272
X-0006693
X-0000788
X0005118
X0011023
X0016929
X0022835
X002874
X0034646
X0040551
X0043504Y0008366
X0037598
X0031693
X0025787
X0019882
X0013976
X0008071
X0011023Y0002461
X0016929
X0022835
X002874
X0034646
X0040551
X0046457
X0052362
X0058268
X0064173
X0070079
X008189
X0087795
Y0014272
X0087795Y0022933
X0064173Y0026083
X0058268
X0052362
X0046457
X0043504Y0031988
X002874Y0026083
X0022835
X0016929
X0011023
X0005118
X-0000788
X0002165Y0031988
X0008071
X0013976
X0019882
Y0020177
X0025787
X0031693
X0013976
X0008071
X0002165
X-000374
Y0031988
X0055315Y0020177
X006122
X0108464Y0031988
X011437
X0120275
X0117323Y0026083
X0123228
Y0014272
X0135039
Y0002461
X0140945
X014685
X0129134
X0123228
X0135039Y0026083
X0140945
X014685
X0143897Y0031988
X0137992
X0149803
X0155709
X0161614
X0158661Y0026083
X0152756
Y0014272
X0158661
X0164567
X0167519Y0008366
X0164567Y0002461
X0170472
X0176378
X0182283
X0188189
X0191142Y0008366
X0194094Y0014272
X02
X0205905
X0211811
X0219685Y0020177
X0220669Y0031988
X0197047
X0194094Y0026083
X02
X0202953Y0020177
X0197047
X0158661Y0002461
X0152756
Y0037894
X0158661
X0155709Y0043799
X0149803
X0161614Y005561
X0167519
X0161614Y0067421
Y0079232
X0167519
X0170472Y0085138
X0176378
X0182283
X0188189
X0194094
X0191142Y0079232
X0194094Y0073327
Y0061516
Y0049705
X0191142Y0043799
X0194094Y0037894
X02
X0205905
X0211811
X0217716
Y0120571
X0220669Y0126476
Y0135827
X0202953Y0138287
X0197047
X0194094Y0132382
X02
X0197047Y0126476
X02Y0120571
X0205905
X0194094Y010876
X0188189
X0182283
X0176378
X0173425Y0091043
X0167519
X0161614
X0155709Y0114665
Y0126476
Y0138287
X0149803
Y0150098
X0155709
X0188189Y0132382
X0135039
X0123228
X0117323
X0111417
X0105512
X0101969Y0134252
X0102559Y0126476
X0108464
X011437
X0120275
X0117323Y0120571
X0123228
X0126181Y0114665
X0120275
X011437
X0108464
X0102559
X0096653
X0090748
X0084842
X008189Y010876
X0087795
X0093701
X0099606
X0105512
X0111417
X0117323
X0123228
X0135039
Y0096949
X0140945
X0137992Y0091043
X0132087
X0126181
X0123228Y0096949
X0129134
X0117323
X0111417
X0105512
X0099606
X0093701
X0087795
X0064173
X0067126Y0102854
X006122
X0064173Y010876
X0067126Y0114665
X006122
X0064173Y0120571
X0067126Y0126476
X0073031
X0078937
X0084842
Y0138287
X0090748
X0087795Y0144193
X0093701
X008189
X0084842Y0150098
X0078937
X0073031
X0067126
X006122
X0055315
Y0138287
X006122
X0067126
X0064173Y0132382
X0058268
X0052362
X0048031Y0130118
X0034646Y0132382
X0022835
X0019488Y0131595
X0011023Y0132382
X0005118
X-0000788
X0002165Y0138287
X0008071
X0005118Y0144193
X0008071Y0150098
X0031693
X0025787Y0114665
Y0102854
Y0091043
X0031693
X0028445Y0086614
X002874Y0073327
X0034646
X0037598Y0067421
X0031693
X002874Y0061516
X0034646
X0037598Y005561
X0031693
X0025787
X0019882
X0022835Y0049705
X002874
X0034646
X0040551
X0037598Y0043799
X0031693
X0034646Y0037894
X0040551
X0055315Y0043799
Y005561
X0064173Y0049705
X006122Y0067421
X0058268Y0073327
X0064173
X006122Y0079232
X0055315
X0049409
Y0091043
X0043504
Y0102854
Y0114665
X006122Y0126476
X0078937Y0138287
X0108464
X0117323Y0144193
X0116929Y0147736
X0118209Y0153839
X0123228Y0144193
X0132087Y0150098
X0137992
X0143897
X0111417Y0120571
X0105512
X0099606
X0093701
X0096653Y0126476
X0108464Y0079232
X011437
X0120275
X0117323Y0073327
X0123228
X0126181Y0067421
X0132087
X0129134Y0061516
X0135039
X0137992Y005561
X0143897
X0140945Y0049705
X014685
X0143897Y0043799
X0137992
X0135039Y0049705
X0132087Y005561
X0126181
X0123228Y0061516
X0120275Y0067421
X011437
X0111417Y0073327
X0105512Y0061516
X0108464Y005561
X0105512Y0049705
X0111417
X0117323
X0120275Y0043799
X011437
X0108464
X0102559
X0105512Y0037894
X0111417
X0117323
X0123228
X0135039
X0140945
X014685
Y0073327
X0143897Y0079232
X0137992
X0135039Y0085138
X0140945
X014685
X0067126Y0091043
X006122
X0005118Y010876
X0002165Y0114665
X-0000788Y0120571
X-0006693
X-000374Y0126476
X0002165
X-000374Y0138287
X-0006693Y0037894
X-0000788
X0005118
X0011023
X0016929
X-0012598
X-0018504
Y0120571
X-0021654
X-0024409Y0132382
X-0021457Y0138287
T02
X0173158Y0011846
X0171653Y0016477
Y0021726
Y0026975
Y0032224
X0187402
Y0026975
Y0021726
Y0016477
X0185898Y0011846
X0181961Y0008988
X0177094
Y0039713
X0181961
X0185898Y0036854
X0173158
Y0051217
X0171653Y0055847
Y0061096
Y0066345
Y0071595
X0173158Y0076224
X0177094Y0079083
X0181961
X0185898Y0076224
X0187402Y0071595
Y0066345
Y0061096
Y0055847
X0185898Y0051217
X0181961Y0048358
X0177094
T03
X011063Y0023228
X0179134Y0132185
X0062106Y0057382
T05
X0095276Y0036516
Y0044035
Y0051555
T06
X0128878Y0007579
X0138878
X0148878
X0158878
X0059213Y0085138
X0049213
T07
X007285Y0092209
Y0102209
Y0134209
Y0144209
X014585
Y0134209
Y0102209
Y0092209
T09
X0019685Y0068701
X0048031
T10
X-001378Y0027559
X021063
Y0129921
X-001378
M30
