G04*
G04 #@! TF.GenerationSoftware,Altium Limited,Altium Designer,20.2.5 (213)*
G04*
G04 Layer_Color=2752767*
%FSLAX25Y25*%
%MOIN*%
G70*
G04*
G04 #@! TF.SameCoordinates,E7A29C4C-667B-4874-933E-F4189BEA85A9*
G04*
G04*
G04 #@! TF.FilePolarity,Positive*
G04*
G01*
G75*
%ADD63C,0.00200*%
%ADD64C,0.00267*%
%ADD65C,0.00133*%
D63*
X209830Y26759D02*
Y28359D01*
X211430D01*
Y26759D01*
X209830D01*
Y129121D02*
Y130721D01*
X211430D01*
Y129121D01*
X209830D01*
X-14580D02*
Y130721D01*
X-12979D01*
Y129121D01*
X-14580D01*
Y26759D02*
Y28359D01*
X-12979D01*
Y26759D01*
X-14580D01*
X19685Y67901D02*
X18885Y69501D01*
X20485D01*
X19685Y67901D01*
X48031D02*
X47232Y69501D01*
X48831D01*
X48031Y67901D01*
X158878Y6779D02*
X159278Y7179D01*
X159678D01*
X159278Y7579D01*
X159678Y7979D01*
X159278D01*
X158878Y8379D01*
X158478Y7979D01*
X158078D01*
X158478Y7579D01*
X158078Y7179D01*
X158478D01*
X158878Y6779D01*
X148878D02*
X149278Y7179D01*
X149678D01*
X149278Y7579D01*
X149678Y7979D01*
X149278D01*
X148878Y8379D01*
X148478Y7979D01*
X148078D01*
X148478Y7579D01*
X148078Y7179D01*
X148478D01*
X148878Y6779D01*
X138878D02*
X139278Y7179D01*
X139678D01*
X139278Y7579D01*
X139678Y7979D01*
X139278D01*
X138878Y8379D01*
X138478Y7979D01*
X138078D01*
X138478Y7579D01*
X138078Y7179D01*
X138478D01*
X138878Y6779D01*
X128878D02*
X129278Y7179D01*
X129678D01*
X129278Y7579D01*
X129678Y7979D01*
X129278D01*
X128878Y8379D01*
X128478Y7979D01*
X128078D01*
X128478Y7579D01*
X128078Y7179D01*
X128478D01*
X128878Y6779D01*
X59213Y84338D02*
X59613Y84738D01*
X60013D01*
X59613Y85138D01*
X60013Y85538D01*
X59613D01*
X59213Y85938D01*
X58813Y85538D01*
X58413D01*
X58813Y85138D01*
X58413Y84738D01*
X58813D01*
X59213Y84338D01*
X49213D02*
X49613Y84738D01*
X50013D01*
X49613Y85138D01*
X50013Y85538D01*
X49613D01*
X49213Y85938D01*
X48813Y85538D01*
X48413D01*
X48813Y85138D01*
X48413Y84738D01*
X48813D01*
X49213Y84338D01*
X145050Y91409D02*
X145450Y92209D01*
X145050Y93009D01*
X145850Y92609D01*
X146650Y93009D01*
X146250Y92209D01*
X146650Y91409D01*
X145850Y91809D01*
X145050Y91409D01*
X72050D02*
X72450Y92209D01*
X72050Y93009D01*
X72850Y92609D01*
X73650Y93009D01*
X73250Y92209D01*
X73650Y91409D01*
X72850Y91809D01*
X72050Y91409D01*
X145050Y143409D02*
X145450Y144209D01*
X145050Y145009D01*
X145850Y144609D01*
X146650Y145009D01*
X146250Y144209D01*
X146650Y143409D01*
X145850Y143809D01*
X145050Y143409D01*
X72050D02*
X72450Y144209D01*
X72050Y145009D01*
X72850Y144609D01*
X73650Y145009D01*
X73250Y144209D01*
X73650Y143409D01*
X72850Y143809D01*
X72050Y143409D01*
Y101409D02*
X72450Y102209D01*
X72050Y103009D01*
X72850Y102609D01*
X73650Y103009D01*
X73250Y102209D01*
X73650Y101409D01*
X72850Y101809D01*
X72050Y101409D01*
X145050D02*
X145450Y102209D01*
X145050Y103009D01*
X145850Y102609D01*
X146650Y103009D01*
X146250Y102209D01*
X146650Y101409D01*
X145850Y101809D01*
X145050Y101409D01*
Y133409D02*
X145450Y134209D01*
X145050Y135009D01*
X145850Y134609D01*
X146650Y135009D01*
X146250Y134209D01*
X146650Y133409D01*
X145850Y133809D01*
X145050Y133409D01*
X72050D02*
X72450Y134209D01*
X72050Y135009D01*
X72850Y134609D01*
X73650Y135009D01*
X73250Y134209D01*
X73650Y133409D01*
X72850Y133809D01*
X72050Y133409D01*
X179128Y63320D02*
Y62920D01*
X179928D01*
Y63320D01*
X180327D01*
Y64121D01*
X179928D01*
Y64521D01*
X179128D01*
Y64121D01*
X178727D01*
Y63320D01*
X179128D01*
Y23950D02*
Y23550D01*
X179928D01*
Y23950D01*
X180327D01*
Y24750D01*
X179928D01*
Y25150D01*
X179128D01*
Y24750D01*
X178727D01*
Y23950D01*
X179128D01*
X94476Y35716D02*
X94876D01*
X95276Y36116D01*
X95676Y35716D01*
X96076D01*
Y36116D01*
X95676Y36516D01*
X96076Y36916D01*
Y37316D01*
X95676D01*
X95276Y36916D01*
X94876Y37316D01*
X94476D01*
Y36916D01*
X94876Y36516D01*
X94476Y36116D01*
Y35716D01*
Y43235D02*
X94876D01*
X95276Y43635D01*
X95676Y43235D01*
X96076D01*
Y43635D01*
X95676Y44035D01*
X96076Y44435D01*
Y44835D01*
X95676D01*
X95276Y44435D01*
X94876Y44835D01*
X94476D01*
Y44435D01*
X94876Y44035D01*
X94476Y43635D01*
Y43235D01*
Y50755D02*
X94876D01*
X95276Y51155D01*
X95676Y50755D01*
X96076D01*
Y51155D01*
X95676Y51555D01*
X96076Y51955D01*
Y52355D01*
X95676D01*
X95276Y51955D01*
X94876Y52355D01*
X94476D01*
Y51955D01*
X94876Y51555D01*
X94476Y51155D01*
Y50755D01*
X219869Y135827D02*
X220669Y136627D01*
X221469Y135827D01*
X220669Y135027D01*
X219869Y135827D01*
Y126476D02*
X220669Y127276D01*
X221469Y126476D01*
X220669Y125676D01*
X219869Y126476D01*
X216916Y120571D02*
X217716Y121371D01*
X218516Y120571D01*
X217716Y119771D01*
X216916Y120571D01*
Y37894D02*
X217716Y38694D01*
X218516Y37894D01*
X217716Y37094D01*
X216916Y37894D01*
X219869Y31988D02*
X220669Y32788D01*
X221469Y31988D01*
X220669Y31188D01*
X219869Y31988D01*
X218885Y20177D02*
X219685Y20977D01*
X220485Y20177D01*
X219685Y19377D01*
X218885Y20177D01*
X211011Y37894D02*
X211811Y38694D01*
X212611Y37894D01*
X211811Y37094D01*
X211011Y37894D01*
Y14272D02*
X211811Y15072D01*
X212611Y14272D01*
X211811Y13472D01*
X211011Y14272D01*
X205105Y120571D02*
X205905Y121371D01*
X206705Y120571D01*
X205905Y119771D01*
X205105Y120571D01*
Y37894D02*
X205905Y38694D01*
X206705Y37894D01*
X205905Y37094D01*
X205105Y37894D01*
Y14272D02*
X205905Y15072D01*
X206705Y14272D01*
X205905Y13472D01*
X205105Y14272D01*
X202153Y138287D02*
X202953Y139087D01*
X203753Y138287D01*
X202953Y137487D01*
X202153Y138287D01*
X199200Y132382D02*
X200000Y133182D01*
X200800Y132382D01*
X200000Y131582D01*
X199200Y132382D01*
Y120571D02*
X200000Y121371D01*
X200800Y120571D01*
X200000Y119771D01*
X199200Y120571D01*
Y37894D02*
X200000Y38694D01*
X200800Y37894D01*
X200000Y37094D01*
X199200Y37894D01*
Y26083D02*
X200000Y26883D01*
X200800Y26083D01*
X200000Y25283D01*
X199200Y26083D01*
X202153Y20177D02*
X202953Y20977D01*
X203753Y20177D01*
X202953Y19377D01*
X202153Y20177D01*
X199200Y14272D02*
X200000Y15072D01*
X200800Y14272D01*
X200000Y13472D01*
X199200Y14272D01*
X196247Y138287D02*
X197047Y139087D01*
X197847Y138287D01*
X197047Y137487D01*
X196247Y138287D01*
X193294Y132382D02*
X194094Y133182D01*
X194894Y132382D01*
X194094Y131582D01*
X193294Y132382D01*
X196247Y126476D02*
X197047Y127276D01*
X197847Y126476D01*
X197047Y125676D01*
X196247Y126476D01*
X193294Y108760D02*
X194094Y109560D01*
X194894Y108760D01*
X194094Y107960D01*
X193294Y108760D01*
Y85138D02*
X194094Y85938D01*
X194894Y85138D01*
X194094Y84338D01*
X193294Y85138D01*
Y73327D02*
X194094Y74127D01*
X194894Y73327D01*
X194094Y72527D01*
X193294Y73327D01*
Y61516D02*
X194094Y62316D01*
X194894Y61516D01*
X194094Y60716D01*
X193294Y61516D01*
Y49705D02*
X194094Y50505D01*
X194894Y49705D01*
X194094Y48905D01*
X193294Y49705D01*
Y37894D02*
X194094Y38694D01*
X194894Y37894D01*
X194094Y37094D01*
X193294Y37894D01*
X196247Y31988D02*
X197047Y32788D01*
X197847Y31988D01*
X197047Y31188D01*
X196247Y31988D01*
X193294Y26083D02*
X194094Y26883D01*
X194894Y26083D01*
X194094Y25283D01*
X193294Y26083D01*
X196247Y20177D02*
X197047Y20977D01*
X197847Y20177D01*
X197047Y19377D01*
X196247Y20177D01*
X193294Y14272D02*
X194094Y15072D01*
X194894Y14272D01*
X194094Y13472D01*
X193294Y14272D01*
X187389Y132382D02*
X188189Y133182D01*
X188989Y132382D01*
X188189Y131582D01*
X187389Y132382D01*
Y108760D02*
X188189Y109560D01*
X188989Y108760D01*
X188189Y107960D01*
X187389Y108760D01*
Y85138D02*
X188189Y85938D01*
X188989Y85138D01*
X188189Y84338D01*
X187389Y85138D01*
X190342Y79232D02*
X191142Y80032D01*
X191942Y79232D01*
X191142Y78432D01*
X190342Y79232D01*
Y43799D02*
X191142Y44599D01*
X191942Y43799D01*
X191142Y42999D01*
X190342Y43799D01*
Y8366D02*
X191142Y9166D01*
X191942Y8366D01*
X191142Y7566D01*
X190342Y8366D01*
X187389Y2461D02*
X188189Y3261D01*
X188989Y2461D01*
X188189Y1661D01*
X187389Y2461D01*
X181483Y108760D02*
X182283Y109560D01*
X183083Y108760D01*
X182283Y107960D01*
X181483Y108760D01*
Y85138D02*
X182283Y85938D01*
X183083Y85138D01*
X182283Y84338D01*
X181483Y85138D01*
Y2461D02*
X182283Y3261D01*
X183083Y2461D01*
X182283Y1661D01*
X181483Y2461D01*
X175578Y108760D02*
X176378Y109560D01*
X177178Y108760D01*
X176378Y107960D01*
X175578Y108760D01*
Y85138D02*
X176378Y85938D01*
X177178Y85138D01*
X176378Y84338D01*
X175578Y85138D01*
Y2461D02*
X176378Y3261D01*
X177178Y2461D01*
X176378Y1661D01*
X175578Y2461D01*
X172625Y91043D02*
X173425Y91843D01*
X174225Y91043D01*
X173425Y90243D01*
X172625Y91043D01*
X169672Y85138D02*
X170472Y85938D01*
X171272Y85138D01*
X170472Y84338D01*
X169672Y85138D01*
Y2461D02*
X170472Y3261D01*
X171272Y2461D01*
X170472Y1661D01*
X169672Y2461D01*
X166719Y91043D02*
X167519Y91843D01*
X168319Y91043D01*
X167519Y90243D01*
X166719Y91043D01*
Y79232D02*
X167519Y80032D01*
X168319Y79232D01*
X167519Y78432D01*
X166719Y79232D01*
Y55610D02*
X167519Y56410D01*
X168319Y55610D01*
X167519Y54810D01*
X166719Y55610D01*
X163767Y14272D02*
X164567Y15072D01*
X165367Y14272D01*
X164567Y13472D01*
X163767Y14272D01*
X166719Y8366D02*
X167519Y9166D01*
X168319Y8366D01*
X167519Y7566D01*
X166719Y8366D01*
X163767Y2461D02*
X164567Y3261D01*
X165367Y2461D01*
X164567Y1661D01*
X163767Y2461D01*
X157861Y14272D02*
X158661Y15072D01*
X159461Y14272D01*
X158661Y13472D01*
X157861Y14272D01*
Y2461D02*
X158661Y3261D01*
X159461Y2461D01*
X158661Y1661D01*
X157861Y2461D01*
X154909Y150098D02*
X155709Y150898D01*
X156509Y150098D01*
X155709Y149298D01*
X154909Y150098D01*
Y138287D02*
X155709Y139087D01*
X156509Y138287D01*
X155709Y137487D01*
X154909Y138287D01*
X151956Y14272D02*
X152756Y15072D01*
X153556Y14272D01*
X152756Y13472D01*
X151956Y14272D01*
Y2461D02*
X152756Y3261D01*
X153556Y2461D01*
X152756Y1661D01*
X151956Y2461D01*
X149003Y150098D02*
X149803Y150898D01*
X150603Y150098D01*
X149803Y149298D01*
X149003Y150098D01*
Y138287D02*
X149803Y139087D01*
X150603Y138287D01*
X149803Y137487D01*
X149003Y138287D01*
X146050Y2461D02*
X146850Y3261D01*
X147650Y2461D01*
X146850Y1661D01*
X146050Y2461D01*
X143097Y150098D02*
X143897Y150898D01*
X144697Y150098D01*
X143897Y149298D01*
X143097Y150098D01*
X140145Y2461D02*
X140945Y3261D01*
X141745Y2461D01*
X140945Y1661D01*
X140145Y2461D01*
X137192Y150098D02*
X137992Y150898D01*
X138792Y150098D01*
X137992Y149298D01*
X137192Y150098D01*
X134239Y132382D02*
X135039Y133182D01*
X135839Y132382D01*
X135039Y131582D01*
X134239Y132382D01*
Y14272D02*
X135039Y15072D01*
X135839Y14272D01*
X135039Y13472D01*
X134239Y14272D01*
Y2461D02*
X135039Y3261D01*
X135839Y2461D01*
X135039Y1661D01*
X134239Y2461D01*
X131287Y150098D02*
X132087Y150898D01*
X132887Y150098D01*
X132087Y149298D01*
X131287Y150098D01*
X128334Y2461D02*
X129134Y3261D01*
X129934Y2461D01*
X129134Y1661D01*
X128334Y2461D01*
X122428Y144193D02*
X123228Y144993D01*
X124028Y144193D01*
X123228Y143393D01*
X122428Y144193D01*
Y132382D02*
X123228Y133182D01*
X124028Y132382D01*
X123228Y131582D01*
X122428Y132382D01*
Y14272D02*
X123228Y15072D01*
X124028Y14272D01*
X123228Y13472D01*
X122428Y14272D01*
Y2461D02*
X123228Y3261D01*
X124028Y2461D01*
X123228Y1661D01*
X122428Y2461D01*
X116523Y144193D02*
X117323Y144993D01*
X118123Y144193D01*
X117323Y143393D01*
X116523Y144193D01*
Y132382D02*
X117323Y133182D01*
X118123Y132382D01*
X117323Y131582D01*
X116523Y132382D01*
X110617D02*
X111417Y133182D01*
X112217Y132382D01*
X111417Y131582D01*
X110617Y132382D01*
X107664Y138287D02*
X108464Y139087D01*
X109264Y138287D01*
X108464Y137487D01*
X107664Y138287D01*
X104712Y132382D02*
X105512Y133182D01*
X106312Y132382D01*
X105512Y131582D01*
X104712Y132382D01*
X92901Y144193D02*
X93701Y144993D01*
X94501Y144193D01*
X93701Y143393D01*
X92901Y144193D01*
X86995D02*
X87795Y144993D01*
X88595Y144193D01*
X87795Y143393D01*
X86995Y144193D01*
X89948Y138287D02*
X90748Y139087D01*
X91548Y138287D01*
X90748Y137487D01*
X89948Y138287D01*
X86995Y14272D02*
X87795Y15072D01*
X88595Y14272D01*
X87795Y13472D01*
X86995Y14272D01*
Y2461D02*
X87795Y3261D01*
X88595Y2461D01*
X87795Y1661D01*
X86995Y2461D01*
X84042Y150098D02*
X84842Y150898D01*
X85642Y150098D01*
X84842Y149298D01*
X84042Y150098D01*
X81090Y144193D02*
X81890Y144993D01*
X82690Y144193D01*
X81890Y143393D01*
X81090Y144193D01*
X84042Y138287D02*
X84842Y139087D01*
X85642Y138287D01*
X84842Y137487D01*
X84042Y138287D01*
X81090Y2461D02*
X81890Y3261D01*
X82690Y2461D01*
X81890Y1661D01*
X81090Y2461D01*
X78137Y150098D02*
X78937Y150898D01*
X79737Y150098D01*
X78937Y149298D01*
X78137Y150098D01*
Y138287D02*
X78937Y139087D01*
X79737Y138287D01*
X78937Y137487D01*
X78137Y138287D01*
X72231Y150098D02*
X73031Y150898D01*
X73831Y150098D01*
X73031Y149298D01*
X72231Y150098D01*
X69279Y2461D02*
X70079Y3261D01*
X70879Y2461D01*
X70079Y1661D01*
X69279Y2461D01*
X66326Y150098D02*
X67126Y150898D01*
X67926Y150098D01*
X67126Y149298D01*
X66326Y150098D01*
Y138287D02*
X67126Y139087D01*
X67926Y138287D01*
X67126Y137487D01*
X66326Y138287D01*
X63373Y132382D02*
X64173Y133182D01*
X64973Y132382D01*
X64173Y131582D01*
X63373Y132382D01*
X60420Y150098D02*
X61220Y150898D01*
X62020Y150098D01*
X61220Y149298D01*
X60420Y150098D01*
Y138287D02*
X61220Y139087D01*
X62020Y138287D01*
X61220Y137487D01*
X60420Y138287D01*
X57468Y132382D02*
X58268Y133182D01*
X59068Y132382D01*
X58268Y131582D01*
X57468Y132382D01*
X54515Y150098D02*
X55315Y150898D01*
X56115Y150098D01*
X55315Y149298D01*
X54515Y150098D01*
Y138287D02*
X55315Y139087D01*
X56115Y138287D01*
X55315Y137487D01*
X54515Y138287D01*
X51562Y132382D02*
X52362Y133182D01*
X53162Y132382D01*
X52362Y131582D01*
X51562Y132382D01*
X48609Y91043D02*
X49409Y91843D01*
X50209Y91043D01*
X49409Y90243D01*
X48609Y91043D01*
X42704Y114665D02*
X43504Y115465D01*
X44304Y114665D01*
X43504Y113865D01*
X42704Y114665D01*
Y102854D02*
X43504Y103654D01*
X44304Y102854D01*
X43504Y102054D01*
X42704Y102854D01*
Y91043D02*
X43504Y91843D01*
X44304Y91043D01*
X43504Y90243D01*
X42704Y91043D01*
X33846Y132382D02*
X34646Y133182D01*
X35446Y132382D01*
X34646Y131582D01*
X33846Y132382D01*
X30893Y150098D02*
X31693Y150898D01*
X32493Y150098D01*
X31693Y149298D01*
X30893Y150098D01*
Y91043D02*
X31693Y91843D01*
X32493Y91043D01*
X31693Y90243D01*
X30893Y91043D01*
X22035Y132382D02*
X22835Y133182D01*
X23634Y132382D01*
X22835Y131582D01*
X22035Y132382D01*
X24987Y114665D02*
X25787Y115465D01*
X26587Y114665D01*
X25787Y113865D01*
X24987Y114665D01*
Y102854D02*
X25787Y103654D01*
X26587Y102854D01*
X25787Y102054D01*
X24987Y102854D01*
Y91043D02*
X25787Y91843D01*
X26587Y91043D01*
X25787Y90243D01*
X24987Y91043D01*
X10223Y132382D02*
X11023Y133182D01*
X11823Y132382D01*
X11023Y131582D01*
X10223Y132382D01*
X7271Y150098D02*
X8071Y150898D01*
X8871Y150098D01*
X8071Y149298D01*
X7271Y150098D01*
X4318Y144193D02*
X5118Y144993D01*
X5918Y144193D01*
X5118Y143393D01*
X4318Y144193D01*
X7271Y138287D02*
X8071Y139087D01*
X8871Y138287D01*
X8071Y137487D01*
X7271Y138287D01*
X4318Y132382D02*
X5118Y133182D01*
X5918Y132382D01*
X5118Y131582D01*
X4318Y132382D01*
Y108760D02*
X5118Y109560D01*
X5918Y108760D01*
X5118Y107960D01*
X4318Y108760D01*
X1365Y138287D02*
X2165Y139087D01*
X2965Y138287D01*
X2165Y137487D01*
X1365Y138287D01*
X-1588Y132382D02*
X-788Y133182D01*
X13Y132382D01*
X-788Y131582D01*
X-1588Y132382D01*
X1365Y126476D02*
X2165Y127276D01*
X2965Y126476D01*
X2165Y125676D01*
X1365Y126476D01*
X-1588Y120571D02*
X-788Y121371D01*
X13Y120571D01*
X-788Y119771D01*
X-1588Y120571D01*
X1365Y114665D02*
X2165Y115465D01*
X2965Y114665D01*
X2165Y113865D01*
X1365Y114665D01*
X-4540Y138287D02*
X-3740Y139087D01*
X-2940Y138287D01*
X-3740Y137487D01*
X-4540Y138287D01*
Y126476D02*
X-3740Y127276D01*
X-2940Y126476D01*
X-3740Y125676D01*
X-4540Y126476D01*
X-7493Y120571D02*
X-6693Y121371D01*
X-5893Y120571D01*
X-6693Y119771D01*
X-7493Y120571D01*
X-19304D02*
X-18504Y121371D01*
X-17704Y120571D01*
X-18504Y119771D01*
X-19304Y120571D01*
X-22257Y138287D02*
X-21457Y139087D01*
X-20657Y138287D01*
X-21457Y137487D01*
X-22257Y138287D01*
X-25210Y132382D02*
X-24409Y133182D01*
X-23609Y132382D01*
X-24409Y131582D01*
X-25210Y132382D01*
X-22454Y120571D02*
X-21654Y121371D01*
X-20854Y120571D01*
X-21654Y119771D01*
X-22454Y120571D01*
X63373Y73327D02*
X64173Y74127D01*
X64973Y73327D01*
X64173Y72527D01*
X63373Y73327D01*
Y49705D02*
X64173Y50505D01*
X64973Y49705D01*
X64173Y48905D01*
X63373Y49705D01*
Y26083D02*
X64173Y26883D01*
X64973Y26083D01*
X64173Y25283D01*
X63373Y26083D01*
Y2461D02*
X64173Y3261D01*
X64973Y2461D01*
X64173Y1661D01*
X63373Y2461D01*
X60420Y79232D02*
X61220Y80032D01*
X62020Y79232D01*
X61220Y78432D01*
X60420Y79232D01*
X57468Y73327D02*
X58268Y74127D01*
X59068Y73327D01*
X58268Y72527D01*
X57468Y73327D01*
X60420Y67421D02*
X61220Y68221D01*
X62020Y67421D01*
X61220Y66621D01*
X60420Y67421D01*
X57468Y26083D02*
X58268Y26883D01*
X59068Y26083D01*
X58268Y25283D01*
X57468Y26083D01*
X60420Y20177D02*
X61220Y20977D01*
X62020Y20177D01*
X61220Y19377D01*
X60420Y20177D01*
X57468Y2461D02*
X58268Y3261D01*
X59068Y2461D01*
X58268Y1661D01*
X57468Y2461D01*
X54515Y79232D02*
X55315Y80032D01*
X56115Y79232D01*
X55315Y78432D01*
X54515Y79232D01*
Y55610D02*
X55315Y56410D01*
X56115Y55610D01*
X55315Y54810D01*
X54515Y55610D01*
Y43799D02*
X55315Y44599D01*
X56115Y43799D01*
X55315Y42999D01*
X54515Y43799D01*
X51562Y26083D02*
X52362Y26883D01*
X53162Y26083D01*
X52362Y25283D01*
X51562Y26083D01*
X54515Y20177D02*
X55315Y20977D01*
X56115Y20177D01*
X55315Y19377D01*
X54515Y20177D01*
X51562Y2461D02*
X52362Y3261D01*
X53162Y2461D01*
X52362Y1661D01*
X51562Y2461D01*
X48609Y79232D02*
X49409Y80032D01*
X50209Y79232D01*
X49409Y78432D01*
X48609Y79232D01*
X45657Y26083D02*
X46457Y26883D01*
X47257Y26083D01*
X46457Y25283D01*
X45657Y26083D01*
Y2461D02*
X46457Y3261D01*
X47257Y2461D01*
X46457Y1661D01*
X45657Y2461D01*
X39751Y49705D02*
X40551Y50505D01*
X41351Y49705D01*
X40551Y48905D01*
X39751Y49705D01*
Y37894D02*
X40551Y38694D01*
X41351Y37894D01*
X40551Y37094D01*
X39751Y37894D01*
X42704Y31988D02*
X43504Y32788D01*
X44304Y31988D01*
X43504Y31188D01*
X42704Y31988D01*
X39751Y14272D02*
X40551Y15072D01*
X41351Y14272D01*
X40551Y13472D01*
X39751Y14272D01*
X42704Y8366D02*
X43504Y9166D01*
X44304Y8366D01*
X43504Y7566D01*
X42704Y8366D01*
X39751Y2461D02*
X40551Y3261D01*
X41351Y2461D01*
X40551Y1661D01*
X39751Y2461D01*
X33846Y73327D02*
X34646Y74127D01*
X35446Y73327D01*
X34646Y72527D01*
X33846Y73327D01*
X36798Y67421D02*
X37598Y68221D01*
X38398Y67421D01*
X37598Y66621D01*
X36798Y67421D01*
X33846Y61516D02*
X34646Y62316D01*
X35446Y61516D01*
X34646Y60716D01*
X33846Y61516D01*
X36798Y55610D02*
X37598Y56410D01*
X38398Y55610D01*
X37598Y54810D01*
X36798Y55610D01*
X33846Y49705D02*
X34646Y50505D01*
X35446Y49705D01*
X34646Y48905D01*
X33846Y49705D01*
X36798Y43799D02*
X37598Y44599D01*
X38398Y43799D01*
X37598Y42999D01*
X36798Y43799D01*
X33846Y37894D02*
X34646Y38694D01*
X35446Y37894D01*
X34646Y37094D01*
X33846Y37894D01*
Y14272D02*
X34646Y15072D01*
X35446Y14272D01*
X34646Y13472D01*
X33846Y14272D01*
X36798Y8366D02*
X37598Y9166D01*
X38398Y8366D01*
X37598Y7566D01*
X36798Y8366D01*
X33846Y2461D02*
X34646Y3261D01*
X35446Y2461D01*
X34646Y1661D01*
X33846Y2461D01*
X27940Y73327D02*
X28740Y74127D01*
X29540Y73327D01*
X28740Y72527D01*
X27940Y73327D01*
X30893Y67421D02*
X31693Y68221D01*
X32493Y67421D01*
X31693Y66621D01*
X30893Y67421D01*
X27940Y61516D02*
X28740Y62316D01*
X29540Y61516D01*
X28740Y60716D01*
X27940Y61516D01*
X30893Y55610D02*
X31693Y56410D01*
X32493Y55610D01*
X31693Y54810D01*
X30893Y55610D01*
X27940Y49705D02*
X28740Y50505D01*
X29540Y49705D01*
X28740Y48905D01*
X27940Y49705D01*
X30893Y43799D02*
X31693Y44599D01*
X32493Y43799D01*
X31693Y42999D01*
X30893Y43799D01*
X27940Y26083D02*
X28740Y26883D01*
X29540Y26083D01*
X28740Y25283D01*
X27940Y26083D01*
X30893Y20177D02*
X31693Y20977D01*
X32493Y20177D01*
X31693Y19377D01*
X30893Y20177D01*
X27940Y14272D02*
X28740Y15072D01*
X29540Y14272D01*
X28740Y13472D01*
X27940Y14272D01*
X30893Y8366D02*
X31693Y9166D01*
X32493Y8366D01*
X31693Y7566D01*
X30893Y8366D01*
X27940Y2461D02*
X28740Y3261D01*
X29540Y2461D01*
X28740Y1661D01*
X27940Y2461D01*
X24987Y55610D02*
X25787Y56410D01*
X26587Y55610D01*
X25787Y54810D01*
X24987Y55610D01*
X22035Y49705D02*
X22835Y50505D01*
X23634Y49705D01*
X22835Y48905D01*
X22035Y49705D01*
Y26083D02*
X22835Y26883D01*
X23634Y26083D01*
X22835Y25283D01*
X22035Y26083D01*
X24987Y20177D02*
X25787Y20977D01*
X26587Y20177D01*
X25787Y19377D01*
X24987Y20177D01*
X22035Y14272D02*
X22835Y15072D01*
X23634Y14272D01*
X22835Y13472D01*
X22035Y14272D01*
X24987Y8366D02*
X25787Y9166D01*
X26587Y8366D01*
X25787Y7566D01*
X24987Y8366D01*
X22035Y2461D02*
X22835Y3261D01*
X23634Y2461D01*
X22835Y1661D01*
X22035Y2461D01*
X19082Y55610D02*
X19882Y56410D01*
X20682Y55610D01*
X19882Y54810D01*
X19082Y55610D01*
X16129Y37894D02*
X16929Y38694D01*
X17729Y37894D01*
X16929Y37094D01*
X16129Y37894D01*
X19082Y31988D02*
X19882Y32788D01*
X20682Y31988D01*
X19882Y31188D01*
X19082Y31988D01*
X16129Y26083D02*
X16929Y26883D01*
X17729Y26083D01*
X16929Y25283D01*
X16129Y26083D01*
X19082Y20177D02*
X19882Y20977D01*
X20682Y20177D01*
X19882Y19377D01*
X19082Y20177D01*
X16129Y14272D02*
X16929Y15072D01*
X17729Y14272D01*
X16929Y13472D01*
X16129Y14272D01*
X19082Y8366D02*
X19882Y9166D01*
X20682Y8366D01*
X19882Y7566D01*
X19082Y8366D01*
X16129Y2461D02*
X16929Y3261D01*
X17729Y2461D01*
X16929Y1661D01*
X16129Y2461D01*
X10223Y37894D02*
X11023Y38694D01*
X11823Y37894D01*
X11023Y37094D01*
X10223Y37894D01*
X13176Y31988D02*
X13976Y32788D01*
X14776Y31988D01*
X13976Y31188D01*
X13176Y31988D01*
X10223Y26083D02*
X11023Y26883D01*
X11823Y26083D01*
X11023Y25283D01*
X10223Y26083D01*
X13176Y20177D02*
X13976Y20977D01*
X14776Y20177D01*
X13976Y19377D01*
X13176Y20177D01*
X10223Y14272D02*
X11023Y15072D01*
X11823Y14272D01*
X11023Y13472D01*
X10223Y14272D01*
X13176Y8366D02*
X13976Y9166D01*
X14776Y8366D01*
X13976Y7566D01*
X13176Y8366D01*
X10223Y2461D02*
X11023Y3261D01*
X11823Y2461D01*
X11023Y1661D01*
X10223Y2461D01*
X4318Y37894D02*
X5118Y38694D01*
X5918Y37894D01*
X5118Y37094D01*
X4318Y37894D01*
X7271Y31988D02*
X8071Y32788D01*
X8871Y31988D01*
X8071Y31188D01*
X7271Y31988D01*
X4318Y26083D02*
X5118Y26883D01*
X5918Y26083D01*
X5118Y25283D01*
X4318Y26083D01*
X7271Y20177D02*
X8071Y20977D01*
X8871Y20177D01*
X8071Y19377D01*
X7271Y20177D01*
X4318Y14272D02*
X5118Y15072D01*
X5918Y14272D01*
X5118Y13472D01*
X4318Y14272D01*
X7271Y8366D02*
X8071Y9166D01*
X8871Y8366D01*
X8071Y7566D01*
X7271Y8366D01*
X-1588Y37894D02*
X-788Y38694D01*
X13Y37894D01*
X-788Y37094D01*
X-1588Y37894D01*
X1365Y31988D02*
X2165Y32788D01*
X2965Y31988D01*
X2165Y31188D01*
X1365Y31988D01*
X-1588Y26083D02*
X-788Y26883D01*
X13Y26083D01*
X-788Y25283D01*
X-1588Y26083D01*
X1365Y20177D02*
X2165Y20977D01*
X2965Y20177D01*
X2165Y19377D01*
X1365Y20177D01*
X-1588Y14272D02*
X-788Y15072D01*
X13Y14272D01*
X-788Y13472D01*
X-1588Y14272D01*
X-7493Y37894D02*
X-6693Y38694D01*
X-5893Y37894D01*
X-6693Y37094D01*
X-7493Y37894D01*
X-4540Y31988D02*
X-3740Y32788D01*
X-2940Y31988D01*
X-3740Y31188D01*
X-4540Y31988D01*
Y20177D02*
X-3740Y20977D01*
X-2940Y20177D01*
X-3740Y19377D01*
X-4540Y20177D01*
X-7493Y14272D02*
X-6693Y15072D01*
X-5893Y14272D01*
X-6693Y13472D01*
X-7493Y14272D01*
X-13398Y37894D02*
X-12598Y38694D01*
X-11799Y37894D01*
X-12598Y37094D01*
X-13398Y37894D01*
Y14272D02*
X-12598Y15072D01*
X-11799Y14272D01*
X-12598Y13472D01*
X-13398Y14272D01*
X-19304Y37894D02*
X-18504Y38694D01*
X-17704Y37894D01*
X-18504Y37094D01*
X-19304Y37894D01*
X-25210Y26083D02*
X-24409Y26883D01*
X-23609Y26083D01*
X-24409Y25283D01*
X-25210Y26083D01*
X-22257Y20177D02*
X-21457Y20977D01*
X-20657Y20177D01*
X-21457Y19377D01*
X-22257Y20177D01*
X160814Y91043D02*
X161614Y91843D01*
X162414Y91043D01*
X161614Y90243D01*
X160814Y91043D01*
Y79232D02*
X161614Y80032D01*
X162414Y79232D01*
X161614Y78432D01*
X160814Y79232D01*
Y67421D02*
X161614Y68221D01*
X162414Y67421D01*
X161614Y66621D01*
X160814Y67421D01*
Y55610D02*
X161614Y56410D01*
X162414Y55610D01*
X161614Y54810D01*
X160814Y55610D01*
X157861Y37894D02*
X158661Y38694D01*
X159461Y37894D01*
X158661Y37094D01*
X157861Y37894D01*
X160814Y31988D02*
X161614Y32788D01*
X162414Y31988D01*
X161614Y31188D01*
X160814Y31988D01*
X157861Y26083D02*
X158661Y26883D01*
X159461Y26083D01*
X158661Y25283D01*
X157861Y26083D01*
X154909Y126476D02*
X155709Y127276D01*
X156509Y126476D01*
X155709Y125676D01*
X154909Y126476D01*
Y114665D02*
X155709Y115465D01*
X156509Y114665D01*
X155709Y113865D01*
X154909Y114665D01*
Y43799D02*
X155709Y44599D01*
X156509Y43799D01*
X155709Y42999D01*
X154909Y43799D01*
X151956Y37894D02*
X152756Y38694D01*
X153556Y37894D01*
X152756Y37094D01*
X151956Y37894D01*
X154909Y31988D02*
X155709Y32788D01*
X156509Y31988D01*
X155709Y31188D01*
X154909Y31988D01*
X151956Y26083D02*
X152756Y26883D01*
X153556Y26083D01*
X152756Y25283D01*
X151956Y26083D01*
X146050Y85138D02*
X146850Y85938D01*
X147650Y85138D01*
X146850Y84338D01*
X146050Y85138D01*
Y73327D02*
X146850Y74127D01*
X147650Y73327D01*
X146850Y72527D01*
X146050Y73327D01*
Y49705D02*
X146850Y50505D01*
X147650Y49705D01*
X146850Y48905D01*
X146050Y49705D01*
X149003Y43799D02*
X149803Y44599D01*
X150603Y43799D01*
X149803Y42999D01*
X149003Y43799D01*
X146050Y37894D02*
X146850Y38694D01*
X147650Y37894D01*
X146850Y37094D01*
X146050Y37894D01*
X149003Y31988D02*
X149803Y32788D01*
X150603Y31988D01*
X149803Y31188D01*
X149003Y31988D01*
X146050Y26083D02*
X146850Y26883D01*
X147650Y26083D01*
X146850Y25283D01*
X146050Y26083D01*
X140145Y96949D02*
X140945Y97749D01*
X141745Y96949D01*
X140945Y96149D01*
X140145Y96949D01*
Y85138D02*
X140945Y85938D01*
X141745Y85138D01*
X140945Y84338D01*
X140145Y85138D01*
X143097Y79232D02*
X143897Y80032D01*
X144697Y79232D01*
X143897Y78432D01*
X143097Y79232D01*
Y55610D02*
X143897Y56410D01*
X144697Y55610D01*
X143897Y54810D01*
X143097Y55610D01*
X140145Y49705D02*
X140945Y50505D01*
X141745Y49705D01*
X140945Y48905D01*
X140145Y49705D01*
X143097Y43799D02*
X143897Y44599D01*
X144697Y43799D01*
X143897Y42999D01*
X143097Y43799D01*
X140145Y37894D02*
X140945Y38694D01*
X141745Y37894D01*
X140945Y37094D01*
X140145Y37894D01*
X143097Y31988D02*
X143897Y32788D01*
X144697Y31988D01*
X143897Y31188D01*
X143097Y31988D01*
X140145Y26083D02*
X140945Y26883D01*
X141745Y26083D01*
X140945Y25283D01*
X140145Y26083D01*
X134239Y108760D02*
X135039Y109560D01*
X135839Y108760D01*
X135039Y107960D01*
X134239Y108760D01*
Y96949D02*
X135039Y97749D01*
X135839Y96949D01*
X135039Y96149D01*
X134239Y96949D01*
X137192Y91043D02*
X137992Y91843D01*
X138792Y91043D01*
X137992Y90243D01*
X137192Y91043D01*
X134239Y85138D02*
X135039Y85938D01*
X135839Y85138D01*
X135039Y84338D01*
X134239Y85138D01*
X137192Y79232D02*
X137992Y80032D01*
X138792Y79232D01*
X137992Y78432D01*
X137192Y79232D01*
X134239Y61516D02*
X135039Y62316D01*
X135839Y61516D01*
X135039Y60716D01*
X134239Y61516D01*
X137192Y55610D02*
X137992Y56410D01*
X138792Y55610D01*
X137992Y54810D01*
X137192Y55610D01*
X134239Y49705D02*
X135039Y50505D01*
X135839Y49705D01*
X135039Y48905D01*
X134239Y49705D01*
X137192Y43799D02*
X137992Y44599D01*
X138792Y43799D01*
X137992Y42999D01*
X137192Y43799D01*
X134239Y37894D02*
X135039Y38694D01*
X135839Y37894D01*
X135039Y37094D01*
X134239Y37894D01*
X137192Y31988D02*
X137992Y32788D01*
X138792Y31988D01*
X137992Y31188D01*
X137192Y31988D01*
X134239Y26083D02*
X135039Y26883D01*
X135839Y26083D01*
X135039Y25283D01*
X134239Y26083D01*
X128334Y96949D02*
X129134Y97749D01*
X129934Y96949D01*
X129134Y96149D01*
X128334Y96949D01*
X131287Y91043D02*
X132087Y91843D01*
X132887Y91043D01*
X132087Y90243D01*
X131287Y91043D01*
Y67421D02*
X132087Y68221D01*
X132887Y67421D01*
X132087Y66621D01*
X131287Y67421D01*
X128334Y61516D02*
X129134Y62316D01*
X129934Y61516D01*
X129134Y60716D01*
X128334Y61516D01*
X131287Y55610D02*
X132087Y56410D01*
X132887Y55610D01*
X132087Y54810D01*
X131287Y55610D01*
X122428Y120571D02*
X123228Y121371D01*
X124028Y120571D01*
X123228Y119771D01*
X122428Y120571D01*
X125381Y114665D02*
X126181Y115465D01*
X126981Y114665D01*
X126181Y113865D01*
X125381Y114665D01*
X122428Y108760D02*
X123228Y109560D01*
X124028Y108760D01*
X123228Y107960D01*
X122428Y108760D01*
Y96949D02*
X123228Y97749D01*
X124028Y96949D01*
X123228Y96149D01*
X122428Y96949D01*
X125381Y91043D02*
X126181Y91843D01*
X126981Y91043D01*
X126181Y90243D01*
X125381Y91043D01*
X122428Y73327D02*
X123228Y74127D01*
X124028Y73327D01*
X123228Y72527D01*
X122428Y73327D01*
X125381Y67421D02*
X126181Y68221D01*
X126981Y67421D01*
X126181Y66621D01*
X125381Y67421D01*
X122428Y61516D02*
X123228Y62316D01*
X124028Y61516D01*
X123228Y60716D01*
X122428Y61516D01*
X125381Y55610D02*
X126181Y56410D01*
X126981Y55610D01*
X126181Y54810D01*
X125381Y55610D01*
X122428Y37894D02*
X123228Y38694D01*
X124028Y37894D01*
X123228Y37094D01*
X122428Y37894D01*
Y26083D02*
X123228Y26883D01*
X124028Y26083D01*
X123228Y25283D01*
X122428Y26083D01*
X119475Y126476D02*
X120275Y127276D01*
X121075Y126476D01*
X120275Y125676D01*
X119475Y126476D01*
X116523Y120571D02*
X117323Y121371D01*
X118123Y120571D01*
X117323Y119771D01*
X116523Y120571D01*
X119475Y114665D02*
X120275Y115465D01*
X121075Y114665D01*
X120275Y113865D01*
X119475Y114665D01*
X116523Y108760D02*
X117323Y109560D01*
X118123Y108760D01*
X117323Y107960D01*
X116523Y108760D01*
Y96949D02*
X117323Y97749D01*
X118123Y96949D01*
X117323Y96149D01*
X116523Y96949D01*
X119475Y79232D02*
X120275Y80032D01*
X121075Y79232D01*
X120275Y78432D01*
X119475Y79232D01*
X116523Y73327D02*
X117323Y74127D01*
X118123Y73327D01*
X117323Y72527D01*
X116523Y73327D01*
X119475Y67421D02*
X120275Y68221D01*
X121075Y67421D01*
X120275Y66621D01*
X119475Y67421D01*
X116523Y49705D02*
X117323Y50505D01*
X118123Y49705D01*
X117323Y48905D01*
X116523Y49705D01*
X119475Y43799D02*
X120275Y44599D01*
X121075Y43799D01*
X120275Y42999D01*
X119475Y43799D01*
X116523Y37894D02*
X117323Y38694D01*
X118123Y37894D01*
X117323Y37094D01*
X116523Y37894D01*
X119475Y31988D02*
X120275Y32788D01*
X121075Y31988D01*
X120275Y31188D01*
X119475Y31988D01*
X116523Y26083D02*
X117323Y26883D01*
X118123Y26083D01*
X117323Y25283D01*
X116523Y26083D01*
X113570Y126476D02*
X114370Y127276D01*
X115170Y126476D01*
X114370Y125676D01*
X113570Y126476D01*
X110617Y120571D02*
X111417Y121371D01*
X112217Y120571D01*
X111417Y119771D01*
X110617Y120571D01*
X113570Y114665D02*
X114370Y115465D01*
X115170Y114665D01*
X114370Y113865D01*
X113570Y114665D01*
X110617Y108760D02*
X111417Y109560D01*
X112217Y108760D01*
X111417Y107960D01*
X110617Y108760D01*
Y96949D02*
X111417Y97749D01*
X112217Y96949D01*
X111417Y96149D01*
X110617Y96949D01*
X113570Y79232D02*
X114370Y80032D01*
X115170Y79232D01*
X114370Y78432D01*
X113570Y79232D01*
X110617Y73327D02*
X111417Y74127D01*
X112217Y73327D01*
X111417Y72527D01*
X110617Y73327D01*
X113570Y67421D02*
X114370Y68221D01*
X115170Y67421D01*
X114370Y66621D01*
X113570Y67421D01*
X110617Y49705D02*
X111417Y50505D01*
X112217Y49705D01*
X111417Y48905D01*
X110617Y49705D01*
X113570Y43799D02*
X114370Y44599D01*
X115170Y43799D01*
X114370Y42999D01*
X113570Y43799D01*
X110617Y37894D02*
X111417Y38694D01*
X112217Y37894D01*
X111417Y37094D01*
X110617Y37894D01*
X113570Y31988D02*
X114370Y32788D01*
X115170Y31988D01*
X114370Y31188D01*
X113570Y31988D01*
X107664Y126476D02*
X108464Y127276D01*
X109264Y126476D01*
X108464Y125676D01*
X107664Y126476D01*
X104712Y120571D02*
X105512Y121371D01*
X106312Y120571D01*
X105512Y119771D01*
X104712Y120571D01*
X107664Y114665D02*
X108464Y115465D01*
X109264Y114665D01*
X108464Y113865D01*
X107664Y114665D01*
X104712Y108760D02*
X105512Y109560D01*
X106312Y108760D01*
X105512Y107960D01*
X104712Y108760D01*
Y96949D02*
X105512Y97749D01*
X106312Y96949D01*
X105512Y96149D01*
X104712Y96949D01*
X107664Y79232D02*
X108464Y80032D01*
X109264Y79232D01*
X108464Y78432D01*
X107664Y79232D01*
X104712Y61516D02*
X105512Y62316D01*
X106312Y61516D01*
X105512Y60716D01*
X104712Y61516D01*
X107664Y55610D02*
X108464Y56410D01*
X109264Y55610D01*
X108464Y54810D01*
X107664Y55610D01*
X104712Y49705D02*
X105512Y50505D01*
X106312Y49705D01*
X105512Y48905D01*
X104712Y49705D01*
X107664Y43799D02*
X108464Y44599D01*
X109264Y43799D01*
X108464Y42999D01*
X107664Y43799D01*
X104712Y37894D02*
X105512Y38694D01*
X106312Y37894D01*
X105512Y37094D01*
X104712Y37894D01*
X107664Y31988D02*
X108464Y32788D01*
X109264Y31988D01*
X108464Y31188D01*
X107664Y31988D01*
X101759Y126476D02*
X102559Y127276D01*
X103359Y126476D01*
X102559Y125676D01*
X101759Y126476D01*
X98806Y120571D02*
X99606Y121371D01*
X100406Y120571D01*
X99606Y119771D01*
X98806Y120571D01*
X101759Y114665D02*
X102559Y115465D01*
X103359Y114665D01*
X102559Y113865D01*
X101759Y114665D01*
X98806Y108760D02*
X99606Y109560D01*
X100406Y108760D01*
X99606Y107960D01*
X98806Y108760D01*
Y96949D02*
X99606Y97749D01*
X100406Y96949D01*
X99606Y96149D01*
X98806Y96949D01*
X101759Y43799D02*
X102559Y44599D01*
X103359Y43799D01*
X102559Y42999D01*
X101759Y43799D01*
X95853Y126476D02*
X96653Y127276D01*
X97453Y126476D01*
X96653Y125676D01*
X95853Y126476D01*
X92901Y120571D02*
X93701Y121371D01*
X94501Y120571D01*
X93701Y119771D01*
X92901Y120571D01*
X95853Y114665D02*
X96653Y115465D01*
X97453Y114665D01*
X96653Y113865D01*
X95853Y114665D01*
X92901Y108760D02*
X93701Y109560D01*
X94501Y108760D01*
X93701Y107960D01*
X92901Y108760D01*
Y96949D02*
X93701Y97749D01*
X94501Y96949D01*
X93701Y96149D01*
X92901Y96949D01*
X89948Y114665D02*
X90748Y115465D01*
X91548Y114665D01*
X90748Y113865D01*
X89948Y114665D01*
X86995Y108760D02*
X87795Y109560D01*
X88595Y108760D01*
X87795Y107960D01*
X86995Y108760D01*
Y96949D02*
X87795Y97749D01*
X88595Y96949D01*
X87795Y96149D01*
X86995Y96949D01*
X84042Y126476D02*
X84842Y127276D01*
X85642Y126476D01*
X84842Y125676D01*
X84042Y126476D01*
Y114665D02*
X84842Y115465D01*
X85642Y114665D01*
X84842Y113865D01*
X84042Y114665D01*
X81090Y108760D02*
X81890Y109560D01*
X82690Y108760D01*
X81890Y107960D01*
X81090Y108760D01*
X78137Y126476D02*
X78937Y127276D01*
X79737Y126476D01*
X78937Y125676D01*
X78137Y126476D01*
X72231D02*
X73031Y127276D01*
X73831Y126476D01*
X73031Y125676D01*
X72231Y126476D01*
X66326D02*
X67126Y127276D01*
X67926Y126476D01*
X67126Y125676D01*
X66326Y126476D01*
X63373Y120571D02*
X64173Y121371D01*
X64973Y120571D01*
X64173Y119771D01*
X63373Y120571D01*
X66326Y114665D02*
X67126Y115465D01*
X67926Y114665D01*
X67126Y113865D01*
X66326Y114665D01*
X63373Y108760D02*
X64173Y109560D01*
X64973Y108760D01*
X64173Y107960D01*
X63373Y108760D01*
X66326Y102854D02*
X67126Y103654D01*
X67926Y102854D01*
X67126Y102054D01*
X66326Y102854D01*
X63373Y96949D02*
X64173Y97749D01*
X64973Y96949D01*
X64173Y96149D01*
X63373Y96949D01*
X66326Y91043D02*
X67126Y91843D01*
X67926Y91043D01*
X67126Y90243D01*
X66326Y91043D01*
X60420Y126476D02*
X61220Y127276D01*
X62020Y126476D01*
X61220Y125676D01*
X60420Y126476D01*
Y114665D02*
X61220Y115465D01*
X62020Y114665D01*
X61220Y113865D01*
X60420Y114665D01*
Y102854D02*
X61220Y103654D01*
X62020Y102854D01*
X61220Y102054D01*
X60420Y102854D01*
Y91043D02*
X61220Y91843D01*
X62020Y91043D01*
X61220Y90243D01*
X60420Y91043D01*
X178334Y131385D02*
Y132985D01*
X179934D01*
Y131385D01*
X178334D01*
X178734Y131785D02*
Y132585D01*
X179534D01*
Y131785D01*
X178734D01*
X116129Y147736D02*
X116929Y148536D01*
X117729Y147736D01*
X116929Y146936D01*
X116129Y147736D01*
X117409Y153839D02*
X118209Y154639D01*
X119009Y153839D01*
X118209Y153039D01*
X117409Y153839D01*
X101169Y134252D02*
X101969Y135052D01*
X102769Y134252D01*
X101969Y133452D01*
X101169Y134252D01*
X47232Y130118D02*
X48031Y130918D01*
X48831Y130118D01*
X48031Y129318D01*
X47232Y130118D01*
X18688Y131595D02*
X19488Y132395D01*
X20288Y131595D01*
X19488Y130795D01*
X18688Y131595D01*
X109830Y22428D02*
Y24028D01*
X111430D01*
Y22428D01*
X109830D01*
X110230Y22828D02*
Y23628D01*
X111030D01*
Y22828D01*
X110230D01*
X61306Y56582D02*
Y58182D01*
X62906D01*
Y56582D01*
X61306D01*
X61706Y56982D02*
Y57782D01*
X62506D01*
Y56982D01*
X61706D01*
X86995Y22933D02*
X87795Y23733D01*
X88595Y22933D01*
X87795Y22133D01*
X86995Y22933D01*
X27645Y86614D02*
X28445Y87414D01*
X29245Y86614D01*
X28445Y85814D01*
X27645Y86614D01*
D64*
X8083Y45079D02*
G03*
X8083Y45079I-800J0D01*
G01*
X61233D02*
G03*
X61233Y45079I-800J0D01*
G01*
X173958Y36854D02*
G03*
X173958Y36854I-800J0D01*
G01*
Y51217D02*
G03*
X173958Y51217I-800J0D01*
G01*
X177894Y39713D02*
G03*
X177894Y39713I-800J0D01*
G01*
Y48358D02*
G03*
X177894Y48358I-800J0D01*
G01*
X182761Y39713D02*
G03*
X182761Y39713I-800J0D01*
G01*
Y48358D02*
G03*
X182761Y48358I-800J0D01*
G01*
X186698Y36854D02*
G03*
X186698Y36854I-800J0D01*
G01*
Y51217D02*
G03*
X186698Y51217I-800J0D01*
G01*
X173958Y11846D02*
G03*
X173958Y11846I-800J0D01*
G01*
Y76224D02*
G03*
X173958Y76224I-800J0D01*
G01*
X177894Y8988D02*
G03*
X177894Y8988I-800J0D01*
G01*
Y79083D02*
G03*
X177894Y79083I-800J0D01*
G01*
X182761Y8988D02*
G03*
X182761Y8988I-800J0D01*
G01*
Y79083D02*
G03*
X182761Y79083I-800J0D01*
G01*
X186698Y11846D02*
G03*
X186698Y11846I-800J0D01*
G01*
Y76224D02*
G03*
X186698Y76224I-800J0D01*
G01*
X172453Y16477D02*
G03*
X172453Y16477I-800J0D01*
G01*
Y21726D02*
G03*
X172453Y21726I-800J0D01*
G01*
Y26975D02*
G03*
X172453Y26975I-800J0D01*
G01*
Y32224D02*
G03*
X172453Y32224I-800J0D01*
G01*
X188202Y16477D02*
G03*
X188202Y16477I-800J0D01*
G01*
Y21726D02*
G03*
X188202Y21726I-800J0D01*
G01*
Y26975D02*
G03*
X188202Y26975I-800J0D01*
G01*
Y32224D02*
G03*
X188202Y32224I-800J0D01*
G01*
X172453Y55847D02*
G03*
X172453Y55847I-800J0D01*
G01*
Y61096D02*
G03*
X172453Y61096I-800J0D01*
G01*
Y66345D02*
G03*
X172453Y66345I-800J0D01*
G01*
Y71595D02*
G03*
X172453Y71595I-800J0D01*
G01*
X188202Y55847D02*
G03*
X188202Y55847I-800J0D01*
G01*
Y61096D02*
G03*
X188202Y61096I-800J0D01*
G01*
Y66345D02*
G03*
X188202Y66345I-800J0D01*
G01*
Y71595D02*
G03*
X188202Y71595I-800J0D01*
G01*
D65*
X173557Y36854D02*
G03*
X173557Y36854I-400J0D01*
G01*
Y51217D02*
G03*
X173557Y51217I-400J0D01*
G01*
X177495Y39713D02*
G03*
X177495Y39713I-400J0D01*
G01*
Y48358D02*
G03*
X177495Y48358I-400J0D01*
G01*
X182361Y39713D02*
G03*
X182361Y39713I-400J0D01*
G01*
Y48358D02*
G03*
X182361Y48358I-400J0D01*
G01*
X186298Y36854D02*
G03*
X186298Y36854I-400J0D01*
G01*
Y51217D02*
G03*
X186298Y51217I-400J0D01*
G01*
X173557Y11846D02*
G03*
X173557Y11846I-400J0D01*
G01*
Y76224D02*
G03*
X173557Y76224I-400J0D01*
G01*
X177495Y8988D02*
G03*
X177495Y8988I-400J0D01*
G01*
Y79083D02*
G03*
X177495Y79083I-400J0D01*
G01*
X182361Y8988D02*
G03*
X182361Y8988I-400J0D01*
G01*
Y79083D02*
G03*
X182361Y79083I-400J0D01*
G01*
X186298Y11846D02*
G03*
X186298Y11846I-400J0D01*
G01*
Y76224D02*
G03*
X186298Y76224I-400J0D01*
G01*
X172054Y16477D02*
G03*
X172054Y16477I-400J0D01*
G01*
Y21726D02*
G03*
X172054Y21726I-400J0D01*
G01*
Y26975D02*
G03*
X172054Y26975I-400J0D01*
G01*
Y32224D02*
G03*
X172054Y32224I-400J0D01*
G01*
X187802Y16477D02*
G03*
X187802Y16477I-400J0D01*
G01*
Y21726D02*
G03*
X187802Y21726I-400J0D01*
G01*
Y26975D02*
G03*
X187802Y26975I-400J0D01*
G01*
Y32224D02*
G03*
X187802Y32224I-400J0D01*
G01*
X172054Y55847D02*
G03*
X172054Y55847I-400J0D01*
G01*
Y61096D02*
G03*
X172054Y61096I-400J0D01*
G01*
Y66345D02*
G03*
X172054Y66345I-400J0D01*
G01*
Y71595D02*
G03*
X172054Y71595I-400J0D01*
G01*
X187802Y55847D02*
G03*
X187802Y55847I-400J0D01*
G01*
Y61096D02*
G03*
X187802Y61096I-400J0D01*
G01*
Y66345D02*
G03*
X187802Y66345I-400J0D01*
G01*
Y71595D02*
G03*
X187802Y71595I-400J0D01*
G01*
M02*
