G04*
G04 #@! TF.GenerationSoftware,Altium Limited,Altium Designer,20.2.5 (213)*
G04*
G04 Layer_Color=16711935*
%FSLAX25Y25*%
%MOIN*%
G70*
G04*
G04 #@! TF.SameCoordinates,E7A29C4C-667B-4874-933E-F4189BEA85A9*
G04*
G04*
G04 #@! TF.FilePolarity,Positive*
G04*
G01*
G75*
%ADD12C,0.01000*%
D12*
X224410Y129921D02*
G03*
X210630Y145669I-14764J984D01*
G01*
Y114173D02*
G03*
X224410Y129921I-984J14764D01*
G01*
Y27559D02*
G03*
X210630Y43307I-14764J984D01*
G01*
Y11811D02*
G03*
X224410Y27559I-984J14764D01*
G01*
X-27559D02*
G03*
X-13780Y11811I14764J-984D01*
G01*
Y43307D02*
G03*
X-27559Y27559I984J-14764D01*
G01*
X-13780Y145669D02*
G03*
X-27559Y129921I984J-14764D01*
G01*
D02*
G03*
X-13780Y114173I14764J-984D01*
G01*
X0Y7874D02*
G03*
X7874Y0I7874J0D01*
G01*
X188976Y-0D02*
G03*
X196850Y7874I-0J7874D01*
G01*
Y149606D02*
G03*
X188976Y157480I-7874J-0D01*
G01*
X7874Y157480D02*
G03*
X0Y145669I1969J-9843D01*
G01*
X-13780Y11811D02*
X0D01*
X-13780Y43307D02*
X0D01*
X196850Y11811D02*
X210630D01*
X196850Y43307D02*
X210630D01*
X196850Y114173D02*
X210630D01*
X196850Y145669D02*
X210630D01*
X-13780D02*
X-11811D01*
X-13780Y114173D02*
X0D01*
X7874Y157480D02*
X188976D01*
X196850Y145669D02*
Y149606D01*
Y43307D02*
Y114173D01*
Y7874D02*
Y11811D01*
X7874Y0D02*
X188976D01*
X0Y7874D02*
Y11811D01*
Y43307D02*
Y114173D01*
X-11811Y145669D02*
X0D01*
M02*
