G04*
G04 #@! TF.GenerationSoftware,Altium Limited,Altium Designer,20.2.5 (213)*
G04*
G04 Layer_Color=16711935*
%FSLAX25Y25*%
%MOIN*%
G70*
G04*
G04 #@! TF.SameCoordinates,E7A29C4C-667B-4874-933E-F4189BEA85A9*
G04*
G04*
G04 #@! TF.FilePolarity,Negative*
G04*
G01*
G75*
%ADD29C,0.16339*%
%ADD34C,0.21260*%
%ADD40O,0.05315X0.10039*%
%ADD41C,0.15221*%
%ADD42R,0.15221X0.15221*%
%ADD43C,0.06496*%
%ADD44R,0.06496X0.06496*%
%ADD45C,0.08465*%
G04:AMPARAMS|DCode=46|XSize=259.84mil|YSize=102.36mil|CornerRadius=51.18mil|HoleSize=0mil|Usage=FLASHONLY|Rotation=270.000|XOffset=0mil|YOffset=0mil|HoleType=Round|Shape=RoundedRectangle|*
%AMROUNDEDRECTD46*
21,1,0.25984,0.00000,0,0,270.0*
21,1,0.15748,0.10236,0,0,270.0*
1,1,0.10236,0.00000,-0.07874*
1,1,0.10236,0.00000,0.07874*
1,1,0.10236,0.00000,0.07874*
1,1,0.10236,0.00000,-0.07874*
%
%ADD46ROUNDEDRECTD46*%
%ADD47C,0.05906*%
%ADD48R,0.05906X0.05906*%
%ADD49C,0.03150*%
G36*
X186663Y41664D02*
X187768Y40716D01*
X188749Y39640D01*
X189590Y38451D01*
X190279Y37168D01*
X190805Y35810D01*
X191160Y34398D01*
X191339Y32952D01*
X191339Y32224D01*
X191339Y32224D01*
Y16476D01*
Y15547D01*
X191048Y13711D01*
X190473Y11942D01*
X189629Y10286D01*
X188537Y8782D01*
X187222Y7467D01*
X185718Y6375D01*
X184061Y5531D01*
X182293Y4956D01*
X180457Y4665D01*
X178598D01*
X176762Y4956D01*
X174994Y5531D01*
X173337Y6375D01*
X171833Y7467D01*
X170519Y8782D01*
X169426Y10286D01*
X168582Y11942D01*
X168007Y13711D01*
X167717Y15547D01*
Y16476D01*
Y32224D01*
Y32952D01*
X167895Y34398D01*
X168250Y35810D01*
X168776Y37168D01*
X169465Y38451D01*
X170306Y39640D01*
X171287Y40716D01*
X172392Y41664D01*
X172999Y42067D01*
X186056D01*
X186663Y41664D01*
D02*
G37*
G36*
X182293Y83115D02*
X184061Y82540D01*
X185718Y81696D01*
X187222Y80603D01*
X188537Y79289D01*
X189629Y77785D01*
X190473Y76128D01*
X191048Y74360D01*
X191339Y72524D01*
Y71595D01*
X191339D01*
X191339Y55847D01*
Y55118D01*
X191160Y53673D01*
X190805Y52261D01*
X190279Y50903D01*
X189590Y49620D01*
X188749Y48431D01*
X187768Y47354D01*
X186663Y46406D01*
X186056Y46004D01*
X172999D01*
X172392Y46406D01*
X171287Y47354D01*
X170306Y48431D01*
X169465Y49620D01*
X168776Y50903D01*
X168250Y52261D01*
X167895Y53673D01*
X167717Y55118D01*
Y55847D01*
X167717Y71595D01*
Y72524D01*
X168007Y74360D01*
X168582Y76128D01*
X169426Y77785D01*
X170519Y79289D01*
X171833Y80603D01*
X173337Y81696D01*
X174994Y82540D01*
X176762Y83115D01*
X178598Y83406D01*
X180457D01*
X182293Y83115D01*
D02*
G37*
D29*
X210630Y27559D02*
D03*
Y129921D02*
D03*
X-13780D02*
D03*
Y27559D02*
D03*
D34*
X179527Y23959D02*
D03*
Y64705D02*
D03*
D40*
X7283Y45079D02*
D03*
X60433D02*
D03*
D41*
X19685Y68701D02*
D03*
D42*
X48031D02*
D03*
D43*
X158878Y7579D02*
D03*
X148878D02*
D03*
X138878D02*
D03*
X49213Y85138D02*
D03*
D44*
X128878Y7579D02*
D03*
X59213Y85138D02*
D03*
D45*
X145850Y92209D02*
D03*
X72850D02*
D03*
X145850Y144209D02*
D03*
X72850D02*
D03*
Y102209D02*
D03*
X145850D02*
D03*
Y134209D02*
D03*
X72850D02*
D03*
D46*
X179527Y63721D02*
D03*
Y24350D02*
D03*
D47*
X95276Y36516D02*
D03*
Y44035D02*
D03*
D48*
Y51555D02*
D03*
D49*
X173158Y36854D02*
D03*
Y51217D02*
D03*
X177094Y39713D02*
D03*
Y48358D02*
D03*
X181961Y39713D02*
D03*
Y48358D02*
D03*
X185898Y36854D02*
D03*
Y51217D02*
D03*
X173158Y11846D02*
D03*
Y76224D02*
D03*
X177094Y8988D02*
D03*
Y79083D02*
D03*
X181961Y8988D02*
D03*
Y79083D02*
D03*
X185898Y11846D02*
D03*
Y76224D02*
D03*
X171653Y16477D02*
D03*
Y21726D02*
D03*
Y26975D02*
D03*
Y32224D02*
D03*
X187402Y16477D02*
D03*
Y21726D02*
D03*
Y26975D02*
D03*
Y32224D02*
D03*
X171653Y55847D02*
D03*
Y61096D02*
D03*
Y66345D02*
D03*
Y71595D02*
D03*
X187402Y55847D02*
D03*
Y61096D02*
D03*
Y66345D02*
D03*
Y71595D02*
D03*
M02*
