G04*
G04 #@! TF.GenerationSoftware,Altium Limited,Altium Designer,20.2.5 (213)*
G04*
G04 Layer_Physical_Order=1*
G04 Layer_Color=255*
%FSLAX25Y25*%
%MOIN*%
G70*
G04*
G04 #@! TF.SameCoordinates,E7A29C4C-667B-4874-933E-F4189BEA85A9*
G04*
G04*
G04 #@! TF.FilePolarity,Positive*
G04*
G01*
G75*
%ADD10C,0.01181*%
%ADD12C,0.01000*%
G04:AMPARAMS|DCode=17|XSize=59.84mil|YSize=43.31mil|CornerRadius=10.83mil|HoleSize=0mil|Usage=FLASHONLY|Rotation=270.000|XOffset=0mil|YOffset=0mil|HoleType=Round|Shape=RoundedRectangle|*
%AMROUNDEDRECTD17*
21,1,0.05984,0.02165,0,0,270.0*
21,1,0.03819,0.04331,0,0,270.0*
1,1,0.02165,-0.01083,-0.01909*
1,1,0.02165,-0.01083,0.01909*
1,1,0.02165,0.01083,0.01909*
1,1,0.02165,0.01083,-0.01909*
%
%ADD17ROUNDEDRECTD17*%
%ADD18C,0.15748*%
G04:AMPARAMS|DCode=19|XSize=59.84mil|YSize=43.31mil|CornerRadius=10.83mil|HoleSize=0mil|Usage=FLASHONLY|Rotation=0.000|XOffset=0mil|YOffset=0mil|HoleType=Round|Shape=RoundedRectangle|*
%AMROUNDEDRECTD19*
21,1,0.05984,0.02165,0,0,0.0*
21,1,0.03819,0.04331,0,0,0.0*
1,1,0.02165,0.01909,-0.01083*
1,1,0.02165,-0.01909,-0.01083*
1,1,0.02165,-0.01909,0.01083*
1,1,0.02165,0.01909,0.01083*
%
%ADD19ROUNDEDRECTD19*%
%ADD20R,0.15748X0.15748*%
G04:AMPARAMS|DCode=21|XSize=39.37mil|YSize=35.43mil|CornerRadius=8.86mil|HoleSize=0mil|Usage=FLASHONLY|Rotation=270.000|XOffset=0mil|YOffset=0mil|HoleType=Round|Shape=RoundedRectangle|*
%AMROUNDEDRECTD21*
21,1,0.03937,0.01772,0,0,270.0*
21,1,0.02165,0.03543,0,0,270.0*
1,1,0.01772,-0.00886,-0.01083*
1,1,0.01772,-0.00886,0.01083*
1,1,0.01772,0.00886,0.01083*
1,1,0.01772,0.00886,-0.01083*
%
%ADD21ROUNDEDRECTD21*%
G04:AMPARAMS|DCode=22|XSize=39.37mil|YSize=35.43mil|CornerRadius=8.86mil|HoleSize=0mil|Usage=FLASHONLY|Rotation=180.000|XOffset=0mil|YOffset=0mil|HoleType=Round|Shape=RoundedRectangle|*
%AMROUNDEDRECTD22*
21,1,0.03937,0.01772,0,0,180.0*
21,1,0.02165,0.03543,0,0,180.0*
1,1,0.01772,-0.01083,0.00886*
1,1,0.01772,0.01083,0.00886*
1,1,0.01772,0.01083,-0.00886*
1,1,0.01772,-0.01083,-0.00886*
%
%ADD22ROUNDEDRECTD22*%
G04:AMPARAMS|DCode=23|XSize=70.87mil|YSize=51.18mil|CornerRadius=12.8mil|HoleSize=0mil|Usage=FLASHONLY|Rotation=270.000|XOffset=0mil|YOffset=0mil|HoleType=Round|Shape=RoundedRectangle|*
%AMROUNDEDRECTD23*
21,1,0.07087,0.02559,0,0,270.0*
21,1,0.04528,0.05118,0,0,270.0*
1,1,0.02559,-0.01280,-0.02264*
1,1,0.02559,-0.01280,0.02264*
1,1,0.02559,0.01280,0.02264*
1,1,0.02559,0.01280,-0.02264*
%
%ADD23ROUNDEDRECTD23*%
%ADD24R,0.03150X0.03150*%
G04:AMPARAMS|DCode=25|XSize=78.74mil|YSize=66.93mil|CornerRadius=16.73mil|HoleSize=0mil|Usage=FLASHONLY|Rotation=180.000|XOffset=0mil|YOffset=0mil|HoleType=Round|Shape=RoundedRectangle|*
%AMROUNDEDRECTD25*
21,1,0.07874,0.03347,0,0,180.0*
21,1,0.04528,0.06693,0,0,180.0*
1,1,0.03346,-0.02264,0.01673*
1,1,0.03346,0.02264,0.01673*
1,1,0.03346,0.02264,-0.01673*
1,1,0.03346,-0.02264,-0.01673*
%
%ADD25ROUNDEDRECTD25*%
%ADD26R,0.07677X0.04331*%
%ADD27R,0.15748X0.15748*%
%ADD34C,0.21260*%
G04:AMPARAMS|DCode=46|XSize=259.84mil|YSize=102.36mil|CornerRadius=51.18mil|HoleSize=0mil|Usage=FLASHONLY|Rotation=270.000|XOffset=0mil|YOffset=0mil|HoleType=Round|Shape=RoundedRectangle|*
%AMROUNDEDRECTD46*
21,1,0.25984,0.00000,0,0,270.0*
21,1,0.15748,0.10236,0,0,270.0*
1,1,0.10236,0.00000,-0.07874*
1,1,0.10236,0.00000,0.07874*
1,1,0.10236,0.00000,0.07874*
1,1,0.10236,0.00000,-0.07874*
%
%ADD46ROUNDEDRECTD46*%
%ADD47C,0.05906*%
%ADD48R,0.05906X0.05906*%
%ADD49C,0.03150*%
%ADD50C,0.03937*%
%ADD51C,0.07874*%
%ADD52C,0.01968*%
%ADD53C,0.02756*%
%ADD54C,0.03150*%
%ADD55O,0.04724X0.09449*%
%ADD56C,0.14630*%
%ADD57R,0.14630X0.14630*%
%ADD58R,0.05906X0.05906*%
%ADD59C,0.07874*%
%ADD60C,0.02362*%
%ADD61C,0.03937*%
G36*
X117365Y153012D02*
X117298Y153074D01*
X117225Y153129D01*
X117147Y153179D01*
X117062Y153221D01*
X116971Y153257D01*
X116875Y153286D01*
X116772Y153309D01*
X116664Y153325D01*
X116550Y153335D01*
X116430Y153339D01*
Y154339D01*
X116550Y154342D01*
X116664Y154352D01*
X116772Y154368D01*
X116875Y154391D01*
X116971Y154420D01*
X117062Y154456D01*
X117147Y154499D01*
X117225Y154548D01*
X117298Y154603D01*
X117365Y154665D01*
Y153012D01*
D02*
G37*
G36*
X113974Y154744D02*
X114004Y154659D01*
X114054Y154584D01*
X114124Y154519D01*
X114214Y154464D01*
X114324Y154419D01*
X114454Y154384D01*
X114604Y154359D01*
X114774Y154344D01*
X114964Y154339D01*
Y153339D01*
X114774Y153334D01*
X114604Y153319D01*
X114454Y153294D01*
X114324Y153259D01*
X114214Y153214D01*
X114124Y153159D01*
X114054Y153094D01*
X114004Y153019D01*
X113974Y152934D01*
X113964Y152839D01*
Y154839D01*
X113974Y154744D01*
D02*
G37*
G36*
X107665Y152374D02*
X107677Y151772D01*
X106496D01*
X106484Y152386D01*
X107665Y152374D01*
D02*
G37*
G36*
X92145Y152376D02*
X92060Y152346D01*
X91985Y152295D01*
X91920Y152224D01*
X91865Y152133D01*
X91820Y152022D01*
X91785Y151890D01*
X91760Y151739D01*
X91745Y151567D01*
X91740Y151374D01*
X90740D01*
X90735Y151567D01*
X90720Y151739D01*
X90695Y151890D01*
X90660Y152022D01*
X90615Y152133D01*
X90560Y152224D01*
X90495Y152295D01*
X90420Y152346D01*
X90335Y152376D01*
X90240Y152386D01*
X92240D01*
X92145Y152376D01*
D02*
G37*
G36*
X91745Y150415D02*
X91760Y150239D01*
X91785Y150084D01*
X91820Y149949D01*
X91865Y149836D01*
X91919Y149742D01*
X91984Y149670D01*
X92059Y149618D01*
X92143Y149587D01*
X92238Y149577D01*
X90242D01*
X90337Y149587D01*
X90422Y149618D01*
X90496Y149670D01*
X90561Y149742D01*
X90616Y149836D01*
X90661Y149949D01*
X90695Y150084D01*
X90720Y150239D01*
X90735Y150415D01*
X90740Y150611D01*
X91740D01*
X91745Y150415D01*
D02*
G37*
G36*
X114199Y148586D02*
X114229Y148501D01*
X114280Y148426D01*
X114351Y148361D01*
X114442Y148306D01*
X114553Y148261D01*
X114685Y148226D01*
X114837Y148201D01*
X115008Y148186D01*
X115162Y148182D01*
X115247Y148185D01*
X115361Y148195D01*
X115469Y148212D01*
X115570Y148236D01*
X115665Y148267D01*
X115754Y148304D01*
X115837Y148349D01*
X115914Y148400D01*
X115984Y148458D01*
X116048Y148523D01*
X116125Y146871D01*
X116055Y146930D01*
X115980Y146983D01*
X115900Y147029D01*
X115813Y147070D01*
X115721Y147104D01*
X115624Y147132D01*
X115521Y147153D01*
X115412Y147169D01*
X115298Y147178D01*
X115189Y147181D01*
X115008Y147176D01*
X114837Y147161D01*
X114685Y147136D01*
X114553Y147101D01*
X114442Y147056D01*
X114351Y147001D01*
X114280Y146936D01*
X114229Y146861D01*
X114199Y146776D01*
X114189Y146681D01*
Y148681D01*
X114199Y148586D01*
D02*
G37*
G36*
X128558Y143422D02*
X128558Y143422D01*
X128919Y143181D01*
X129344Y143097D01*
X139517D01*
X139553Y143079D01*
X139787Y143060D01*
X140005Y143011D01*
X140253Y142922D01*
X140529Y142792D01*
X140829Y142618D01*
X141153Y142399D01*
X141494Y142139D01*
X142253Y141469D01*
X142658Y141068D01*
X142672Y141062D01*
X142686Y141044D01*
X142688Y141042D01*
X142690Y141038D01*
X142816Y140895D01*
X142913Y140753D01*
X143004Y140579D01*
X143088Y140372D01*
X143162Y140131D01*
X143225Y139857D01*
X143244Y139737D01*
X143132Y139584D01*
X142948Y139428D01*
X142788Y139365D01*
X141986Y139525D01*
X140897D01*
Y140059D01*
X140728Y140907D01*
X140248Y141626D01*
X139529Y142106D01*
X138681Y142275D01*
X134153D01*
X133306Y142106D01*
X132587Y141626D01*
X132106Y140907D01*
X131938Y140059D01*
Y136713D01*
X132106Y135865D01*
X132587Y135146D01*
X133306Y134666D01*
X134153Y134497D01*
X137766D01*
X137795Y134491D01*
X140943D01*
X141398Y134037D01*
X141528Y133050D01*
X141975Y131971D01*
X142686Y131044D01*
X143498Y130421D01*
X143364Y129921D01*
X133851D01*
X133835Y129936D01*
X133807Y129947D01*
X130877Y132877D01*
X130386Y133205D01*
X129807Y133320D01*
X129807Y133320D01*
X128465D01*
X126374Y135412D01*
X126364Y135438D01*
X125663Y136193D01*
X125413Y136507D01*
X125217Y136788D01*
X125149Y136908D01*
Y140059D01*
X124980Y140907D01*
X124500Y141626D01*
X123781Y142106D01*
X122933Y142275D01*
X119320D01*
X119291Y142281D01*
X114617D01*
X112229Y144669D01*
X112420Y145131D01*
X113310D01*
X113851Y145239D01*
X114309Y145545D01*
X114615Y146003D01*
X114723Y146544D01*
Y146566D01*
X115201Y146640D01*
X115269Y146638D01*
X115352Y146631D01*
X115427Y146620D01*
X115493Y146606D01*
X115552Y146589D01*
X115604Y146570D01*
X115649Y146549D01*
X115689Y146526D01*
X115724Y146501D01*
X115775Y146458D01*
X115853Y146433D01*
X116273Y146153D01*
X116929Y146022D01*
X117585Y146153D01*
X118141Y146524D01*
X118513Y147080D01*
X118643Y147736D01*
X118513Y148392D01*
X118141Y148948D01*
X117585Y149320D01*
X116929Y149450D01*
X116273Y149320D01*
X115717Y148948D01*
X115697Y148917D01*
X115663Y148903D01*
X115619Y148858D01*
X115590Y148835D01*
X115558Y148813D01*
X115521Y148793D01*
X115477Y148775D01*
X115425Y148758D01*
X115364Y148744D01*
X115294Y148732D01*
X115215Y148725D01*
X115161Y148724D01*
X115039Y148727D01*
X114904Y148739D01*
X114798Y148756D01*
X114725Y148776D01*
X114708Y148783D01*
X114615Y149250D01*
X114468Y149471D01*
X114735Y149971D01*
X122010D01*
X128558Y143422D01*
D02*
G37*
G36*
X95465Y156012D02*
X95465D01*
Y155275D01*
X95214Y154900D01*
X95022Y153937D01*
X95214Y152974D01*
X95465Y152599D01*
Y151862D01*
X96201D01*
X96576Y151612D01*
X97539Y151420D01*
X100455D01*
Y149666D01*
X99955Y149514D01*
X99818Y149720D01*
X99360Y150026D01*
X98819Y150133D01*
X98040D01*
X97933Y150155D01*
X97826Y150133D01*
X97047D01*
X96507Y150026D01*
X96048Y149720D01*
X95742Y149261D01*
X95634Y148721D01*
Y148641D01*
X95608Y148601D01*
X95416Y147638D01*
Y134586D01*
X90751Y129921D01*
X75965D01*
X75686Y130279D01*
X75633Y130421D01*
X75696Y130579D01*
X75788Y130753D01*
X75885Y130895D01*
X76011Y131038D01*
X76013Y131042D01*
X76015Y131044D01*
X76726Y131971D01*
X77173Y133050D01*
X77326Y134209D01*
X77173Y135367D01*
X76726Y136446D01*
X76015Y137373D01*
X76013Y137375D01*
X76011Y137380D01*
X75885Y137522D01*
X75788Y137664D01*
X75696Y137838D01*
X75613Y138045D01*
X75539Y138286D01*
X75476Y138560D01*
X75427Y138861D01*
X75395Y139256D01*
X75426Y139550D01*
X75476Y139857D01*
X75539Y140131D01*
X75613Y140372D01*
X75696Y140579D01*
X75788Y140753D01*
X75885Y140895D01*
X76011Y141038D01*
X76013Y141042D01*
X76015Y141044D01*
X76726Y141971D01*
X77173Y143050D01*
X77326Y144209D01*
X77173Y145367D01*
X76726Y146446D01*
X76015Y147373D01*
X75088Y148084D01*
X74009Y148531D01*
X72850Y148684D01*
X71692Y148531D01*
X70613Y148084D01*
X69686Y147373D01*
X69684Y147371D01*
X69679Y147369D01*
X69537Y147243D01*
X69395Y147146D01*
X69221Y147055D01*
X69014Y146971D01*
X68773Y146897D01*
X68499Y146835D01*
X68198Y146786D01*
X67475Y146726D01*
X67458Y146725D01*
X53856D01*
X53403Y146737D01*
X52768Y146793D01*
X52223Y146884D01*
X51767Y147006D01*
X51405Y147154D01*
X51133Y147320D01*
X50943Y147496D01*
X50818Y147681D01*
X50744Y147892D01*
X50711Y148203D01*
X50697Y148229D01*
Y151386D01*
X33949D01*
Y139602D01*
X33092Y139432D01*
X32275Y138886D01*
X28338Y134949D01*
X28338Y134949D01*
X22009Y128620D01*
X20613Y127322D01*
X19946Y126788D01*
X19339Y126365D01*
X18860Y126091D01*
X17001D01*
X16960Y126108D01*
X16918Y126091D01*
X16875Y126101D01*
X16858Y126091D01*
X6291D01*
Y109343D01*
X23039D01*
Y119909D01*
X23050Y119926D01*
X23039Y119969D01*
X23057Y120011D01*
X23039Y120052D01*
Y121911D01*
X23314Y122390D01*
X23733Y122991D01*
X24932Y124407D01*
X25412Y124904D01*
X27203Y126695D01*
X27664Y126449D01*
X27619Y126221D01*
Y124561D01*
X30065D01*
Y127834D01*
X29232D01*
X29004Y127789D01*
X28758Y128250D01*
X31898Y131390D01*
X31898Y131390D01*
X35098Y134589D01*
X36417D01*
X36660Y134638D01*
X38281D01*
X38329Y134612D01*
X38640Y134579D01*
X38851Y134504D01*
X39037Y134380D01*
X39212Y134191D01*
X39378Y133921D01*
X39526Y133559D01*
X39648Y133106D01*
X39738Y132562D01*
X39794Y131930D01*
X39806Y131477D01*
Y130275D01*
X39667Y130136D01*
X39013Y129501D01*
X38172Y128747D01*
X37488Y128206D01*
X37220Y128024D01*
X36998Y127896D01*
X36839Y127825D01*
X36693Y127788D01*
X36627Y127739D01*
X36489Y127711D01*
X35965Y127362D01*
X35615Y126838D01*
X35493Y126221D01*
Y122402D01*
X35615Y121784D01*
X35631Y121761D01*
X35657Y119695D01*
X35648Y118990D01*
X35642Y118906D01*
X35615Y118866D01*
X35493Y118248D01*
Y114429D01*
X35615Y113812D01*
X35631Y113788D01*
X35657Y111722D01*
X35648Y111017D01*
X35642Y110933D01*
X35615Y110893D01*
X35493Y110276D01*
Y106457D01*
X35615Y105839D01*
X35631Y105816D01*
X35657Y103750D01*
X35648Y103045D01*
X35642Y102961D01*
X35615Y102921D01*
X35493Y102303D01*
Y98484D01*
X35615Y97867D01*
X35631Y97843D01*
X35672Y94519D01*
Y87155D01*
X30159D01*
X30038Y87220D01*
X30028Y87270D01*
X29657Y87826D01*
X29101Y88198D01*
X28445Y88328D01*
X27789Y88198D01*
X27233Y87826D01*
X26928Y87370D01*
X26916Y87353D01*
X26908Y87347D01*
X26838Y87293D01*
X26707Y87221D01*
X26636Y87195D01*
X26328Y87145D01*
X26327Y87145D01*
X26274Y87135D01*
X26224Y87155D01*
X17872D01*
X17714Y87090D01*
X17549Y87048D01*
X17528Y87012D01*
X17490Y86997D01*
X17424Y86839D01*
X17337Y86692D01*
X17234Y85983D01*
X17111Y84239D01*
X17096Y83237D01*
X9222D01*
X9214Y84595D01*
X9075Y86651D01*
X8990Y86821D01*
X8918Y86997D01*
X8900Y87004D01*
X8891Y87022D01*
X8711Y87083D01*
X8535Y87155D01*
X1020D01*
Y114173D01*
X942Y114563D01*
X721Y114894D01*
X390Y115115D01*
X0Y115193D01*
X-13684D01*
X-13710Y115220D01*
Y115220D01*
X-13710Y115220D01*
X-14952Y115318D01*
X-17056Y115823D01*
X-19055Y116651D01*
X-20900Y117781D01*
X-22546Y119187D01*
X-23951Y120832D01*
X-25081Y122677D01*
X-25910Y124676D01*
X-26415Y126780D01*
X-26584Y128937D01*
X-26512Y129851D01*
X-26512D01*
X-26512Y129991D01*
X-26512D01*
X-26539Y130330D01*
X-26539Y130330D01*
X-26541Y130349D01*
X-26584Y130905D01*
X-26415Y133063D01*
X-25910Y135167D01*
X-25081Y137166D01*
X-23951Y139011D01*
X-22546Y140656D01*
X-20900Y142061D01*
X-19055Y143192D01*
X-17056Y144020D01*
X-14952Y144525D01*
X-13710Y144623D01*
X-13710Y144623D01*
Y144623D01*
X-13684Y144650D01*
X0D01*
X390Y144727D01*
X721Y144948D01*
X942Y145279D01*
X1020Y145669D01*
X988Y145867D01*
X939Y146348D01*
X812Y147638D01*
X985Y149400D01*
X1499Y151094D01*
X2334Y152655D01*
X3457Y154024D01*
X4825Y155147D01*
X6386Y155981D01*
X7967Y156461D01*
X89042D01*
X89165Y156012D01*
X89165Y155961D01*
Y151862D01*
X90141D01*
X90146Y151850D01*
X90165Y151777D01*
X90183Y151671D01*
X90195Y151536D01*
X90199Y151360D01*
X90221Y151312D01*
Y150673D01*
X90199Y150625D01*
X90195Y150445D01*
X90183Y150305D01*
X90165Y150195D01*
X90145Y150117D01*
X90134Y150090D01*
X89814Y150026D01*
X89355Y149720D01*
X89049Y149261D01*
X88941Y148721D01*
Y146555D01*
X89049Y146014D01*
X89355Y145556D01*
X89814Y145250D01*
X90354Y145142D01*
X92126D01*
X92667Y145250D01*
X93125Y145556D01*
X93431Y146014D01*
X93539Y146555D01*
Y148721D01*
X93431Y149261D01*
X93125Y149720D01*
X92667Y150026D01*
X92346Y150090D01*
X92335Y150117D01*
X92315Y150195D01*
X92298Y150305D01*
X92286Y150445D01*
X92281Y150625D01*
X92260Y150673D01*
Y151312D01*
X92281Y151360D01*
X92286Y151536D01*
X92298Y151671D01*
X92315Y151777D01*
X92335Y151850D01*
X92339Y151862D01*
X93315D01*
Y155961D01*
X93315Y156012D01*
X93438Y156461D01*
X95341D01*
X95465Y156012D01*
D02*
G37*
G36*
X143039Y145018D02*
X143366Y145088D01*
X143724Y145192D01*
X144025Y145313D01*
X144271Y145449D01*
X144459Y145601D01*
Y142816D01*
X144271Y142968D01*
X144025Y143105D01*
X143724Y143225D01*
X143366Y143329D01*
X143039Y143399D01*
Y141453D01*
X142622Y141864D01*
X141838Y142557D01*
X141469Y142839D01*
X141117Y143077D01*
X140780Y143272D01*
X140460Y143423D01*
X140156Y143532D01*
X139868Y143596D01*
X139596Y143618D01*
Y144799D01*
X139868Y144821D01*
X140156Y144886D01*
X140460Y144994D01*
X140780Y145146D01*
X141117Y145341D01*
X141469Y145579D01*
X141838Y145860D01*
X142622Y146553D01*
X143039Y146965D01*
Y145018D01*
D02*
G37*
G36*
X148830Y146815D02*
X149027Y146681D01*
X149252Y146563D01*
X149506Y146461D01*
X149788Y146374D01*
X150098Y146303D01*
X150437Y146248D01*
X150803Y146209D01*
X151622Y146177D01*
Y142240D01*
X151199Y142232D01*
X150437Y142169D01*
X150098Y142114D01*
X149788Y142043D01*
X149506Y141957D01*
X149252Y141854D01*
X149027Y141736D01*
X148830Y141602D01*
X148662Y141453D01*
Y146965D01*
X148830Y146815D01*
D02*
G37*
G36*
X70039Y141453D02*
X69870Y141602D01*
X69673Y141736D01*
X69448Y141854D01*
X69195Y141957D01*
X68913Y142043D01*
X68603Y142114D01*
X68264Y142169D01*
X67897Y142209D01*
X67079Y142240D01*
Y146177D01*
X67502Y146185D01*
X68264Y146248D01*
X68603Y146303D01*
X68913Y146374D01*
X69195Y146461D01*
X69448Y146563D01*
X69673Y146681D01*
X69870Y146815D01*
X70039Y146965D01*
Y141453D01*
D02*
G37*
G36*
X158981Y140272D02*
X158941Y140646D01*
X158823Y140980D01*
X158625Y141276D01*
X158349Y141532D01*
X157993Y141748D01*
X157559Y141925D01*
X157046Y142063D01*
X156453Y142161D01*
X155782Y142220D01*
X155032Y142240D01*
Y146177D01*
X155782Y146197D01*
X156453Y146256D01*
X157046Y146354D01*
X157559Y146492D01*
X157993Y146669D01*
X158349Y146886D01*
X158625Y147142D01*
X158823Y147437D01*
X158941Y147772D01*
X158981Y148146D01*
Y140272D01*
D02*
G37*
G36*
X50212Y147772D02*
X50331Y147437D01*
X50528Y147142D01*
X50805Y146886D01*
X51160Y146669D01*
X51595Y146492D01*
X52108Y146354D01*
X52700Y146256D01*
X53372Y146197D01*
X54122Y146177D01*
Y142240D01*
X53372Y142220D01*
X52700Y142161D01*
X52108Y142063D01*
X51595Y141925D01*
X51160Y141748D01*
X50805Y141532D01*
X50528Y141276D01*
X50331Y140980D01*
X50212Y140646D01*
X50173Y140272D01*
Y148146D01*
X50212Y147772D01*
D02*
G37*
G36*
X148457Y141228D02*
X148323Y141032D01*
X148205Y140806D01*
X148102Y140553D01*
X148016Y140271D01*
X147945Y139961D01*
X147890Y139622D01*
X147851Y139262D01*
X147890Y138795D01*
X147945Y138456D01*
X148016Y138146D01*
X148102Y137864D01*
X148205Y137611D01*
X148323Y137386D01*
X148457Y137189D01*
X148606Y137020D01*
X143095D01*
X143244Y137189D01*
X143378Y137386D01*
X143496Y137611D01*
X143598Y137864D01*
X143685Y138146D01*
X143756Y138456D01*
X143811Y138795D01*
X143850Y139155D01*
X143811Y139622D01*
X143756Y139961D01*
X143685Y140271D01*
X143598Y140553D01*
X143496Y140806D01*
X143378Y141032D01*
X143244Y141228D01*
X143095Y141397D01*
X148606D01*
X148457Y141228D01*
D02*
G37*
G36*
X75457D02*
X75323Y141032D01*
X75205Y140806D01*
X75102Y140553D01*
X75016Y140271D01*
X74945Y139961D01*
X74890Y139622D01*
X74851Y139262D01*
X74890Y138795D01*
X74945Y138456D01*
X75016Y138146D01*
X75102Y137864D01*
X75205Y137611D01*
X75323Y137386D01*
X75457Y137189D01*
X75606Y137020D01*
X70095D01*
X70244Y137189D01*
X70378Y137386D01*
X70496Y137611D01*
X70598Y137864D01*
X70685Y138146D01*
X70756Y138456D01*
X70811Y138795D01*
X70850Y139155D01*
X70811Y139622D01*
X70756Y139961D01*
X70685Y140271D01*
X70598Y140553D01*
X70496Y140806D01*
X70378Y141032D01*
X70244Y141228D01*
X70095Y141397D01*
X75606D01*
X75457Y141228D01*
D02*
G37*
G36*
X115095Y141730D02*
X117536Y141590D01*
X117589Y141552D01*
X117568Y141510D01*
X116755Y136610D01*
X116759Y136835D01*
X116691Y137037D01*
X116552Y137215D01*
X116341Y137369D01*
X116059Y137499D01*
X115705Y137606D01*
X115279Y137689D01*
X114783Y137748D01*
X114214Y137783D01*
X113575Y137795D01*
X114451Y141732D01*
X115095Y141730D01*
D02*
G37*
G36*
X155751Y141680D02*
X156385Y141624D01*
X156931Y141533D01*
X157386Y141411D01*
X157749Y141263D01*
X158021Y141097D01*
X158211Y140922D01*
X158335Y140736D01*
X158410Y140525D01*
X158442Y140215D01*
X158457Y140189D01*
Y135972D01*
X151645D01*
X151560Y135974D01*
X151198Y136001D01*
X150872Y136044D01*
X150583Y136102D01*
X150330Y136175D01*
X150115Y136259D01*
X149937Y136353D01*
X149793Y136454D01*
X149679Y136561D01*
X149564Y136709D01*
X149495Y136748D01*
X149015Y137373D01*
X149013Y137375D01*
X149011Y137380D01*
X148885Y137522D01*
X148788Y137664D01*
X148696Y137838D01*
X148613Y138045D01*
X148539Y138286D01*
X148476Y138560D01*
X148427Y138861D01*
X148395Y139256D01*
X148426Y139550D01*
X148476Y139857D01*
X148539Y140131D01*
X148613Y140372D01*
X148696Y140579D01*
X148788Y140753D01*
X148885Y140895D01*
X149011Y141038D01*
X149013Y141042D01*
X149015Y141044D01*
X149017Y141046D01*
X149021Y141048D01*
X149164Y141174D01*
X149306Y141271D01*
X149480Y141363D01*
X149687Y141446D01*
X149928Y141520D01*
X150202Y141583D01*
X150503Y141632D01*
X151226Y141692D01*
X151243Y141692D01*
X155298D01*
X155751Y141680D01*
D02*
G37*
G36*
X188976Y156461D02*
Y156461D01*
X189458Y156416D01*
X190314Y156332D01*
X191601Y155941D01*
X192786Y155308D01*
X193825Y154455D01*
X194678Y153416D01*
X195311Y152230D01*
X195702Y150944D01*
X195833Y149615D01*
X195831Y149606D01*
Y145669D01*
X195908Y145279D01*
X196129Y144948D01*
X196460Y144727D01*
X196850Y144650D01*
X210535D01*
X210560Y144623D01*
Y144623D01*
X210560Y144623D01*
X211803Y144525D01*
X213907Y144020D01*
X215906Y143192D01*
X217751Y142061D01*
X219396Y140656D01*
X220801Y139011D01*
X221932Y137166D01*
X222760Y135167D01*
X223265Y133063D01*
X223435Y130905D01*
X223363Y129991D01*
X223363D01*
X223363Y129851D01*
X223363D01*
X223389Y129513D01*
X223389Y129512D01*
X223391Y129493D01*
X223435Y128937D01*
X223265Y126780D01*
X222760Y124676D01*
X221932Y122677D01*
X220801Y120832D01*
X219396Y119187D01*
X217751Y117781D01*
X215906Y116651D01*
X213907Y115823D01*
X211803Y115318D01*
X210560Y115220D01*
X210560Y115220D01*
Y115220D01*
X210535Y115193D01*
X196850D01*
X196460Y115115D01*
X196129Y114894D01*
X195908Y114563D01*
X195831Y114173D01*
Y43307D01*
X195908Y42917D01*
X196129Y42586D01*
X196460Y42365D01*
X196850Y42287D01*
X210535D01*
X210560Y42260D01*
Y42260D01*
X210560Y42260D01*
X211803Y42163D01*
X213907Y41658D01*
X215906Y40830D01*
X217751Y39699D01*
X219396Y38294D01*
X220801Y36648D01*
X221932Y34803D01*
X222760Y32804D01*
X223265Y30700D01*
X223435Y28543D01*
X223363Y27629D01*
X223363D01*
X223363Y27489D01*
X223363D01*
X223389Y27151D01*
X223389Y27150D01*
X223391Y27131D01*
X223435Y26575D01*
X223265Y24418D01*
X222760Y22314D01*
X221932Y20315D01*
X220801Y18470D01*
X219396Y16825D01*
X217751Y15419D01*
X215906Y14289D01*
X213907Y13461D01*
X211803Y12956D01*
X210560Y12858D01*
X210560Y12858D01*
Y12858D01*
X210535Y12831D01*
X196850D01*
X196460Y12753D01*
X196129Y12532D01*
X195908Y12201D01*
X195831Y11811D01*
Y7874D01*
X195831Y7874D01*
X195831D01*
X195785Y7384D01*
X195702Y6536D01*
X195311Y5250D01*
X194678Y4064D01*
X193825Y3025D01*
X192786Y2173D01*
X191601Y1539D01*
X190314Y1149D01*
X188985Y1018D01*
X188976Y1020D01*
X67470D01*
Y6765D01*
X67410Y6910D01*
X67380Y7064D01*
X67333Y7096D01*
X67312Y7147D01*
X67167Y7208D01*
X67036Y7295D01*
X66929Y7317D01*
Y7317D01*
X66480Y7407D01*
X65374Y7568D01*
X62927Y7753D01*
X61586Y7776D01*
Y15650D01*
X62927Y15673D01*
X65374Y15857D01*
X66480Y16018D01*
X66929Y16108D01*
Y16108D01*
X67036Y16130D01*
X67167Y16218D01*
X67312Y16278D01*
X67333Y16330D01*
X67380Y16361D01*
X67410Y16515D01*
X67470Y16660D01*
Y19144D01*
X71447D01*
X71525Y18644D01*
X70330Y17663D01*
X69755Y16963D01*
X70124Y17123D01*
X70839Y17515D01*
X71476Y17952D01*
Y11963D01*
X76279D01*
X84669D01*
X84532Y13354D01*
X84053Y14933D01*
X83276Y16387D01*
X82230Y17663D01*
X81034Y18644D01*
X81112Y19144D01*
X90551D01*
X90934Y19302D01*
X91092Y19685D01*
X107632D01*
X107687Y19535D01*
X107757Y19290D01*
X107815Y19011D01*
X107861Y18706D01*
X107875Y18523D01*
X107830Y17950D01*
X107760Y17485D01*
X107670Y17052D01*
X107561Y16656D01*
X107435Y16296D01*
X107321Y16038D01*
X105620Y16017D01*
X104915Y16025D01*
X104831Y16031D01*
X104791Y16058D01*
X104173Y16181D01*
X100354D01*
X99737Y16058D01*
X99713Y16042D01*
X97697Y16017D01*
X97041Y16025D01*
X96957Y16031D01*
X96917Y16058D01*
X96299Y16181D01*
X92480D01*
X91863Y16058D01*
X91339Y15708D01*
X90990Y15184D01*
X90867Y14567D01*
Y12402D01*
X90990Y11784D01*
X91339Y11260D01*
X91863Y10911D01*
X92480Y10788D01*
X96299D01*
X96917Y10911D01*
X96940Y10926D01*
X98957Y10951D01*
X99613Y10943D01*
X99696Y10938D01*
X99737Y10911D01*
X100354Y10788D01*
X104173D01*
X104791Y10911D01*
X104814Y10926D01*
X106880Y10952D01*
X107585Y10943D01*
X107669Y10938D01*
X107709Y10911D01*
X108327Y10788D01*
X112146D01*
X112763Y10911D01*
X112787Y10926D01*
X114853Y10952D01*
X115558Y10943D01*
X115641Y10938D01*
X115682Y10911D01*
X116299Y10788D01*
X120118D01*
X120736Y10911D01*
X121259Y11260D01*
X121609Y11784D01*
X121732Y12402D01*
Y14567D01*
X121609Y15184D01*
X121259Y15708D01*
X120736Y16058D01*
X120118Y16181D01*
X116299D01*
X115682Y16058D01*
X115658Y16042D01*
X113592Y16017D01*
X113257Y16021D01*
X113255Y16027D01*
X113176Y16354D01*
X113109Y16728D01*
X112994Y18288D01*
X113013Y18455D01*
X113066Y18758D01*
X113132Y19027D01*
X113210Y19262D01*
X113298Y19463D01*
X113393Y19630D01*
X113434Y19685D01*
X133212D01*
X144710Y8187D01*
X145212Y7661D01*
X145391Y7452D01*
X145416Y7418D01*
X145514Y6677D01*
X145862Y5838D01*
X146415Y5116D01*
X147137Y4563D01*
X147977Y4215D01*
X148878Y4096D01*
X149779Y4215D01*
X150619Y4563D01*
X151162Y4979D01*
X152729Y5062D01*
X155501D01*
X156228Y5045D01*
X156502Y5024D01*
X156544Y5018D01*
X157137Y4563D01*
X157977Y4215D01*
X158878Y4096D01*
X159779Y4215D01*
X160619Y4563D01*
X161340Y5116D01*
X161894Y5838D01*
X162242Y6677D01*
X162361Y7579D01*
X162242Y8480D01*
X161894Y9320D01*
X161340Y10041D01*
X160619Y10595D01*
X159779Y10943D01*
X158878Y11061D01*
X157977Y10943D01*
X157137Y10595D01*
X156594Y10178D01*
X155027Y10096D01*
X152255D01*
X151528Y10113D01*
X151254Y10134D01*
X151212Y10140D01*
X150619Y10595D01*
X149779Y10943D01*
X149101Y11032D01*
X147934Y12082D01*
X140793Y19223D01*
X140984Y19685D01*
X165354D01*
Y36620D01*
X165816Y36811D01*
X167178Y35449D01*
Y32960D01*
X167175Y32952D01*
Y32224D01*
Y16476D01*
Y15547D01*
X167192Y15506D01*
X167182Y15462D01*
X167473Y13626D01*
X167496Y13588D01*
X167493Y13543D01*
X168067Y11775D01*
X168096Y11741D01*
X168100Y11697D01*
X168944Y10040D01*
X168978Y10011D01*
X168988Y9968D01*
X170081Y8464D01*
X170119Y8441D01*
X170136Y8399D01*
X171450Y7085D01*
X171492Y7068D01*
X171515Y7030D01*
X173019Y5937D01*
X173063Y5926D01*
X173091Y5892D01*
X174748Y5049D01*
X174793Y5045D01*
X174826Y5016D01*
X176595Y4442D01*
X176639Y4445D01*
X176677Y4422D01*
X178513Y4131D01*
X178557Y4141D01*
X178598Y4124D01*
X180457D01*
X180498Y4141D01*
X180542Y4131D01*
X182378Y4422D01*
X182416Y4445D01*
X182460Y4442D01*
X184229Y5016D01*
X184263Y5045D01*
X184307Y5049D01*
X185964Y5892D01*
X185993Y5926D01*
X186036Y5937D01*
X187540Y7030D01*
X187563Y7068D01*
X187605Y7085D01*
X188919Y8399D01*
X188936Y8441D01*
X188974Y8464D01*
X190067Y9968D01*
X190077Y10011D01*
X190111Y10040D01*
X190955Y11697D01*
X190959Y11741D01*
X190988Y11775D01*
X191562Y13543D01*
X191559Y13588D01*
X191582Y13626D01*
X191873Y15462D01*
X191863Y15506D01*
X191880Y15547D01*
Y16476D01*
Y32224D01*
X191880Y32224D01*
X191880Y32952D01*
X191866Y32985D01*
X191876Y33019D01*
X191697Y34464D01*
X191679Y34495D01*
X191685Y34530D01*
X191330Y35942D01*
X191308Y35970D01*
X191309Y36005D01*
X190784Y37363D01*
X190759Y37389D01*
X190756Y37424D01*
X190067Y38707D01*
X190040Y38729D01*
X190032Y38764D01*
X189191Y39953D01*
X189161Y39971D01*
X189149Y40005D01*
X188169Y41081D01*
X188137Y41096D01*
X188121Y41127D01*
X187015Y42075D01*
X186982Y42086D01*
X186962Y42116D01*
X186355Y42518D01*
X186201Y42548D01*
X186056Y42608D01*
X172999D01*
X172854Y42548D01*
X172757Y42529D01*
X165354Y49931D01*
Y129921D01*
X159984D01*
X159750Y130297D01*
X159931Y130760D01*
X160208Y130846D01*
X160724Y130919D01*
X161221Y130938D01*
X170030D01*
X174924Y126045D01*
X176221Y124648D01*
X176755Y123981D01*
X177178Y123375D01*
X177453Y122895D01*
Y121037D01*
X177436Y120995D01*
X177453Y120954D01*
X177442Y120910D01*
X177453Y120893D01*
Y110327D01*
X194201D01*
Y127075D01*
X183634D01*
X183617Y127085D01*
X183574Y127075D01*
X183533Y127092D01*
X183491Y127075D01*
X181632D01*
X181153Y127350D01*
X180553Y127768D01*
X179136Y128968D01*
X178888Y129207D01*
X179130Y129669D01*
X179134Y129668D01*
X180097Y129860D01*
X180914Y130405D01*
X181459Y131222D01*
X181651Y132185D01*
Y133261D01*
X181955Y133565D01*
X182205Y133805D01*
X182681Y134221D01*
X183147Y134585D01*
X183602Y134900D01*
X184045Y135166D01*
X184476Y135382D01*
X184894Y135550D01*
X185299Y135672D01*
X185692Y135748D01*
X186103Y135783D01*
X186155Y135810D01*
X186213Y135804D01*
X186230Y135818D01*
X187468Y135940D01*
X189047Y136419D01*
X190502Y137197D01*
X191777Y138243D01*
X192823Y139518D01*
X193601Y140973D01*
X194080Y142551D01*
X194241Y144193D01*
X194080Y145835D01*
X193601Y147413D01*
X192823Y148868D01*
X191777Y150143D01*
X190502Y151189D01*
X189047Y151967D01*
X187468Y152446D01*
X185827Y152607D01*
X184185Y152446D01*
X182607Y151967D01*
X181152Y151189D01*
X179877Y150143D01*
X178830Y148868D01*
X178053Y147413D01*
X177574Y145835D01*
X177412Y144193D01*
X177574Y142551D01*
X178053Y140973D01*
X178610Y139930D01*
X178607Y139902D01*
X178640Y139863D01*
X178644Y139813D01*
X178813Y139480D01*
X178902Y139185D01*
X178935Y138881D01*
X178913Y138558D01*
X178831Y138209D01*
X178682Y137833D01*
X178463Y137430D01*
X178170Y137001D01*
X177802Y136550D01*
X177512Y136242D01*
X177354Y136084D01*
X177271Y135959D01*
X177268Y135956D01*
X177267Y135953D01*
X176809Y135267D01*
X176617Y134304D01*
Y132185D01*
X176627Y132137D01*
X176186Y131901D01*
X172852Y135235D01*
X172579Y135417D01*
X172731Y135917D01*
X175205D01*
Y152665D01*
X158457D01*
Y148229D01*
X158442Y148203D01*
X158410Y147892D01*
X158335Y147681D01*
X158211Y147496D01*
X158021Y147320D01*
X157749Y147154D01*
X157386Y147006D01*
X156931Y146884D01*
X156385Y146793D01*
X155751Y146737D01*
X155298Y146725D01*
X151446D01*
X150843Y146749D01*
X150509Y146785D01*
X150202Y146835D01*
X149928Y146897D01*
X149687Y146971D01*
X149480Y147055D01*
X149306Y147146D01*
X149164Y147243D01*
X149021Y147369D01*
X149017Y147371D01*
X149015Y147373D01*
X148088Y148084D01*
X147009Y148531D01*
X145850Y148684D01*
X144692Y148531D01*
X143613Y148084D01*
X142686Y147373D01*
X142672Y147355D01*
X142658Y147350D01*
X142253Y146949D01*
X141494Y146279D01*
X141153Y146018D01*
X140829Y145799D01*
X140529Y145625D01*
X140253Y145495D01*
X140005Y145407D01*
X139787Y145357D01*
X139553Y145339D01*
X139517Y145321D01*
X129805D01*
X123257Y151869D01*
X122896Y152110D01*
X122470Y152195D01*
X122470Y152195D01*
X119674D01*
X119544Y152417D01*
X119466Y152695D01*
X119792Y153183D01*
X119923Y153839D01*
X119792Y154495D01*
X119421Y155051D01*
X118865Y155422D01*
X118209Y155553D01*
X117553Y155422D01*
X117035Y155076D01*
X116997Y155062D01*
X116949Y155018D01*
X116918Y154994D01*
X116882Y154971D01*
X116840Y154951D01*
X116792Y154931D01*
X116737Y154915D01*
X116673Y154900D01*
X116601Y154889D01*
X116519Y154882D01*
X116415Y154880D01*
X116367Y154858D01*
X115027D01*
X114979Y154880D01*
X114805Y154884D01*
X114673Y154896D01*
X114569Y154913D01*
X114498Y154932D01*
X114478Y154940D01*
X114476Y154944D01*
Y156012D01*
X114476D01*
X114600Y156461D01*
X188485D01*
X188976Y156461D01*
D02*
G37*
G36*
X186057Y136322D02*
X185617Y136285D01*
X185169Y136198D01*
X184715Y136061D01*
X184253Y135875D01*
X183784Y135640D01*
X183309Y135355D01*
X182826Y135021D01*
X182336Y134638D01*
X181840Y134205D01*
X181336Y133722D01*
X177742Y135696D01*
X178209Y136193D01*
X178604Y136677D01*
X178925Y137147D01*
X179173Y137604D01*
X179348Y138047D01*
X179450Y138476D01*
X179479Y138892D01*
X179434Y139294D01*
X179317Y139683D01*
X179126Y140058D01*
X186057Y136322D01*
D02*
G37*
G36*
X124486Y137669D02*
X124431Y137490D01*
X124430Y137284D01*
X124485Y137050D01*
X124594Y136788D01*
X124759Y136499D01*
X124979Y136183D01*
X125253Y135840D01*
X125968Y135070D01*
X124576Y133678D01*
X124177Y134063D01*
X123462Y134667D01*
X123146Y134887D01*
X122857Y135051D01*
X122596Y135161D01*
X122362Y135215D01*
X122156Y135215D01*
X121976Y135160D01*
X121825Y135049D01*
X124597Y137821D01*
X124486Y137669D01*
D02*
G37*
G36*
X104305Y145239D02*
X104623Y145175D01*
X106365Y143433D01*
X106404Y143375D01*
X111795Y137984D01*
X112611Y137438D01*
X113451Y137272D01*
X113457Y137267D01*
X113466Y137269D01*
X113575Y137247D01*
X113956D01*
X114193Y137242D01*
X114734Y137209D01*
X115195Y137154D01*
X115575Y137080D01*
X115866Y136992D01*
X116065Y136900D01*
X116172Y136822D01*
X116190Y136799D01*
Y136713D01*
X116358Y135865D01*
X116839Y135146D01*
X117558Y134666D01*
X118405Y134497D01*
X122737D01*
X122857Y134428D01*
X123133Y134237D01*
X123814Y133661D01*
X124200Y133289D01*
X124228Y133278D01*
X126768Y130737D01*
X126768Y130737D01*
X127241Y130421D01*
X127249Y130384D01*
X127143Y129921D01*
X98523D01*
X98332Y130383D01*
X99713Y131764D01*
X100258Y132580D01*
X100316Y132868D01*
X100847Y132979D01*
X101313Y132668D01*
X101969Y132538D01*
X102624Y132668D01*
X103181Y133040D01*
X103552Y133596D01*
X103682Y134252D01*
X103552Y134908D01*
X103482Y135013D01*
Y145233D01*
X103537Y145280D01*
X103982Y145454D01*
X104305Y145239D01*
D02*
G37*
G36*
X45886Y135110D02*
X45551Y134992D01*
X45256Y134795D01*
X45000Y134520D01*
X44783Y134166D01*
X44606Y133732D01*
X44469Y133221D01*
X44370Y132630D01*
X44311Y131961D01*
X44291Y131213D01*
X40354D01*
X40335Y131961D01*
X40276Y132630D01*
X40177Y133221D01*
X40039Y133732D01*
X39862Y134166D01*
X39646Y134520D01*
X39390Y134795D01*
X39094Y134992D01*
X38760Y135110D01*
X38386Y135150D01*
X46260D01*
X45886Y135110D01*
D02*
G37*
G36*
X149278Y136195D02*
X149451Y136033D01*
X149655Y135890D01*
X149890Y135766D01*
X150156Y135662D01*
X150454Y135576D01*
X150783Y135510D01*
X151143Y135462D01*
X151534Y135433D01*
X151957Y135424D01*
X151782Y134659D01*
X152706Y135424D01*
X161396Y131487D01*
X160675Y131459D01*
X160090Y131376D01*
X159638Y131236D01*
X159321Y131041D01*
X159139Y130791D01*
X159091Y130485D01*
X159177Y130123D01*
X159283Y129921D01*
X159346D01*
X159525Y129635D01*
X159577Y129598D01*
X159601Y129539D01*
X159740Y129481D01*
X159862Y129394D01*
X159925Y129405D01*
X159984Y129380D01*
X164813D01*
Y126459D01*
X164313Y126192D01*
X164102Y126333D01*
X163484Y126456D01*
X162841D01*
X163405Y126089D01*
X163723Y125916D01*
X164024Y125778D01*
X162652Y123934D01*
Y122933D01*
Y121411D01*
X164370D01*
X164382Y120484D01*
X164419D01*
X164410Y120432D01*
X164402Y120303D01*
X164393Y119631D01*
X164813Y119407D01*
Y118487D01*
X164409Y118271D01*
X164419Y117410D01*
X164371D01*
X164370Y116482D01*
X162652D01*
Y114961D01*
Y113341D01*
X164370D01*
X164380Y112511D01*
X164419D01*
X164410Y112460D01*
X164402Y112331D01*
X164393Y111659D01*
X164813Y111434D01*
Y110416D01*
X164409Y110200D01*
X164419Y109339D01*
X164371D01*
X164370Y108510D01*
X162652D01*
Y106890D01*
X162152D01*
Y108510D01*
X160433D01*
X160423Y109339D01*
X160384D01*
X160393Y109391D01*
X160401Y109520D01*
X160408Y110094D01*
X160178Y109940D01*
X159828Y109417D01*
X159705Y108799D01*
Y108280D01*
X159205Y108154D01*
X158579Y108970D01*
X152574Y114976D01*
X151647Y115687D01*
X151203Y115871D01*
X151195Y115892D01*
X151190Y116418D01*
X151491Y116619D01*
X151797Y117077D01*
X151905Y117618D01*
Y118254D01*
X147986D01*
Y116795D01*
X147865Y116858D01*
X147702Y116914D01*
X147495Y116964D01*
X147246Y117007D01*
X147055Y117027D01*
X147328Y116619D01*
X147629Y116418D01*
X147624Y115892D01*
X147616Y115871D01*
X147172Y115687D01*
X146832Y115426D01*
X146740Y115406D01*
X146432Y115194D01*
X146119Y115015D01*
X145782Y114856D01*
X145421Y114716D01*
X145035Y114597D01*
X144623Y114499D01*
X144192Y114423D01*
X143225Y114332D01*
X143037Y114328D01*
X142717D01*
X142400Y114265D01*
X142207Y114400D01*
X141512Y114989D01*
X141119Y115369D01*
X141091Y115380D01*
X136749Y119721D01*
Y122223D01*
X136762Y122250D01*
X136767Y122592D01*
X136807Y123180D01*
X136839Y123411D01*
X136880Y123610D01*
X136925Y123771D01*
X136972Y123891D01*
X137015Y123969D01*
X137044Y124006D01*
X137103Y124056D01*
X137113Y124077D01*
X137135Y124086D01*
X137172Y124175D01*
X137427Y124558D01*
X137535Y125098D01*
Y127264D01*
X137427Y127805D01*
X137121Y128263D01*
X136663Y128569D01*
X136403Y128621D01*
X136363Y128646D01*
X136322Y128637D01*
X136312Y128639D01*
X136277Y128654D01*
X136263Y128649D01*
X136122Y128677D01*
X135466D01*
X135267Y128880D01*
X135478Y129380D01*
X143364D01*
X143495Y129434D01*
X143635Y129453D01*
X143680Y129511D01*
X143747Y129539D01*
X143801Y129669D01*
X143887Y129782D01*
X143924Y129921D01*
X144607D01*
X144692Y129886D01*
X145850Y129733D01*
X147009Y129886D01*
X147094Y129921D01*
X153197D01*
X152901Y130123D01*
X152263Y130485D01*
X151602Y130791D01*
X150919Y131041D01*
X150212Y131236D01*
X149482Y131376D01*
X149395Y131385D01*
X149205Y131357D01*
X148668Y131231D01*
X148444Y131153D01*
X148249Y131065D01*
X148083Y130966D01*
X148183Y131479D01*
X147954Y131487D01*
X148229Y131715D01*
X149137Y136376D01*
X149278Y136195D01*
D02*
G37*
G36*
X75457Y131228D02*
X75323Y131032D01*
X75205Y130807D01*
X75102Y130553D01*
X75016Y130271D01*
X74945Y129961D01*
X74938Y129921D01*
X75278D01*
X75538Y129588D01*
X75569Y129571D01*
X75582Y129539D01*
X75745Y129471D01*
X75899Y129384D01*
X75933Y129393D01*
X75965Y129380D01*
X89557D01*
X89748Y128918D01*
X81107Y120277D01*
X80645Y120468D01*
Y121358D01*
X80538Y121899D01*
X80231Y122357D01*
X79773Y122664D01*
X79232Y122771D01*
X78400D01*
Y120472D01*
X78150D01*
Y120222D01*
X75654D01*
Y119587D01*
X75761Y119046D01*
X76068Y118588D01*
X76526Y118281D01*
X77067Y118174D01*
X78277D01*
X78484Y117674D01*
X77195Y116384D01*
X71776D01*
X70813Y116192D01*
X70774Y116166D01*
X70694D01*
X70153Y116058D01*
X69695Y115752D01*
X69388Y115294D01*
X69281Y114753D01*
Y113974D01*
X69260Y113867D01*
X69281Y113760D01*
Y112981D01*
X69388Y112440D01*
X69695Y111982D01*
X70153Y111676D01*
X70333Y111640D01*
Y107805D01*
X70310Y107201D01*
X70275Y106867D01*
X70224Y106560D01*
X70162Y106286D01*
X70088Y106045D01*
X70004Y105838D01*
X69913Y105664D01*
X69816Y105522D01*
X69690Y105379D01*
X69688Y105375D01*
X69686Y105373D01*
X68975Y104446D01*
X68528Y103367D01*
X68375Y102209D01*
X68528Y101050D01*
X68975Y99971D01*
X69686Y99044D01*
X69688Y99042D01*
X69690Y99038D01*
X69816Y98895D01*
X69913Y98753D01*
X70004Y98579D01*
X70088Y98372D01*
X70162Y98131D01*
X70224Y97857D01*
X70273Y97557D01*
X70306Y97162D01*
X70275Y96867D01*
X70224Y96560D01*
X70162Y96286D01*
X70088Y96045D01*
X70004Y95838D01*
X69913Y95664D01*
X69816Y95522D01*
X69690Y95380D01*
X69688Y95375D01*
X69686Y95373D01*
X68975Y94446D01*
X68528Y93367D01*
X68375Y92209D01*
X68528Y91050D01*
X68975Y89971D01*
X69686Y89044D01*
X70613Y88333D01*
X71692Y87886D01*
X72850Y87733D01*
X74009Y87886D01*
X74178Y87956D01*
X74461Y87532D01*
X74084Y87155D01*
X62665D01*
Y88591D01*
X55760D01*
Y87155D01*
X52788D01*
X52737Y87134D01*
X52683Y87145D01*
X52643Y87118D01*
X52501Y87036D01*
X52406Y86997D01*
X51978Y87212D01*
X51966Y87221D01*
X51917Y87285D01*
Y129185D01*
X51998Y129380D01*
X69736D01*
X69768Y129393D01*
X69802Y129384D01*
X69956Y129471D01*
X70119Y129539D01*
X70132Y129571D01*
X70162Y129588D01*
X70423Y129921D01*
X70762D01*
X70756Y129961D01*
X70685Y130271D01*
X70598Y130553D01*
X70496Y130807D01*
X70378Y131032D01*
X70244Y131228D01*
X70095Y131397D01*
X75606D01*
X75457Y131228D01*
D02*
G37*
G36*
X130403Y129071D02*
X130157Y128610D01*
X129823Y128677D01*
X129044D01*
X128937Y128698D01*
X128830Y128677D01*
X128051D01*
X127510Y128569D01*
X127052Y128263D01*
X126746Y127805D01*
X126638Y127264D01*
Y127184D01*
X126612Y127144D01*
X126420Y126181D01*
X126420Y126181D01*
Y125100D01*
X126409Y124663D01*
X126356Y124029D01*
X126271Y123483D01*
X126155Y123027D01*
X126014Y122663D01*
X125857Y122391D01*
X125693Y122204D01*
X125524Y122085D01*
X125337Y122014D01*
X125050Y121983D01*
X125004Y121957D01*
X124598D01*
Y121515D01*
X124569Y121445D01*
X124581Y121415D01*
X124573Y121385D01*
X124598Y121338D01*
Y116626D01*
X133276D01*
Y118780D01*
X133776Y118830D01*
X133838Y118515D01*
X134166Y118024D01*
X138945Y113246D01*
X138955Y113219D01*
X139676Y112444D01*
X139936Y112121D01*
X140139Y111831D01*
X140221Y111690D01*
Y110925D01*
X140249Y110784D01*
X140244Y110770D01*
X140259Y110735D01*
X140261Y110725D01*
X140251Y110684D01*
X140277Y110644D01*
X140328Y110385D01*
X140635Y109926D01*
X141093Y109620D01*
X141634Y109512D01*
X141714D01*
X141753Y109486D01*
X142717Y109294D01*
X142864D01*
X143727Y109256D01*
X144185Y109201D01*
X144623Y109123D01*
X145035Y109025D01*
X145421Y108906D01*
X145782Y108766D01*
X146119Y108607D01*
X146432Y108428D01*
X146534Y108357D01*
X148470Y106422D01*
X148139Y106045D01*
X148088Y106084D01*
X147009Y106532D01*
X145850Y106684D01*
X144692Y106532D01*
X143613Y106084D01*
X142774Y105441D01*
X142741Y105430D01*
X142597Y105307D01*
X142453Y105213D01*
X142277Y105123D01*
X142068Y105042D01*
X141825Y104969D01*
X141549Y104908D01*
X141247Y104861D01*
X140521Y104802D01*
X140516Y104802D01*
X136275D01*
X134203Y104837D01*
X133750Y104867D01*
X133276Y104920D01*
Y105028D01*
X132826Y105053D01*
X132794Y105044D01*
X132764Y105057D01*
X132693Y105028D01*
X124598D01*
Y99697D01*
X132693D01*
X132764Y99668D01*
X132771Y99671D01*
X132778Y99668D01*
X136448Y99769D01*
X140206D01*
X140813Y99744D01*
X141145Y99708D01*
X141451Y99657D01*
X141723Y99593D01*
X141961Y99517D01*
X142166Y99432D01*
X142338Y99339D01*
X142478Y99240D01*
X142619Y99110D01*
X142642Y99102D01*
X142686Y99044D01*
X142688Y99042D01*
X142690Y99038D01*
X142816Y98895D01*
X142913Y98753D01*
X143004Y98579D01*
X143088Y98372D01*
X143162Y98131D01*
X143225Y97857D01*
X143273Y97557D01*
X143306Y97162D01*
X143274Y96867D01*
X143225Y96560D01*
X143162Y96286D01*
X143088Y96045D01*
X143004Y95838D01*
X142913Y95664D01*
X142816Y95522D01*
X142690Y95380D01*
X142688Y95375D01*
X142686Y95373D01*
X141975Y94446D01*
X141528Y93367D01*
X141375Y92209D01*
X141528Y91050D01*
X141975Y89971D01*
X142686Y89044D01*
X143613Y88333D01*
X144692Y87886D01*
X145850Y87733D01*
X147009Y87886D01*
X148088Y88333D01*
X149015Y89044D01*
X149726Y89971D01*
X150173Y91050D01*
X150326Y92209D01*
X150173Y93367D01*
X149726Y94446D01*
X149015Y95373D01*
X149013Y95375D01*
X149011Y95380D01*
X148885Y95522D01*
X148788Y95664D01*
X148696Y95838D01*
X148613Y96045D01*
X148539Y96286D01*
X148476Y96560D01*
X148427Y96861D01*
X148395Y97256D01*
X148426Y97550D01*
X148476Y97857D01*
X148539Y98131D01*
X148613Y98372D01*
X148696Y98579D01*
X148788Y98753D01*
X148885Y98895D01*
X149011Y99038D01*
X149013Y99042D01*
X149015Y99044D01*
X149726Y99971D01*
X150173Y101050D01*
X150326Y102209D01*
X150173Y103367D01*
X149726Y104446D01*
X149687Y104498D01*
X150064Y104828D01*
X150939Y103952D01*
Y64609D01*
X150477Y64417D01*
X125313Y89582D01*
X124386Y90293D01*
X123307Y90740D01*
X122148Y90893D01*
X79675D01*
X78517Y90740D01*
X77438Y90293D01*
X77384Y90252D01*
X76973Y90567D01*
X77173Y91050D01*
X77326Y92209D01*
X77173Y93367D01*
X76726Y94446D01*
X76015Y95373D01*
X76013Y95375D01*
X76011Y95380D01*
X75885Y95522D01*
X75788Y95664D01*
X75696Y95838D01*
X75613Y96045D01*
X75539Y96286D01*
X75476Y96560D01*
X75427Y96861D01*
X75395Y97256D01*
X75426Y97550D01*
X75476Y97857D01*
X75539Y98131D01*
X75613Y98372D01*
X75696Y98579D01*
X75788Y98753D01*
X75885Y98895D01*
X76011Y99038D01*
X76013Y99042D01*
X76015Y99044D01*
X76726Y99971D01*
X77173Y101050D01*
X77326Y102209D01*
X77173Y103367D01*
X76726Y104446D01*
X76015Y105373D01*
X76013Y105375D01*
X76011Y105379D01*
X75885Y105522D01*
X75788Y105664D01*
X75696Y105838D01*
X75613Y106045D01*
X75539Y106286D01*
X75476Y106560D01*
X75427Y106861D01*
X75368Y107584D01*
X75367Y107601D01*
Y111350D01*
X77710D01*
X78150Y111263D01*
X79113Y111454D01*
X79152Y111481D01*
X79232D01*
X79773Y111588D01*
X80231Y111895D01*
X80538Y112353D01*
X80601Y112672D01*
X82343Y114414D01*
X82401Y114453D01*
X97535Y129586D01*
X97773Y129648D01*
X98141Y129539D01*
X98240Y129497D01*
X98316Y129421D01*
X98424D01*
X98523Y129380D01*
X127143D01*
X127282Y129438D01*
X127430Y129463D01*
X127467Y129514D01*
X127525Y129539D01*
X127583Y129678D01*
X127670Y129800D01*
X127698Y129921D01*
X129553D01*
X130403Y129071D01*
D02*
G37*
G36*
X67858Y141669D02*
X68192Y141633D01*
X68499Y141583D01*
X68773Y141520D01*
X69014Y141446D01*
X69221Y141363D01*
X69395Y141271D01*
X69537Y141174D01*
X69679Y141048D01*
X69684Y141046D01*
X69686Y141044D01*
X69688Y141042D01*
X69690Y141038D01*
X69816Y140895D01*
X69913Y140753D01*
X70004Y140579D01*
X70088Y140372D01*
X70162Y140131D01*
X70224Y139857D01*
X70273Y139557D01*
X70306Y139162D01*
X70275Y138867D01*
X70224Y138560D01*
X70162Y138286D01*
X70088Y138045D01*
X70004Y137838D01*
X69913Y137664D01*
X69816Y137522D01*
X69690Y137380D01*
X69688Y137375D01*
X69686Y137373D01*
X68975Y136446D01*
X68528Y135367D01*
X68375Y134209D01*
X68528Y133050D01*
X68975Y131971D01*
X69686Y131044D01*
X69688Y131042D01*
X69690Y131038D01*
X69816Y130895D01*
X69913Y130753D01*
X70004Y130579D01*
X70068Y130421D01*
X70015Y130279D01*
X69736Y129921D01*
X51181D01*
Y127691D01*
X50681Y127471D01*
X50489Y127600D01*
X50514Y127162D01*
X50551Y126982D01*
X50593Y126848D01*
X50640Y126760D01*
X48872D01*
Y124311D01*
Y120788D01*
X49705D01*
X50322Y120911D01*
X50681Y121151D01*
X51181Y120931D01*
Y119719D01*
X50681Y119499D01*
X50322Y119739D01*
X49705Y119862D01*
X48872D01*
Y116339D01*
Y112815D01*
X49705D01*
X50322Y112938D01*
X50681Y113178D01*
X51181Y112959D01*
Y111746D01*
X50681Y111527D01*
X50322Y111766D01*
X49705Y111889D01*
X48872D01*
Y108366D01*
Y104843D01*
X49705D01*
X50322Y104966D01*
X50681Y105206D01*
X51181Y104986D01*
Y103774D01*
X50681Y103554D01*
X50322Y103794D01*
X49705Y103917D01*
X48872D01*
Y100394D01*
Y96871D01*
X49705D01*
X50322Y96993D01*
X50681Y97233D01*
X51181Y97014D01*
Y88580D01*
X50681Y88267D01*
X50114Y88502D01*
X49213Y88620D01*
X48311Y88502D01*
X47471Y88154D01*
X46750Y87600D01*
X46459Y87221D01*
X46447Y87212D01*
X46020Y86997D01*
X45924Y87036D01*
X45783Y87118D01*
X45742Y87145D01*
X45688Y87134D01*
X45637Y87155D01*
X40706D01*
Y95779D01*
X40730Y97743D01*
X40736Y97826D01*
X40762Y97867D01*
X40885Y98484D01*
Y102303D01*
X40762Y102921D01*
X40747Y102944D01*
X40721Y105010D01*
X40730Y105715D01*
X40736Y105799D01*
X40762Y105839D01*
X40885Y106457D01*
Y110276D01*
X40762Y110893D01*
X40747Y110916D01*
X40721Y112982D01*
X40730Y113688D01*
X40736Y113771D01*
X40762Y113812D01*
X40885Y114429D01*
Y118248D01*
X40762Y118866D01*
X40747Y118889D01*
X40721Y120955D01*
X40730Y121660D01*
X40736Y121744D01*
X40762Y121784D01*
X40885Y122402D01*
Y123620D01*
X40912Y123687D01*
X41120Y124065D01*
X41413Y124500D01*
X42868Y126211D01*
X43133Y126483D01*
X44102Y127453D01*
X44648Y128269D01*
X44840Y129232D01*
Y131477D01*
X44852Y131930D01*
X44907Y132562D01*
X44998Y133106D01*
X45120Y133559D01*
X45268Y133920D01*
X45434Y134191D01*
X45609Y134380D01*
X45795Y134504D01*
X46006Y134579D01*
X46316Y134612D01*
X46365Y134638D01*
X50697D01*
Y140189D01*
X50711Y140215D01*
X50744Y140525D01*
X50818Y140736D01*
X50943Y140922D01*
X51133Y141097D01*
X51405Y141263D01*
X51767Y141411D01*
X52223Y141533D01*
X52768Y141624D01*
X53403Y141680D01*
X53856Y141692D01*
X67254D01*
X67858Y141669D01*
D02*
G37*
G36*
X133868Y129151D02*
X134601Y128529D01*
X134925Y128302D01*
X135220Y128130D01*
X135487Y128015D01*
X135726Y127956D01*
X135936Y127952D01*
X136118Y128005D01*
X136271Y128113D01*
X133472Y125371D01*
X133583Y125522D01*
X133638Y125701D01*
X133638Y125908D01*
X133581Y126144D01*
X133469Y126408D01*
X133301Y126701D01*
X133076Y127022D01*
X132796Y127371D01*
X132068Y128155D01*
X133459Y129547D01*
X133868Y129151D01*
D02*
G37*
G36*
X25311Y125578D02*
X24531Y124770D01*
X23303Y123321D01*
X22857Y122680D01*
X22521Y122096D01*
X22298Y121567D01*
X22185Y121094D01*
X22184Y120677D01*
X22294Y120316D01*
X22515Y120011D01*
X16960Y125567D01*
X17265Y125345D01*
X17626Y125235D01*
X18043Y125236D01*
X18516Y125349D01*
X19045Y125573D01*
X19629Y125908D01*
X20270Y126354D01*
X20967Y126912D01*
X22527Y128362D01*
X25311Y125578D01*
D02*
G37*
G36*
X43135Y127261D02*
X42467Y126575D01*
X40981Y124827D01*
X40658Y124347D01*
X40422Y123919D01*
X40272Y123542D01*
X40208Y123217D01*
X40231Y122943D01*
X40340Y122720D01*
X36827Y127264D01*
X37017Y127312D01*
X37243Y127412D01*
X37507Y127565D01*
X37808Y127769D01*
X38521Y128333D01*
X39382Y129105D01*
X40391Y130084D01*
X43135Y127261D01*
D02*
G37*
G36*
X136651Y124382D02*
X136561Y124266D01*
X136481Y124120D01*
X136412Y123944D01*
X136353Y123738D01*
X136305Y123502D01*
X136268Y123236D01*
X136226Y122615D01*
X136221Y122259D01*
X134252D01*
X134247Y122615D01*
X134204Y123236D01*
X134167Y123502D01*
X134119Y123738D01*
X134061Y123944D01*
X133992Y124120D01*
X133912Y124266D01*
X133821Y124382D01*
X133720Y124468D01*
X136752D01*
X136651Y124382D01*
D02*
G37*
G36*
X130924Y124634D02*
X130980Y123964D01*
X131073Y123374D01*
X131203Y122862D01*
X131370Y122429D01*
X131574Y122075D01*
X131816Y121799D01*
X132095Y121602D01*
X132411Y121484D01*
X132764Y121445D01*
X125110D01*
X125463Y121484D01*
X125779Y121602D01*
X126058Y121799D01*
X126300Y122075D01*
X126504Y122429D01*
X126671Y122862D01*
X126801Y123374D01*
X126894Y123964D01*
X126950Y124634D01*
X126969Y125382D01*
X130905D01*
X130924Y124634D01*
D02*
G37*
G36*
X178773Y128566D02*
X180222Y127339D01*
X180863Y126892D01*
X181448Y126557D01*
X181976Y126333D01*
X182449Y126220D01*
X182866Y126219D01*
X183227Y126329D01*
X183533Y126551D01*
X177977Y120995D01*
X178198Y121300D01*
X178308Y121661D01*
X178307Y122078D01*
X178195Y122551D01*
X177971Y123080D01*
X177636Y123665D01*
X177189Y124305D01*
X176631Y125002D01*
X175181Y126563D01*
X177965Y129347D01*
X178773Y128566D01*
D02*
G37*
G36*
X40157Y122789D02*
X40169Y121862D01*
X40207D01*
X40198Y121810D01*
X40189Y121681D01*
X40180Y120955D01*
X40207Y118788D01*
X40159D01*
X40157Y117860D01*
X36220D01*
X36209Y118788D01*
X36171D01*
X36180Y118840D01*
X36189Y118969D01*
X36198Y119695D01*
X36171Y121862D01*
X36219D01*
X36220Y122789D01*
X40157Y122789D01*
D02*
G37*
G36*
X40169Y113889D02*
X40207D01*
X40198Y113838D01*
X40189Y113708D01*
X40180Y112982D01*
X40207Y110816D01*
X40159D01*
X40157Y109888D01*
X36220D01*
X36209Y110816D01*
X36171D01*
X36180Y110867D01*
X36189Y110996D01*
X36198Y111722D01*
X36171Y113889D01*
X36219D01*
X36220Y114817D01*
X40157D01*
X40169Y113889D01*
D02*
G37*
G36*
X141149Y114587D02*
X141876Y113971D01*
X142197Y113747D01*
X142489Y113578D01*
X142717Y113482D01*
Y113779D01*
X143256Y113791D01*
X144264Y113886D01*
X144732Y113969D01*
X145177Y114075D01*
X145598Y114205D01*
X145996Y114358D01*
X146370Y114535D01*
X146720Y114736D01*
X147047Y114960D01*
Y108662D01*
X146720Y108886D01*
X146370Y109087D01*
X145996Y109264D01*
X145598Y109417D01*
X145177Y109547D01*
X144732Y109654D01*
X144264Y109736D01*
X143772Y109795D01*
X142717Y109843D01*
Y112749D01*
X140785Y110776D01*
X140893Y110930D01*
X140946Y111111D01*
X140942Y111322D01*
X140883Y111560D01*
X140767Y111827D01*
X140596Y112122D01*
X140369Y112446D01*
X140085Y112798D01*
X139351Y113588D01*
X140743Y114980D01*
X141149Y114587D01*
D02*
G37*
G36*
X74827Y107557D02*
X74890Y106795D01*
X74945Y106456D01*
X75016Y106146D01*
X75102Y105864D01*
X75205Y105611D01*
X75323Y105386D01*
X75457Y105189D01*
X75606Y105020D01*
X70095D01*
X70244Y105189D01*
X70378Y105386D01*
X70496Y105611D01*
X70598Y105864D01*
X70685Y106146D01*
X70756Y106456D01*
X70811Y106795D01*
X70850Y107162D01*
X70882Y107980D01*
X74819D01*
X74827Y107557D01*
D02*
G37*
G36*
X40169Y105917D02*
X40207D01*
X40198Y105865D01*
X40189Y105736D01*
X40180Y105010D01*
X40207Y102843D01*
X40159D01*
X40157Y101915D01*
X36220D01*
X36209Y102843D01*
X36171D01*
X36180Y102895D01*
X36189Y103024D01*
X36198Y103750D01*
X36171Y105917D01*
X36219D01*
X36220Y106844D01*
X40157D01*
X40169Y105917D01*
D02*
G37*
G36*
X164382Y104440D02*
X164419D01*
X164410Y104389D01*
X164402Y104260D01*
X164393Y103534D01*
X164419Y101367D01*
X164371D01*
X164370Y100439D01*
X160433D01*
X160422Y101367D01*
X160384D01*
X160393Y101418D01*
X160401Y101547D01*
X160410Y102273D01*
X160384Y104440D01*
X160432D01*
X160433Y105368D01*
X164370D01*
X164382Y104440D01*
D02*
G37*
G36*
X132803Y104466D02*
X132921Y104421D01*
X133118Y104382D01*
X133394Y104348D01*
X134181Y104296D01*
X136701Y104254D01*
Y100317D01*
X132764Y100209D01*
Y104516D01*
X132803Y104466D01*
D02*
G37*
G36*
X142986Y99508D02*
X142819Y99662D01*
X142624Y99799D01*
X142400Y99921D01*
X142148Y100026D01*
X141867Y100115D01*
X141558Y100188D01*
X141220Y100244D01*
X140854Y100285D01*
X140035Y100317D01*
X140124Y104254D01*
X140548Y104262D01*
X141311Y104323D01*
X141650Y104376D01*
X141961Y104445D01*
X142244Y104529D01*
X142498Y104629D01*
X142725Y104744D01*
X142923Y104874D01*
X143093Y105019D01*
X142986Y99508D01*
D02*
G37*
G36*
X162652Y95394D02*
X163484D01*
X164102Y95517D01*
X164313Y95658D01*
X164813Y95391D01*
Y51126D01*
X164351Y50935D01*
X159890Y55396D01*
Y95466D01*
X160390Y95725D01*
X160701Y95517D01*
X161319Y95394D01*
X162152D01*
Y98917D01*
X162652D01*
Y95394D01*
D02*
G37*
G36*
X148457Y99229D02*
X148323Y99032D01*
X148205Y98807D01*
X148102Y98553D01*
X148016Y98271D01*
X147945Y97961D01*
X147890Y97622D01*
X147851Y97262D01*
X147890Y96795D01*
X147945Y96456D01*
X148016Y96146D01*
X148102Y95864D01*
X148205Y95611D01*
X148323Y95386D01*
X148457Y95189D01*
X148606Y95020D01*
X143095D01*
X143244Y95189D01*
X143378Y95386D01*
X143496Y95611D01*
X143598Y95864D01*
X143685Y96146D01*
X143756Y96456D01*
X143811Y96795D01*
X143850Y97155D01*
X143811Y97622D01*
X143756Y97961D01*
X143685Y98271D01*
X143598Y98553D01*
X143496Y98807D01*
X143378Y99032D01*
X143244Y99229D01*
X143095Y99397D01*
X148606D01*
X148457Y99229D01*
D02*
G37*
G36*
X75457D02*
X75323Y99032D01*
X75205Y98807D01*
X75102Y98553D01*
X75016Y98271D01*
X74945Y97961D01*
X74890Y97622D01*
X74851Y97262D01*
X74890Y96795D01*
X74945Y96456D01*
X75016Y96146D01*
X75102Y95864D01*
X75205Y95611D01*
X75323Y95386D01*
X75457Y95189D01*
X75606Y95020D01*
X70095D01*
X70244Y95189D01*
X70378Y95386D01*
X70496Y95611D01*
X70598Y95864D01*
X70685Y96146D01*
X70756Y96456D01*
X70811Y96795D01*
X70850Y97155D01*
X70811Y97622D01*
X70756Y97961D01*
X70685Y98271D01*
X70598Y98553D01*
X70496Y98807D01*
X70378Y99032D01*
X70244Y99229D01*
X70095Y99397D01*
X75606D01*
X75457Y99229D01*
D02*
G37*
G36*
X40198Y97893D02*
X40189Y97764D01*
X40159Y95363D01*
X40157Y93943D01*
X36220D01*
X36171Y97944D01*
X40207D01*
X40198Y97893D01*
D02*
G37*
G36*
X28433Y85433D02*
X28342Y85430D01*
X28251Y85417D01*
X28161Y85396D01*
X28071Y85366D01*
X27981Y85328D01*
X27892Y85280D01*
X27804Y85224D01*
X27716Y85159D01*
X27628Y85085D01*
X27541Y85003D01*
X26834Y85710D01*
X26916Y85797D01*
X26990Y85885D01*
X27055Y85973D01*
X27111Y86062D01*
X27159Y86150D01*
X27197Y86240D01*
X27227Y86330D01*
X27248Y86420D01*
X27260Y86511D01*
X27264Y86602D01*
X28433Y85433D01*
D02*
G37*
G36*
X27310Y84778D02*
X27343Y84443D01*
X27372Y84305D01*
X27408Y84188D01*
X27453Y84091D01*
X27507Y84014D01*
X27568Y83957D01*
X27637Y83921D01*
X27715Y83904D01*
X25891Y84048D01*
X25970Y84052D01*
X26041Y84075D01*
X26103Y84118D01*
X26157Y84181D01*
X26202Y84264D01*
X26240Y84366D01*
X26269Y84489D01*
X26290Y84631D01*
X26302Y84794D01*
X26306Y84976D01*
X27306D01*
X27310Y84778D01*
D02*
G37*
G36*
X90551Y78492D02*
X90502Y78452D01*
X89376D01*
X88884Y78464D01*
X88203Y78520D01*
X87623Y78611D01*
X87149Y78733D01*
X86782Y78880D01*
X86524Y79040D01*
X86362Y79199D01*
X86272Y79359D01*
X86263Y79399D01*
Y79773D01*
X86125Y80468D01*
X85732Y81056D01*
X85143Y81450D01*
X84448Y81588D01*
X81889D01*
X81195Y81450D01*
X80607Y81056D01*
X80213Y80468D01*
X80075Y79773D01*
Y75246D01*
X80213Y74551D01*
X80303Y74417D01*
X80314Y74336D01*
X80379Y74223D01*
X80433Y74076D01*
X80491Y73841D01*
X80543Y73545D01*
X80626Y72201D01*
X80579Y71654D01*
X80536Y71354D01*
X80489Y71133D01*
X80450Y71011D01*
X80405Y70925D01*
X80397Y70851D01*
X80312Y70723D01*
X80173Y70029D01*
Y65502D01*
X80312Y64807D01*
X80399Y64676D01*
X80409Y64598D01*
X80464Y64499D01*
X80510Y64364D01*
X80557Y64161D01*
X80666Y62524D01*
X80611Y61953D01*
X80563Y61650D01*
X80510Y61422D01*
X80464Y61288D01*
X80409Y61189D01*
X80399Y61111D01*
X80312Y60979D01*
X80173Y60285D01*
Y55757D01*
X80312Y55063D01*
X80399Y54932D01*
X80409Y54854D01*
X80464Y54755D01*
X80510Y54620D01*
X80557Y54417D01*
X80666Y52780D01*
X80611Y52209D01*
X80563Y51906D01*
X80510Y51678D01*
X80464Y51544D01*
X80409Y51445D01*
X80399Y51367D01*
X80312Y51235D01*
X80173Y50541D01*
Y46013D01*
X80312Y45319D01*
X80399Y45188D01*
X80409Y45110D01*
X80464Y45010D01*
X80510Y44876D01*
X80557Y44673D01*
X80672Y42956D01*
X80593Y42481D01*
X80470Y42026D01*
X80322Y41663D01*
X80156Y41390D01*
X79980Y41200D01*
X79794Y41075D01*
X79583Y41000D01*
X79273Y40967D01*
X79247Y40953D01*
X68201D01*
Y40361D01*
X68175Y40313D01*
X68103Y39628D01*
X67910Y39083D01*
X67589Y38601D01*
X67124Y38170D01*
X66499Y37788D01*
X65705Y37463D01*
X64739Y37203D01*
X63605Y37014D01*
X62304Y36899D01*
X60825Y36860D01*
X60818Y36857D01*
X56677D01*
X52507Y41027D01*
Y53505D01*
X52510Y53512D01*
X52543Y54993D01*
X52641Y56300D01*
X52804Y57441D01*
X53028Y58413D01*
X53308Y59214D01*
X53636Y59842D01*
X54002Y60302D01*
X54397Y60611D01*
X54834Y60791D01*
X55401Y60861D01*
X55445Y60886D01*
X55847D01*
Y61327D01*
X55876Y61398D01*
X55862Y61430D01*
X55872Y61464D01*
X55847Y61508D01*
Y76516D01*
X45658D01*
X45643Y76525D01*
X45566Y76538D01*
X45531Y76576D01*
X45467Y76687D01*
X45395Y76876D01*
X45327Y77141D01*
X45272Y77469D01*
X45203Y78349D01*
X45202Y78439D01*
Y78870D01*
X45010Y79833D01*
X44465Y80650D01*
X43766Y81348D01*
X42337Y82854D01*
X41895Y83376D01*
X41767Y83548D01*
X41706Y83645D01*
X41680Y83711D01*
X41613Y83779D01*
X41572Y83841D01*
X41535Y83916D01*
X41518Y83922D01*
X41353Y84168D01*
X40895Y84475D01*
X40706Y84512D01*
Y86614D01*
X45637D01*
X45915Y86198D01*
X45849Y86039D01*
X45730Y85138D01*
X45849Y84237D01*
X46197Y83397D01*
X46750Y82675D01*
X47471Y82122D01*
X48311Y81774D01*
X49213Y81655D01*
X50114Y81774D01*
X50954Y82122D01*
X51675Y82675D01*
X52229Y83397D01*
X52577Y84237D01*
X52695Y85138D01*
X52577Y86039D01*
X52510Y86198D01*
X52788Y86614D01*
X55760D01*
Y81685D01*
X62665D01*
Y86614D01*
X90551D01*
Y78492D01*
D02*
G37*
G36*
X31011Y81087D02*
X31001Y81182D01*
X30970Y81267D01*
X30920Y81342D01*
X30849Y81407D01*
X30758Y81462D01*
X30646Y81507D01*
X30515Y81542D01*
X30363Y81567D01*
X30191Y81582D01*
X29999Y81587D01*
Y82587D01*
X30191Y82592D01*
X30363Y82607D01*
X30515Y82632D01*
X30646Y82667D01*
X30758Y82712D01*
X30849Y82767D01*
X30920Y82832D01*
X30970Y82907D01*
X31001Y82992D01*
X31011Y83087D01*
Y81087D01*
D02*
G37*
G36*
X28153Y82992D02*
X28183Y82907D01*
X28234Y82832D01*
X28305Y82767D01*
X28396Y82712D01*
X28507Y82667D01*
X28639Y82632D01*
X28790Y82607D01*
X28962Y82592D01*
X29155Y82587D01*
Y81587D01*
X28962Y81582D01*
X28790Y81567D01*
X28639Y81542D01*
X28507Y81507D01*
X28396Y81462D01*
X28305Y81407D01*
X28234Y81342D01*
X28183Y81267D01*
X28153Y81182D01*
X28143Y81087D01*
Y83087D01*
X28153Y82992D01*
D02*
G37*
G36*
X35672Y83366D02*
X35864Y82403D01*
X36409Y81586D01*
X37214Y80782D01*
X37277Y80463D01*
X37584Y80005D01*
X37862Y79818D01*
X37884Y79775D01*
X37974Y79744D01*
X37976Y79742D01*
X38045Y79677D01*
X38064Y79669D01*
X40168Y77805D01*
Y74047D01*
X40216Y73804D01*
Y61508D01*
X40191Y61464D01*
X40201Y61430D01*
X40187Y61398D01*
X40216Y61327D01*
Y60886D01*
X40618D01*
X40662Y60861D01*
X41229Y60791D01*
X41666Y60611D01*
X42061Y60302D01*
X42427Y59842D01*
X42755Y59214D01*
X43035Y58413D01*
X43259Y57441D01*
X43422Y56300D01*
X43520Y54993D01*
X43553Y53512D01*
X43556Y53505D01*
Y39173D01*
X43709Y38015D01*
X44156Y36936D01*
X44867Y36009D01*
X51658Y29217D01*
X52585Y28506D01*
X53664Y28059D01*
X54823Y27907D01*
X60819D01*
X60825Y27904D01*
X62305Y27867D01*
X63609Y27758D01*
X64745Y27579D01*
X65713Y27332D01*
X66510Y27023D01*
X67136Y26661D01*
X67598Y26254D01*
X67915Y25804D01*
X68103Y25299D01*
X68175Y24657D01*
X68201Y24610D01*
Y24205D01*
X68642D01*
X68713Y24175D01*
X68742Y24188D01*
X68773Y24179D01*
X68820Y24205D01*
X84949D01*
Y35851D01*
X85047Y35917D01*
X85593Y36734D01*
X85785Y37697D01*
Y41816D01*
X85843Y43506D01*
X85924Y44345D01*
X85972Y44649D01*
X86025Y44877D01*
X86071Y45011D01*
X86126Y45110D01*
X86136Y45188D01*
X86223Y45319D01*
X86361Y46013D01*
Y50541D01*
X86223Y51235D01*
X86136Y51367D01*
X86126Y51445D01*
X86071Y51544D01*
X86025Y51678D01*
X85978Y51881D01*
X85869Y53518D01*
X85923Y54089D01*
X85972Y54393D01*
X86025Y54620D01*
X86071Y54755D01*
X86126Y54854D01*
X86136Y54932D01*
X86223Y55063D01*
X86361Y55757D01*
Y60285D01*
X86223Y60979D01*
X86136Y61111D01*
X86126Y61189D01*
X86071Y61288D01*
X86025Y61422D01*
X85978Y61625D01*
X85869Y63263D01*
X85923Y63833D01*
X85972Y64137D01*
X86025Y64364D01*
X86071Y64499D01*
X86126Y64598D01*
X86136Y64676D01*
X86223Y64807D01*
X86361Y65502D01*
Y70029D01*
X86223Y70723D01*
X86133Y70858D01*
X86123Y70939D01*
X86057Y71052D01*
X86004Y71199D01*
X85945Y71434D01*
X85893Y71730D01*
X85820Y72926D01*
X86157Y73418D01*
X89460D01*
X90551Y72326D01*
Y24002D01*
X89612D01*
X89564Y24023D01*
X89459Y24026D01*
X89376Y24033D01*
X89301Y24044D01*
X89235Y24058D01*
X89176Y24074D01*
X89125Y24094D01*
X89080Y24115D01*
X89041Y24138D01*
X89006Y24162D01*
X88955Y24205D01*
X88880Y24230D01*
X88451Y24517D01*
X87795Y24647D01*
X87139Y24517D01*
X86583Y24145D01*
X86212Y23589D01*
X86081Y22933D01*
X86212Y22277D01*
X86583Y21721D01*
X87139Y21350D01*
X87795Y21219D01*
X88451Y21350D01*
X89007Y21721D01*
X89025Y21747D01*
X89056Y21760D01*
X89101Y21805D01*
X89129Y21829D01*
X89162Y21850D01*
X89200Y21870D01*
X89244Y21889D01*
X89297Y21906D01*
X89358Y21920D01*
X89428Y21931D01*
X89507Y21938D01*
X89611Y21941D01*
X89616Y21943D01*
X89621Y21942D01*
X89665Y21963D01*
X90551D01*
Y19685D01*
X78846D01*
X77921Y19965D01*
X76279Y20127D01*
X74638Y19965D01*
X73714Y19685D01*
X66929D01*
Y16660D01*
X66388Y16551D01*
X65315Y16395D01*
X62902Y16214D01*
X61577Y16191D01*
X61571Y16188D01*
X54610D01*
X11365Y59433D01*
Y68343D01*
X11865Y68368D01*
X11983Y67169D01*
X12430Y65696D01*
X13156Y64338D01*
X14132Y63148D01*
X15322Y62172D01*
X16680Y61446D01*
X18153Y60999D01*
X19435Y60873D01*
Y68701D01*
X19685D01*
D01*
X19435D01*
Y76529D01*
X18153Y76403D01*
X16680Y75956D01*
X15322Y75230D01*
X14132Y74253D01*
X13156Y73064D01*
X12430Y71706D01*
X11983Y70233D01*
X11865Y69034D01*
X11365Y69058D01*
Y75115D01*
X16323Y80073D01*
X16910Y80837D01*
X17441Y80731D01*
X17494Y80463D01*
X17800Y80005D01*
X18259Y79698D01*
X18799Y79591D01*
X19435D01*
Y82087D01*
Y84582D01*
X18799D01*
X18259Y84475D01*
X18167Y84414D01*
X17686Y84693D01*
X17773Y85926D01*
X17872Y86614D01*
X26224D01*
X26225Y86614D01*
X26226Y86614D01*
X26230Y86612D01*
X26274Y86582D01*
X26311Y86549D01*
X26441Y86082D01*
X26422Y86033D01*
X26085Y85697D01*
X25864Y85366D01*
X25809Y85087D01*
X25765Y84988D01*
X25761Y84820D01*
X25752Y84691D01*
X25737Y84591D01*
X25735Y84582D01*
X25492D01*
X24951Y84475D01*
X24493Y84168D01*
X24187Y83710D01*
X24079Y83169D01*
Y81004D01*
X24187Y80463D01*
X24493Y80005D01*
X24951Y79698D01*
X25492Y79591D01*
X27264D01*
X27804Y79698D01*
X28263Y80005D01*
X28569Y80463D01*
X28674Y80990D01*
X28679Y80992D01*
X28752Y81012D01*
X28858Y81029D01*
X28993Y81041D01*
X29169Y81046D01*
X29217Y81067D01*
X29937D01*
X29985Y81046D01*
X30161Y81041D01*
X30296Y81029D01*
X30401Y81012D01*
X30475Y80992D01*
X30479Y80990D01*
X30584Y80463D01*
X30891Y80005D01*
X31349Y79698D01*
X31890Y79591D01*
X33661D01*
X34202Y79698D01*
X34661Y80005D01*
X34967Y80463D01*
X35074Y81004D01*
Y83169D01*
X34967Y83710D01*
X34661Y84168D01*
X34202Y84475D01*
X33661Y84582D01*
X31890D01*
X31349Y84475D01*
X30891Y84168D01*
X30584Y83710D01*
X30479Y83183D01*
X30475Y83181D01*
X30401Y83161D01*
X30295Y83144D01*
X30161Y83132D01*
X29985Y83128D01*
X29937Y83106D01*
X29217D01*
X29169Y83128D01*
X28993Y83132D01*
X28858Y83144D01*
X28752Y83161D01*
X28679Y83181D01*
X28674Y83183D01*
X28569Y83710D01*
X28263Y84168D01*
X28186Y84220D01*
X28122Y84370D01*
X28108Y84439D01*
X28109Y84525D01*
X28165Y84812D01*
X28216Y84840D01*
X28264Y84860D01*
X28308Y84875D01*
X28349Y84885D01*
X28388Y84890D01*
X28454Y84892D01*
X28490Y84909D01*
X29101Y85031D01*
X29657Y85402D01*
X30028Y85958D01*
X30159Y86614D01*
X35672D01*
Y83366D01*
D02*
G37*
G36*
X41222Y83400D02*
X41319Y83243D01*
X41471Y83039D01*
X41934Y82493D01*
X43503Y80840D01*
X44029Y80310D01*
X42638Y78870D01*
X44654D01*
X44662Y78324D01*
X44734Y77403D01*
X44797Y77029D01*
X44878Y76712D01*
X44977Y76453D01*
X45094Y76252D01*
X45228Y76108D01*
X45381Y76021D01*
X45551Y75992D01*
X40729Y76004D01*
X40720Y78039D01*
X38351Y80138D01*
X38242Y80181D01*
X41177Y83510D01*
X41222Y83400D01*
D02*
G37*
G36*
X85686Y79496D02*
X85761Y79162D01*
X85929Y78867D01*
X86187Y78611D01*
X86538Y78395D01*
X86980Y78218D01*
X87513Y78080D01*
X88139Y77982D01*
X88855Y77923D01*
X89664Y77903D01*
Y73966D01*
X85366Y74006D01*
X85320Y73683D01*
X85268Y73081D01*
X85355Y71666D01*
X85415Y71321D01*
X85486Y71040D01*
X85565Y70822D01*
X85654Y70668D01*
X85189D01*
X85187Y70278D01*
X81250Y70201D01*
X81247Y70668D01*
X80881D01*
X80951Y70798D01*
X81014Y70995D01*
X81069Y71260D01*
X81117Y71592D01*
X81168Y72194D01*
X81082Y73609D01*
X81021Y73954D01*
X80951Y74235D01*
X80871Y74453D01*
X80782Y74607D01*
X81248D01*
X81250Y74998D01*
X84946Y75069D01*
X85702Y79870D01*
X85686Y79496D01*
D02*
G37*
G36*
X44586Y74946D02*
X45564Y74100D01*
X46032Y73747D01*
X46487Y73440D01*
X46929Y73180D01*
X47357Y72966D01*
X47771Y72798D01*
X48172Y72677D01*
X48559Y72602D01*
X44130Y68173D01*
X44055Y68561D01*
X43934Y68961D01*
X43767Y69376D01*
X43553Y69804D01*
X43292Y70245D01*
X42985Y70700D01*
X42632Y71168D01*
X41786Y72146D01*
X41293Y72655D01*
X44077Y75439D01*
X44586Y74946D01*
D02*
G37*
G36*
X85238Y64862D02*
X85654D01*
X85575Y64721D01*
X85504Y64513D01*
X85441Y64240D01*
X85387Y63902D01*
X85326Y63270D01*
X85441Y61546D01*
X85504Y61273D01*
X85575Y61066D01*
X85654Y60924D01*
X85238D01*
X85236Y60496D01*
X81299D01*
X81296Y60924D01*
X80881D01*
X80960Y61066D01*
X81031Y61273D01*
X81094Y61546D01*
X81148Y61885D01*
X81209Y62516D01*
X81094Y64240D01*
X81031Y64513D01*
X80960Y64721D01*
X80881Y64862D01*
X81296D01*
X81299Y65291D01*
X85236D01*
X85238Y64862D01*
D02*
G37*
G36*
X97156Y57685D02*
X97242Y56425D01*
X97317Y55913D01*
X97413Y55480D01*
X97531Y55126D01*
X97670Y54850D01*
X97831Y54653D01*
X98013Y54535D01*
X98216Y54496D01*
X92335D01*
X92501Y54535D01*
X92649Y54653D01*
X92781Y54850D01*
X92894Y55126D01*
X92990Y55480D01*
X93069Y55913D01*
X93130Y56425D01*
X93200Y57685D01*
X93209Y58433D01*
X97146D01*
X97156Y57685D01*
D02*
G37*
G36*
X54695Y61319D02*
X54123Y61083D01*
X53618Y60689D01*
X53180Y60138D01*
X52810Y59429D01*
X52507Y58563D01*
X52271Y57540D01*
X52103Y56358D01*
X52002Y55020D01*
X51968Y53524D01*
X44094D01*
X44061Y55020D01*
X43960Y56358D01*
X43792Y57540D01*
X43556Y58563D01*
X43253Y59429D01*
X42883Y60138D01*
X42445Y60689D01*
X41940Y61083D01*
X41368Y61319D01*
X40729Y61398D01*
X55335D01*
X54695Y61319D01*
D02*
G37*
G36*
X85238Y55118D02*
X85654D01*
X85575Y54976D01*
X85504Y54769D01*
X85441Y54496D01*
X85387Y54158D01*
X85326Y53526D01*
X85441Y51802D01*
X85504Y51529D01*
X85575Y51322D01*
X85654Y51180D01*
X85238D01*
X85236Y50752D01*
X81299D01*
X81296Y51180D01*
X80881D01*
X80960Y51322D01*
X81031Y51529D01*
X81094Y51802D01*
X81148Y52140D01*
X81209Y52772D01*
X81094Y54496D01*
X81031Y54769D01*
X80960Y54976D01*
X80881Y55118D01*
X81296D01*
X81299Y55547D01*
X85236D01*
X85238Y55118D01*
D02*
G37*
G36*
X8641Y85049D02*
X3725Y80133D01*
X3014Y79206D01*
X2567Y78127D01*
X2414Y76968D01*
Y57579D01*
X2567Y56420D01*
X3014Y55341D01*
X3725Y54414D01*
X7352Y50788D01*
X7125Y50307D01*
X6536Y50230D01*
X5840Y49941D01*
X5242Y49482D01*
X4783Y48884D01*
X4495Y48188D01*
X4397Y47441D01*
Y42717D01*
X4495Y41969D01*
X4783Y41273D01*
X5242Y40675D01*
X5840Y40216D01*
X6536Y39928D01*
X7283Y39830D01*
X8031Y39928D01*
X8727Y40216D01*
X9325Y40675D01*
X9784Y41273D01*
X10072Y41969D01*
X10170Y42717D01*
Y47262D01*
X10650Y47489D01*
X49591Y8548D01*
X50518Y7837D01*
X51598Y7390D01*
X52756Y7237D01*
X61571D01*
X61577Y7235D01*
X62902Y7212D01*
X65315Y7030D01*
X66388Y6874D01*
X66929Y6765D01*
Y1020D01*
X7874D01*
X7865Y1018D01*
X6536Y1149D01*
X5250Y1539D01*
X4064Y2173D01*
X3025Y3025D01*
X2173Y4064D01*
X1539Y5250D01*
X1149Y6536D01*
X1018Y7865D01*
X1020Y7874D01*
Y11811D01*
X942Y12201D01*
X721Y12532D01*
X390Y12753D01*
X0Y12831D01*
X-13684D01*
X-13710Y12858D01*
Y12858D01*
X-13710Y12858D01*
X-14952Y12956D01*
X-17056Y13461D01*
X-19055Y14289D01*
X-20900Y15419D01*
X-22546Y16825D01*
X-23951Y18470D01*
X-25081Y20315D01*
X-25910Y22314D01*
X-26415Y24418D01*
X-26584Y26575D01*
X-26512Y27489D01*
X-26512D01*
X-26512Y27629D01*
X-26512D01*
X-26539Y27968D01*
X-26539Y27968D01*
X-26541Y27987D01*
X-26584Y28543D01*
X-26415Y30700D01*
X-25910Y32804D01*
X-25081Y34803D01*
X-23951Y36648D01*
X-22546Y38294D01*
X-20900Y39699D01*
X-19055Y40830D01*
X-17056Y41658D01*
X-14952Y42163D01*
X-13710Y42260D01*
X-13710Y42260D01*
Y42260D01*
X-13684Y42287D01*
X0D01*
X390Y42365D01*
X721Y42586D01*
X942Y42917D01*
X1020Y43307D01*
Y86614D01*
X8535D01*
X8641Y85049D01*
D02*
G37*
G36*
X152250Y49986D02*
X153177Y49275D01*
X153477Y49151D01*
X165019Y37608D01*
X165082Y37371D01*
X164972Y37003D01*
X164930Y36903D01*
X164854Y36827D01*
Y36720D01*
X164813Y36620D01*
Y20226D01*
X140984D01*
X140885Y20185D01*
X140777D01*
X140701Y20109D01*
X140602Y20068D01*
X140560Y19968D01*
X140484Y19892D01*
X140293Y19430D01*
Y19323D01*
X140252Y19223D01*
X134440D01*
X133595Y20068D01*
X133212Y20226D01*
X133212Y20226D01*
X113434D01*
X113395Y20210D01*
X113355Y20221D01*
X113355Y20220D01*
X113209Y20133D01*
X113051Y20068D01*
X113035Y20029D01*
X112999Y20008D01*
X112959Y19953D01*
D01*
X112959Y19953D01*
X112956Y19942D01*
X112950Y19919D01*
X112923Y19898D01*
X112828Y19731D01*
X112824Y19701D01*
X112802Y19679D01*
X112771Y19610D01*
X112714Y19478D01*
X112714Y19452D01*
X112696Y19432D01*
X112661Y19327D01*
X112627Y19223D01*
D01*
X112612Y19177D01*
X112536Y18869D01*
X112477Y18533D01*
X112450Y18299D01*
X112571Y16660D01*
X112646Y16243D01*
X112734Y15879D01*
X112836Y15568D01*
X112874Y15484D01*
X113592Y15475D01*
X115759Y15502D01*
Y15454D01*
X116687Y15453D01*
Y11516D01*
X115759Y11504D01*
Y11466D01*
X115708Y11476D01*
X115579Y11484D01*
X114853Y11493D01*
X112686Y11466D01*
Y11514D01*
X111758Y11516D01*
Y15107D01*
X108715D01*
Y11516D01*
X107787Y11504D01*
Y11466D01*
X107735Y11476D01*
X107606Y11484D01*
X106880Y11493D01*
X104713Y11466D01*
Y11514D01*
X103785Y11516D01*
X103785Y15453D01*
X104713Y15464D01*
Y15502D01*
X104765Y15493D01*
X104894Y15484D01*
X105620Y15475D01*
X107649Y15500D01*
X107778Y15733D01*
X107939Y16097D01*
X108078Y16494D01*
X108196Y16925D01*
X108293Y17390D01*
X108368Y17888D01*
X108418Y18523D01*
X108399Y18767D01*
X108348Y19107D01*
X108283Y19419D01*
X108256Y19514D01*
X108208Y19682D01*
X108194Y19700D01*
X108195Y19723D01*
X108140Y19873D01*
X108060Y19959D01*
X108015Y20068D01*
X107925Y20105D01*
X107858Y20177D01*
X107741Y20181D01*
X107632Y20226D01*
X91383D01*
Y21963D01*
X92142D01*
X92190Y21941D01*
X92371Y21937D01*
X92513Y21925D01*
X92624Y21907D01*
X92703Y21887D01*
X92736Y21874D01*
X92789Y21605D01*
X93095Y21147D01*
X93554Y20840D01*
X94095Y20733D01*
X96260D01*
X96801Y20840D01*
X97259Y21147D01*
X97565Y21605D01*
X97629Y21926D01*
X97656Y21936D01*
X97734Y21956D01*
X97844Y21974D01*
X97984Y21986D01*
X98164Y21991D01*
X98179Y21997D01*
X98194Y21991D01*
X98374Y21986D01*
X98514Y21974D01*
X98624Y21956D01*
X98702Y21936D01*
X98729Y21926D01*
X98793Y21605D01*
X99099Y21147D01*
X99558Y20840D01*
X100098Y20733D01*
X102264D01*
X102805Y20840D01*
X103263Y21147D01*
X103569Y21605D01*
X103677Y22146D01*
Y23917D01*
X103569Y24458D01*
X103263Y24916D01*
X102805Y25223D01*
X102264Y25330D01*
X100098D01*
X99558Y25223D01*
X99099Y24916D01*
X98793Y24458D01*
X98729Y24137D01*
X98702Y24127D01*
X98624Y24107D01*
X98514Y24089D01*
X98374Y24077D01*
X98194Y24072D01*
X98179Y24066D01*
X98164Y24072D01*
X97984Y24077D01*
X97844Y24089D01*
X97734Y24107D01*
X97656Y24127D01*
X97629Y24137D01*
X97565Y24458D01*
X97259Y24916D01*
X96801Y25223D01*
X96260Y25330D01*
X94095D01*
X93554Y25223D01*
X93095Y24916D01*
X92789Y24458D01*
X92715Y24086D01*
X92693Y24077D01*
X92617Y24057D01*
X92508Y24040D01*
X92369Y24028D01*
X92190Y24023D01*
X92141Y24002D01*
X91383D01*
Y35796D01*
X91883Y35828D01*
X91912Y35614D01*
X92260Y34775D01*
X92604Y34326D01*
X92660Y32816D01*
Y29724D01*
X92681Y29618D01*
Y28839D01*
X92789Y28298D01*
X93095Y27839D01*
X93554Y27533D01*
X94095Y27426D01*
X94174D01*
X94214Y27399D01*
X95177Y27207D01*
X96140Y27399D01*
X96180Y27426D01*
X96260D01*
X96801Y27533D01*
X97259Y27839D01*
X97565Y28298D01*
X97673Y28839D01*
Y29618D01*
X97694Y29724D01*
Y33033D01*
X97698Y33351D01*
X97730Y33937D01*
X97743Y34043D01*
X97747Y34064D01*
X98292Y34775D01*
X98640Y35614D01*
X98758Y36516D01*
X98640Y37417D01*
X98292Y38257D01*
X97738Y38978D01*
X97017Y39532D01*
X96177Y39880D01*
X95276Y39998D01*
X94374Y39880D01*
X93534Y39532D01*
X92813Y38978D01*
X92260Y38257D01*
X91912Y37417D01*
X91883Y37203D01*
X91383Y37236D01*
Y43315D01*
X91883Y43348D01*
X91912Y43134D01*
X92260Y42294D01*
X92813Y41573D01*
X93534Y41019D01*
X94374Y40672D01*
X95026Y40586D01*
Y44035D01*
Y47485D01*
X94374Y47399D01*
X93534Y47051D01*
X92813Y46498D01*
X92260Y45777D01*
X91912Y44937D01*
X91883Y44723D01*
X91383Y44756D01*
Y47956D01*
X91823Y48102D01*
X91884Y48102D01*
X98728D01*
Y54364D01*
X98748Y54393D01*
X98737Y54446D01*
X98757Y54496D01*
X98728Y54566D01*
Y55008D01*
X98348D01*
X98319Y55027D01*
X98219Y55047D01*
X98197Y55061D01*
X98127Y55147D01*
X98032Y55334D01*
X97936Y55625D01*
X97850Y56011D01*
X97781Y56483D01*
X97697Y57707D01*
X97694Y57937D01*
Y64567D01*
X97673Y64674D01*
Y65453D01*
X97565Y65993D01*
X97259Y66452D01*
X96801Y66758D01*
X96260Y66866D01*
X96180D01*
X96140Y66892D01*
X95177Y67084D01*
X94214Y66892D01*
X94174Y66866D01*
X94095D01*
X93554Y66758D01*
X93095Y66452D01*
X92789Y65993D01*
X92681Y65453D01*
Y64674D01*
X92660Y64567D01*
Y57823D01*
X92659Y57703D01*
X92591Y56472D01*
X92533Y55994D01*
X92462Y55600D01*
X92381Y55300D01*
X92300Y55106D01*
X92252Y55032D01*
X92210Y55023D01*
X92190Y55008D01*
X91884D01*
X91823Y55008D01*
X91383Y55154D01*
Y72243D01*
X90946Y72704D01*
X90420Y73233D01*
X91383Y74070D01*
Y81942D01*
X120294D01*
X152250Y49986D01*
D02*
G37*
G36*
X85575Y45232D02*
X85504Y45025D01*
X85441Y44752D01*
X85387Y44414D01*
X85303Y43541D01*
X85240Y41739D01*
X85236Y41008D01*
X84552Y41008D01*
X84437Y40441D01*
X79331Y40429D01*
X79705Y40469D01*
X80039Y40588D01*
X80335Y40786D01*
X80590Y41063D01*
X80807Y41418D01*
X80984Y41853D01*
X81122Y42366D01*
X81216Y42929D01*
X81094Y44752D01*
X81031Y45025D01*
X80960Y45232D01*
X80881Y45374D01*
X85654D01*
X85575Y45232D01*
D02*
G37*
G36*
X97271Y34339D02*
X97247Y34300D01*
X97226Y34227D01*
X97207Y34122D01*
X97191Y33983D01*
X97157Y33370D01*
X97146Y32459D01*
X93209Y32635D01*
X93139Y34477D01*
X97271Y34339D01*
D02*
G37*
G36*
X83085Y36305D02*
X82637Y35841D01*
X81866Y34937D01*
X81543Y34497D01*
X81261Y34066D01*
X81021Y33644D01*
X80822Y33229D01*
X80664Y32823D01*
X80549Y32425D01*
X80474Y32036D01*
X76032Y36478D01*
X76422Y36553D01*
X76819Y36668D01*
X77225Y36826D01*
X77640Y37025D01*
X78062Y37265D01*
X78493Y37547D01*
X78933Y37870D01*
X79837Y38641D01*
X80301Y39089D01*
X83085Y36305D01*
D02*
G37*
G36*
X68713Y24717D02*
X68634Y25425D01*
X68398Y26059D01*
X68004Y26618D01*
X67453Y27103D01*
X66744Y27513D01*
X65878Y27848D01*
X64855Y28109D01*
X63673Y28296D01*
X62335Y28408D01*
X60839Y28445D01*
Y36319D01*
X62335Y36358D01*
X63673Y36476D01*
X64855Y36673D01*
X65878Y36949D01*
X66744Y37303D01*
X67453Y37736D01*
X68004Y38248D01*
X68398Y38839D01*
X68634Y39508D01*
X68713Y40256D01*
Y24717D01*
D02*
G37*
G36*
X88673Y23735D02*
X88748Y23682D01*
X88828Y23635D01*
X88915Y23595D01*
X89006Y23560D01*
X89104Y23532D01*
X89207Y23510D01*
X89315Y23495D01*
X89430Y23485D01*
X89550Y23482D01*
X89596Y22482D01*
X89475Y22479D01*
X89361Y22469D01*
X89254Y22452D01*
X89152Y22428D01*
X89057Y22397D01*
X88967Y22360D01*
X88884Y22316D01*
X88807Y22265D01*
X88737Y22207D01*
X88673Y22142D01*
X88604Y23794D01*
X88673Y23735D01*
D02*
G37*
G36*
X99242Y22034D02*
X99232Y22128D01*
X99201Y22213D01*
X99149Y22288D01*
X99076Y22352D01*
X98983Y22407D01*
X98870Y22452D01*
X98735Y22487D01*
X98580Y22512D01*
X98404Y22526D01*
X98207Y22532D01*
Y23531D01*
X98404Y23537D01*
X98580Y23551D01*
X98735Y23576D01*
X98870Y23611D01*
X98983Y23656D01*
X99076Y23711D01*
X99149Y23775D01*
X99201Y23850D01*
X99232Y23935D01*
X99242Y24029D01*
Y22034D01*
D02*
G37*
G36*
X97127Y23935D02*
X97158Y23850D01*
X97209Y23775D01*
X97282Y23711D01*
X97375Y23656D01*
X97489Y23611D01*
X97623Y23576D01*
X97778Y23551D01*
X97954Y23537D01*
X98151Y23531D01*
Y22532D01*
X97954Y22526D01*
X97778Y22512D01*
X97623Y22487D01*
X97489Y22452D01*
X97375Y22407D01*
X97282Y22352D01*
X97209Y22288D01*
X97158Y22213D01*
X97127Y22128D01*
X97116Y22034D01*
Y24029D01*
X97127Y23935D01*
D02*
G37*
G36*
X93248Y21985D02*
X93237Y22079D01*
X93204Y22164D01*
X93152Y22238D01*
X93078Y22303D01*
X92984Y22358D01*
X92870Y22403D01*
X92734Y22437D01*
X92578Y22462D01*
X92401Y22477D01*
X92203Y22482D01*
Y23482D01*
X92399Y23487D01*
X92574Y23502D01*
X92728Y23527D01*
X92862Y23562D01*
X92975Y23607D01*
X93067Y23661D01*
X93138Y23726D01*
X93189Y23801D01*
X93219Y23885D01*
X93228Y23980D01*
X93248Y21985D01*
D02*
G37*
G36*
X99814Y15454D02*
X100841Y15453D01*
Y11516D01*
X99814Y11503D01*
Y11466D01*
X99763Y11476D01*
X99634Y11484D01*
X98957Y11492D01*
X96839Y11466D01*
Y11514D01*
X95813Y11516D01*
Y15453D01*
X96839Y15465D01*
Y15502D01*
X96891Y15493D01*
X97020Y15484D01*
X97697Y15476D01*
X99814Y15502D01*
Y15454D01*
D02*
G37*
G36*
X148848Y10531D02*
X145925Y7608D01*
X145913Y7647D01*
X145876Y7708D01*
X145814Y7791D01*
X145614Y8024D01*
X144914Y8757D01*
X144677Y8996D01*
X147461Y11780D01*
X148848Y10531D01*
D02*
G37*
G36*
X156769Y5512D02*
X156733Y5531D01*
X156664Y5547D01*
X156561Y5562D01*
X156255Y5586D01*
X155242Y5609D01*
X154905Y5610D01*
Y9547D01*
X156769Y9646D01*
Y5512D01*
D02*
G37*
G36*
X151023Y9627D02*
X151092Y9610D01*
X151195Y9595D01*
X151501Y9572D01*
X152514Y9548D01*
X152850Y9547D01*
Y5610D01*
X150987Y5512D01*
Y9646D01*
X151023Y9627D01*
D02*
G37*
G36*
X186663Y41664D02*
X187768Y40716D01*
X188749Y39640D01*
X189590Y38451D01*
X190279Y37168D01*
X190805Y35810D01*
X191160Y34398D01*
X191339Y32952D01*
X191339Y32224D01*
X191339Y32224D01*
Y16476D01*
Y15547D01*
X191048Y13711D01*
X190473Y11942D01*
X189629Y10286D01*
X188537Y8782D01*
X187222Y7467D01*
X185718Y6375D01*
X184061Y5531D01*
X182293Y4956D01*
X180457Y4665D01*
X178598D01*
X176762Y4956D01*
X174994Y5531D01*
X173337Y6375D01*
X171833Y7467D01*
X170519Y8782D01*
X169426Y10286D01*
X168582Y11942D01*
X168007Y13711D01*
X167717Y15547D01*
Y16476D01*
Y32224D01*
Y32952D01*
X167895Y34398D01*
X168250Y35810D01*
X168776Y37168D01*
X169465Y38451D01*
X170306Y39640D01*
X171287Y40716D01*
X172392Y41664D01*
X172999Y42067D01*
X186056D01*
X186663Y41664D01*
D02*
G37*
%LPC*%
G36*
X19640Y151402D02*
Y143262D01*
X27780D01*
X27643Y144653D01*
X27164Y146232D01*
X26386Y147687D01*
X25340Y148962D01*
X24065Y150008D01*
X22610Y150786D01*
X21031Y151265D01*
X19640Y151402D01*
D02*
G37*
G36*
X19140D02*
X17748Y151265D01*
X16170Y150786D01*
X14715Y150008D01*
X13440Y148962D01*
X12393Y147687D01*
X11616Y146232D01*
X11137Y144653D01*
X11000Y143262D01*
X19140D01*
Y151402D01*
D02*
G37*
G36*
X27780Y142762D02*
X19640D01*
Y135983D01*
X23021Y136025D01*
X22724Y135835D01*
X22458Y135588D01*
X22223Y135285D01*
X22111Y135086D01*
X22610Y135238D01*
X24065Y136015D01*
X25340Y137062D01*
X26386Y138337D01*
X27164Y139792D01*
X27643Y141370D01*
X27780Y142762D01*
D02*
G37*
G36*
X19140D02*
X11000D01*
X11137Y141370D01*
X11616Y139792D01*
X12393Y138337D01*
X13440Y137062D01*
X14715Y136015D01*
X16170Y135238D01*
X16855Y135030D01*
X16743Y135221D01*
X16505Y135515D01*
X16235Y135754D01*
X15934Y135937D01*
X19140Y135977D01*
Y142762D01*
D02*
G37*
G36*
X31398Y127834D02*
X30565D01*
Y124561D01*
X33011D01*
Y126221D01*
X32888Y126838D01*
X32539Y127362D01*
X32015Y127711D01*
X31398Y127834D01*
D02*
G37*
G36*
X-13780Y138336D02*
X-15421Y138174D01*
X-17000Y137695D01*
X-18454Y136918D01*
X-19729Y135871D01*
X-20776Y134596D01*
X-21553Y133141D01*
X-22032Y131563D01*
X-22194Y129921D01*
X-22032Y128280D01*
X-21553Y126701D01*
X-20776Y125246D01*
X-19729Y123971D01*
X-18454Y122925D01*
X-17000Y122147D01*
X-15421Y121668D01*
X-13780Y121507D01*
X-12138Y121668D01*
X-10559Y122147D01*
X-9105Y122925D01*
X-7830Y123971D01*
X-6783Y125246D01*
X-6005Y126701D01*
X-5527Y128280D01*
X-5365Y129921D01*
X-5527Y131563D01*
X-6005Y133141D01*
X-6783Y134596D01*
X-7830Y135871D01*
X-9105Y136918D01*
X-10559Y137695D01*
X-12138Y138174D01*
X-13780Y138336D01*
D02*
G37*
G36*
X33011Y124061D02*
X30565D01*
Y120788D01*
X31398D01*
X32015Y120911D01*
X32539Y121260D01*
X32888Y121784D01*
X33011Y122402D01*
Y124061D01*
D02*
G37*
G36*
X30065D02*
X27619D01*
Y122402D01*
X27741Y121784D01*
X28091Y121260D01*
X28615Y120911D01*
X29232Y120788D01*
X30065D01*
Y124061D01*
D02*
G37*
G36*
X31398Y119862D02*
X30565D01*
Y116589D01*
X33011D01*
Y118248D01*
X32888Y118866D01*
X32539Y119389D01*
X32015Y119739D01*
X31398Y119862D01*
D02*
G37*
G36*
X30065D02*
X29232D01*
X28615Y119739D01*
X28091Y119389D01*
X27741Y118866D01*
X27619Y118248D01*
Y116589D01*
X30065D01*
Y119862D01*
D02*
G37*
G36*
X33011Y116089D02*
X30565D01*
Y112815D01*
X31398D01*
X32015Y112938D01*
X32539Y113288D01*
X32888Y113812D01*
X33011Y114429D01*
Y116089D01*
D02*
G37*
G36*
X30065D02*
X27619D01*
Y114429D01*
X27741Y113812D01*
X28091Y113288D01*
X28615Y112938D01*
X29232Y112815D01*
X30065D01*
Y116089D01*
D02*
G37*
G36*
X31398Y111889D02*
X30565D01*
Y108616D01*
X33011D01*
Y110276D01*
X32888Y110893D01*
X32539Y111417D01*
X32015Y111766D01*
X31398Y111889D01*
D02*
G37*
G36*
X30065D02*
X29232D01*
X28615Y111766D01*
X28091Y111417D01*
X27741Y110893D01*
X27619Y110276D01*
Y108616D01*
X30065D01*
Y111889D01*
D02*
G37*
G36*
X33011Y108116D02*
X30565D01*
Y104843D01*
X31398D01*
X32015Y104966D01*
X32539Y105316D01*
X32888Y105839D01*
X33011Y106457D01*
Y108116D01*
D02*
G37*
G36*
X30065D02*
X27619D01*
Y106457D01*
X27741Y105839D01*
X28091Y105316D01*
X28615Y104966D01*
X29232Y104843D01*
X30065D01*
Y108116D01*
D02*
G37*
G36*
X31398Y103917D02*
X30565D01*
Y100644D01*
X33011D01*
Y102303D01*
X32888Y102921D01*
X32539Y103444D01*
X32015Y103794D01*
X31398Y103917D01*
D02*
G37*
G36*
X30065D02*
X29232D01*
X28615Y103794D01*
X28091Y103444D01*
X27741Y102921D01*
X27619Y102303D01*
Y100644D01*
X30065D01*
Y103917D01*
D02*
G37*
G36*
X33011Y100144D02*
X30565D01*
Y96871D01*
X31398D01*
X32015Y96993D01*
X32539Y97343D01*
X32888Y97867D01*
X33011Y98484D01*
Y100144D01*
D02*
G37*
G36*
X30065D02*
X27619D01*
Y98484D01*
X27741Y97867D01*
X28091Y97343D01*
X28615Y96993D01*
X29232Y96871D01*
X30065D01*
Y100144D01*
D02*
G37*
G36*
X14915Y104551D02*
Y96411D01*
X23055D01*
X22918Y97803D01*
X22439Y99382D01*
X21662Y100836D01*
X20615Y102111D01*
X19340Y103158D01*
X17886Y103935D01*
X16307Y104414D01*
X14915Y104551D01*
D02*
G37*
G36*
X14415D02*
X13024Y104414D01*
X11445Y103935D01*
X9990Y103158D01*
X8715Y102111D01*
X7669Y100836D01*
X6891Y99382D01*
X6413Y97803D01*
X6275Y96411D01*
X14415D01*
Y104551D01*
D02*
G37*
G36*
Y95911D02*
X6275D01*
X6413Y94520D01*
X6891Y92941D01*
X7669Y91487D01*
X8715Y90211D01*
X8841Y90108D01*
X8836Y90190D01*
X8717Y90697D01*
X8584Y91083D01*
X8434Y91348D01*
X14415Y90182D01*
Y95911D01*
D02*
G37*
G36*
X23055D02*
X14915D01*
Y90085D01*
X18633Y89360D01*
X18341Y89137D01*
X18079Y88828D01*
X17849Y88432D01*
X17822Y88368D01*
X17886Y88387D01*
X19340Y89165D01*
X20615Y90211D01*
X21662Y91487D01*
X22439Y92941D01*
X22918Y94520D01*
X23055Y95911D01*
D02*
G37*
G36*
X171358Y126456D02*
X170526D01*
Y123183D01*
X172972D01*
Y124843D01*
X172849Y125460D01*
X172499Y125984D01*
X171976Y126333D01*
X171358Y126456D01*
D02*
G37*
G36*
X170026D02*
X169193D01*
X168575Y126333D01*
X168052Y125984D01*
X167702Y125460D01*
X167579Y124843D01*
Y123183D01*
X170026D01*
Y126456D01*
D02*
G37*
G36*
X210630Y138336D02*
X208988Y138174D01*
X207410Y137695D01*
X205955Y136918D01*
X204680Y135871D01*
X203633Y134596D01*
X202856Y133141D01*
X202377Y131563D01*
X202215Y129921D01*
X202377Y128280D01*
X202856Y126701D01*
X203633Y125246D01*
X204680Y123971D01*
X205955Y122925D01*
X207410Y122147D01*
X208988Y121668D01*
X210630Y121507D01*
X212271Y121668D01*
X213850Y122147D01*
X215305Y122925D01*
X216580Y123971D01*
X217626Y125246D01*
X218404Y126701D01*
X218883Y128280D01*
X219044Y129921D01*
X218883Y131563D01*
X218404Y133141D01*
X217626Y134596D01*
X216580Y135871D01*
X215305Y136918D01*
X213850Y137695D01*
X212271Y138174D01*
X210630Y138336D01*
D02*
G37*
G36*
X172972Y122683D02*
X170526D01*
Y119410D01*
X171358D01*
X171976Y119533D01*
X172499Y119883D01*
X172849Y120406D01*
X172972Y121024D01*
Y122683D01*
D02*
G37*
G36*
X170026D02*
X167579D01*
Y121024D01*
X167702Y120406D01*
X168052Y119883D01*
X168575Y119533D01*
X169193Y119410D01*
X170026D01*
Y122683D01*
D02*
G37*
G36*
X171358Y118484D02*
X170526D01*
Y115211D01*
X172972D01*
Y116870D01*
X172849Y117488D01*
X172499Y118011D01*
X171976Y118361D01*
X171358Y118484D01*
D02*
G37*
G36*
X170026D02*
X169193D01*
X168575Y118361D01*
X168052Y118011D01*
X167702Y117488D01*
X167579Y116870D01*
Y115211D01*
X170026D01*
Y118484D01*
D02*
G37*
G36*
X172972Y114711D02*
X170526D01*
Y111437D01*
X171358D01*
X171976Y111560D01*
X172499Y111910D01*
X172849Y112434D01*
X172972Y113051D01*
Y114711D01*
D02*
G37*
G36*
X170026D02*
X167579D01*
Y113051D01*
X167702Y112434D01*
X168052Y111910D01*
X168575Y111560D01*
X169193Y111437D01*
X170026D01*
Y114711D01*
D02*
G37*
G36*
X171358Y110413D02*
X170526D01*
Y107140D01*
X172972D01*
Y108799D01*
X172849Y109417D01*
X172499Y109940D01*
X171976Y110290D01*
X171358Y110413D01*
D02*
G37*
G36*
X170026D02*
X169193D01*
X168575Y110290D01*
X168052Y109940D01*
X167702Y109417D01*
X167579Y108799D01*
Y107140D01*
X170026D01*
Y110413D01*
D02*
G37*
G36*
X172972Y106640D02*
X170526D01*
Y103367D01*
X171358D01*
X171976Y103489D01*
X172499Y103839D01*
X172849Y104363D01*
X172972Y104980D01*
Y106640D01*
D02*
G37*
G36*
X170026D02*
X167579D01*
Y104980D01*
X167702Y104363D01*
X168052Y103839D01*
X168575Y103489D01*
X169193Y103367D01*
X170026D01*
Y106640D01*
D02*
G37*
G36*
X171358Y102441D02*
X170526D01*
Y99167D01*
X172972D01*
Y100827D01*
X172849Y101444D01*
X172499Y101968D01*
X171976Y102318D01*
X171358Y102441D01*
D02*
G37*
G36*
X170026D02*
X169193D01*
X168575Y102318D01*
X168052Y101968D01*
X167702Y101444D01*
X167579Y100827D01*
Y99167D01*
X170026D01*
Y102441D01*
D02*
G37*
G36*
X186077Y106028D02*
Y97888D01*
X194217D01*
X194080Y99279D01*
X193601Y100858D01*
X192823Y102313D01*
X191777Y103588D01*
X190502Y104634D01*
X189047Y105412D01*
X187468Y105891D01*
X186077Y106028D01*
D02*
G37*
G36*
X185577D02*
X184185Y105891D01*
X182607Y105412D01*
X181152Y104634D01*
X179877Y103588D01*
X178830Y102313D01*
X178053Y100858D01*
X177574Y99279D01*
X177437Y97888D01*
X185577D01*
Y106028D01*
D02*
G37*
G36*
X172972Y98667D02*
X170526D01*
Y95394D01*
X171358D01*
X171976Y95517D01*
X172499Y95867D01*
X172849Y96390D01*
X172972Y97008D01*
Y98667D01*
D02*
G37*
G36*
X170026D02*
X167579D01*
Y97008D01*
X167702Y96390D01*
X168052Y95867D01*
X168575Y95517D01*
X169193Y95394D01*
X170026D01*
Y98667D01*
D02*
G37*
G36*
X194217Y97388D02*
X186077D01*
Y89248D01*
X187468Y89385D01*
X189047Y89864D01*
X190502Y90641D01*
X191777Y91688D01*
X192823Y92963D01*
X193601Y94418D01*
X194080Y95996D01*
X194217Y97388D01*
D02*
G37*
G36*
X185577D02*
X177437D01*
X177574Y95996D01*
X178053Y94418D01*
X178830Y92963D01*
X179877Y91688D01*
X181152Y90641D01*
X182607Y89864D01*
X184185Y89385D01*
X185577Y89248D01*
Y97388D01*
D02*
G37*
G36*
X210630Y35974D02*
X208988Y35812D01*
X207410Y35333D01*
X205955Y34556D01*
X204680Y33509D01*
X203633Y32234D01*
X202856Y30779D01*
X202377Y29201D01*
X202215Y27559D01*
X202377Y25918D01*
X202856Y24339D01*
X203633Y22884D01*
X204680Y21609D01*
X205955Y20563D01*
X207410Y19785D01*
X208988Y19306D01*
X210630Y19144D01*
X212271Y19306D01*
X213850Y19785D01*
X215305Y20563D01*
X216580Y21609D01*
X217626Y22884D01*
X218404Y24339D01*
X218883Y25918D01*
X219044Y27559D01*
X218883Y29201D01*
X218404Y30779D01*
X217626Y32234D01*
X216580Y33509D01*
X215305Y34556D01*
X213850Y35333D01*
X212271Y35812D01*
X210630Y35974D01*
D02*
G37*
G36*
X138878Y11061D02*
X137977Y10943D01*
X137137Y10595D01*
X136594Y10178D01*
X135063Y10097D01*
X135028Y10098D01*
X133800Y10174D01*
X133325Y10237D01*
X132935Y10316D01*
X132641Y10405D01*
X132450Y10492D01*
X132367Y10554D01*
X132364Y10558D01*
X132348Y10632D01*
X132331Y10657D01*
Y11032D01*
X131889D01*
X131819Y11061D01*
X131764Y11038D01*
X131706Y11049D01*
X131681Y11032D01*
X125425D01*
Y4126D01*
X131681D01*
X131706Y4109D01*
X131764Y4119D01*
X131819Y4097D01*
X131889Y4126D01*
X132331D01*
Y4500D01*
X132348Y4525D01*
X132364Y4600D01*
X132367Y4604D01*
X132450Y4665D01*
X132641Y4753D01*
X132935Y4842D01*
X133312Y4918D01*
X135034Y5060D01*
X135208Y5062D01*
X135501D01*
X136228Y5045D01*
X136502Y5024D01*
X136544Y5018D01*
X137137Y4563D01*
X137977Y4215D01*
X138878Y4096D01*
X139779Y4215D01*
X140619Y4563D01*
X141340Y5116D01*
X141894Y5838D01*
X142242Y6677D01*
X142360Y7579D01*
X142242Y8480D01*
X141894Y9320D01*
X141340Y10041D01*
X140619Y10595D01*
X139779Y10943D01*
X138878Y11061D01*
D02*
G37*
G36*
X104173Y8307D02*
X102514D01*
Y5860D01*
X105787D01*
Y6693D01*
X105664Y7310D01*
X105314Y7834D01*
X104791Y8184D01*
X104173Y8307D01*
D02*
G37*
G36*
X102014D02*
X100354D01*
X99737Y8184D01*
X99213Y7834D01*
X98864Y7310D01*
X98741Y6693D01*
Y5860D01*
X102014D01*
Y8307D01*
D02*
G37*
G36*
X96299D02*
X94640D01*
Y5860D01*
X97913D01*
Y6693D01*
X97790Y7310D01*
X97440Y7834D01*
X96917Y8184D01*
X96299Y8307D01*
D02*
G37*
G36*
X94140D02*
X92480D01*
X91863Y8184D01*
X91339Y7834D01*
X90990Y7310D01*
X90867Y6693D01*
Y5860D01*
X94140D01*
Y8307D01*
D02*
G37*
G36*
X120118Y8307D02*
X118459D01*
Y5860D01*
X121732D01*
Y6693D01*
X121609Y7310D01*
X121259Y7834D01*
X120736Y8184D01*
X120118Y8307D01*
D02*
G37*
G36*
X117959D02*
X116299D01*
X115682Y8184D01*
X115158Y7834D01*
X114808Y7310D01*
X114685Y6693D01*
Y5860D01*
X117959D01*
Y8307D01*
D02*
G37*
G36*
X112146D02*
X110486D01*
Y5860D01*
X113759D01*
Y6693D01*
X113637Y7310D01*
X113287Y7834D01*
X112763Y8184D01*
X112146Y8307D01*
D02*
G37*
G36*
X109986D02*
X108327D01*
X107709Y8184D01*
X107186Y7834D01*
X106836Y7310D01*
X106713Y6693D01*
Y5860D01*
X109986D01*
Y8307D01*
D02*
G37*
G36*
X76029Y11463D02*
X71476D01*
Y5473D01*
X70839Y5911D01*
X70124Y6302D01*
X69755Y6462D01*
X70330Y5763D01*
X71605Y4716D01*
X73059Y3939D01*
X74638Y3460D01*
X76029Y3323D01*
Y11463D01*
D02*
G37*
G36*
X84669D02*
X76530D01*
Y3323D01*
X77921Y3460D01*
X79500Y3939D01*
X80954Y4716D01*
X82230Y5763D01*
X83276Y7038D01*
X84053Y8493D01*
X84532Y10071D01*
X84669Y11463D01*
D02*
G37*
G36*
X105787Y5360D02*
X102514D01*
Y2914D01*
X104173D01*
X104791Y3037D01*
X105314Y3387D01*
X105664Y3910D01*
X105787Y4528D01*
Y5360D01*
D02*
G37*
G36*
X102014D02*
X98741D01*
Y4528D01*
X98864Y3910D01*
X99213Y3387D01*
X99737Y3037D01*
X100354Y2914D01*
X102014D01*
Y5360D01*
D02*
G37*
G36*
X97913D02*
X94640D01*
Y2914D01*
X96299D01*
X96917Y3037D01*
X97440Y3387D01*
X97790Y3910D01*
X97913Y4528D01*
Y5360D01*
D02*
G37*
G36*
X94140D02*
X90867D01*
Y4528D01*
X90990Y3910D01*
X91339Y3387D01*
X91863Y3037D01*
X92480Y2914D01*
X94140D01*
Y5360D01*
D02*
G37*
G36*
X121732Y5360D02*
X118459D01*
Y2914D01*
X120118D01*
X120736Y3037D01*
X121259Y3387D01*
X121609Y3910D01*
X121732Y4528D01*
Y5360D01*
D02*
G37*
G36*
X117959D02*
X114685D01*
Y4528D01*
X114808Y3910D01*
X115158Y3387D01*
X115682Y3037D01*
X116299Y2914D01*
X117959D01*
Y5360D01*
D02*
G37*
G36*
X113759D02*
X110486D01*
Y2914D01*
X112146D01*
X112763Y3037D01*
X113287Y3387D01*
X113637Y3910D01*
X113759Y4528D01*
Y5360D01*
D02*
G37*
G36*
X109986D02*
X106713D01*
Y4528D01*
X106836Y3910D01*
X107186Y3387D01*
X107709Y3037D01*
X108327Y2914D01*
X109986D01*
Y5360D01*
D02*
G37*
%LPD*%
G36*
X131858Y10335D02*
X131976Y10170D01*
X132173Y10024D01*
X132449Y9897D01*
X132803Y9790D01*
X133236Y9703D01*
X133748Y9635D01*
X135008Y9557D01*
X135073Y9556D01*
X136769Y9646D01*
Y5512D01*
X136733Y5531D01*
X136664Y5547D01*
X136561Y5562D01*
X136255Y5586D01*
X135399Y5606D01*
X135008Y5601D01*
X133236Y5455D01*
X132803Y5367D01*
X132449Y5260D01*
X132173Y5134D01*
X131976Y4988D01*
X131858Y4823D01*
X131819Y4638D01*
Y10520D01*
X131858Y10335D01*
D02*
G37*
%LPC*%
G36*
X162152Y123263D02*
X162092Y123183D01*
X162152D01*
Y123263D01*
D02*
G37*
G36*
Y122683D02*
X161720D01*
X160773Y121411D01*
X162152D01*
Y122683D01*
D02*
G37*
G36*
X143799Y120803D02*
X142966D01*
Y118754D01*
X144140D01*
Y120213D01*
X144261Y120150D01*
X144424Y120094D01*
X144631Y120044D01*
X144880Y120001D01*
X145071Y119981D01*
X144798Y120389D01*
X144340Y120695D01*
X143799Y120803D01*
D02*
G37*
G36*
X159733Y122683D02*
X159705D01*
Y121024D01*
X159828Y120406D01*
X160178Y119883D01*
X160393Y119739D01*
X160384Y120484D01*
X160432D01*
X160432Y120955D01*
X160276Y120744D01*
X160183Y121285D01*
X160049Y121820D01*
X159872Y122351D01*
X159733Y122683D01*
D02*
G37*
G36*
X150492Y120803D02*
X149659D01*
Y118754D01*
X151905D01*
Y119390D01*
X151797Y119931D01*
X151491Y120389D01*
X151033Y120695D01*
X150492Y120803D01*
D02*
G37*
G36*
X149159D02*
X148327D01*
X147786Y120695D01*
X147328Y120389D01*
X147061Y119990D01*
X147246Y120001D01*
X147495Y120044D01*
X147702Y120094D01*
X147865Y120150D01*
X147986Y120213D01*
Y118754D01*
X149159D01*
Y120803D01*
D02*
G37*
G36*
X142466D02*
X141634D01*
X141093Y120695D01*
X140635Y120389D01*
X140328Y119931D01*
X140221Y119390D01*
Y118754D01*
X142466D01*
Y120803D01*
D02*
G37*
G36*
X144140Y118254D02*
X142966D01*
Y116205D01*
X143799D01*
X144340Y116313D01*
X144798Y116619D01*
X145065Y117018D01*
X144880Y117007D01*
X144631Y116964D01*
X144424Y116914D01*
X144261Y116858D01*
X144140Y116795D01*
Y118254D01*
D02*
G37*
G36*
X142466D02*
X140221D01*
Y117618D01*
X140328Y117077D01*
X140635Y116619D01*
X141093Y116313D01*
X141634Y116205D01*
X142466D01*
Y118254D01*
D02*
G37*
G36*
X160408Y118165D02*
X160178Y118011D01*
X159828Y117488D01*
X159705Y116870D01*
Y115211D01*
X162152D01*
Y116482D01*
X160433D01*
X160422Y117410D01*
X160384D01*
X160393Y117462D01*
X160401Y117591D01*
X160408Y118165D01*
D02*
G37*
G36*
X162152Y114711D02*
X159705D01*
Y113051D01*
X159828Y112434D01*
X160178Y111910D01*
X160393Y111767D01*
X160384Y112511D01*
X160432D01*
X160433Y113341D01*
X162152D01*
Y114711D01*
D02*
G37*
G36*
X57579Y127834D02*
X56746D01*
Y124561D01*
X59192D01*
Y126221D01*
X59070Y126838D01*
X58720Y127362D01*
X58196Y127711D01*
X57579Y127834D01*
D02*
G37*
G36*
X56246D02*
X55413D01*
X54796Y127711D01*
X54272Y127362D01*
X53922Y126838D01*
X53800Y126221D01*
Y124561D01*
X56246D01*
Y127834D01*
D02*
G37*
G36*
Y124061D02*
X53800D01*
Y122402D01*
X53922Y121784D01*
X54272Y121260D01*
X54768Y120929D01*
X54762Y121014D01*
X54704Y121298D01*
X54638Y121534D01*
X54562Y121722D01*
X54478Y121862D01*
X54909D01*
X54921Y122353D01*
X56246D01*
Y124061D01*
D02*
G37*
G36*
X59192D02*
X56746D01*
Y122353D01*
X58071D01*
X58075Y121862D01*
X58514D01*
X58430Y121722D01*
X58355Y121534D01*
X58288Y121298D01*
X58230Y121014D01*
X58217Y120925D01*
X58720Y121260D01*
X59070Y121784D01*
X59192Y122402D01*
Y124061D01*
D02*
G37*
G36*
X72859Y122859D02*
X72026D01*
Y120810D01*
X74272D01*
Y121446D01*
X74165Y121986D01*
X73858Y122445D01*
X73400Y122751D01*
X72859Y122859D01*
D02*
G37*
G36*
X71526D02*
X70694D01*
X70153Y122751D01*
X69695Y122445D01*
X69388Y121986D01*
X69281Y121446D01*
Y120810D01*
X71526D01*
Y122859D01*
D02*
G37*
G36*
X77900Y122771D02*
X77067D01*
X76526Y122664D01*
X76068Y122357D01*
X75761Y121899D01*
X75654Y121358D01*
Y120722D01*
X77900D01*
Y122771D01*
D02*
G37*
G36*
X58224Y119720D02*
X58230Y119635D01*
X58288Y119351D01*
X58355Y119115D01*
X58400Y119001D01*
X58663Y118868D01*
X59000Y118736D01*
X59101Y118706D01*
X59070Y118866D01*
X58720Y119389D01*
X58224Y119720D01*
D02*
G37*
G36*
X74272Y120310D02*
X72026D01*
Y118261D01*
X72859D01*
X73400Y118369D01*
X73858Y118675D01*
X74165Y119133D01*
X74272Y119674D01*
Y120310D01*
D02*
G37*
G36*
X71526D02*
X69281D01*
Y119674D01*
X69388Y119133D01*
X69695Y118675D01*
X70153Y118369D01*
X70694Y118261D01*
X71526D01*
Y120310D01*
D02*
G37*
G36*
X58119Y118788D02*
X58083D01*
X58071Y118297D01*
X56746D01*
Y116589D01*
X58119D01*
Y118788D01*
D02*
G37*
G36*
X54775Y119725D02*
X54272Y119389D01*
X53922Y118866D01*
X53800Y118248D01*
Y116589D01*
X56246D01*
Y118297D01*
X54921D01*
X54918Y118788D01*
X54478D01*
X54562Y118928D01*
X54638Y119115D01*
X54704Y119351D01*
X54762Y119635D01*
X54775Y119725D01*
D02*
G37*
G36*
X58119Y116089D02*
X56746D01*
Y114380D01*
X58071D01*
X58075Y113889D01*
X58119D01*
Y116089D01*
D02*
G37*
G36*
X56246D02*
X53800D01*
Y114429D01*
X53922Y113812D01*
X54272Y113288D01*
X54768Y112957D01*
X54762Y113042D01*
X54704Y113326D01*
X54638Y113562D01*
X54562Y113750D01*
X54478Y113889D01*
X54909D01*
X54921Y114380D01*
X56246D01*
Y116089D01*
D02*
G37*
G36*
X59101Y113971D02*
X59000Y113941D01*
X58663Y113809D01*
X58400Y113676D01*
X58354Y113562D01*
X58288Y113326D01*
X58230Y113042D01*
X58217Y112952D01*
X58720Y113288D01*
X59070Y113812D01*
X59101Y113971D01*
D02*
G37*
G36*
X58224Y111748D02*
X58230Y111663D01*
X58288Y111379D01*
X58354Y111143D01*
X58430Y110955D01*
X58514Y110816D01*
X58083D01*
X58071Y110325D01*
X56746D01*
Y108616D01*
X59192D01*
Y110276D01*
X59070Y110893D01*
X58720Y111417D01*
X58224Y111748D01*
D02*
G37*
G36*
X54775Y111752D02*
X54272Y111417D01*
X53922Y110893D01*
X53800Y110276D01*
Y108616D01*
X56246D01*
Y110325D01*
X54921D01*
X54918Y110816D01*
X54478D01*
X54562Y110955D01*
X54638Y111143D01*
X54704Y111379D01*
X54762Y111663D01*
X54775Y111752D01*
D02*
G37*
G36*
X56246Y108116D02*
X53800D01*
Y106457D01*
X53922Y105839D01*
X54272Y105316D01*
X54796Y104966D01*
X54805Y104964D01*
X54793Y105035D01*
X54729Y105325D01*
X54655Y105568D01*
X54572Y105765D01*
X54478Y105917D01*
X54966D01*
X54971Y106428D01*
X56246Y106412D01*
Y108116D01*
D02*
G37*
G36*
X59192D02*
X56746D01*
Y106405D01*
X58120Y106387D01*
X58123Y105917D01*
X58514D01*
X58439Y105789D01*
X58372Y105611D01*
X58313Y105382D01*
X58262Y105103D01*
X58251Y105002D01*
X58720Y105316D01*
X59070Y105839D01*
X59192Y106457D01*
Y108116D01*
D02*
G37*
G36*
X58256Y103754D02*
X58262Y103656D01*
X58313Y103378D01*
X58372Y103149D01*
X58439Y102971D01*
X58514Y102843D01*
X58127D01*
X58120Y102373D01*
X56746Y102355D01*
Y100644D01*
X59192D01*
Y102303D01*
X59070Y102921D01*
X58720Y103444D01*
X58256Y103754D01*
D02*
G37*
G36*
X54805Y103796D02*
X54796Y103794D01*
X54272Y103444D01*
X53922Y102921D01*
X53800Y102303D01*
Y100644D01*
X56246D01*
Y102348D01*
X54971Y102332D01*
X54966Y102843D01*
X54478D01*
X54572Y102994D01*
X54655Y103192D01*
X54729Y103435D01*
X54793Y103725D01*
X54805Y103796D01*
D02*
G37*
G36*
X59192Y100144D02*
X56746D01*
Y96871D01*
X57579D01*
X58196Y96993D01*
X58720Y97343D01*
X59070Y97867D01*
X59192Y98484D01*
Y100144D01*
D02*
G37*
G36*
X56246D02*
X53800D01*
Y98484D01*
X53922Y97867D01*
X54272Y97343D01*
X54796Y96993D01*
X55413Y96871D01*
X56246D01*
Y100144D01*
D02*
G37*
G36*
X46498Y127428D02*
X46398Y127362D01*
X46049Y126838D01*
X45926Y126221D01*
Y124561D01*
X48372D01*
Y126760D01*
X46604D01*
X46576Y126755D01*
X46551Y126818D01*
X46529Y126946D01*
X46510Y127142D01*
X46498Y127428D01*
D02*
G37*
G36*
X48372Y124061D02*
X45926D01*
Y122402D01*
X46049Y121784D01*
X46398Y121260D01*
X46922Y120911D01*
X47539Y120788D01*
X48372D01*
Y124061D01*
D02*
G37*
G36*
Y119862D02*
X47539D01*
X46922Y119739D01*
X46398Y119389D01*
X46049Y118866D01*
X45926Y118248D01*
Y116589D01*
X48372D01*
Y119862D01*
D02*
G37*
G36*
Y116089D02*
X45926D01*
Y114429D01*
X46049Y113812D01*
X46398Y113288D01*
X46922Y112938D01*
X47539Y112815D01*
X48372D01*
Y116089D01*
D02*
G37*
G36*
X48372Y111889D02*
X47539D01*
X46922Y111766D01*
X46398Y111417D01*
X46049Y110893D01*
X45926Y110276D01*
Y108616D01*
X48372D01*
Y111889D01*
D02*
G37*
G36*
Y108116D02*
X45926D01*
Y106457D01*
X46049Y105839D01*
X46398Y105316D01*
X46922Y104966D01*
X47539Y104843D01*
X48372D01*
Y108116D01*
D02*
G37*
G36*
X48372Y103917D02*
X47539D01*
X46922Y103794D01*
X46398Y103444D01*
X46049Y102921D01*
X45926Y102303D01*
Y100644D01*
X48372D01*
Y103917D01*
D02*
G37*
G36*
Y100144D02*
X45926D01*
Y98484D01*
X46049Y97867D01*
X46398Y97343D01*
X46922Y96993D01*
X47539Y96871D01*
X48372D01*
Y100144D01*
D02*
G37*
G36*
X73031Y81588D02*
X72002D01*
Y77759D01*
X74846D01*
Y79773D01*
X74707Y80468D01*
X74314Y81056D01*
X73725Y81450D01*
X73031Y81588D01*
D02*
G37*
G36*
X71502D02*
X70472D01*
X69778Y81450D01*
X69189Y81056D01*
X68796Y80468D01*
X68658Y79773D01*
Y77759D01*
X71502D01*
Y81588D01*
D02*
G37*
G36*
X74846Y77259D02*
X72002D01*
Y73431D01*
X73031D01*
X73725Y73569D01*
X74314Y73963D01*
X74707Y74551D01*
X74846Y75246D01*
Y77259D01*
D02*
G37*
G36*
X71502D02*
X68658D01*
Y75246D01*
X68796Y74551D01*
X69189Y73963D01*
X69778Y73569D01*
X70472Y73431D01*
X71502D01*
Y77259D01*
D02*
G37*
G36*
X73130Y71844D02*
X72100D01*
Y68015D01*
X74944D01*
Y70029D01*
X74806Y70723D01*
X74413Y71312D01*
X73824Y71706D01*
X73130Y71844D01*
D02*
G37*
G36*
X71600D02*
X70570D01*
X69876Y71706D01*
X69288Y71312D01*
X68894Y70723D01*
X68756Y70029D01*
Y68015D01*
X71600D01*
Y71844D01*
D02*
G37*
G36*
X74944Y67515D02*
X72100D01*
Y63687D01*
X73130D01*
X73824Y63825D01*
X74413Y64219D01*
X74806Y64807D01*
X74944Y65502D01*
Y67515D01*
D02*
G37*
G36*
X71600D02*
X68756D01*
Y65502D01*
X68894Y64807D01*
X69288Y64219D01*
X69876Y63825D01*
X70570Y63687D01*
X71600D01*
Y67515D01*
D02*
G37*
G36*
X73130Y62099D02*
X72100D01*
Y58271D01*
X74944D01*
Y60285D01*
X74806Y60979D01*
X74413Y61568D01*
X73824Y61961D01*
X73130Y62099D01*
D02*
G37*
G36*
X71600D02*
X70570D01*
X69876Y61961D01*
X69288Y61568D01*
X68894Y60979D01*
X68756Y60285D01*
Y58271D01*
X71600D01*
Y62099D01*
D02*
G37*
G36*
X74944Y57771D02*
X72100D01*
Y53943D01*
X73130D01*
X73824Y54081D01*
X74413Y54475D01*
X74806Y55063D01*
X74944Y55757D01*
Y57771D01*
D02*
G37*
G36*
X71600D02*
X68756D01*
Y55757D01*
X68894Y55063D01*
X69288Y54475D01*
X69876Y54081D01*
X70570Y53943D01*
X71600D01*
Y57771D01*
D02*
G37*
G36*
X73130Y52355D02*
X72100D01*
Y48527D01*
X74944D01*
Y50541D01*
X74806Y51235D01*
X74413Y51824D01*
X73824Y52217D01*
X73130Y52355D01*
D02*
G37*
G36*
X71600D02*
X70570D01*
X69876Y52217D01*
X69288Y51824D01*
X68894Y51235D01*
X68756Y50541D01*
Y48527D01*
X71600D01*
Y52355D01*
D02*
G37*
G36*
X74944Y48027D02*
X72100D01*
Y44199D01*
X73130D01*
X73824Y44337D01*
X74413Y44730D01*
X74806Y45319D01*
X74944Y46013D01*
Y48027D01*
D02*
G37*
G36*
X71600D02*
X68756D01*
Y46013D01*
X68894Y45319D01*
X69288Y44730D01*
X69876Y44337D01*
X70570Y44199D01*
X71600D01*
Y48027D01*
D02*
G37*
G36*
X60433Y50328D02*
X59686Y50230D01*
X58990Y49941D01*
X58392Y49482D01*
X57933Y48884D01*
X57644Y48188D01*
X57546Y47441D01*
Y42717D01*
X57644Y41969D01*
X57933Y41273D01*
X58392Y40675D01*
X58990Y40216D01*
X59686Y39928D01*
X60433Y39830D01*
X61180Y39928D01*
X61876Y40216D01*
X62474Y40675D01*
X62933Y41273D01*
X63222Y41969D01*
X63320Y42717D01*
Y47441D01*
X63222Y48188D01*
X62933Y48884D01*
X62474Y49482D01*
X61876Y49941D01*
X61180Y50230D01*
X60433Y50328D01*
D02*
G37*
G36*
X20571Y84582D02*
X19935D01*
Y82337D01*
X21984D01*
Y83169D01*
X21876Y83710D01*
X21570Y84168D01*
X21112Y84475D01*
X20571Y84582D01*
D02*
G37*
G36*
X21984Y81837D02*
X19935D01*
Y79591D01*
X20571D01*
X21112Y79698D01*
X21570Y80005D01*
X21876Y80463D01*
X21984Y81004D01*
Y81837D01*
D02*
G37*
G36*
X19935Y76529D02*
Y68951D01*
X27513D01*
X27387Y70233D01*
X26940Y71706D01*
X26214Y73064D01*
X25238Y74253D01*
X24048Y75230D01*
X22690Y75956D01*
X21217Y76403D01*
X19935Y76529D01*
D02*
G37*
G36*
X27513Y68451D02*
X19935D01*
Y60873D01*
X21217Y60999D01*
X22690Y61446D01*
X24048Y62172D01*
X25238Y63148D01*
X26214Y64338D01*
X26940Y65696D01*
X27387Y67169D01*
X27513Y68451D01*
D02*
G37*
G36*
X-13780Y35974D02*
X-15421Y35812D01*
X-17000Y35333D01*
X-18454Y34556D01*
X-19729Y33509D01*
X-20776Y32234D01*
X-21553Y30779D01*
X-22032Y29201D01*
X-22194Y27559D01*
X-22032Y25918D01*
X-21553Y24339D01*
X-20776Y22884D01*
X-19729Y21609D01*
X-18454Y20563D01*
X-17000Y19785D01*
X-15421Y19306D01*
X-13780Y19144D01*
X-12138Y19306D01*
X-10559Y19785D01*
X-9105Y20563D01*
X-7830Y21609D01*
X-6783Y22884D01*
X-6005Y24339D01*
X-5527Y25918D01*
X-5365Y27559D01*
X-5527Y29201D01*
X-6005Y30779D01*
X-6783Y32234D01*
X-7830Y33509D01*
X-9105Y34556D01*
X-10559Y35333D01*
X-12138Y35812D01*
X-13780Y35974D01*
D02*
G37*
G36*
X96260Y73559D02*
X95878D01*
X96490Y73013D01*
X96601Y72969D01*
X95427Y71934D01*
Y71510D01*
X97673D01*
Y72146D01*
X97565Y72686D01*
X97259Y73145D01*
X96801Y73451D01*
X96260Y73559D01*
D02*
G37*
G36*
X94927Y71010D02*
X94379D01*
X93271Y70033D01*
X93227Y70143D01*
X93130Y70300D01*
X92978Y70504D01*
X92681Y70854D01*
Y70374D01*
X92789Y69833D01*
X93095Y69375D01*
X93554Y69069D01*
X94095Y68961D01*
X94927D01*
Y71010D01*
D02*
G37*
G36*
X97673D02*
X95427D01*
Y68961D01*
X96260D01*
X96801Y69069D01*
X97259Y69375D01*
X97565Y69833D01*
X97673Y70374D01*
Y71010D01*
D02*
G37*
G36*
X95526Y47485D02*
Y44285D01*
X98725D01*
X98640Y44937D01*
X98292Y45777D01*
X97738Y46498D01*
X97017Y47051D01*
X96177Y47399D01*
X95526Y47485D01*
D02*
G37*
G36*
X98725Y43785D02*
X98489D01*
X98680Y43577D01*
X98696Y43561D01*
X98725Y43785D01*
D02*
G37*
G36*
X97925D02*
X95526D01*
Y41211D01*
X97925Y43785D01*
D02*
G37*
G36*
X95526Y41012D02*
Y40586D01*
X95950Y40642D01*
X95526Y41012D01*
D02*
G37*
G36*
X102264Y32023D02*
X101431D01*
Y29974D01*
X103677D01*
Y30610D01*
X103569Y31151D01*
X103263Y31609D01*
X102805Y31916D01*
X102264Y32023D01*
D02*
G37*
G36*
X100931D02*
X100098D01*
X99558Y31916D01*
X99099Y31609D01*
X98793Y31151D01*
X98685Y30610D01*
Y29974D01*
X100931D01*
Y32023D01*
D02*
G37*
G36*
X103677Y29474D02*
X101431D01*
Y27426D01*
X102264D01*
X102805Y27533D01*
X103263Y27839D01*
X103569Y28298D01*
X103677Y28839D01*
Y29474D01*
D02*
G37*
G36*
X100931D02*
X98685D01*
Y28839D01*
X98793Y28298D01*
X99099Y27839D01*
X99558Y27533D01*
X100098Y27426D01*
X100931D01*
Y29474D01*
D02*
G37*
%LPD*%
D10*
X106102Y153937D02*
X107087Y152953D01*
Y151772D02*
Y152953D01*
Y151772D02*
X107776Y151083D01*
X129344Y144209D02*
X145850D01*
X122470Y151083D02*
X129344Y144209D01*
X107776Y151083D02*
X122470D01*
D12*
X112424Y147627D02*
X112479Y147681D01*
X116874D01*
X116929Y147736D01*
X112402Y153937D02*
X112500Y153839D01*
X118209D01*
X26378Y82087D02*
X32776D01*
X95128Y22982D02*
X95177Y23031D01*
X87845Y22982D02*
X95128D01*
X87795Y22933D02*
X87845Y22982D01*
X101181Y23031D02*
X101181Y23031D01*
X95177Y23031D02*
X101181D01*
X91240Y147638D02*
Y153937D01*
X26806Y84976D02*
X28445Y86614D01*
X26806Y82515D02*
Y84976D01*
X26378Y82087D02*
X26806Y82515D01*
D17*
X48622Y100394D02*
D03*
X56496D02*
D03*
X170276Y98917D02*
D03*
X162402D02*
D03*
X170276Y106890D02*
D03*
X162402D02*
D03*
X170276Y114961D02*
D03*
X162402D02*
D03*
X170276Y122933D02*
D03*
X162402D02*
D03*
X48622Y116339D02*
D03*
X56496D02*
D03*
X48622Y124311D02*
D03*
X56496D02*
D03*
X48622Y108366D02*
D03*
X56496D02*
D03*
X38189Y124311D02*
D03*
X30315D02*
D03*
X38189Y116339D02*
D03*
X30315D02*
D03*
X38189Y108366D02*
D03*
X30315D02*
D03*
X38189Y100394D02*
D03*
X30315D02*
D03*
D18*
X185827Y144193D02*
D03*
X76279Y11713D02*
D03*
X185827Y97638D02*
D03*
X19390Y143012D02*
D03*
X14665Y96161D02*
D03*
X210630Y27559D02*
D03*
Y129921D02*
D03*
X-13780D02*
D03*
Y27559D02*
D03*
D19*
X118209Y5610D02*
D03*
Y13484D02*
D03*
X110236Y5610D02*
D03*
Y13484D02*
D03*
X94390Y5610D02*
D03*
Y13484D02*
D03*
X102264Y5610D02*
D03*
Y13484D02*
D03*
D20*
X42323Y143012D02*
D03*
X14665Y117717D02*
D03*
X185827Y118701D02*
D03*
X166831Y144291D02*
D03*
D21*
X26378Y82087D02*
D03*
X19685D02*
D03*
X39469D02*
D03*
X32776D02*
D03*
X91240Y147638D02*
D03*
X97933D02*
D03*
X112424Y147627D02*
D03*
X105731D02*
D03*
X128937Y126181D02*
D03*
X135236D02*
D03*
D22*
X95177Y23031D02*
D03*
Y29724D02*
D03*
X101181Y23031D02*
D03*
Y29724D02*
D03*
X78150Y113779D02*
D03*
Y120472D02*
D03*
X71776Y113867D02*
D03*
Y120560D02*
D03*
X149409Y111811D02*
D03*
Y118504D02*
D03*
X142717Y111811D02*
D03*
Y118504D02*
D03*
X95177Y64567D02*
D03*
Y71260D02*
D03*
D23*
X71850Y48277D02*
D03*
X83267D02*
D03*
X71850Y58021D02*
D03*
X83267D02*
D03*
X71752Y77509D02*
D03*
X83169D02*
D03*
X71850Y67765D02*
D03*
X83267D02*
D03*
D24*
X91240Y153937D02*
D03*
X97539D02*
D03*
X106102D02*
D03*
X112402D02*
D03*
D25*
X120669Y138386D02*
D03*
X136417D02*
D03*
D26*
X128937Y119291D02*
D03*
Y102362D02*
D03*
D27*
X76575Y32579D02*
D03*
D34*
X179527Y23959D02*
D03*
Y64705D02*
D03*
D46*
Y63721D02*
D03*
Y24350D02*
D03*
D47*
X158878Y7579D02*
D03*
X148878D02*
D03*
X138878D02*
D03*
X49213Y85138D02*
D03*
X95276Y36516D02*
D03*
Y44035D02*
D03*
D48*
Y51555D02*
D03*
D49*
X173158Y36854D02*
D03*
Y51217D02*
D03*
X177094Y39713D02*
D03*
Y48358D02*
D03*
X181961Y39713D02*
D03*
Y48358D02*
D03*
X185898Y36854D02*
D03*
Y51217D02*
D03*
X173158Y11846D02*
D03*
Y76224D02*
D03*
X177094Y8988D02*
D03*
Y79083D02*
D03*
X181961Y8988D02*
D03*
Y79083D02*
D03*
X185898Y11846D02*
D03*
Y76224D02*
D03*
X171653Y16477D02*
D03*
Y21726D02*
D03*
Y26975D02*
D03*
Y32224D02*
D03*
X187402Y16477D02*
D03*
Y21726D02*
D03*
Y26975D02*
D03*
Y32224D02*
D03*
X171653Y55847D02*
D03*
Y61096D02*
D03*
Y66345D02*
D03*
Y71595D02*
D03*
X187402Y55847D02*
D03*
Y61096D02*
D03*
Y66345D02*
D03*
Y71595D02*
D03*
D50*
X133228Y23228D02*
X148878Y7579D01*
X110630Y23228D02*
X133228D01*
X148878Y7579D02*
X158878D01*
X128878D02*
X138878D01*
X171653Y32224D02*
X179527Y24350D01*
Y23959D02*
Y24350D01*
X185827Y140997D02*
Y144193D01*
X179134Y134304D02*
X185827Y140997D01*
X179134Y132185D02*
Y134304D01*
X101821Y153937D02*
X106102D01*
X97539D02*
X101821D01*
X48425Y124508D02*
X48622Y124311D01*
X48425Y124508D02*
Y129724D01*
X48031Y130118D02*
X48425Y129724D01*
X19390Y143012D02*
X19488Y142913D01*
Y131595D02*
Y142913D01*
X56496Y116339D02*
X64567D01*
X68788Y120560D01*
X71776D01*
X72850Y121634D02*
Y134209D01*
X71776Y120560D02*
X72850Y121634D01*
X30118Y133169D02*
X34055Y137106D01*
X14665Y117717D02*
X30118Y133169D01*
Y133169D01*
X34055Y137106D02*
X36417D01*
X42323Y143012D01*
X113575Y139764D02*
X119291D01*
X105731Y147627D02*
X108184Y145174D01*
Y145155D02*
Y145174D01*
Y145155D02*
X113575Y139764D01*
X42323Y143012D02*
X43520Y144209D01*
X72850D01*
X78150Y113779D02*
X80602Y116232D01*
X80622D01*
X97933Y133544D01*
Y147638D01*
X110236Y13484D02*
X110236D01*
X110433Y13681D01*
Y23031D01*
X110630Y23228D01*
X72850Y102209D02*
Y112793D01*
Y92209D02*
Y102209D01*
X71752Y77509D02*
Y78494D01*
X142717Y111811D02*
X149409D01*
X71776Y113867D02*
X78062D01*
X71776D02*
X72850Y112793D01*
X78062Y113867D02*
X78150Y113779D01*
X145850Y92209D02*
Y102209D01*
X128937Y102362D02*
X129014Y102285D01*
X145774D01*
X145850Y102209D01*
X128937Y119291D02*
Y126181D01*
X128937Y126181D02*
X128937Y126181D01*
X119291Y139764D02*
X120669Y138386D01*
X38189Y83366D02*
Y100394D01*
Y83366D02*
X39469Y82087D01*
X42323Y129232D02*
Y143012D01*
X38425Y125335D02*
X42323Y129232D01*
X38386Y125335D02*
X38425D01*
X38189Y125138D02*
X38386Y125335D01*
X38189Y124311D02*
Y125138D01*
X39469Y82087D02*
X42685Y78870D01*
Y74047D02*
Y78870D01*
Y74047D02*
X48031Y68701D01*
X83268Y37697D02*
Y48277D01*
X83267Y48277D02*
X83268Y48277D01*
X76575Y32579D02*
X81693Y37697D01*
X83268D01*
X95276Y44035D02*
X95423D01*
X101181Y38277D01*
Y29724D02*
Y38277D01*
X95177Y36417D02*
X95276Y36516D01*
X95177Y29724D02*
Y36417D01*
Y51653D02*
Y64567D01*
Y51653D02*
X95276Y51555D01*
X93563Y13484D02*
X94390D01*
X102264D01*
X110236D02*
X110236Y13484D01*
X102264Y13484D02*
X110236D01*
X110236Y13484D02*
X118209D01*
X83218Y76476D02*
X83759Y75935D01*
X83218Y76476D02*
Y77460D01*
Y67815D02*
Y76476D01*
X90502Y75935D02*
X95177Y71260D01*
X83759Y75935D02*
X90502D01*
X83267Y48277D02*
Y58021D01*
Y67765D01*
X83169Y77509D02*
X83218Y77460D01*
Y67815D02*
X83267Y67765D01*
X171072Y133455D02*
X185827Y118701D01*
X152706Y133455D02*
X171072D01*
X145850Y144209D02*
X166748D01*
X166831Y144291D01*
X136417Y138386D02*
X137795Y137008D01*
X141986D01*
X144785Y134209D01*
X145850D01*
Y144209D01*
X162402Y122933D02*
Y123760D01*
X152706Y133455D02*
X162402Y123760D01*
X146604Y133455D02*
X152706D01*
X145850Y134209D02*
X146604Y133455D01*
X162402Y98917D02*
Y106890D01*
Y114961D01*
Y122933D01*
X72850Y134209D02*
Y144209D01*
X71776Y120560D02*
X78062D01*
X78150Y120472D01*
X56496Y116339D02*
X56496Y116339D01*
X56545Y100443D02*
X56595Y100394D01*
X56496Y108366D02*
X56545Y108317D01*
X38189Y100394D02*
Y108366D01*
Y116339D01*
X38189Y116339D02*
Y124311D01*
X38189Y116339D02*
X38189Y116339D01*
D51*
X79675Y86417D02*
X122148D01*
X71752Y78494D02*
X79675Y86417D01*
X122148D02*
X155415Y53151D01*
X149409Y111811D02*
X155415Y105806D01*
Y53542D02*
X171653Y37303D01*
Y32224D02*
Y37303D01*
X155415Y53151D02*
Y105806D01*
X52756Y11713D02*
X76279D01*
X6890Y57579D02*
X52756Y11713D01*
X6890Y57579D02*
Y76968D01*
X13159Y94655D02*
X14665Y96161D01*
X13159Y83237D02*
Y94655D01*
X6890Y76968D02*
X13159Y83237D01*
X71211Y57382D02*
X71850Y58021D01*
X62106Y57382D02*
X71211D01*
X76378Y32382D02*
X76575Y32579D01*
X54823Y32382D02*
X76378D01*
X48031Y39173D02*
X54823Y32382D01*
X48031Y39173D02*
Y68701D01*
D52*
X101969Y134252D02*
Y153789D01*
X101821Y153937D02*
X101969Y153789D01*
X120669Y138386D02*
X121260D01*
X127839Y131807D01*
X129807D01*
X135236Y126378D01*
Y126181D02*
Y126378D01*
Y119095D02*
Y126181D01*
Y119095D02*
X142520Y111811D01*
X142717D01*
D53*
Y118504D02*
X149409D01*
D54*
X56496Y116339D02*
Y124311D01*
X56496Y108366D02*
Y116339D01*
X56545Y100443D02*
Y108317D01*
D55*
X7283Y45079D02*
D03*
X60433D02*
D03*
D56*
X19685Y68701D02*
D03*
D57*
X48031D02*
D03*
D58*
X128878Y7579D02*
D03*
X59213Y85138D02*
D03*
D59*
X145850Y92209D02*
D03*
X72850D02*
D03*
X145850Y144209D02*
D03*
X72850D02*
D03*
Y102209D02*
D03*
X145850D02*
D03*
Y134209D02*
D03*
X72850D02*
D03*
X110630Y23228D02*
D03*
X62106Y57382D02*
D03*
D60*
X220669Y135827D02*
D03*
Y126476D02*
D03*
X217716Y120571D02*
D03*
Y37894D02*
D03*
X220669Y31988D02*
D03*
X219685Y20177D02*
D03*
X211811Y37894D02*
D03*
Y14272D02*
D03*
X205905Y120571D02*
D03*
Y37894D02*
D03*
Y14272D02*
D03*
X202953Y138287D02*
D03*
X200000Y132382D02*
D03*
Y120571D02*
D03*
Y37894D02*
D03*
Y26083D02*
D03*
X202953Y20177D02*
D03*
X200000Y14272D02*
D03*
X197047Y138287D02*
D03*
X194094Y132382D02*
D03*
X197047Y126476D02*
D03*
X194094Y108760D02*
D03*
Y85138D02*
D03*
Y73327D02*
D03*
Y61516D02*
D03*
Y49705D02*
D03*
Y37894D02*
D03*
X197047Y31988D02*
D03*
X194094Y26083D02*
D03*
X197047Y20177D02*
D03*
X194094Y14272D02*
D03*
X188189Y132382D02*
D03*
Y108760D02*
D03*
Y85138D02*
D03*
X191142Y79232D02*
D03*
Y43799D02*
D03*
Y8366D02*
D03*
X188189Y2461D02*
D03*
X182283Y108760D02*
D03*
Y85138D02*
D03*
Y2461D02*
D03*
X176378Y108760D02*
D03*
Y85138D02*
D03*
Y2461D02*
D03*
X173425Y91043D02*
D03*
X170472Y85138D02*
D03*
Y2461D02*
D03*
X167519Y91043D02*
D03*
Y79232D02*
D03*
Y55610D02*
D03*
X164567Y14272D02*
D03*
X167519Y8366D02*
D03*
X164567Y2461D02*
D03*
X158661Y14272D02*
D03*
Y2461D02*
D03*
X155709Y150098D02*
D03*
Y138287D02*
D03*
X152756Y14272D02*
D03*
Y2461D02*
D03*
X149803Y150098D02*
D03*
Y138287D02*
D03*
X146850Y2461D02*
D03*
X143897Y150098D02*
D03*
X140945Y2461D02*
D03*
X137992Y150098D02*
D03*
X135039Y132382D02*
D03*
Y14272D02*
D03*
Y2461D02*
D03*
X132087Y150098D02*
D03*
X129134Y2461D02*
D03*
X123228Y144193D02*
D03*
Y132382D02*
D03*
Y14272D02*
D03*
Y2461D02*
D03*
X117323Y144193D02*
D03*
Y132382D02*
D03*
X111417D02*
D03*
X108464Y138287D02*
D03*
X105512Y132382D02*
D03*
X93701Y144193D02*
D03*
X87795D02*
D03*
X90748Y138287D02*
D03*
X87795Y14272D02*
D03*
Y2461D02*
D03*
X84842Y150098D02*
D03*
X81890Y144193D02*
D03*
X84842Y138287D02*
D03*
X81890Y2461D02*
D03*
X78937Y150098D02*
D03*
Y138287D02*
D03*
X73031Y150098D02*
D03*
X70079Y2461D02*
D03*
X67126Y150098D02*
D03*
Y138287D02*
D03*
X64173Y132382D02*
D03*
X61220Y150098D02*
D03*
Y138287D02*
D03*
X58268Y132382D02*
D03*
X55315Y150098D02*
D03*
Y138287D02*
D03*
X52362Y132382D02*
D03*
X49409Y91043D02*
D03*
X43504Y114665D02*
D03*
Y102854D02*
D03*
Y91043D02*
D03*
X34646Y132382D02*
D03*
X31693Y150098D02*
D03*
Y91043D02*
D03*
X22835Y132382D02*
D03*
X25787Y114665D02*
D03*
Y102854D02*
D03*
Y91043D02*
D03*
X11023Y132382D02*
D03*
X8071Y150098D02*
D03*
X5118Y144193D02*
D03*
X8071Y138287D02*
D03*
X5118Y132382D02*
D03*
Y108760D02*
D03*
X2165Y138287D02*
D03*
X-788Y132382D02*
D03*
X2165Y126476D02*
D03*
X-788Y120571D02*
D03*
X2165Y114665D02*
D03*
X-3740Y138287D02*
D03*
Y126476D02*
D03*
X-6693Y120571D02*
D03*
X-18504D02*
D03*
X-21457Y138287D02*
D03*
X-24409Y132382D02*
D03*
X-21654Y120571D02*
D03*
X64173Y73327D02*
D03*
Y49705D02*
D03*
Y26083D02*
D03*
Y2461D02*
D03*
X61220Y79232D02*
D03*
X58268Y73327D02*
D03*
X61220Y67421D02*
D03*
X58268Y26083D02*
D03*
X61220Y20177D02*
D03*
X58268Y2461D02*
D03*
X55315Y79232D02*
D03*
Y55610D02*
D03*
Y43799D02*
D03*
X52362Y26083D02*
D03*
X55315Y20177D02*
D03*
X52362Y2461D02*
D03*
X49409Y79232D02*
D03*
X46457Y26083D02*
D03*
Y2461D02*
D03*
X40551Y49705D02*
D03*
Y37894D02*
D03*
X43504Y31988D02*
D03*
X40551Y14272D02*
D03*
X43504Y8366D02*
D03*
X40551Y2461D02*
D03*
X34646Y73327D02*
D03*
X37598Y67421D02*
D03*
X34646Y61516D02*
D03*
X37598Y55610D02*
D03*
X34646Y49705D02*
D03*
X37598Y43799D02*
D03*
X34646Y37894D02*
D03*
Y14272D02*
D03*
X37598Y8366D02*
D03*
X34646Y2461D02*
D03*
X28740Y73327D02*
D03*
X31693Y67421D02*
D03*
X28740Y61516D02*
D03*
X31693Y55610D02*
D03*
X28740Y49705D02*
D03*
X31693Y43799D02*
D03*
X28740Y26083D02*
D03*
X31693Y20177D02*
D03*
X28740Y14272D02*
D03*
X31693Y8366D02*
D03*
X28740Y2461D02*
D03*
X25787Y55610D02*
D03*
X22835Y49705D02*
D03*
Y26083D02*
D03*
X25787Y20177D02*
D03*
X22835Y14272D02*
D03*
X25787Y8366D02*
D03*
X22835Y2461D02*
D03*
X19882Y55610D02*
D03*
X16929Y37894D02*
D03*
X19882Y31988D02*
D03*
X16929Y26083D02*
D03*
X19882Y20177D02*
D03*
X16929Y14272D02*
D03*
X19882Y8366D02*
D03*
X16929Y2461D02*
D03*
X11023Y37894D02*
D03*
X13976Y31988D02*
D03*
X11023Y26083D02*
D03*
X13976Y20177D02*
D03*
X11023Y14272D02*
D03*
X13976Y8366D02*
D03*
X11023Y2461D02*
D03*
X5118Y37894D02*
D03*
X8071Y31988D02*
D03*
X5118Y26083D02*
D03*
X8071Y20177D02*
D03*
X5118Y14272D02*
D03*
X8071Y8366D02*
D03*
X-788Y37894D02*
D03*
X2165Y31988D02*
D03*
X-788Y26083D02*
D03*
X2165Y20177D02*
D03*
X-788Y14272D02*
D03*
X-6693Y37894D02*
D03*
X-3740Y31988D02*
D03*
Y20177D02*
D03*
X-6693Y14272D02*
D03*
X-12598Y37894D02*
D03*
Y14272D02*
D03*
X-18504Y37894D02*
D03*
X-24409Y26083D02*
D03*
X-21457Y20177D02*
D03*
X161614Y91043D02*
D03*
Y79232D02*
D03*
Y67421D02*
D03*
Y55610D02*
D03*
X158661Y37894D02*
D03*
X161614Y31988D02*
D03*
X158661Y26083D02*
D03*
X155709Y126476D02*
D03*
Y114665D02*
D03*
Y43799D02*
D03*
X152756Y37894D02*
D03*
X155709Y31988D02*
D03*
X152756Y26083D02*
D03*
X146850Y85138D02*
D03*
Y73327D02*
D03*
Y49705D02*
D03*
X149803Y43799D02*
D03*
X146850Y37894D02*
D03*
X149803Y31988D02*
D03*
X146850Y26083D02*
D03*
X140945Y96949D02*
D03*
Y85138D02*
D03*
X143897Y79232D02*
D03*
Y55610D02*
D03*
X140945Y49705D02*
D03*
X143897Y43799D02*
D03*
X140945Y37894D02*
D03*
X143897Y31988D02*
D03*
X140945Y26083D02*
D03*
X135039Y108760D02*
D03*
Y96949D02*
D03*
X137992Y91043D02*
D03*
X135039Y85138D02*
D03*
X137992Y79232D02*
D03*
X135039Y61516D02*
D03*
X137992Y55610D02*
D03*
X135039Y49705D02*
D03*
X137992Y43799D02*
D03*
X135039Y37894D02*
D03*
X137992Y31988D02*
D03*
X135039Y26083D02*
D03*
X129134Y96949D02*
D03*
X132087Y91043D02*
D03*
Y67421D02*
D03*
X129134Y61516D02*
D03*
X132087Y55610D02*
D03*
X123228Y120571D02*
D03*
X126181Y114665D02*
D03*
X123228Y108760D02*
D03*
Y96949D02*
D03*
X126181Y91043D02*
D03*
X123228Y73327D02*
D03*
X126181Y67421D02*
D03*
X123228Y61516D02*
D03*
X126181Y55610D02*
D03*
X123228Y37894D02*
D03*
Y26083D02*
D03*
X120275Y126476D02*
D03*
X117323Y120571D02*
D03*
X120275Y114665D02*
D03*
X117323Y108760D02*
D03*
Y96949D02*
D03*
X120275Y79232D02*
D03*
X117323Y73327D02*
D03*
X120275Y67421D02*
D03*
X117323Y49705D02*
D03*
X120275Y43799D02*
D03*
X117323Y37894D02*
D03*
X120275Y31988D02*
D03*
X117323Y26083D02*
D03*
X114370Y126476D02*
D03*
X111417Y120571D02*
D03*
X114370Y114665D02*
D03*
X111417Y108760D02*
D03*
Y96949D02*
D03*
X114370Y79232D02*
D03*
X111417Y73327D02*
D03*
X114370Y67421D02*
D03*
X111417Y49705D02*
D03*
X114370Y43799D02*
D03*
X111417Y37894D02*
D03*
X114370Y31988D02*
D03*
X108464Y126476D02*
D03*
X105512Y120571D02*
D03*
X108464Y114665D02*
D03*
X105512Y108760D02*
D03*
Y96949D02*
D03*
X108464Y79232D02*
D03*
X105512Y61516D02*
D03*
X108464Y55610D02*
D03*
X105512Y49705D02*
D03*
X108464Y43799D02*
D03*
X105512Y37894D02*
D03*
X108464Y31988D02*
D03*
X102559Y126476D02*
D03*
X99606Y120571D02*
D03*
X102559Y114665D02*
D03*
X99606Y108760D02*
D03*
Y96949D02*
D03*
X102559Y43799D02*
D03*
X96653Y126476D02*
D03*
X93701Y120571D02*
D03*
X96653Y114665D02*
D03*
X93701Y108760D02*
D03*
Y96949D02*
D03*
X90748Y114665D02*
D03*
X87795Y108760D02*
D03*
Y96949D02*
D03*
X84842Y126476D02*
D03*
Y114665D02*
D03*
X81890Y108760D02*
D03*
X78937Y126476D02*
D03*
X73031D02*
D03*
X67126D02*
D03*
X64173Y120571D02*
D03*
X67126Y114665D02*
D03*
X64173Y108760D02*
D03*
X67126Y102854D02*
D03*
X64173Y96949D02*
D03*
X67126Y91043D02*
D03*
X61220Y126476D02*
D03*
Y114665D02*
D03*
Y102854D02*
D03*
Y91043D02*
D03*
X116929Y147736D02*
D03*
X118209Y153839D02*
D03*
X101969Y134252D02*
D03*
X48031Y130118D02*
D03*
X19488Y131595D02*
D03*
X87795Y22933D02*
D03*
X28445Y86614D02*
D03*
D61*
X179134Y132185D02*
D03*
M02*
