G04*
G04 #@! TF.GenerationSoftware,Altium Limited,Altium Designer,20.2.5 (213)*
G04*
G04 Layer_Color=16711935*
%FSLAX25Y25*%
%MOIN*%
G70*
G04*
G04 #@! TF.SameCoordinates,E7A29C4C-667B-4874-933E-F4189BEA85A9*
G04*
G04*
G04 #@! TF.FilePolarity,Positive*
G04*
G01*
G75*
%ADD10C,0.01181*%
%ADD13C,0.00394*%
%ADD14C,0.00500*%
%ADD62C,0.00197*%
D10*
X56496Y78543D02*
G03*
X56496Y78543I-591J0D01*
G01*
D13*
X91043Y155709D02*
X97736D01*
X91043Y152165D02*
X97736D01*
X91043D02*
Y155709D01*
X97736Y152165D02*
Y155709D01*
X105905Y152165D02*
Y155709D01*
X112598Y152165D02*
Y155709D01*
X105905D02*
X112598D01*
X105905Y152165D02*
X112598D01*
X135236Y124606D02*
Y127756D01*
X128937D02*
X135236D01*
X128937Y124606D02*
Y127756D01*
Y124606D02*
X135236D01*
X134252Y102953D02*
Y118701D01*
X123622Y102953D02*
Y118701D01*
X134252D01*
X123622Y102953D02*
X134252D01*
D14*
X3347Y4331D02*
X64370D01*
X3347D02*
Y75984D01*
X64370D01*
Y4331D02*
Y75984D01*
D62*
X26378Y80216D02*
Y83957D01*
X19685Y80216D02*
Y83957D01*
Y80216D02*
X26378D01*
X19685Y83957D02*
X26378D01*
X39469Y80216D02*
Y83957D01*
X32776Y80216D02*
Y83957D01*
Y80216D02*
X39469D01*
X32776Y83957D02*
X39469D01*
X93307Y23031D02*
X97047D01*
X93307Y29724D02*
X97047D01*
X93307Y23031D02*
Y29724D01*
X97047Y23031D02*
Y29724D01*
X91240Y145768D02*
Y149508D01*
X97933Y145768D02*
Y149508D01*
X91240D02*
X97933D01*
X91240Y145768D02*
X97933D01*
X112424Y145757D02*
Y149497D01*
X105731Y145757D02*
Y149497D01*
Y145757D02*
X112424D01*
X105731Y149497D02*
X112424D01*
M02*
