G04*
G04 #@! TF.GenerationSoftware,Altium Limited,Altium Designer,20.2.5 (213)*
G04*
G04 Layer_Color=8388736*
%FSLAX25Y25*%
%MOIN*%
G70*
G04*
G04 #@! TF.SameCoordinates,E7A29C4C-667B-4874-933E-F4189BEA85A9*
G04*
G04*
G04 #@! TF.FilePolarity,Negative*
G04*
G01*
G75*
G04:AMPARAMS|DCode=28|XSize=65.75mil|YSize=49.21mil|CornerRadius=13.78mil|HoleSize=0mil|Usage=FLASHONLY|Rotation=270.000|XOffset=0mil|YOffset=0mil|HoleType=Round|Shape=RoundedRectangle|*
%AMROUNDEDRECTD28*
21,1,0.06575,0.02165,0,0,270.0*
21,1,0.03819,0.04921,0,0,270.0*
1,1,0.02756,-0.01083,-0.01909*
1,1,0.02756,-0.01083,0.01909*
1,1,0.02756,0.01083,0.01909*
1,1,0.02756,0.01083,-0.01909*
%
%ADD28ROUNDEDRECTD28*%
%ADD29C,0.16339*%
G04:AMPARAMS|DCode=30|XSize=65.75mil|YSize=49.21mil|CornerRadius=13.78mil|HoleSize=0mil|Usage=FLASHONLY|Rotation=0.000|XOffset=0mil|YOffset=0mil|HoleType=Round|Shape=RoundedRectangle|*
%AMROUNDEDRECTD30*
21,1,0.06575,0.02165,0,0,0.0*
21,1,0.03819,0.04921,0,0,0.0*
1,1,0.02756,0.01909,-0.01083*
1,1,0.02756,-0.01909,-0.01083*
1,1,0.02756,-0.01909,0.01083*
1,1,0.02756,0.01909,0.01083*
%
%ADD30ROUNDEDRECTD30*%
%ADD31R,0.16339X0.16339*%
G04:AMPARAMS|DCode=32|XSize=45.28mil|YSize=41.34mil|CornerRadius=11.81mil|HoleSize=0mil|Usage=FLASHONLY|Rotation=270.000|XOffset=0mil|YOffset=0mil|HoleType=Round|Shape=RoundedRectangle|*
%AMROUNDEDRECTD32*
21,1,0.04528,0.01772,0,0,270.0*
21,1,0.02165,0.04134,0,0,270.0*
1,1,0.02362,-0.00886,-0.01083*
1,1,0.02362,-0.00886,0.01083*
1,1,0.02362,0.00886,0.01083*
1,1,0.02362,0.00886,-0.01083*
%
%ADD32ROUNDEDRECTD32*%
G04:AMPARAMS|DCode=33|XSize=45.28mil|YSize=41.34mil|CornerRadius=11.81mil|HoleSize=0mil|Usage=FLASHONLY|Rotation=180.000|XOffset=0mil|YOffset=0mil|HoleType=Round|Shape=RoundedRectangle|*
%AMROUNDEDRECTD33*
21,1,0.04528,0.01772,0,0,180.0*
21,1,0.02165,0.04134,0,0,180.0*
1,1,0.02362,-0.01083,0.00886*
1,1,0.02362,0.01083,0.00886*
1,1,0.02362,0.01083,-0.00886*
1,1,0.02362,-0.01083,-0.00886*
%
%ADD33ROUNDEDRECTD33*%
%ADD34C,0.21260*%
G04:AMPARAMS|DCode=35|XSize=76.77mil|YSize=57.09mil|CornerRadius=15.75mil|HoleSize=0mil|Usage=FLASHONLY|Rotation=270.000|XOffset=0mil|YOffset=0mil|HoleType=Round|Shape=RoundedRectangle|*
%AMROUNDEDRECTD35*
21,1,0.07677,0.02559,0,0,270.0*
21,1,0.04528,0.05709,0,0,270.0*
1,1,0.03150,-0.01280,-0.02264*
1,1,0.03150,-0.01280,0.02264*
1,1,0.03150,0.01280,0.02264*
1,1,0.03150,0.01280,-0.02264*
%
%ADD35ROUNDEDRECTD35*%
%ADD36R,0.03740X0.03740*%
G04:AMPARAMS|DCode=37|XSize=84.65mil|YSize=72.84mil|CornerRadius=19.68mil|HoleSize=0mil|Usage=FLASHONLY|Rotation=180.000|XOffset=0mil|YOffset=0mil|HoleType=Round|Shape=RoundedRectangle|*
%AMROUNDEDRECTD37*
21,1,0.08465,0.03347,0,0,180.0*
21,1,0.04528,0.07284,0,0,180.0*
1,1,0.03937,-0.02264,0.01673*
1,1,0.03937,0.02264,0.01673*
1,1,0.03937,0.02264,-0.01673*
1,1,0.03937,-0.02264,-0.01673*
%
%ADD37ROUNDEDRECTD37*%
%ADD38R,0.08268X0.04921*%
%ADD39R,0.16339X0.16339*%
%ADD40O,0.05315X0.10039*%
%ADD41C,0.15221*%
%ADD42R,0.15221X0.15221*%
%ADD43C,0.06496*%
%ADD44R,0.06496X0.06496*%
%ADD45C,0.08465*%
G04:AMPARAMS|DCode=46|XSize=259.84mil|YSize=102.36mil|CornerRadius=51.18mil|HoleSize=0mil|Usage=FLASHONLY|Rotation=270.000|XOffset=0mil|YOffset=0mil|HoleType=Round|Shape=RoundedRectangle|*
%AMROUNDEDRECTD46*
21,1,0.25984,0.00000,0,0,270.0*
21,1,0.15748,0.10236,0,0,270.0*
1,1,0.10236,0.00000,-0.07874*
1,1,0.10236,0.00000,0.07874*
1,1,0.10236,0.00000,0.07874*
1,1,0.10236,0.00000,-0.07874*
%
%ADD46ROUNDEDRECTD46*%
%ADD47C,0.05906*%
%ADD48R,0.05906X0.05906*%
%ADD49C,0.03150*%
G36*
X186663Y41664D02*
X187768Y40716D01*
X188749Y39640D01*
X189590Y38451D01*
X190279Y37168D01*
X190805Y35810D01*
X191160Y34398D01*
X191339Y32952D01*
X191339Y32224D01*
X191339Y32224D01*
Y16476D01*
Y15547D01*
X191048Y13711D01*
X190473Y11942D01*
X189629Y10286D01*
X188537Y8782D01*
X187222Y7467D01*
X185718Y6375D01*
X184061Y5531D01*
X182293Y4956D01*
X180457Y4665D01*
X178598D01*
X176762Y4956D01*
X174994Y5531D01*
X173337Y6375D01*
X171833Y7467D01*
X170519Y8782D01*
X169426Y10286D01*
X168582Y11942D01*
X168007Y13711D01*
X167717Y15547D01*
Y16476D01*
Y32224D01*
Y32952D01*
X167895Y34398D01*
X168250Y35810D01*
X168776Y37168D01*
X169465Y38451D01*
X170306Y39640D01*
X171287Y40716D01*
X172392Y41664D01*
X172999Y42067D01*
X186056D01*
X186663Y41664D01*
D02*
G37*
G36*
X182293Y83115D02*
X184061Y82540D01*
X185718Y81696D01*
X187222Y80603D01*
X188537Y79289D01*
X189629Y77785D01*
X190473Y76128D01*
X191048Y74360D01*
X191339Y72524D01*
Y71595D01*
X191339D01*
X191339Y55847D01*
Y55118D01*
X191160Y53673D01*
X190805Y52261D01*
X190279Y50903D01*
X189590Y49620D01*
X188749Y48431D01*
X187768Y47354D01*
X186663Y46406D01*
X186056Y46004D01*
X172999D01*
X172392Y46406D01*
X171287Y47354D01*
X170306Y48431D01*
X169465Y49620D01*
X168776Y50903D01*
X168250Y52261D01*
X167895Y53673D01*
X167717Y55118D01*
Y55847D01*
X167717Y71595D01*
Y72524D01*
X168007Y74360D01*
X168582Y76128D01*
X169426Y77785D01*
X170519Y79289D01*
X171833Y80603D01*
X173337Y81696D01*
X174994Y82540D01*
X176762Y83115D01*
X178598Y83406D01*
X180457D01*
X182293Y83115D01*
D02*
G37*
D28*
X48622Y100394D02*
D03*
X56496D02*
D03*
X170276Y98917D02*
D03*
X162402D02*
D03*
X170276Y106890D02*
D03*
X162402D02*
D03*
X170276Y114961D02*
D03*
X162402D02*
D03*
X170276Y122933D02*
D03*
X162402D02*
D03*
X48622Y116339D02*
D03*
X56496D02*
D03*
X48622Y124311D02*
D03*
X56496D02*
D03*
X48622Y108366D02*
D03*
X56496D02*
D03*
X38189Y124311D02*
D03*
X30315D02*
D03*
X38189Y116339D02*
D03*
X30315D02*
D03*
X38189Y108366D02*
D03*
X30315D02*
D03*
X38189Y100394D02*
D03*
X30315D02*
D03*
D29*
X185827Y144193D02*
D03*
X76279Y11713D02*
D03*
X185827Y97638D02*
D03*
X19390Y143012D02*
D03*
X14665Y96161D02*
D03*
X210630Y27559D02*
D03*
Y129921D02*
D03*
X-13780D02*
D03*
Y27559D02*
D03*
D30*
X118209Y5610D02*
D03*
Y13484D02*
D03*
X110236Y5610D02*
D03*
Y13484D02*
D03*
X94390Y5610D02*
D03*
Y13484D02*
D03*
X102264Y5610D02*
D03*
Y13484D02*
D03*
D31*
X42323Y143012D02*
D03*
X14665Y117717D02*
D03*
X185827Y118701D02*
D03*
X166831Y144291D02*
D03*
D32*
X26378Y82087D02*
D03*
X19685D02*
D03*
X39469D02*
D03*
X32776D02*
D03*
X91240Y147638D02*
D03*
X97933D02*
D03*
X112424Y147627D02*
D03*
X105731D02*
D03*
X128937Y126181D02*
D03*
X135236D02*
D03*
D33*
X95177Y23031D02*
D03*
Y29724D02*
D03*
X101181Y23031D02*
D03*
Y29724D02*
D03*
X78150Y113779D02*
D03*
Y120472D02*
D03*
X71776Y113867D02*
D03*
Y120560D02*
D03*
X149409Y111811D02*
D03*
Y118504D02*
D03*
X142717Y111811D02*
D03*
Y118504D02*
D03*
X95177Y64567D02*
D03*
Y71260D02*
D03*
D34*
X179527Y23959D02*
D03*
Y64705D02*
D03*
D35*
X71850Y48277D02*
D03*
X83267D02*
D03*
X71850Y58021D02*
D03*
X83267D02*
D03*
X71752Y77509D02*
D03*
X83169D02*
D03*
X71850Y67765D02*
D03*
X83267D02*
D03*
D36*
X91240Y153937D02*
D03*
X97539D02*
D03*
X106102D02*
D03*
X112402D02*
D03*
D37*
X120669Y138386D02*
D03*
X136417D02*
D03*
D38*
X128937Y119291D02*
D03*
Y102362D02*
D03*
D39*
X76575Y32579D02*
D03*
D40*
X7283Y45079D02*
D03*
X60433D02*
D03*
D41*
X19685Y68701D02*
D03*
D42*
X48031D02*
D03*
D43*
X158878Y7579D02*
D03*
X148878D02*
D03*
X138878D02*
D03*
X49213Y85138D02*
D03*
D44*
X128878Y7579D02*
D03*
X59213Y85138D02*
D03*
D45*
X145850Y92209D02*
D03*
X72850D02*
D03*
X145850Y144209D02*
D03*
X72850D02*
D03*
Y102209D02*
D03*
X145850D02*
D03*
Y134209D02*
D03*
X72850D02*
D03*
D46*
X179527Y63721D02*
D03*
Y24350D02*
D03*
D47*
X95276Y36516D02*
D03*
Y44035D02*
D03*
D48*
Y51555D02*
D03*
D49*
X173158Y36854D02*
D03*
Y51217D02*
D03*
X177094Y39713D02*
D03*
Y48358D02*
D03*
X181961Y39713D02*
D03*
Y48358D02*
D03*
X185898Y36854D02*
D03*
Y51217D02*
D03*
X173158Y11846D02*
D03*
Y76224D02*
D03*
X177094Y8988D02*
D03*
Y79083D02*
D03*
X181961Y8988D02*
D03*
Y79083D02*
D03*
X185898Y11846D02*
D03*
Y76224D02*
D03*
X171653Y16477D02*
D03*
Y21726D02*
D03*
Y26975D02*
D03*
Y32224D02*
D03*
X187402Y16477D02*
D03*
Y21726D02*
D03*
Y26975D02*
D03*
Y32224D02*
D03*
X171653Y55847D02*
D03*
Y61096D02*
D03*
Y66345D02*
D03*
Y71595D02*
D03*
X187402Y55847D02*
D03*
Y61096D02*
D03*
Y66345D02*
D03*
Y71595D02*
D03*
M02*
