G04*
G04 #@! TF.GenerationSoftware,Altium Limited,Altium Designer,20.2.5 (213)*
G04*
G04 Layer_Color=8388736*
%FSLAX25Y25*%
%MOIN*%
G70*
G04*
G04 #@! TF.SameCoordinates,E7A29C4C-667B-4874-933E-F4189BEA85A9*
G04*
G04*
G04 #@! TF.FilePolarity,Positive*
G04*
G01*
G75*
%ADD15C,0.00787*%
G36*
X144393Y43701D02*
X142937D01*
X142934D01*
X142923D01*
X142904D01*
X142883D01*
X142857Y43697D01*
X142824D01*
X142755Y43693D01*
X142675Y43686D01*
X142595Y43675D01*
X142519Y43661D01*
X142486Y43653D01*
X142453Y43642D01*
X142446Y43639D01*
X142428Y43631D01*
X142402Y43613D01*
X142366Y43591D01*
X142329Y43566D01*
X142289Y43529D01*
X142249Y43486D01*
X142217Y43435D01*
X142213Y43428D01*
X142202Y43409D01*
X142191Y43377D01*
X142176Y43333D01*
X142158Y43282D01*
X142147Y43216D01*
X142136Y43147D01*
X142133Y43071D01*
Y43034D01*
X142136Y43013D01*
Y42980D01*
X142140Y42947D01*
X142155Y42867D01*
X142173Y42780D01*
X142202Y42696D01*
X142242Y42616D01*
X142268Y42579D01*
X142297Y42547D01*
X142300Y42543D01*
X142304Y42539D01*
X142315Y42532D01*
X142329Y42521D01*
X142351Y42510D01*
X142373Y42496D01*
X142406Y42481D01*
X142438Y42467D01*
X142479Y42452D01*
X142526Y42441D01*
X142580Y42427D01*
X142639Y42416D01*
X142704Y42405D01*
X142773Y42397D01*
X142853Y42390D01*
X142937D01*
X144393D01*
Y42055D01*
X142937D01*
X142934D01*
X142919D01*
X142901D01*
X142875D01*
X142843Y42059D01*
X142806D01*
X142762Y42063D01*
X142719Y42066D01*
X142621Y42077D01*
X142519Y42092D01*
X142420Y42114D01*
X142373Y42128D01*
X142329Y42143D01*
X142326D01*
X142318Y42146D01*
X142307Y42154D01*
X142293Y42161D01*
X142253Y42183D01*
X142202Y42215D01*
X142144Y42259D01*
X142085Y42310D01*
X142024Y42376D01*
X141969Y42456D01*
Y42459D01*
X141962Y42467D01*
X141958Y42478D01*
X141947Y42496D01*
X141936Y42518D01*
X141925Y42547D01*
X141914Y42576D01*
X141900Y42612D01*
X141885Y42652D01*
X141874Y42696D01*
X141863Y42743D01*
X141852Y42798D01*
X141845Y42853D01*
X141838Y42911D01*
X141831Y43042D01*
Y43075D01*
X141834Y43100D01*
Y43129D01*
X141838Y43165D01*
X141842Y43206D01*
X141845Y43246D01*
X141860Y43337D01*
X141882Y43435D01*
X141911Y43529D01*
X141951Y43620D01*
Y43624D01*
X141958Y43631D01*
X141965Y43642D01*
X141973Y43657D01*
X142002Y43697D01*
X142042Y43744D01*
X142093Y43799D01*
X142151Y43850D01*
X142224Y43901D01*
X142304Y43941D01*
X142307D01*
X142315Y43944D01*
X142329Y43948D01*
X142348Y43955D01*
X142369Y43963D01*
X142399Y43970D01*
X142431Y43981D01*
X142471Y43988D01*
X142515Y43995D01*
X142562Y44006D01*
X142613Y44014D01*
X142668Y44021D01*
X142730Y44028D01*
X142795Y44032D01*
X142864Y44036D01*
X142937D01*
X144393D01*
Y43701D01*
D02*
G37*
G36*
X143771Y41386D02*
X143778Y41378D01*
X143782Y41364D01*
X143793Y41346D01*
X143804Y41324D01*
X143818Y41298D01*
X143854Y41236D01*
X143895Y41164D01*
X143946Y41091D01*
X144004Y41014D01*
X144066Y40938D01*
X144069Y40934D01*
X144073Y40931D01*
X144084Y40920D01*
X144095Y40905D01*
X144131Y40872D01*
X144175Y40829D01*
X144226Y40785D01*
X144284Y40738D01*
X144342Y40698D01*
X144404Y40661D01*
Y40461D01*
X141874D01*
Y40770D01*
X143844D01*
X143840Y40774D01*
X143825Y40792D01*
X143804Y40814D01*
X143778Y40850D01*
X143745Y40890D01*
X143709Y40942D01*
X143669Y41000D01*
X143629Y41065D01*
Y41069D01*
X143625Y41072D01*
X143611Y41094D01*
X143592Y41131D01*
X143571Y41174D01*
X143545Y41225D01*
X143520Y41280D01*
X143494Y41335D01*
X143472Y41389D01*
X143771D01*
Y41386D01*
D02*
G37*
D15*
X91929Y83794D02*
X191732D01*
X91929Y4277D02*
Y83794D01*
Y4277D02*
X191732D01*
Y83794D01*
M02*
