M48
;Layer_Color=9474304
;FILE_FORMAT=2:5
INCH,LZ
;TYPE=PLATED
T1F00S00C0.01181
T2F00S00C0.01575
T3F00S00C0.03543
T4F00S00C0.03937
T5F00S00C0.04000
T6F00S00C0.13780
%
T01
X0010236Y0002362
X001811
X0025984
X0029921Y0010236
X0037795
X0041732Y0002362
X0049606
X0053543Y0025984
Y0041732
X0025984Y0033858
Y001811
X001811
X0002362
X0006299Y0010236
X0002362Y0033858
Y0049606
X0065354Y0033858
X0068244Y0010404
X0061417Y0010236
X0060433Y0007431
X005748Y0002362
X0065354
X0092914Y0010236
X0091378Y0028543
X0096851Y0033858
X0104725
X0107874Y003699
X0112599Y0033858
X0120473
X012441Y0025984
X0132284
X0131988Y0031398
X0132284Y0041732
X0136221Y0049606
X0144095
X0128347
X0120473
X0110586Y0047331
X0104238Y0043822
X0099283Y0049512
X0108661Y0025984
X0116535
Y0010236
X0120473Y0002362
X0128347
X0136221
X0144095
X0151969
X0159843
X0167717
X0175591
X0183465
X0191339
X0199213
X0207087
X0195276Y0010236
X0187402
X0179528
X0171654
X016378
X0155906
X0148032
X0140158
X0144095Y001811
X0151969
X0159843
X0167717
X0175591
X0183465
X0191339
X0199213
Y0033858
X0211024Y0041732
X0187402Y0025984
X0179528
X0171654
X016378
X0155906
X0148032
X0140158
X0167717Y0033858
X0171654Y0041732
X016378
X0167717Y0049606
X0176575Y0053051
X0112599Y0002362
X0100787Y005748
X0099823Y0071897
X0107071Y0073566
Y0069253
X0111008
X0116493Y0070458
X0127673Y0081042
X0129957Y0083212
X0136763Y0078713
X0140559Y0090698
X0136638Y0094721
X0137146Y0109465
Y0116913
X0141453Y011801
X0152111Y0115571
X014984Y012705
X0128347Y0128347
X0123186Y0135709
X0128347Y0144095
X0134941Y0149508
X0116024Y0149502
X0109235Y0149049
X0112599Y0144095
X0101591Y0144898
X0101865Y0124709
X0107442Y0125478
X0111008Y012248
X0117327Y0122031
X0116535Y0104725
X0108661
X0100847Y0105817
X009352Y0105249
X0094039Y0095925
X0104725Y0096851
X0105315Y0091267
X0112599Y0096851
X0115709Y0095472
X0120985Y0093201
X0118706Y0090161
X0123244Y0101378
X0125399Y0111204
X0096024Y0114744
X009051Y0119307
X0069171Y0116502
X0060625
X0057346Y0112436
X0057972Y0107158
X0062752Y0109507
X0076642Y0103559
X0080748Y0099197
X0072767Y0085699
X0063297
X0073228Y0065354
X0140158Y005748
X0151969Y0065354
X0156666Y0071374
X0172064Y0073475
X0187402Y0073228
X0191339Y0065354
X0207087
X0211024Y0073228
X020315
X0207087Y0081103
X0199213
X0195276Y0088977
X0187402
X0179528
X0171654
X016378
X0167717Y0096851
X0165682Y0099663
X0171654Y0104725
X0179528
X0187402
X0195276
X020315
X0211024
Y0120473
X020315
X0207087Y0128347
X0211024Y0136221
X0207087Y0144095
X0211024Y0151969
X0207087Y0159843
X0211024Y0167717
X020315
X0199213Y0175591
X0191339
X0195276Y0183465
X020315
X0199213Y0191339
X0191339
X0179528Y0199213
X0171654
X016378
X0155906
X0148032
X0151969Y0207087
X0175591
X0199213
X0207087
X0171654Y0167717
Y0151969
Y0136221
X0179528Y0120473
X0183465Y0112599
Y0096851
X0191339
X0199213
X0175591
X0158263Y0095607
Y0105413
X0151969Y0159843
Y0175591
X0155906Y0183465
X0148032
X0136221Y0191339
X0132284Y0199213
X0120473Y0191339
X0112599
X0104725
X0096851
X0088977
X0092914Y0183465
X0096851Y0175591
X008504Y0167717
X0073228Y0175591
Y0191339
X0065354
X0061417Y0183465
X005748Y0207087
X0058029Y0156595
X0062598Y0147439
X0082391Y0137079
X0115772Y0163554
X0125394Y0163189
X0108661Y0199213
X0053543
X0037795
X0033858Y0207087
Y0175591
X0041732
X0037795Y0167717
X0029921
Y0136221
X0033858Y0128347
X0025984
X0014173Y0120473
X0002362Y0128347
Y0144095
Y0159843
Y0175591
Y0191339
Y0207087
Y0112599
Y0096851
Y0081103
Y0065354
X0033858
X0029921Y0073228
X0045669
X0053543
X0041732Y0096851
X0033858
X0041732Y0144095
X0055603Y0131545
T02
X0178209Y0136539
Y0141264
Y0145988
Y0150713
Y0155437
Y0160161
X0182933Y0162524
Y0157799
Y0153075
Y014835
Y0143626
Y0138902
Y0134177
X0187657Y0131815
Y0136539
Y0141264
Y0145988
Y0150713
Y0155437
Y0160161
Y0164886
X0192382Y0162524
Y0157799
Y0153075
Y014835
Y0143626
Y0138902
Y0134177
X0197106Y0131815
Y0136539
Y0141264
Y0145988
Y0150713
Y0155437
Y0160161
Y0164886
T03
X0011909Y0011457
X002191
Y0021457
X0011909
Y0031457
X002191
Y0041457
X0011909
Y0051457
X002191
X0209124Y0050866
Y0033907
Y0023908
Y0013907
Y0060866
Y0089872
Y0099872
Y0109872
Y0178976
Y0188976
Y0198976
X0166663Y0209311
X0156663
X0146663
X0122716Y0196752
X0112716
X0102717
X0092716
X0082717
X0072716
X0062717
X0049528Y0175768
Y0165768
Y0155768
Y0145768
Y0135768
X0035787Y0135709
Y0145709
Y0155709
X002191Y0155847
Y0165847
Y0175847
Y0185846
Y0195846
Y0205847
X0011909
Y0195846
Y0185846
Y0175847
Y0165847
Y0155847
Y0145846
X002191
Y0135846
X0011909
Y0125847
X002191
Y0115847
X0011909
Y0101457
Y0091457
Y0081457
Y0071457
Y0061457
X002191
Y0071457
Y0081457
Y0091457
Y0101457
X00375Y0101279
Y009128
X0049606Y009128
Y0101279
Y0111279
X00375Y0111279
T04
X006248Y020935
X007248
X008248
X009248
X010248
X011248
X012248
X013248
T05
X0039488Y0048356
X0072807Y0123583
Y0141732
X0071969Y0182913
X0084804Y0182937
X0156787Y0178325
Y0188324
X0166787
Y0178325
X0176787
Y0188324
X0186787
Y0178325
X0039488Y0073484
Y0060226
T06
X0129478Y0015325
X0186713Y0206988
X0043504
M30
